<svg width="5" height="7" viewBox="0 0 5 7" fill="none" xmlns="http://www.w3.org/2000/svg">
<path d="M4.34012 3.27929C4.30619 3.24857 4.26863 3.22265 4.22961 3.2001L1.61103 0.846414C1.35546 0.616906 0.94127 0.616797 0.68558 0.846523C0.430012 1.07614 0.430012 1.44856 0.68558 1.67839L2.94086 3.70541L0.674189 5.74309C0.418499 5.9726 0.418499 6.34513 0.674189 6.57497C0.802034 6.68967 0.969383 6.74707 1.13673 6.74707C1.30408 6.74707 1.4718 6.68967 1.59928 6.57475L4.22961 4.21072C4.26863 4.18817 4.30607 4.16235 4.34012 4.13153C4.471 4.01389 4.53377 3.85943 4.53086 3.70541C4.53389 3.55128 4.471 3.3966 4.34012 3.27929Z" fill="black"/>
</svg>
