<svg width="100" height="33" viewBox="0 0 100 33" fill="none" xmlns="http://www.w3.org/2000/svg">
<g clip-path="url(#clip0_769_3819)">
<path d="M25.5709 31.4781H7.30113C5.91175 31.4701 4.58228 30.9112 3.60453 29.9241C2.62679 28.937 2.08064 27.6022 2.08598 26.2128V7.76766C2.08197 6.37914 2.6287 5.04567 3.60631 4.05961C4.58391 3.07355 5.91262 2.51536 7.30113 2.50741H25.5709C26.9604 2.51536 28.29 3.07419 29.2681 4.06128C30.2461 5.04838 30.7926 6.38313 30.7877 7.77268V26.2128C30.7926 27.6024 30.2461 28.9371 29.2681 29.9242C28.29 30.9113 26.9604 31.4701 25.5709 31.4781ZM7.52998 3.82205C5.41853 3.82205 3.46577 5.63616 3.46577 7.76766V26.2128C3.46221 27.2327 3.86328 28.2124 4.58101 28.937C5.29874 29.6616 6.27456 30.072 7.29445 30.0782H25.5709C26.5911 30.0725 27.5673 29.6623 28.2854 28.9376C29.0035 28.2129 29.4048 27.233 29.4012 26.2128V7.76766C29.4048 6.74747 29.0035 5.76753 28.2854 5.04286C27.5673 4.31819 26.5911 3.90798 25.5709 3.90223L7.52998 3.82205Z" fill="white"/>
<path d="M17.0579 4.97732L5.36416 12.8471C2.57204 14.7261 1.83187 18.5128 3.71092 21.305L9.25648 29.5452C11.1355 32.3373 14.9223 33.0775 17.7144 31.1984L29.4081 23.3287C32.2003 21.4496 32.9404 17.6629 31.0614 14.8708L25.5158 6.63057C23.6368 3.83846 19.85 3.09827 17.0579 4.97732Z" fill="#D32E1E"/>
<path d="M26.5814 8.22869L22.7511 2.53746C21.1274 0.125327 17.7815 -0.491073 15.3159 1.16769L2.55698 9.75382C0.091387 11.4126 -0.596842 14.7435 1.02517 17.1573L4.85552 22.8485L26.5814 8.22869Z" fill="white"/>
<path d="M26.5542 8.22369C25.4216 6.63008 24.3091 5.08658 23.2283 3.54642L22.8257 2.96845L22.6253 2.67946C22.5568 2.58425 22.485 2.49738 22.4148 2.40384C22.2733 2.22281 22.1199 2.05148 21.9554 1.891C21.8736 1.81082 21.7884 1.74067 21.6965 1.6655L21.5662 1.55357C21.5228 1.51515 21.4727 1.48675 21.4276 1.45167L21.1453 1.25623L20.8463 1.08919L20.6959 1.00567L20.5289 0.937173C20.4236 0.893741 20.3201 0.841959 20.2132 0.803538C19.9981 0.725586 19.7782 0.661428 19.555 0.611442L19.388 0.574687L19.3044 0.554642L19.2192 0.54462L18.8851 0.499515C18.7732 0.48281 18.658 0.487824 18.5511 0.481142C18.4398 0.473987 18.3282 0.473987 18.217 0.481142L17.8562 0.502859C17.7426 0.514552 17.6306 0.536266 17.5221 0.55297L17.355 0.579703C17.2982 0.591396 17.2448 0.606431 17.188 0.621465L16.8539 0.704987L16.5315 0.821911L16.3644 0.880383L16.2108 0.955555L15.9017 1.10088L15.6077 1.27795L15.4607 1.36481L15.3121 1.46337L15.0164 1.67218C14.6205 1.93945 14.2212 2.20338 13.822 2.46564C13.0252 2.9935 12.2217 3.51302 11.4199 4.03253L9.01277 5.59106C7.4058 6.62674 5.80829 7.67634 4.22024 8.73986L3.03255 9.54335L2.73521 9.74381L2.58821 9.8457L2.4479 9.95094L2.16726 10.1648L1.90834 10.4053L1.77971 10.5239L1.66278 10.6575L1.43059 10.9215L1.23181 11.1938C1.1984 11.2405 1.16332 11.2873 1.13158 11.3374L1.04304 11.4894C0.986249 11.5913 0.924442 11.6916 0.875999 11.7951L0.730671 12.1142C0.681281 12.2225 0.639421 12.3342 0.605387 12.4483C0.570307 12.5585 0.523532 12.6671 0.498475 12.7824L0.416625 13.1165L0.394908 13.2016L0.383214 13.2868L0.358158 13.4539C0.326131 13.6842 0.308278 13.9163 0.304702 14.1488C0.304702 14.2641 0.314728 14.381 0.318069 14.4962L0.328091 14.6633C0.328091 14.7201 0.344794 14.7786 0.353147 14.8303L0.40493 15.1728L0.491792 15.5069C0.506826 15.562 0.516852 15.6188 0.536898 15.6739L0.597031 15.841C0.638793 15.9479 0.672204 16.0581 0.718976 16.1634C0.813345 16.3736 0.921607 16.5773 1.04304 16.7731C1.10485 16.87 1.15997 16.9685 1.22846 17.0654L1.43226 17.3594L1.83985 17.9507L3.4652 20.3111L5.0822 22.6798L4.71303 22.608C6.50543 21.3885 8.28612 20.1641 10.0852 18.963C10.9806 18.3583 11.8843 17.762 12.788 17.164C13.6917 16.5659 14.5938 15.9679 15.5058 15.3732L18.2404 13.5875L19.6101 12.6905L20.9916 11.7985L23.7562 10.0244L26.5542 8.22369ZM26.6093 8.23538L23.9767 10.0896L21.3157 11.9505L19.9793 12.8843L18.6329 13.8164L15.9368 15.6839C15.0381 16.3087 14.131 16.9284 13.224 17.5482C12.3169 18.1679 11.4099 18.7893 10.4945 19.404C8.66866 20.6385 6.83116 21.8513 5.00536 23.069L4.78319 23.216L4.63619 22.9972L3.05093 20.6068L1.48571 18.2097L1.09149 17.61L0.896044 17.3093C0.830896 17.2074 0.770761 17.0971 0.708954 16.9902C0.584664 16.7755 0.475808 16.5522 0.383214 16.3221C0.33477 16.2068 0.303032 16.0865 0.262941 15.9713L0.204474 15.7942C0.186099 15.7357 0.17608 15.6739 0.161046 15.6138L0.0825341 15.253L0.0374286 14.8855C0.0374286 14.8253 0.0223954 14.7635 0.017384 14.7017V14.518C0.017384 14.3944 0.00903173 14.2724 0.017384 14.1488C0.0276609 13.904 0.0538872 13.6602 0.0958955 13.4188L0.125962 13.2367L0.142668 13.1465L0.166057 13.058L0.261274 12.7038C0.291342 12.5852 0.344795 12.4733 0.384886 12.3581C0.424151 12.2437 0.471028 12.1321 0.525203 12.024L0.692248 11.6899C0.752385 11.583 0.819204 11.4811 0.88101 11.3775L0.977894 11.2222C1.0113 11.1704 1.04972 11.1236 1.08647 11.0752L1.30363 10.7812L1.54919 10.5122L1.6728 10.3769L1.80811 10.255L2.07872 10.0111L2.37105 9.79392C2.46794 9.72042 2.5665 9.65026 2.66673 9.58511L2.96407 9.38633L4.1551 8.58786C5.7398 7.51877 7.31392 6.43408 8.87747 5.33381L11.2295 3.69176C12.0129 3.14385 12.7947 2.59593 13.5848 2.05638C13.9774 1.78576 14.3733 1.51682 14.7692 1.24955L15.0665 1.0491L15.2152 0.948867L15.3822 0.851988L15.7029 0.65821L16.037 0.491164L16.2041 0.410986L16.3811 0.34918L16.7353 0.223896L17.0978 0.133685C17.1596 0.120321 17.2197 0.101955 17.2798 0.0902618L17.4653 0.0635288C17.5889 0.0468243 17.7125 0.0234383 17.8361 0.0117452L18.1902 0.00172285C18.3143 -0.00662694 18.4387 -0.00662694 18.5628 0.00172285C18.688 0.0100751 18.8133 0.0017253 18.9369 0.0251116L19.3061 0.0768953L19.3997 0.0902618L19.4899 0.111968L19.6719 0.157074C19.9138 0.215401 20.1515 0.289622 20.3835 0.379247C20.5005 0.424349 20.6107 0.48114 20.7176 0.531254L20.8847 0.60977C20.9398 0.639838 20.9933 0.671577 21.0517 0.703315L21.3725 0.892077L21.6748 1.11091C21.7249 1.14933 21.7784 1.18106 21.8235 1.22282L21.9638 1.34811C22.054 1.43163 22.1509 1.51515 22.2361 1.60035C22.4089 1.77827 22.5691 1.96804 22.7155 2.1683C22.789 2.26852 22.8642 2.36709 22.9327 2.46899L23.1314 2.77634L23.529 3.38773C24.5864 5.02812 25.6071 6.6568 26.6093 8.23538Z" fill="#1B458F"/>
<path d="M24.2889 4.30982H8.67681C7.4159 4.30982 6.20649 4.81003 5.31396 5.70068C4.42143 6.59134 3.91867 7.79969 3.91602 9.06059V24.6409C3.91602 25.9036 4.4176 27.1145 5.31042 28.0073C6.20324 28.9001 7.41417 29.4017 8.67681 29.4017H24.2889C25.5512 29.4013 26.7617 28.8995 27.6542 28.0067C28.5466 27.1139 29.048 25.9033 29.048 24.6409V9.06059C29.0453 7.79998 28.5428 6.59188 27.6506 5.70127C26.7585 4.81066 25.5495 4.31026 24.2889 4.30982ZM28.6471 9.06059V24.6409C28.6427 25.794 28.1816 26.8984 27.3648 27.7124C26.548 28.5264 25.442 28.9837 24.2889 28.9841H8.67681C7.52383 28.9837 6.418 28.5264 5.60147 27.7123C4.78494 26.8983 4.32424 25.7939 4.32027 24.6409V9.06059C4.32424 7.90762 4.78494 6.8032 5.60147 5.98918C6.418 5.17515 7.52383 4.71785 8.67681 4.71741H24.2889C25.442 4.71785 26.548 5.17509 27.3648 5.98907C28.1816 6.80305 28.6427 7.90746 28.6471 9.06059Z" fill="white"/>
<path d="M23.6832 5.12668H9.1887C8.01463 5.12889 6.88938 5.59673 6.05981 6.42755C5.23025 7.25837 4.76411 8.38432 4.76367 9.55839V24.0713C4.76411 25.2452 5.2303 26.371 6.05991 27.2015C6.88953 28.0321 8.01478 28.4996 9.1887 28.5013H23.6832C24.857 28.4991 25.982 28.0315 26.8115 27.2011C27.641 26.3706 28.1074 25.2451 28.1083 24.0713V9.55839C28.1078 8.38432 27.6417 7.25837 26.8121 6.42755C25.9825 5.59673 24.8573 5.12889 23.6832 5.12668ZM27.7257 9.55839V24.0713C27.7248 25.1436 27.2988 26.1718 26.541 26.9306C25.7832 27.6893 24.7555 28.1166 23.6832 28.1188H9.1887C8.11637 28.1166 7.08867 27.6893 6.33089 26.9306C5.57311 26.1718 5.14709 25.1436 5.14621 24.0713V9.55839C5.14797 8.48665 5.57439 7.45927 6.33207 6.70127C7.08976 5.94327 8.11695 5.51643 9.1887 5.51422H23.6832C24.755 5.51643 25.7822 5.94327 26.5398 6.70127C27.2975 7.45927 27.724 8.48665 27.7257 9.55839Z" fill="white"/>
<path d="M12.8684 25.9071C21.989 18.7241 28.3885 19.1551 30.2945 13.7462C29.7934 12.7807 24.5264 5.17343 24.5264 5.17343L24.8822 5.2035C20.1148 11.9037 9.39381 11.902 5.7589 14.6182C2.5533 17.0136 2.17578 19.0282 2.17578 19.0282L9.19168 29.4601C9.19168 29.4601 11.8427 26.7189 12.8684 25.9071Z" fill="#12448D"/>
<path d="M7.18826 30.8717L6.00892 30.5576L5.87695 29.694C6.03021 29.3248 6.14496 28.9408 6.21939 28.5481C6.33028 27.9537 6.34944 27.3458 6.27619 26.7457L6.81074 26.4667L7.51567 26.3915L12.1662 21.7059L13.987 21.1513L17.3279 16.6779L18.0128 14.6733L20.166 12.9126L21.3353 8.21032L18.412 7.98815L16.7332 7.55049C16.1903 7.55049 15.619 7.52711 15.0227 7.47867C13.6937 7.37425 12.3764 7.15459 11.0854 6.82218L9.19781 7.44191C9.03912 7.25649 9.63548 6.56994 9.63548 6.56994L7.1298 6.21079L8.94056 5.57769L11.9324 6.07883L16.1536 5.98862L18.6058 6.12894L19.8804 6.14898L22.0185 5.76144L23.4267 5.78482L24.5877 5.35886C23.9277 5.47761 23.2485 5.42996 22.6116 5.22021C21.9955 5.00529 21.4278 4.67094 20.9411 4.23631L22.5096 4.25469C22.5096 4.25469 20.6087 3.64831 20.5335 3.54641L19.7584 2.48735L21.0313 2.82479L22.8087 2.60094L21.5709 1.95615C22.3175 1.99151 23.0655 1.92519 23.7942 1.75904C24.4791 1.5803 25.174 1.34977 25.6618 1.16602C26.1496 0.982268 26.9881 1.04575 27.3924 1.07749C27.8718 1.03907 27.8852 1.56192 27.967 1.86928C27.9994 2.01859 27.9769 2.17458 27.9035 2.30861L28.1508 2.95675C28.1039 3.00808 28.07 3.06992 28.052 3.13707C28.034 3.20422 28.0323 3.27471 28.0472 3.34262C28.0612 3.38935 28.0858 3.43222 28.119 3.46791L28.6519 4.13609C28.6464 4.17162 28.6327 4.20537 28.6118 4.23465C28.5166 4.36829 28.3128 4.31984 28.2777 4.40169C28.261 4.43677 28.2677 4.49691 28.3729 4.61718C28.3863 4.67714 28.3863 4.73929 28.3729 4.79925C28.3529 4.89113 28.3095 4.92622 28.2827 5.02811C28.2678 5.08247 28.2616 5.13886 28.2644 5.19516C28.2805 5.28632 28.2805 5.37962 28.2644 5.47078C28.2483 5.56805 28.2143 5.66151 28.1641 5.74641L26.8278 5.91345L26.0276 7.34169L26.3433 10.1597L23.2814 14.4311H26.6891L29.6191 14.837L30.6214 15.7491L30.1202 17.4362L26.0961 19.7749L22.4211 21.746L20.7273 23.1943L20.0591 24.0295L19.6649 23.515L19.7167 22.314C20.1354 21.9938 20.4659 21.5725 20.6772 21.0895C20.8197 20.758 20.9028 20.4041 20.9227 20.0438L21.6444 19.5009L22.67 19.9419L25.3194 17.7068L20.8091 18.1228L19.2506 19.9185L15.1413 23.0256L14.2726 23.3212L8.76015 27.2C8.52087 27.8794 8.19286 28.5243 7.78461 29.1177C7.57558 29.3654 7.41213 29.6482 7.30185 29.9529C7.20393 30.2487 7.16533 30.5609 7.18826 30.8717Z" fill="url(#paint0_radial_769_3819)"/>
<path d="M7.30799 31.022L5.90481 30.6495L5.75781 29.679L5.77118 29.6506C6.14816 28.7364 6.2828 27.7405 6.16206 26.759L6.15204 26.6822L6.77512 26.3481L7.46168 26.2746L12.1039 21.5973L13.9163 21.0494L17.2255 16.6194L17.9137 14.5948L20.0636 12.8375L21.1961 8.30555L18.3948 8.0934H18.3864L16.716 7.65908C16.148 7.65908 15.5751 7.63235 15.0104 7.58724C13.6858 7.48183 12.3726 7.26389 11.0849 6.93577L9.16888 7.56554L9.11877 7.50874C9.01353 7.38512 9.0603 7.17464 9.2691 6.86728C9.32256 6.78543 9.37935 6.70024 9.4278 6.64679L6.62812 6.24588L8.91831 5.41065L11.9452 5.96357L16.1614 5.87337L18.6153 6.01368L19.8782 6.03372L22.0163 5.64618L23.4145 5.66957L23.787 5.53259C23.3769 5.52517 22.9703 5.4559 22.5809 5.32713C21.9468 5.10412 21.3627 4.75844 20.8621 4.30982L20.6516 4.11103L21.7658 4.1244C20.5196 3.71013 20.4645 3.63663 20.4428 3.60489L19.4739 2.28523L21.0341 2.70953L22.4289 2.53412L21.0408 1.8125L21.572 1.84424C22.3068 1.87742 23.0427 1.81225 23.7603 1.65046C24.3533 1.49344 25.0482 1.27294 25.6178 1.06079C26.1373 0.86535 26.9341 0.928823 27.3618 0.962232H27.3868C27.888 0.928823 27.9748 1.38152 28.0366 1.6822C28.0483 1.73899 28.0584 1.79245 28.0717 1.83922C28.1086 1.99811 28.0904 2.16483 28.0199 2.31196L28.2755 2.98014L28.2271 3.03193C28.1933 3.06773 28.1678 3.11054 28.1525 3.15732C28.1372 3.2041 28.1325 3.25369 28.1385 3.30254C28.1482 3.33281 28.1641 3.3607 28.1853 3.38439L28.7499 4.10101V4.14946C28.7415 4.20244 28.7209 4.25276 28.6898 4.29646C28.6203 4.37994 28.5219 4.4342 28.4142 4.44847L28.3757 4.45682C28.3938 4.48738 28.4151 4.51594 28.4392 4.54201L28.4576 4.56373V4.59212C28.4751 4.66797 28.4751 4.7468 28.4576 4.82265C28.4463 4.87165 28.4283 4.91887 28.4042 4.96297C28.3878 4.99315 28.3749 5.02509 28.3657 5.05819C28.3553 5.09739 28.3508 5.13792 28.3524 5.17845C28.3699 5.27959 28.3699 5.38301 28.3524 5.48415C28.3344 5.59525 28.2953 5.70186 28.2371 5.79819L28.2087 5.84663L26.8723 6.01368L26.119 7.35004L26.4364 10.1748L23.4763 14.3025L26.6702 14.3108L29.6369 14.7218L30.711 15.7073L30.2166 17.5164L26.144 19.8801L22.469 21.8462L20.7986 23.2778L20.0469 24.2199L19.5457 23.5518L19.6009 22.2588L19.6426 22.2271C20.0463 21.9179 20.3652 21.5116 20.5697 21.0461C20.707 20.7286 20.7867 20.3892 20.8053 20.0438V19.9904L21.6221 19.3756L22.6427 19.815L24.963 17.8572L20.8554 18.2364L19.3186 20.0054L19.3085 20.0137L15.1825 23.1392L14.3105 23.4348L8.84481 27.2769C8.60171 27.9545 8.27214 28.598 7.86426 29.1912C7.84922 29.2113 7.83418 29.233 7.81748 29.253C7.63545 29.4748 7.49407 29.727 7.39987 29.998C7.31027 30.2749 7.2751 30.5665 7.2963 30.8567L7.30799 31.022ZM6.10694 30.4674L7.06578 30.723C7.06293 30.4554 7.10355 30.1891 7.18605 29.9346C7.28836 29.6401 7.44159 29.3659 7.63875 29.1244C7.65378 29.1027 7.67048 29.0826 7.68552 29.0626C8.08568 28.4777 8.408 27.8431 8.64436 27.175L8.65605 27.1399L8.68612 27.1199L14.2086 23.231L15.0756 22.9354L19.1599 19.8467L20.7418 18.0259L25.6563 17.5715L22.6795 20.0856L21.6488 19.6429L21.0291 20.1156C21.0037 20.471 20.9184 20.8194 20.7769 21.1463C20.5652 21.6309 20.2376 22.0559 19.823 22.3841L19.7763 23.49L20.0569 23.8575L20.6416 23.1258L22.3538 21.6625H22.3638L26.0388 19.693L30.0195 17.3744L30.4789 15.7992L29.5584 14.964L26.6702 14.5631L23.0503 14.5347L26.2159 10.1213L25.9001 7.30995L26.7471 5.80655L28.0834 5.6395C28.1124 5.57979 28.1327 5.51622 28.1436 5.45074C28.1569 5.37223 28.1569 5.29204 28.1436 5.21354V5.1985C28.1415 5.1321 28.1488 5.06574 28.1653 5.00139C28.1792 4.95406 28.1977 4.90819 28.2204 4.86441C28.236 4.83777 28.2478 4.80909 28.2555 4.77921C28.2614 4.74326 28.2614 4.70659 28.2555 4.67064C28.2118 4.63283 28.1798 4.58337 28.1633 4.52805C28.1467 4.47273 28.1462 4.41384 28.1619 4.35827C28.1841 4.3215 28.2148 4.29061 28.2514 4.26822C28.2881 4.24583 28.3296 4.23259 28.3724 4.22964C28.4409 4.2146 28.4877 4.20291 28.5127 4.16783V4.15781L28.0116 3.53139C27.9685 3.48329 27.9365 3.42625 27.918 3.36434C27.9004 3.28971 27.8999 3.21206 27.9164 3.13716C27.9328 3.06227 27.966 2.99205 28.0133 2.93169L27.771 2.29692L27.7928 2.25182C27.8541 2.14337 27.8742 2.01646 27.8496 1.89435C27.8345 1.84089 27.8228 1.7841 27.8111 1.7273C27.7393 1.37651 27.6742 1.16435 27.3935 1.18774H27.3835H27.3401C26.9308 1.156 26.1707 1.09587 25.693 1.27293C25.1167 1.48842 24.4151 1.71059 23.8137 1.86929C23.2331 2.00749 22.6383 2.07756 22.0414 2.07809L23.184 2.67445L21.0291 2.94005L20.0469 2.67445L20.6249 3.46123C20.7602 3.5481 21.8242 3.90724 22.5492 4.13944L23.2725 4.36996L21.268 4.3449C21.6852 4.67273 22.1537 4.92952 22.6544 5.10495C23.2738 5.3083 23.934 5.35423 24.5755 5.23859L24.6356 5.45575L23.4546 5.89007L22.0364 5.86668L19.8982 6.25423H19.8865L18.6069 6.23418L16.2499 6.76538L11.9268 6.1824L8.91998 5.64952L7.64041 6.16235L9.85878 6.47974L9.72347 6.63676C9.51634 6.87563 9.72347 6.88733 9.67336 7.02765L11.0832 6.69356H11.115C12.4001 7.0234 13.7112 7.24247 15.0338 7.34837C15.5985 7.3918 16.1714 7.41687 16.7377 7.41854H16.7511L18.4332 7.85787L21.4801 8.08838L20.2674 12.9594L18.1091 14.7218L17.4293 16.7263L17.4193 16.7413L14.055 21.2516L12.2275 21.8078L7.56858 26.5018L6.84361 26.5786L6.3976 26.8125C6.50554 27.7959 6.36719 28.7907 5.99502 29.7074L6.10694 30.4674Z" fill="white"/>
<path d="M4.71784 31.0337L3.5385 30.7214L3.4082 29.8561C3.79274 28.924 3.92969 27.9083 3.80577 26.9077L4.34031 26.6287L5.04692 26.5536L9.69745 21.8763L11.5182 21.32L14.8592 16.8482L15.5424 14.8437L17.6973 13.0847L18.8666 8.38071L15.9433 8.15854L14.2728 7.72089C13.7299 7.72089 13.1586 7.6975 12.5606 7.64906C11.2317 7.54448 9.91432 7.32482 8.62335 6.99256L6.73741 7.6123C6.57037 7.42688 7.1734 6.74033 7.1734 6.74033C6.33817 6.62006 4.76962 6.88064 4.66772 6.38118L6.3933 5.83494L9.4686 6.24754L13.6915 6.15901L16.1421 6.29766L17.4183 6.31937L19.5565 5.93015L20.9647 5.95354L22.1256 5.52758C21.4652 5.64623 20.7856 5.59917 20.1478 5.3906C19.5319 5.17439 18.9644 4.83955 18.4774 4.40503L20.0459 4.42507C20.0459 4.42507 18.1449 3.81703 18.0714 3.71513L17.2947 2.65607L18.5642 3.00186L20.3416 2.77801L19.1021 2.13322C19.8487 2.16857 20.5967 2.10226 21.3255 1.93611C22.0104 1.75737 22.8189 1.5118 23.33 1.44833L24.5444 1.54522C25.0239 1.50512 25.4114 1.73899 25.4933 2.04635C25.526 2.19529 25.5028 2.35106 25.4281 2.48401L25.6753 3.13215C25.6275 3.18208 25.5921 3.2426 25.5721 3.30879C25.5521 3.37497 25.548 3.44494 25.5601 3.51301C25.5744 3.56011 25.5989 3.60346 25.6319 3.63997L26.1648 4.30815C26.1598 4.34406 26.1467 4.37834 26.1264 4.40837C26.0295 4.54034 25.8257 4.49357 25.7923 4.57542C25.7772 4.60883 25.7923 4.67063 25.8875 4.78923C25.9009 4.84919 25.9009 4.91136 25.8875 4.97132C25.8674 5.06319 25.8257 5.09827 25.7973 5.20017C25.7824 5.25454 25.7762 5.31091 25.7789 5.36721C25.8135 5.55704 25.7779 5.75296 25.6787 5.91846L24.3423 6.08551L23.5422 7.51208L24.2555 10.5256L23.7293 11.1269L22.8473 11.3608L20.7408 14.5864H24.2103L27.142 14.9924L28.1443 15.9044L27.6532 17.5916L23.6274 19.9302L19.9524 21.9014L18.2585 23.3496L17.5903 24.1849L17.1878 23.6887L17.2396 22.4894C17.6579 22.1688 17.9884 21.7476 18.2001 21.2649C18.3433 20.9337 18.4264 20.5796 18.4456 20.2192L19.1672 19.6746L20.1929 20.1156L22.8406 17.8756L18.3304 18.2915L16.7718 20.0872L12.6642 23.1943L11.7939 23.49L6.28138 27.3688C6.04279 28.0485 5.71472 28.6934 5.30584 29.2864C5.09728 29.5342 4.93439 29.817 4.82474 30.1217C4.72982 30.4158 4.69351 30.7256 4.71784 31.0337Z" fill="url(#paint1_linear_769_3819)"/>
<path d="M4.8412 31.1841L3.43802 30.8116L3.29102 29.8427L3.30271 29.8126C3.45281 29.4505 3.56478 29.0737 3.6368 28.6884C3.74676 28.1063 3.76592 27.5107 3.6936 26.9227L3.68357 26.8442L4.30665 26.5102L4.99488 26.4367L9.63706 21.7594L11.4495 21.2165L14.757 16.7881L15.4452 14.7619L17.5951 13.0045L18.726 8.46926L15.9263 8.25543H15.9163L14.2458 7.82112C13.6796 7.82112 13.1049 7.79439 12.5403 7.74929C11.2157 7.64374 9.90245 7.42579 8.61475 7.09781L6.68872 7.72925L6.6386 7.67245C6.53337 7.5505 6.58014 7.33836 6.78894 7.031C6.84073 6.95249 6.89418 6.87898 6.94262 6.81718C6.70709 6.80214 6.43147 6.80381 6.1642 6.80548C5.37574 6.80548 4.63072 6.81551 4.54553 6.38954L4.52548 6.29099L6.373 5.70633H6.39806L9.46501 6.11726L13.6829 6.02873L16.1368 6.16737L17.398 6.18909L19.5362 5.79988L20.9343 5.82326L21.3068 5.68629C20.8973 5.67885 20.4913 5.60958 20.1025 5.48081C19.4734 5.26136 18.8934 4.92087 18.3952 4.47854L18.1898 4.27308L19.3023 4.28645C18.0561 3.87384 18.0027 3.79867 17.9793 3.76693L17.0104 2.44728L18.5707 2.87157L19.9655 2.70452L18.579 1.98289L19.1085 2.01462C19.8433 2.04785 20.5793 1.98269 21.2968 1.82086L21.798 1.68555C22.2995 1.53494 22.81 1.41611 23.3264 1.32974H23.3381L24.5542 1.42663C25.067 1.38821 25.5114 1.63376 25.6116 2.01295C25.6492 2.17164 25.6315 2.33841 25.5615 2.48569L25.8171 3.15387L25.7686 3.20566C25.7342 3.24105 25.7084 3.28382 25.6931 3.33072C25.6777 3.37762 25.6733 3.4274 25.6801 3.47627C25.6887 3.50699 25.7048 3.5351 25.7269 3.55812L26.2915 4.27308V4.32152C26.284 4.37449 26.264 4.42491 26.233 4.46852C26.1639 4.5533 26.0644 4.60783 25.9557 4.62054L25.919 4.62889C25.9365 4.65938 25.9572 4.68793 25.9808 4.71408L26.0008 4.7358V4.76419C26.0174 4.84014 26.0174 4.91877 26.0008 4.99472C25.9892 5.04415 25.9712 5.09187 25.9474 5.1367C25.9311 5.16656 25.9177 5.19788 25.9073 5.23025C25.897 5.26947 25.8925 5.31 25.8939 5.35052C25.9305 5.56424 25.8896 5.78399 25.7787 5.97026L25.7503 6.01871L24.4139 6.18575L23.6639 7.52211L24.3721 10.5506L23.7841 11.2188L22.9122 11.4627L20.9427 14.4695H24.2118L27.1785 14.8788L28.2543 15.8644L27.7297 17.6618L23.6756 20.0472L20.0006 22.0133L18.3301 23.4449L17.5801 24.3903L17.0789 23.7222L17.1324 22.4276L17.1758 22.3958C17.518 22.1383 17.7999 21.8092 18.0018 21.4316C18.2038 21.0539 18.3209 20.6368 18.3451 20.2092V20.1558L19.162 19.5427L20.1826 19.9803L22.5029 18.0226L18.3969 18.4018L16.8534 20.1758H16.8451L12.7224 23.2945L11.8421 23.5969L6.37634 27.4389C6.13302 28.1162 5.80406 28.7595 5.39746 29.3533L5.34901 29.4167C5.16724 29.6387 5.02589 29.8909 4.9314 30.1618C4.84225 30.4387 4.80764 30.7303 4.8295 31.0204L4.8412 31.1841ZM3.63847 30.6295L4.59898 30.8851C4.59488 30.6175 4.63495 30.3511 4.71758 30.0966C4.81989 29.8021 4.97312 29.5279 5.17028 29.2864L5.21705 29.2246C5.61726 28.6403 5.93959 28.0063 6.17589 27.3387L6.18758 27.3036L6.21765 27.2819L11.7402 23.3881L12.6071 23.0924L16.6864 20.0088L18.2683 18.188L23.1844 17.7336L20.211 20.2476L19.182 19.8049L18.5539 20.2777C18.529 20.6334 18.4443 20.9824 18.3034 21.31C18.0936 21.7957 17.7678 22.2225 17.3546 22.5528L17.3078 23.6587L17.5901 24.0262L18.1747 23.2945L19.8853 21.8312H19.897L23.572 19.8601L27.5443 17.5281L28.0037 15.9529L27.0833 15.1177L24.2034 14.7117H20.5284L22.7735 11.2756L23.6639 11.0267L24.1299 10.4955L23.4283 7.4887L24.2769 5.97193L25.6133 5.80488C25.6428 5.74525 25.6636 5.68168 25.6751 5.61612C25.6885 5.53762 25.6885 5.45742 25.6751 5.37892V5.36388C25.6714 5.29743 25.6787 5.23082 25.6968 5.16677C25.7092 5.11894 25.7278 5.0729 25.7519 5.02979C25.7669 5.00306 25.7782 4.9744 25.7853 4.94461C25.7921 4.90873 25.7921 4.8719 25.7853 4.83602C25.7421 4.7979 25.7106 4.74836 25.6943 4.69309C25.6781 4.63782 25.6778 4.57908 25.6935 4.52365C25.7155 4.48722 25.7459 4.45665 25.7823 4.43455C25.8186 4.41244 25.8598 4.39945 25.9023 4.39669C25.9708 4.37999 26.0192 4.36829 26.0426 4.33321V4.32319L25.5415 3.69677C25.4986 3.64849 25.4667 3.5915 25.4479 3.52973C25.4304 3.45508 25.4299 3.37746 25.4464 3.30259C25.4629 3.22771 25.4959 3.1575 25.5431 3.09708L25.3009 2.4623L25.3243 2.41721C25.3849 2.3085 25.4045 2.18164 25.3794 2.05973C25.3076 1.78745 24.9518 1.60871 24.5442 1.64044H24.5342H24.4807L23.3214 1.55024C22.8203 1.63528 22.3249 1.75132 21.8381 1.89769C21.671 1.94279 21.504 1.99124 21.3369 2.033C20.757 2.17216 20.1626 2.24225 19.5662 2.2418L20.6988 2.83148L18.5389 3.10376L17.5784 2.8415L18.1564 3.62829C18.2917 3.71515 19.3574 4.0743 20.0824 4.30649L20.804 4.53701L18.7995 4.51195C19.2169 4.83953 19.6853 5.0963 20.186 5.27201C20.8059 5.47536 21.4666 5.52128 22.1087 5.40564L22.1671 5.62281L20.9861 6.05712L19.5679 6.03373L17.4297 6.42128H17.4197L16.1385 6.40124L13.6796 6.25591L9.45332 6.34611H9.44497L6.39472 5.93852L4.8295 6.43965C5.02996 6.59333 5.67475 6.58832 6.16586 6.58498C6.50485 6.5742 6.84418 6.58649 7.1815 6.62174L7.38697 6.65013L7.24999 6.80715C7.07498 6.99925 6.93174 7.21805 6.82569 7.45529L8.6114 6.86896L8.64314 6.87731C9.92975 7.20315 11.242 7.41776 12.5654 7.51877C13.1283 7.56387 13.7013 7.58726 14.2676 7.58893H14.2826L15.9631 8.02826L19.0116 8.25878L17.7972 13.1298L15.639 14.8922L14.9608 16.8967L14.9491 16.9101L11.5865 21.4203L9.74898 21.9782L5.09845 26.6622L4.37347 26.739L3.92746 26.9729C3.99227 27.5593 3.96975 28.1521 3.86064 28.7319C3.78683 29.1211 3.67493 29.5021 3.52655 29.8694L3.63847 30.6295Z" fill="white"/>
<path d="M4.90149 31.2576L3.38806 30.855L3.23438 29.8344L3.25108 29.7926C3.6261 28.8879 3.75965 27.9013 3.63863 26.9295L3.62526 26.8125L4.29344 26.4634L4.96162 26.3916L9.60047 21.7143L11.4096 21.1647L14.7004 16.7564L15.3919 14.7235L17.5401 12.9695L18.656 8.52107L15.9031 8.30892L14.246 7.87628C13.6797 7.87628 13.1068 7.84955 12.5438 7.80445C11.2209 7.69959 9.90928 7.4822 8.62325 7.15464L6.67718 7.79443L6.60368 7.70924C6.43664 7.5188 6.60368 7.2081 6.75068 7.00096C6.77907 6.95753 6.80915 6.91242 6.84255 6.86732C6.63375 6.8573 6.39988 6.85897 6.17437 6.86732C5.36086 6.86732 4.5958 6.87734 4.50392 6.40795L4.47385 6.25928L6.37984 5.65624H6.41659L9.48354 6.06718L13.6931 5.97865L16.1503 6.11729L17.4115 6.13733L19.5263 5.74645L20.9261 5.76984L21.0347 5.72974C20.7116 5.70131 20.3927 5.63631 20.0842 5.53597C19.4472 5.31061 18.8604 4.96274 18.357 4.51199L18.0429 4.21631L18.9467 4.22633C18.0079 3.90561 17.9594 3.84046 17.9293 3.80037L16.8686 2.35209L18.5708 2.81647L19.7785 2.66279L18.3186 1.90441L19.107 1.95118C19.8362 1.98286 20.5663 1.91827 21.2786 1.75908L21.7697 1.62711C22.2757 1.47308 22.7914 1.35255 23.3132 1.2663H23.3232L24.5527 1.36319C25.0822 1.32309 25.555 1.58702 25.6585 1.99127C25.6978 2.15423 25.6825 2.32557 25.6151 2.47905L25.874 3.15892L25.8022 3.23576C25.7743 3.26446 25.7529 3.2989 25.7396 3.33669C25.7264 3.37449 25.7215 3.41472 25.7254 3.45459C25.7327 3.47687 25.7446 3.49737 25.7604 3.51473L26.3468 4.25807L26.3351 4.3299C26.3255 4.39013 26.302 4.44731 26.2666 4.49695C26.2011 4.58365 26.1059 4.64313 25.9993 4.66399L26.011 4.67736L26.0394 4.7091L26.0494 4.75253C26.0832 4.89103 26.0635 5.03718 25.9943 5.16179C25.9803 5.18861 25.9686 5.21655 25.9592 5.24532C25.9511 5.27923 25.9472 5.31401 25.9475 5.34888C25.9834 5.57327 25.9397 5.80315 25.8239 5.99869L25.7822 6.07052L24.4458 6.23757L23.7191 7.53384L24.4291 10.5707L23.8127 11.274L22.9441 11.5162L21.0414 14.4295H24.2153L27.2104 14.8437L28.3229 15.8627L27.79 17.7086L27.7717 17.7203L23.7024 20.094L20.0391 22.0517L18.3687 23.4817L17.5802 24.4706L17.0173 23.7356L17.0741 22.3992L17.1376 22.3507C17.4709 22.0984 17.7455 21.7767 17.9422 21.4078C18.1389 21.0389 18.2531 20.6316 18.2768 20.2142V20.1357L19.1388 19.4859L20.1594 19.9253L22.3176 18.1028L18.4088 18.4636L16.8686 20.2309L12.7393 23.3547L11.8673 23.652L6.4216 27.4941C6.17711 28.1687 5.8482 28.8097 5.44271 29.4017L5.39594 29.4652C5.21774 29.682 5.07919 29.9286 4.98668 30.1935C4.89915 30.4627 4.8651 30.7465 4.88645 31.0288L4.90149 31.2576ZM3.48995 30.7665L4.78456 31.1106V31.0304C4.76213 30.7329 4.79788 30.4339 4.88979 30.1501C4.98528 29.8733 5.12954 29.6159 5.31576 29.39L5.36253 29.3266C5.76491 28.7375 6.08996 28.0992 6.32972 27.4273V27.4106L6.34476 27.4005L11.8188 23.5552L12.6891 23.2595L16.8101 20.1424L18.357 18.3517L22.6617 17.9558L20.1811 20.0472L19.1588 19.6079L18.3887 20.1875V20.2142C18.369 20.5677 18.287 20.9149 18.1465 21.2399C17.9397 21.7139 17.6154 22.1272 17.2044 22.441L17.1827 22.4577L17.1292 23.7055L17.5819 24.2952L18.2902 23.4098L19.9823 21.9632L23.6573 19.9971L27.7032 17.6401L28.2043 15.8961L27.167 14.9473L24.2186 14.5347H20.8476L22.8839 11.416L23.7609 11.1721L24.3188 10.534L23.6106 7.5188L24.3857 6.13566L25.722 5.96862L25.737 5.94524C25.7906 5.85393 25.8273 5.7538 25.8456 5.64956C25.8622 5.55451 25.8622 5.4573 25.8456 5.36225C25.8432 5.31322 25.8488 5.26411 25.8623 5.21691C25.8724 5.18097 25.8864 5.14624 25.9041 5.11334C25.9261 5.0729 25.9424 5.02962 25.9525 4.98473C25.9684 4.91659 25.9684 4.84573 25.9525 4.77759V4.76423L25.9425 4.75253C25.916 4.72358 25.893 4.69162 25.874 4.65731L25.8389 4.59551L25.9074 4.57714H25.9442C26.0402 4.56693 26.1287 4.52029 26.1914 4.44684C26.2173 4.41013 26.2339 4.36773 26.2399 4.32322V4.29816L25.6903 3.60159C25.6619 3.57136 25.6412 3.53466 25.6301 3.49468C25.6209 3.43646 25.6253 3.37689 25.643 3.32066C25.6606 3.26442 25.6911 3.21305 25.732 3.17061L25.7554 3.14388L25.5049 2.48573L25.5149 2.46568C25.5784 2.32957 25.5949 2.17619 25.5616 2.02969C25.4681 1.67556 25.0488 1.4467 24.5594 1.48345L23.3349 1.38656C22.8213 1.47257 22.3136 1.59084 21.8148 1.7407L21.3137 1.87601C20.5908 2.03977 19.8491 2.10551 19.1087 2.07146L18.8381 2.05475L20.1527 2.73797L18.5708 2.93842L17.1526 2.55255L18.0279 3.74524C18.058 3.787 18.3085 3.91229 19.3242 4.24638L19.6583 4.35831L18.3303 4.3416L18.4372 4.4435C18.9289 4.88429 19.502 5.22475 20.1243 5.44577C20.5086 5.57153 20.9094 5.63964 21.3137 5.64789H21.606L20.9495 5.89011L19.5413 5.86505L17.4132 6.25259L16.1403 6.23255L13.6847 6.0939L9.47185 6.18244L6.38318 5.76984L4.59579 6.33445L4.60582 6.38623C4.68099 6.76542 5.40429 6.76209 6.16769 6.75707C6.43663 6.75707 6.71225 6.75708 6.95113 6.76877H7.05471L6.99791 6.85062C6.94111 6.92245 6.89099 6.99428 6.84756 7.05943C6.65713 7.34674 6.60702 7.53551 6.69388 7.63574L6.71894 7.66413L8.62492 7.03771H8.63996C9.92327 7.36443 11.2321 7.58126 12.5522 7.68585C13.1151 7.73095 13.6881 7.75433 14.2527 7.75767H14.266L15.9365 8.192L18.803 8.40916L17.6454 13.0313L15.4938 14.7886L14.8023 16.8149L11.4831 21.26L9.67063 21.8179L5.0251 26.4951L4.32852 26.5686L3.74887 26.8727V26.9128C3.822 27.5068 3.80285 28.1086 3.69208 28.6968C3.619 29.0851 3.50707 29.4651 3.35799 29.831V29.8461L3.48995 30.7665ZM4.65927 30.9569L3.59519 30.6746L3.47158 29.8628V29.8494C3.62097 29.4853 3.73291 29.107 3.80567 28.7202C3.91394 28.1465 3.93646 27.5599 3.87249 26.9796V26.9412L4.37363 26.6839L5.07856 26.6087L9.73244 21.9198L11.5582 21.3635L14.9108 16.8733L15.5924 14.8688L17.7489 13.1065L18.9416 8.31728L15.9599 8.09177L14.2677 7.65411C13.7014 7.65411 13.1268 7.62738 12.5605 7.58228C11.235 7.47737 9.92108 7.25829 8.63328 6.92746H8.61657L6.74233 7.54219L6.77574 7.43862C6.88467 7.19416 7.03185 6.96861 7.21173 6.77044L7.28188 6.69025L7.17665 6.67522C6.84378 6.64013 6.50891 6.62784 6.17437 6.63847C5.66154 6.63847 5.02176 6.63847 4.80627 6.48145L4.72108 6.41797L6.39989 5.88677H6.41157L9.4635 6.29436L13.6897 6.20583L16.1403 6.34614L17.4299 6.36618L19.5564 5.97865L20.9763 6.00203L22.0988 5.58943L22.0654 5.46915C21.4305 5.57493 20.7795 5.52564 20.1678 5.3255C19.6611 5.14615 19.1867 4.88611 18.7629 4.55542L18.6343 4.45519L20.44 4.4769L20.0709 4.35998C19.4027 4.14449 18.2801 3.76863 18.1315 3.67509L18.1164 3.66172L17.4483 2.74632L18.5675 3.05201L20.5403 2.80144L19.371 2.1934H19.5915C20.1839 2.19391 20.7743 2.12438 21.3504 1.98626L21.8516 1.85263C22.3449 1.70449 22.847 1.58732 23.355 1.50183L24.5727 1.59871C24.9987 1.56196 25.3812 1.76576 25.4598 2.05809C25.4888 2.19297 25.4674 2.3338 25.3996 2.45399L25.3879 2.47737L25.6318 3.11716L25.6151 3.14221C25.5728 3.19569 25.5431 3.25797 25.5281 3.32446C25.513 3.39095 25.5131 3.45995 25.5282 3.52641C25.5441 3.58044 25.5721 3.63014 25.6101 3.67174L26.1296 4.3299L26.1012 4.37835C26.0571 4.42502 25.9979 4.4546 25.9342 4.46187C25.8657 4.47691 25.7938 4.49362 25.7671 4.55876C25.7404 4.62391 25.7671 4.70743 25.8506 4.81266L25.8607 4.82436V4.8394C25.8683 4.88194 25.8683 4.92548 25.8607 4.96802C25.853 5.00264 25.84 5.03589 25.8222 5.06658C25.8007 5.10681 25.7839 5.14942 25.7721 5.19353C25.7554 5.25212 25.7486 5.3131 25.7521 5.37393V5.38396C25.7663 5.46744 25.7663 5.55272 25.7521 5.6362C25.7408 5.70703 25.7188 5.77575 25.6869 5.84L25.6736 5.86839L24.3372 6.03544L23.512 7.50878L24.2153 10.5156L23.7141 11.0802L22.8288 11.3274L20.6572 14.6683L24.2253 14.6767L27.1386 15.0793L28.0974 15.9546L27.6213 17.585L27.6029 17.5966L23.6189 19.9152L19.9105 21.8713L18.2033 23.3296L17.5819 24.1097L17.2478 23.6704L17.2963 22.5178L17.3163 22.5028C17.7235 22.1802 18.0453 21.7626 18.2534 21.2867C18.3923 20.9656 18.4759 20.6233 18.5006 20.2744V20.2493L19.1688 19.7482L20.1962 20.1892L23.0142 17.8121L18.2952 18.2481L16.7249 20.0472L12.634 23.1426L11.7654 23.4382L6.23451 27.332V27.3504C5.99725 28.0241 5.67264 28.6638 5.26899 29.2531L5.22221 29.3132C5.02868 29.5508 4.8783 29.8205 4.77787 30.11C4.69637 30.3584 4.65685 30.6187 4.66094 30.8801L4.65927 30.9569ZM3.69375 30.5861L4.54902 30.8133C4.55273 30.5641 4.59384 30.3169 4.67097 30.0799C4.77422 29.7791 4.93035 29.4991 5.13201 29.2531L5.17711 29.1913C5.57546 28.6125 5.89509 27.9834 6.1276 27.3203L6.14597 27.2686L6.19108 27.2368L11.7203 23.343L12.5872 23.049L16.6598 19.9687L18.2517 18.1312L23.3683 17.6635L20.2296 20.3111L19.1922 19.8685L18.6109 20.3061C18.5831 20.6596 18.4973 21.0061 18.357 21.3318C18.1444 21.8158 17.8184 22.2415 17.4065 22.5729L17.3614 23.6353L17.5869 23.9293L18.1281 23.2612L19.8604 21.7694L23.5354 19.7983L27.4977 17.4914L27.9404 15.9713L27.06 15.1645L24.2036 14.7652H20.4367L22.7486 11.2255L23.644 10.9766L24.08 10.4755L23.3683 7.47537L24.242 5.91683L25.5784 5.74979C25.5988 5.70277 25.6134 5.6534 25.6218 5.6028C25.6352 5.53103 25.6352 5.4574 25.6218 5.38563V5.36726C25.6176 5.29408 25.6255 5.22071 25.6452 5.1501C25.6601 5.1021 25.6809 5.0561 25.707 5.01312C25.7197 4.98999 25.7292 4.96527 25.7354 4.93962C25.7396 4.9153 25.7396 4.89044 25.7354 4.86612C25.6888 4.82034 25.6558 4.76251 25.6402 4.6991C25.6246 4.63568 25.6269 4.56916 25.6468 4.50697C25.6713 4.46109 25.7066 4.42188 25.7497 4.39277C25.7928 4.36365 25.8424 4.34551 25.8941 4.33992C25.9226 4.33469 25.9505 4.32687 25.9776 4.31655L25.5149 3.73021C25.4677 3.67576 25.4324 3.61203 25.4113 3.54312C25.3921 3.46561 25.3899 3.38486 25.4049 3.30642C25.4199 3.22799 25.4517 3.15373 25.4982 3.08876L25.2576 2.45733L25.291 2.39051C25.3466 2.29462 25.365 2.1817 25.3428 2.07313C25.2777 1.8259 24.9469 1.66386 24.5711 1.69393H24.5544L23.3466 1.59871C22.85 1.68391 22.3591 1.79939 21.8766 1.9445L21.3755 2.07981C20.8616 2.20509 20.3357 2.27454 19.8069 2.28694L20.9044 2.85657L18.5574 3.15391L17.7222 2.92673L18.2 3.57654C18.3486 3.66006 19.2924 3.98413 20.1043 4.24472L21.1784 4.58883L18.9667 4.56043C19.3443 4.83739 19.7609 5.05693 20.2028 5.21191C20.8137 5.41195 21.4647 5.45673 22.0971 5.3422H22.1472L22.2324 5.65791L20.9946 6.11395L19.5664 6.08889L17.4165 6.47644L16.137 6.4564L13.6797 6.31107L9.45347 6.40127H9.44011L6.40155 5.99368L4.98 6.4447C5.24226 6.52989 5.76678 6.52488 6.16602 6.52321C6.50723 6.51163 6.84884 6.52392 7.18834 6.55996L7.4957 6.6034L7.29358 6.83725C7.15225 6.99631 7.029 7.17055 6.92608 7.35677L8.60822 6.80384L8.65666 6.81554C9.93847 7.14498 11.2463 7.36351 12.5655 7.46869C13.1285 7.51212 13.6998 7.53718 14.2644 7.53885H14.2928L15.9749 7.97818L19.077 8.21204L17.8425 13.1649L15.6843 14.9289L14.991 16.9335L11.6167 21.4437L9.77921 22.0033L5.11531 26.6989L4.38198 26.7791L3.99109 27.0046C4.09259 27.9805 3.9538 28.9663 3.58684 29.8762L3.69375 30.5861Z" fill="white"/>
<path d="M40.864 16.8064V18.8411H40.3962V17.1907H39.4775V18.8411H39.0098V16.8064H40.864Z" fill="white"/>
<path d="M41.7676 18.7392C41.6024 18.6537 41.4646 18.5235 41.37 18.3633C41.2748 18.1998 41.2246 18.0139 41.2246 17.8246C41.2246 17.6354 41.2748 17.4495 41.37 17.2859C41.4649 17.1256 41.6025 16.9948 41.7676 16.9084C41.9442 16.8183 42.1397 16.7714 42.338 16.7714C42.5363 16.7714 42.7318 16.8183 42.9085 16.9084C43.0727 16.996 43.2101 17.1264 43.306 17.2859C43.3792 17.4064 43.4271 17.5406 43.4467 17.6803C43.4663 17.8199 43.4572 17.9621 43.42 18.0981C43.3828 18.2341 43.3182 18.3611 43.2303 18.4714C43.1423 18.5816 43.0328 18.6727 42.9085 18.7392C42.7318 18.8293 42.5363 18.8762 42.338 18.8762C42.1397 18.8762 41.9442 18.8293 41.7676 18.7392ZM42.6646 18.3918C42.7603 18.3375 42.839 18.2577 42.8918 18.1612C42.9479 18.0589 42.9767 17.9438 42.9753 17.8271C42.9762 17.7105 42.9475 17.5955 42.8918 17.4931C42.839 17.3966 42.7603 17.3167 42.6646 17.2625C42.5644 17.2089 42.4525 17.1808 42.3389 17.1808C42.2252 17.1808 42.1133 17.2089 42.0131 17.2625C41.9169 17.3166 41.8377 17.3965 41.7843 17.4931C41.7291 17.5957 41.7009 17.7106 41.7024 17.8271C41.7005 17.9437 41.7287 18.0588 41.7843 18.1612C41.8377 18.2578 41.9169 18.3376 42.0131 18.3918C42.1129 18.4466 42.225 18.4753 42.3389 18.4753C42.4527 18.4753 42.5648 18.4466 42.6646 18.3918Z" fill="white"/>
<path d="M46.4501 16.8064V18.8411H45.984V17.1907H45.2874L45.2724 17.6149C45.268 17.8503 45.2445 18.085 45.2023 18.3165C45.1785 18.4679 45.1151 18.6102 45.0185 18.7291C44.9723 18.7782 44.9159 18.8165 44.8533 18.8413C44.7906 18.8662 44.7233 18.8769 44.656 18.8728C44.5777 18.8712 44.4997 18.8606 44.4238 18.8411L44.4522 18.4435C44.4798 18.4519 44.5086 18.4559 44.5374 18.4552C44.5935 18.4539 44.6474 18.4335 44.6903 18.3973C44.7331 18.3612 44.7623 18.3114 44.773 18.2564C44.827 18.0525 44.855 17.8426 44.8565 17.6316L44.8865 16.8064H46.4501Z" fill="white"/>
<path d="M48.5342 18.4635V18.8411H46.959V16.8064H48.4975V17.1856H47.4217V17.6266H48.3672V17.9925H47.4217V18.4635H48.5342Z" fill="white"/>
<path d="M50.471 17.1907H49.8195V18.8411H49.3552V17.1907H48.707V16.8064H50.471V17.1907Z" fill="white"/>
<path d="M52.6329 16.8064V18.8411H52.1635V18.0058H51.2381V18.8411H50.7637V16.8064H51.2347V17.6099H52.1602V16.8064H52.6329Z" fill="white"/>
<path d="M53.1414 16.8064H53.6025V18.1328L54.573 16.8064H55.0157V18.8411H54.5496V17.5197L53.5791 18.8411H53.1348L53.1414 16.8064Z" fill="white"/>
<path d="M57.3804 18.8411V17.6233L56.7824 18.6256H56.5719L55.9739 17.645V18.8394H55.5312V16.8064H55.9221L56.6822 18.071L57.4322 16.8064H57.8214V18.8411H57.3804Z" fill="white"/>
<path d="M60.8462 17.9608C60.9134 18.0495 60.9482 18.1585 60.9447 18.2698C60.9474 18.3514 60.93 18.4324 60.8942 18.5058C60.8584 18.5791 60.8052 18.6426 60.7393 18.6908C60.5651 18.8012 60.3605 18.8538 60.1546 18.8411H59.1523V16.8065H60.0995C60.2934 16.7957 60.486 16.8434 60.6524 16.9435C60.716 16.9859 60.7675 17.044 60.802 17.1122C60.8365 17.1804 60.8529 17.2563 60.8495 17.3327C60.8518 17.4268 60.8256 17.5193 60.7743 17.5983C60.7223 17.6779 60.6488 17.741 60.5622 17.7804C60.6732 17.8097 60.7724 17.8728 60.8462 17.9608ZM59.6184 17.6501H60.0577C60.1398 17.6555 60.2214 17.6338 60.2899 17.5883C60.315 17.5645 60.3351 17.5359 60.3487 17.5042C60.3624 17.4724 60.3695 17.4382 60.3695 17.4037C60.3695 17.3691 60.3624 17.3349 60.3487 17.3032C60.3351 17.2714 60.315 17.2428 60.2899 17.2191C60.2224 17.1726 60.1412 17.1502 60.0594 17.1556H59.6184V17.6501ZM60.467 18.2314C60.467 18.0643 60.3567 17.9791 60.1329 17.9791H59.6184V18.492H60.1362C60.3567 18.492 60.467 18.4051 60.467 18.2314Z" fill="white"/>
<path d="M61.3164 16.8064H61.7891V18.1328L62.7597 16.8064H63.2007V18.8411H62.7363V17.5197L61.7658 18.8411H61.3214L61.3164 16.8064Z" fill="white"/>
<path d="M65.7871 18.4585V19.2637H65.3511V18.8411H63.9145V19.2637H63.4785V18.4585H63.5587C63.6823 18.4585 63.7675 18.365 63.8176 18.1913C63.8773 17.9462 63.9087 17.6951 63.9112 17.4429L63.9346 16.8064H65.4981V18.4585H65.7871ZM64.2686 18.096C64.2515 18.2266 64.2027 18.351 64.1267 18.4585H65.0371V17.1907H64.3388V17.4863C64.3304 17.691 64.307 17.8948 64.2686 18.096Z" fill="white"/>
<path d="M67.4956 18.4051H66.5518L66.3714 18.8411H65.8887L66.7991 16.8064H67.2635L68.1739 18.8411H67.6727L67.4956 18.4051ZM67.3486 18.0476L67.0246 17.2692L66.7022 18.0426L67.3486 18.0476Z" fill="white"/>
<path d="M70.2928 18.8411V17.6233L69.6948 18.6256H69.486L68.8863 17.645V18.8394H68.4453V16.8064H68.8345L69.5963 18.071L70.3463 16.8064H70.7355V18.8411H70.2928Z" fill="white"/>
<path d="M72.4634 18.7409C72.2999 18.6545 72.163 18.5252 72.0675 18.3667C71.9734 18.2016 71.9238 18.0148 71.9238 17.8247C71.9238 17.6346 71.9734 17.4477 72.0675 17.2826C72.1629 17.1237 72.2998 16.9938 72.4634 16.9067C72.6373 16.8149 72.8315 16.7684 73.0281 16.7714C73.1926 16.7694 73.3558 16.8012 73.5075 16.865C73.6459 16.9249 73.7683 17.0164 73.8649 17.1323L73.5626 17.4112C73.5007 17.3357 73.4227 17.2752 73.3341 17.2342C73.2456 17.1931 73.149 17.1725 73.0514 17.174C72.9349 17.1725 72.82 17.2007 72.7173 17.2559C72.6203 17.3094 72.5404 17.3894 72.4868 17.4864C72.4316 17.589 72.4035 17.704 72.405 17.8205C72.4031 17.937 72.4313 18.0521 72.4868 18.1546C72.5404 18.2516 72.6203 18.3315 72.7173 18.3851C72.8195 18.4416 72.9347 18.4704 73.0514 18.4686C73.1493 18.4699 73.2462 18.449 73.3348 18.4073C73.4233 18.3656 73.5012 18.3043 73.5626 18.2281L73.8649 18.507C73.7686 18.6243 73.6454 18.7165 73.5058 18.776C73.3392 18.8442 73.1599 18.8758 72.9801 18.8686C72.8002 18.8614 72.624 18.8156 72.4634 18.7342V18.7409Z" fill="white"/>
<path d="M76.0261 16.8064V18.8411H75.5583V17.1907H74.6396V18.8411H74.1719V16.8064H76.0261Z" fill="white"/>
<path d="M76.9334 18.7392C76.768 18.6535 76.6298 18.5233 76.5342 18.3633C76.4401 18.1994 76.3906 18.0137 76.3906 17.8246C76.3906 17.6356 76.4401 17.4499 76.5342 17.2859C76.6303 17.126 76.7684 16.9954 76.9334 16.9084C77.1101 16.8183 77.3056 16.7714 77.5039 16.7714C77.7022 16.7714 77.8977 16.8183 78.0744 16.9084C78.2386 16.996 78.376 17.1264 78.4719 17.2859C78.5451 17.4064 78.593 17.5406 78.6126 17.6803C78.6322 17.8199 78.6231 17.9621 78.5859 18.0981C78.5487 18.2341 78.4841 18.3611 78.3962 18.4714C78.3082 18.5816 78.1987 18.6727 78.0744 18.7392C77.8977 18.8293 77.7022 18.8762 77.5039 18.8762C77.3056 18.8762 77.1101 18.8293 76.9334 18.7392ZM77.8305 18.3918C77.9262 18.3375 78.0048 18.2577 78.0577 18.1612C78.1138 18.0589 78.1426 17.9438 78.1412 17.8271C78.1421 17.7105 78.1134 17.5955 78.0577 17.4931C78.0048 17.3966 77.9262 17.3167 77.8305 17.2625C77.7303 17.2089 77.6184 17.1808 77.5047 17.1808C77.3911 17.1808 77.2792 17.2089 77.179 17.2625C77.0828 17.3166 77.0036 17.3965 76.9502 17.4931C76.895 17.5957 76.8668 17.7106 76.8683 17.8271C76.8664 17.9437 76.8946 18.0588 76.9502 18.1612C77.0036 18.2578 77.0828 18.3376 77.179 18.3918C77.2788 18.4466 77.3909 18.4753 77.5047 18.4753C77.6186 18.4753 77.7307 18.4466 77.8305 18.3918Z" fill="white"/>
<path d="M80.3302 16.8967C80.4547 16.9506 80.5608 17.0393 80.6359 17.1523C80.7097 17.2697 80.7474 17.4062 80.7445 17.5448C80.7477 17.683 80.7099 17.819 80.6359 17.9357C80.5618 18.0495 80.4553 18.1386 80.3302 18.1913C80.1818 18.2539 80.0218 18.284 79.8608 18.2798H79.4515V18.8411H78.9805V16.8065H79.8608C80.0219 16.8028 80.1819 16.8335 80.3302 16.8967ZM80.1632 17.8054C80.198 17.7714 80.2256 17.7307 80.2445 17.6858C80.2633 17.6409 80.2731 17.5927 80.2731 17.544C80.2731 17.4953 80.2633 17.4471 80.2445 17.4022C80.2256 17.3573 80.198 17.3166 80.1632 17.2826C80.0699 17.2148 79.9557 17.1823 79.8408 17.1907H79.4582V17.8973H79.8291C79.9479 17.9086 80.0668 17.8759 80.1632 17.8054Z" fill="white"/>
<path d="M82.555 17.1907H81.9035V18.8411H81.4392V17.1907H80.791V16.8064H82.555V17.1907Z" fill="white"/>
<path d="M84.1265 18.4051H83.1827L83.0023 18.8411H82.5195L83.4266 16.8064H83.891L84.8014 18.8411H84.3002L84.1265 18.4051ZM83.9778 18.0476L83.6554 17.2692L83.3364 18.0426L83.9778 18.0476Z" fill="white"/>
<path d="M86.2935 18.7409C86.1299 18.6545 85.9931 18.5252 85.8976 18.3667C85.8034 18.2016 85.7539 18.0148 85.7539 17.8247C85.7539 17.6346 85.8034 17.4477 85.8976 17.2826C85.993 17.1237 86.1299 16.9938 86.2935 16.9067C86.4674 16.8149 86.6615 16.7684 86.8581 16.7714C87.0261 16.7708 87.1923 16.8055 87.3459 16.8733C87.4848 16.9332 87.6078 17.0247 87.7051 17.1406L87.4027 17.4196C87.3404 17.3442 87.262 17.2837 87.1733 17.2426C87.0845 17.2016 86.9877 17.181 86.8899 17.1824C86.7733 17.18 86.6581 17.2083 86.5558 17.2642C86.4579 17.3172 86.3773 17.3972 86.3236 17.4947C86.2684 17.5974 86.2402 17.7123 86.2417 17.8288C86.2399 17.9454 86.268 18.0604 86.3236 18.1629C86.3773 18.2604 86.4579 18.3404 86.5558 18.3934C86.6579 18.45 86.7731 18.4788 86.8899 18.477C86.9879 18.4781 87.085 18.457 87.1738 18.4154C87.2626 18.3737 87.3408 18.3125 87.4027 18.2364L87.7051 18.5154C87.6081 18.6327 87.4843 18.7249 87.3442 18.7843C87.1777 18.8526 86.9984 18.8841 86.8185 18.8769C86.6386 18.8697 86.4624 18.8239 86.3019 18.7426L86.2935 18.7409Z" fill="white"/>
<path d="M89.3517 16.8967C89.4769 16.95 89.5838 17.0389 89.659 17.1522C89.7323 17.2698 89.7695 17.4063 89.766 17.5448C89.7696 17.6828 89.7325 17.8188 89.659 17.9357C89.5851 18.0503 89.4778 18.1394 89.3517 18.1913C89.2033 18.254 89.0433 18.2842 88.8823 18.2798H88.473V18.8411H88.002V16.8065H88.8823C89.0434 16.8026 89.2035 16.8334 89.3517 16.8967ZM89.1846 17.8054C89.2194 17.7713 89.2471 17.7307 89.266 17.6858C89.2848 17.6409 89.2946 17.5927 89.2946 17.544C89.2946 17.4953 89.2848 17.4471 89.266 17.4022C89.2471 17.3573 89.2194 17.3166 89.1846 17.2825C89.0913 17.2151 88.9772 17.1825 88.8622 17.1907H88.478V17.8973H88.8622C88.9772 17.9054 89.0913 17.8729 89.1846 17.8054Z" fill="white"/>
<path d="M91.6534 18.4635V18.8411H90.0781V16.8064H91.6166V17.1856H90.5458V17.6266H91.4913V17.9925H90.5458V18.4635H91.6534Z" fill="white"/>
<path d="M94.1339 18.4585V19.2637H93.6929V18.8411H92.2563V19.2637H91.8203V18.4585H91.9005C92.0241 18.4585 92.1093 18.365 92.1594 18.1913C92.2191 17.9462 92.2505 17.6951 92.253 17.4429L92.2764 16.8064H93.8399V18.4585H94.1339ZM92.6155 18.096C92.5983 18.2266 92.5495 18.351 92.4735 18.4585H93.3839V17.1907H92.6906V17.4863C92.6806 17.6911 92.6555 17.8949 92.6155 18.096Z" fill="white"/>
<path d="M94.4492 16.8064H94.9169V18.1328L95.8875 16.8064H96.3302V18.8411H95.8641V17.5197L94.8935 18.8411H94.4492V16.8064Z" fill="white"/>
<path d="M39.4048 22.2288C39.2416 22.1419 39.1048 22.0127 39.009 21.8546C38.9148 21.6894 38.8652 21.5026 38.8652 21.3125C38.8652 21.1224 38.9148 20.9356 39.009 20.7705C39.1043 20.6116 39.2412 20.4816 39.4048 20.3946C39.5787 20.3028 39.7729 20.2562 39.9695 20.2593C40.134 20.2572 40.2972 20.2891 40.4489 20.3528C40.5881 20.4121 40.7113 20.5037 40.808 20.6201L40.5057 20.8991C40.4435 20.8235 40.3651 20.7627 40.2764 20.7214C40.1876 20.6801 40.0908 20.6591 39.9929 20.6602C39.8761 20.6584 39.7609 20.6872 39.6588 20.7437C39.5609 20.7967 39.4803 20.8768 39.4266 20.9742C39.3714 21.0769 39.3432 21.1918 39.3447 21.3083C39.3428 21.4249 39.371 21.5399 39.4266 21.6424C39.4803 21.7399 39.5609 21.8199 39.6588 21.873C39.7609 21.9295 39.8761 21.9583 39.9929 21.9565C40.0909 21.9576 40.188 21.9365 40.2768 21.8949C40.3656 21.8532 40.4438 21.792 40.5057 21.7159L40.808 21.9949C40.7111 22.1122 40.5873 22.2044 40.4472 22.2638C40.2806 22.3321 40.1013 22.3636 39.9215 22.3564C39.7416 22.3492 39.5654 22.3034 39.4048 22.2221V22.2288Z" fill="white"/>
<path d="M41.1191 20.2944H41.5869V21.6208L42.5574 20.2944H43.0001V22.329H42.534V21.0077L41.5635 22.329H41.1191V20.2944Z" fill="white"/>
<path d="M45.3019 20.2944V22.329H44.8376V20.6786H44.141L44.1259 21.1029C44.1215 21.3383 44.0981 21.5729 44.0558 21.8045C44.0316 21.9557 43.9682 22.098 43.872 22.2171C43.8258 22.2662 43.7694 22.3045 43.7068 22.3293C43.6441 22.3541 43.5768 22.3649 43.5095 22.3608C43.4312 22.3592 43.3533 22.3485 43.2773 22.329L43.3057 21.9315C43.3335 21.939 43.3622 21.9429 43.3909 21.9432C43.447 21.9419 43.5009 21.9215 43.5438 21.8853C43.5866 21.8492 43.6158 21.7994 43.6265 21.7444C43.6805 21.5405 43.7086 21.3306 43.71 21.1196L43.7384 20.2944H45.3019Z" fill="white"/>
<path d="M47.3694 21.1296C47.4376 21.191 47.491 21.2672 47.5254 21.3523C47.5598 21.4374 47.5745 21.5292 47.5681 21.6208C47.5744 21.7194 47.558 21.8181 47.52 21.9093C47.4821 22.0006 47.4237 22.0819 47.3493 22.147C47.1712 22.2785 46.9523 22.343 46.7312 22.329H45.8125V20.2944H46.2802V20.9626H46.7981C47.0022 20.9491 47.2046 21.0083 47.3694 21.1296ZM46.9902 21.8847C47.026 21.8519 47.054 21.8115 47.0719 21.7663C47.0899 21.7212 47.0973 21.6725 47.0937 21.6241C47.0937 21.412 46.9651 21.3067 46.7045 21.3067H46.2802V21.9749H46.7045C46.8076 21.981 46.9093 21.9489 46.9902 21.8847Z" fill="white"/>
<path d="M49.7741 20.2944V22.329H49.3047V21.4938H48.3793V22.329H47.9082V20.2944H48.3793V21.0962H49.3047V20.2944H49.7741Z" fill="white"/>
<path d="M51.8584 21.9515V22.329H50.2832V20.2944H51.82V20.6719H50.7509V21.1146H51.6947V21.4804H50.7509V21.9515H51.8584Z" fill="white"/>
<path d="M52.2383 20.2944H52.706V21.6208L53.6765 20.2944H54.1192V22.329H53.6531V21.0077L52.6826 22.329H52.2383V20.2944ZM52.6125 19.7198H52.9349C52.9349 19.8601 53.0201 19.9319 53.1771 19.9319C53.2406 19.9361 53.3035 19.9171 53.3541 19.8785C53.3761 19.8569 53.3932 19.8307 53.4042 19.8019C53.4151 19.7731 53.4197 19.7422 53.4176 19.7114H53.74C53.744 19.7743 53.7333 19.8373 53.7086 19.8953C53.684 19.9533 53.6461 20.0048 53.598 20.0455C53.4744 20.1294 53.3261 20.1694 53.1771 20.1591C52.8046 20.1641 52.6175 20.0155 52.6125 19.7131V19.7198Z" fill="white"/>
<path d="M57.3111 20.2944V22.329H54.625V20.2944H55.0927V21.9465H55.7359V20.2944H56.2036V21.9465H56.8434V20.2944H57.3111Z" fill="white"/>
<path d="M57.8158 20.2944H58.2802V21.6208L59.2508 20.2944H59.6918V22.329H59.2274V21.0077L58.2568 22.329H57.8125L57.8158 20.2944Z" fill="white"/>
<path d="M60.5665 20.2944L60.9891 20.9108L61.4101 20.2944H61.963L61.2865 21.2683L62.0198 22.329H61.4636L60.9908 21.6608L60.5231 22.329H59.9785L60.7052 21.2883L60.0253 20.2944H60.5665Z" fill="white"/>
<path d="M63.522 22.2288C63.3588 22.1419 63.222 22.0127 63.1261 21.8546C63.032 21.6894 62.9824 21.5026 62.9824 21.3125C62.9824 21.1224 63.032 20.9356 63.1261 20.7705C63.2215 20.6116 63.3584 20.4816 63.522 20.3946C63.6959 20.3028 63.8901 20.2562 64.0867 20.2593C64.2512 20.2572 64.4144 20.2891 64.5661 20.3528C64.7048 20.4122 64.8274 20.5038 64.9235 20.6201L64.6279 20.8991C64.5657 20.8235 64.4873 20.7627 64.3986 20.7214C64.3098 20.6801 64.2129 20.6591 64.115 20.6602C63.9983 20.6584 63.8831 20.6872 63.781 20.7437C63.6831 20.7967 63.6025 20.8768 63.5488 20.9742C63.4936 21.0769 63.4654 21.1918 63.4669 21.3083C63.465 21.4249 63.4932 21.5399 63.5488 21.6424C63.6025 21.7399 63.6831 21.8199 63.781 21.873C63.8831 21.9295 63.9983 21.9583 64.115 21.9565C64.213 21.9578 64.31 21.937 64.3987 21.8956C64.4875 21.8542 64.5659 21.7934 64.6279 21.7176L64.9286 21.9966C64.8322 22.1138 64.709 22.206 64.5694 22.2655C64.4028 22.3337 64.2235 22.3653 64.0437 22.3581C63.8638 22.3509 63.6876 22.3051 63.527 22.2238L63.522 22.2288Z" fill="white"/>
<path d="M67.0866 20.2944V22.329H66.6189V20.6786H65.7001V22.329H65.2324V20.2944H67.0866Z" fill="white"/>
<path d="M67.9924 22.2271C67.8272 22.1416 67.6894 22.0113 67.5948 21.8512C67.5214 21.7306 67.4733 21.5963 67.4535 21.4565C67.4338 21.3167 67.4428 21.1743 67.48 21.0381C67.5173 20.9018 67.5819 20.7747 67.67 20.6643C67.7581 20.5539 67.8678 20.4627 67.9924 20.3963C68.1691 20.3062 68.3646 20.2593 68.5629 20.2593C68.7612 20.2593 68.9566 20.3062 69.1333 20.3963C69.2971 20.4837 69.4344 20.6135 69.5309 20.7721C69.6261 20.936 69.6762 21.1221 69.6762 21.3117C69.6762 21.5012 69.6261 21.6873 69.5309 21.8512C69.4353 22.0106 69.2978 22.1406 69.1333 22.2271C68.9566 22.3171 68.7612 22.3641 68.5629 22.3641C68.3646 22.3641 68.1691 22.3171 67.9924 22.2271ZM68.8894 21.8796C68.9851 21.8254 69.0638 21.7456 69.1166 21.6491C69.1727 21.5468 69.2015 21.4317 69.2001 21.315C69.2011 21.1984 69.1723 21.0834 69.1166 20.9809C69.0638 20.8844 68.9851 20.8046 68.8894 20.7504C68.7896 20.6956 68.6776 20.6668 68.5637 20.6668C68.4498 20.6668 68.3378 20.6956 68.238 20.7504C68.1418 20.8045 68.0625 20.8843 68.0091 20.9809C67.9539 21.0835 67.9257 21.1985 67.9273 21.315C67.9254 21.4316 67.9536 21.5466 68.0091 21.6491C68.0625 21.7457 68.1418 21.8255 68.238 21.8796C68.3378 21.9344 68.4498 21.9632 68.5637 21.9632C68.6776 21.9632 68.7896 21.9344 68.8894 21.8796Z" fill="white"/>
<path d="M71.3888 20.3812C71.5135 20.4346 71.6199 20.5235 71.6945 20.6368C71.7654 20.7552 71.8029 20.8906 71.8029 21.0285C71.8029 21.1665 71.7654 21.3019 71.6945 21.4203C71.6209 21.5346 71.5143 21.6237 71.3888 21.6759C71.2404 21.7384 71.0804 21.7686 70.9194 21.7644H70.5101V22.3257H70.0391V20.2944H70.9194C71.0802 20.2896 71.2403 20.3192 71.3888 20.3812ZM71.2217 21.29C71.2565 21.2559 71.2842 21.2152 71.3031 21.1704C71.3219 21.1255 71.3317 21.0772 71.3317 21.0285C71.3317 20.9799 71.3219 20.9316 71.3031 20.8867C71.2842 20.8419 71.2565 20.8012 71.2217 20.7671C71.1285 20.6994 71.0143 20.6668 70.8993 20.6753H70.5168V21.3835H70.8993C71.0117 21.3898 71.1229 21.358 71.2151 21.2933L71.2217 21.29Z" fill="white"/>
<path d="M73.6156 20.6786H72.9641V22.329H72.4997V20.6786H71.8516V20.2944H73.6156V20.6786Z" fill="white"/>
<path d="M74.2818 22.2288C74.1186 22.142 73.9818 22.0127 73.8859 21.8546C73.7917 21.6895 73.7422 21.5026 73.7422 21.3125C73.7422 21.1224 73.7917 20.9356 73.8859 20.7705C73.9813 20.6116 74.1181 20.4816 74.2818 20.3946C74.4561 20.3025 74.6509 20.256 74.8481 20.2593C75.0121 20.2574 75.1747 20.2892 75.3258 20.3529C75.4651 20.4122 75.5882 20.5038 75.685 20.6201L75.3826 20.8991C75.3204 20.8235 75.2421 20.7628 75.1533 20.7214C75.0646 20.6801 74.9677 20.6592 74.8698 20.6602C74.753 20.6584 74.6379 20.6872 74.5357 20.7438C74.4378 20.7968 74.3572 20.8768 74.3035 20.9743C74.2483 21.0769 74.2202 21.1919 74.2217 21.3084C74.2198 21.4249 74.248 21.54 74.3035 21.6425C74.355 21.744 74.4351 21.8283 74.534 21.8847C74.6362 21.9412 74.7514 21.97 74.8681 21.9682C74.9662 21.9693 75.0633 21.9482 75.1521 21.9066C75.2408 21.8649 75.3191 21.8038 75.381 21.7277L75.6833 22.0066C75.5863 22.1239 75.4626 22.2161 75.3225 22.2756C75.1559 22.3438 74.9766 22.3754 74.7968 22.3682C74.6169 22.361 74.4407 22.3151 74.2801 22.2338L74.2818 22.2288Z" fill="white"/>
<path d="M77.8442 22.329V21.1113L77.2445 22.1135H77.0357L76.4376 21.1347V22.329H75.9883V20.2944H76.3775L77.1392 21.559L77.8893 20.2944H78.2785V22.329H77.8442Z" fill="white"/>
<path d="M80.3682 21.9515V22.329H78.793V20.2944H80.3315V20.6719H79.2624V21.1146H80.2062V21.4804H79.2624V21.9515H80.3682Z" fill="white"/>
<path d="M82.6139 20.2944V22.329H82.1429V21.4938H81.2174V22.329H80.748V20.2944H81.2174V21.0962H82.1429V20.2944H82.6139Z" fill="white"/>
<path d="M83.5197 22.2271C83.3549 22.1411 83.2173 22.011 83.1222 21.8512C83.0487 21.7307 83.0006 21.5963 82.9809 21.4565C82.9611 21.3167 82.9702 21.1743 83.0074 21.0381C83.0446 20.9019 83.1093 20.7747 83.1974 20.6643C83.2855 20.554 83.3951 20.4628 83.5197 20.3963C83.6959 20.3041 83.8922 20.257 84.091 20.2593C84.2894 20.2566 84.4852 20.3037 84.6607 20.3963C84.8246 20.4842 84.9623 20.6138 85.0599 20.7721C85.1336 20.8928 85.1817 21.0272 85.2015 21.1671C85.2212 21.3071 85.2121 21.4496 85.1747 21.5859C85.1373 21.7222 85.0724 21.8494 84.984 21.9597C84.8956 22.0699 84.7856 22.161 84.6607 22.2271C84.4855 22.3204 84.2895 22.3675 84.091 22.3641C83.8921 22.3671 83.6956 22.32 83.5197 22.2271ZM84.4168 21.8796C84.513 21.8255 84.5922 21.7457 84.6456 21.6491C84.7012 21.5466 84.7294 21.4316 84.7275 21.315C84.729 21.1985 84.7008 21.0836 84.6456 20.9809C84.5922 20.8844 84.513 20.8045 84.4168 20.7504C84.317 20.6956 84.2049 20.6668 84.091 20.6668C83.9772 20.6668 83.8651 20.6956 83.7653 20.7504C83.6696 20.8046 83.5909 20.8845 83.5381 20.9809C83.4824 21.0834 83.4537 21.1984 83.4546 21.315C83.4532 21.4317 83.482 21.5468 83.5381 21.6491C83.5909 21.7456 83.6696 21.8254 83.7653 21.8796C83.8651 21.9345 83.9772 21.9632 84.091 21.9632C84.2049 21.9632 84.317 21.9345 84.4168 21.8796Z" fill="white"/>
<path d="M87.2622 21.4487C87.3304 21.5363 87.3659 21.645 87.3624 21.756C87.3653 21.8379 87.3481 21.9193 87.3123 21.9929C87.2765 22.0666 87.2231 22.1304 87.157 22.1787C86.9823 22.2894 86.777 22.342 86.5706 22.329H85.5684V20.2944H86.5105C86.7044 20.2836 86.897 20.3313 87.0634 20.4314C87.127 20.4738 87.1785 20.5319 87.213 20.6001C87.2476 20.6683 87.2639 20.7442 87.2605 20.8206C87.2626 20.9146 87.2364 21.0071 87.1854 21.0862C87.1323 21.1648 87.059 21.2277 86.9732 21.2683C87.0864 21.296 87.1876 21.3592 87.2622 21.4487ZM86.0361 21.138H86.4754C86.5578 21.1436 86.6396 21.1212 86.7076 21.0745C86.7327 21.0509 86.7527 21.0224 86.7663 20.9908C86.78 20.9592 86.787 20.9252 86.787 20.8907C86.787 20.8563 86.78 20.8223 86.7663 20.7907C86.7527 20.7591 86.7327 20.7306 86.7076 20.707C86.64 20.6607 86.5589 20.6384 86.4771 20.6435H86.0378L86.0361 21.138ZM86.8847 21.7193C86.8847 21.5523 86.7744 21.4654 86.5506 21.4654H86.0328V21.9799H86.5506C86.7733 21.9799 86.8847 21.8925 86.8847 21.7176V21.7193Z" fill="white"/>
<path d="M41.635 6.19077C41.7476 6.32468 41.8071 6.4953 41.8021 6.67019C41.8072 6.79906 41.7792 6.92711 41.7207 7.04205C41.6622 7.157 41.5752 7.255 41.468 7.32668C41.173 7.5009 40.8327 7.58293 40.4908 7.56222H38.8203V4.38835H40.4006C40.722 4.37027 41.042 4.44446 41.3226 4.60217C41.4278 4.66378 41.5143 4.75265 41.5731 4.85938C41.6319 4.96612 41.6608 5.08675 41.6567 5.20854C41.6588 5.35652 41.6144 5.50143 41.5298 5.62282C41.439 5.74681 41.3167 5.84427 41.1756 5.90513C41.3539 5.95228 41.5139 6.05177 41.635 6.19077ZM39.587 5.70634H40.3204C40.4566 5.71601 40.5923 5.68207 40.7079 5.60946C40.7495 5.57417 40.7828 5.53028 40.8057 5.48081C40.8286 5.43134 40.8405 5.37748 40.8405 5.32297C40.8405 5.26846 40.8286 5.21461 40.8057 5.16514C40.7828 5.11567 40.7495 5.07177 40.7079 5.03649C40.5933 4.96284 40.4581 4.92772 40.322 4.93626H39.587V5.70634ZM41.0036 6.61173C41.0036 6.34947 40.8198 6.2175 40.4507 6.2175H39.587V7.01765H40.4507C40.8198 7.01765 41.0036 6.88234 41.0036 6.61173Z" fill="white"/>
<path d="M43.0801 7.40523C42.8107 7.27538 42.5824 7.07364 42.4203 6.82224C42.263 6.56867 42.1797 6.27622 42.1797 5.97783C42.1797 5.67944 42.263 5.38697 42.4203 5.13341C42.5824 4.88201 42.8107 4.68027 43.0801 4.55042C43.3732 4.40692 43.696 4.33479 44.0223 4.33994C44.2952 4.3361 44.5663 4.38488 44.8207 4.48361C45.0502 4.57464 45.2555 4.71758 45.4204 4.90122L44.9193 5.33553C44.812 5.2161 44.6802 5.12117 44.5329 5.05718C44.3856 4.9932 44.2263 4.96166 44.0657 4.9647C43.8703 4.96068 43.677 5.00485 43.5028 5.09332C43.3426 5.17395 43.2088 5.29853 43.1169 5.45247C43.0259 5.61263 42.9781 5.79365 42.9781 5.97783C42.9781 6.162 43.0259 6.34302 43.1169 6.50318C43.2088 6.65712 43.3426 6.78169 43.5028 6.86233C43.677 6.9508 43.8703 6.99498 44.0657 6.99096C44.2263 6.99345 44.3855 6.96132 44.5325 6.89675C44.6795 6.83218 44.8108 6.73668 44.9176 6.61677L45.4188 7.05109C45.2541 7.23667 45.0481 7.38087 44.8174 7.47204C44.5617 7.57047 44.2896 7.61923 44.0156 7.61571C43.6915 7.62024 43.371 7.54812 43.0801 7.40523Z" fill="white"/>
<path d="M48.5632 6.97417V7.56217H45.9355V4.38831H48.5014V4.97632H46.7156V5.66454H48.2926V6.23583H46.7156V6.96917L48.5632 6.97417Z" fill="white"/>
<path d="M51.4468 4.53367C51.6518 4.61524 51.8292 4.75378 51.958 4.93291C52.0757 5.11448 52.1383 5.32623 52.1383 5.54262C52.1383 5.759 52.0757 5.97077 51.958 6.15234C51.83 6.33185 51.6523 6.47004 51.4468 6.54991C51.1973 6.6471 50.9311 6.69422 50.6634 6.68856H49.9785V7.5622H49.1934V4.38834H50.6634C50.9316 4.38387 51.198 4.43329 51.4468 4.53367ZM51.1578 5.94854C51.2155 5.89744 51.2617 5.8347 51.2933 5.76443C51.3249 5.69417 51.3412 5.61799 51.3412 5.54095C51.3412 5.4639 51.3249 5.38773 51.2933 5.31747C51.2617 5.24721 51.2155 5.18445 51.1578 5.13336C50.999 5.02822 50.81 4.97833 50.6199 4.99137H49.9785V6.09053H50.6199C50.81 6.10357 50.999 6.05367 51.1578 5.94854Z" fill="white"/>
<path d="M53.367 7.40351C53.0947 7.273 52.8636 7.07017 52.6988 6.81718C52.5433 6.56634 52.4609 6.27708 52.4609 5.98195C52.4609 5.68683 52.5433 5.39756 52.6988 5.14673C52.8636 4.89373 53.0947 4.6909 53.367 4.56039C53.6647 4.42063 53.9895 4.34818 54.3183 4.34818C54.6472 4.34818 54.972 4.42063 55.2696 4.56039C55.5412 4.6919 55.7721 4.89452 55.9378 5.14673C56.0954 5.39681 56.179 5.68637 56.179 5.98195C56.179 6.27754 56.0954 6.56709 55.9378 6.81718C55.7721 7.06939 55.5412 7.27201 55.2696 7.40351C54.972 7.54327 54.6472 7.61572 54.3183 7.61572C53.9895 7.61572 53.6647 7.54327 53.367 7.40351ZM54.8704 6.86228C55.0278 6.77964 55.1595 6.65542 55.2513 6.50313C55.3411 6.34261 55.3883 6.16173 55.3883 5.97778C55.3883 5.79383 55.3411 5.61295 55.2513 5.45242C55.1595 5.30013 55.0278 5.17591 54.8704 5.09327C54.7017 5.00862 54.5155 4.96455 54.3267 4.96455C54.1379 4.96455 53.9517 5.00862 53.7829 5.09327C53.6249 5.17498 53.4929 5.29942 53.4021 5.45242C53.3111 5.61258 53.2633 5.79361 53.2633 5.97778C53.2633 6.16196 53.3111 6.34297 53.4021 6.50313C53.4929 6.65614 53.6249 6.78058 53.7829 6.86228C53.9517 6.94693 54.1379 6.991 54.3267 6.991C54.5155 6.991 54.7017 6.94693 54.8704 6.86228Z" fill="white"/>
<path d="M57.4459 7.40523C57.1737 7.27615 56.9425 7.0744 56.7777 6.82224C56.6204 6.56867 56.5371 6.27622 56.5371 5.97783C56.5371 5.67944 56.6204 5.38698 56.7777 5.13341C56.9425 4.88125 57.1737 4.6795 57.4459 4.55042C57.7395 4.4069 58.0629 4.33478 58.3897 4.33994C58.6621 4.33623 58.9326 4.38501 59.1865 4.48361C59.4162 4.57421 59.6216 4.71721 59.7862 4.90122L59.2851 5.33554C59.1777 5.2161 59.0459 5.12117 58.8987 5.05718C58.7514 4.9932 58.592 4.96166 58.4315 4.9647C58.2361 4.96068 58.0428 5.00485 57.8685 5.09332C57.7084 5.17395 57.5746 5.29853 57.4827 5.45247C57.3917 5.61263 57.3439 5.79366 57.3439 5.97783C57.3439 6.162 57.3917 6.34302 57.4827 6.50318C57.5746 6.65712 57.7084 6.7817 57.8685 6.86233C58.0428 6.9508 58.2361 6.99498 58.4315 6.99096C58.592 6.99345 58.7512 6.96132 58.8982 6.89675C59.0452 6.83218 59.1766 6.73668 59.2834 6.61677L59.7845 7.05109C59.6199 7.23667 59.4139 7.38087 59.1832 7.47204C58.9281 7.57046 58.6565 7.61923 58.383 7.61571C58.0584 7.62025 57.7374 7.54814 57.4459 7.40523Z" fill="white"/>
<path d="M60.8912 7.40523C60.6187 7.27666 60.3874 7.07481 60.223 6.82224C60.0658 6.56867 59.9824 6.27622 59.9824 5.97783C59.9824 5.67944 60.0658 5.38697 60.223 5.13341C60.3874 4.88084 60.6187 4.67899 60.8912 4.55042C61.1843 4.40692 61.5071 4.33479 61.8334 4.33994C62.1063 4.3361 62.3774 4.38488 62.6318 4.48361C62.8613 4.57464 63.0666 4.71758 63.2315 4.90122L62.7304 5.33553C62.6231 5.2161 62.4913 5.12117 62.344 5.05718C62.1967 4.9932 62.0374 4.96166 61.8768 4.9647C61.6814 4.96068 61.4881 5.00485 61.3138 5.09332C61.1537 5.17395 61.0199 5.29853 60.928 5.45247C60.837 5.61263 60.7892 5.79365 60.7892 5.97783C60.7892 6.162 60.837 6.34302 60.928 6.50318C61.0199 6.65712 61.1537 6.78169 61.3138 6.86233C61.4881 6.9508 61.6814 6.99498 61.8768 6.99096C62.0376 6.99369 62.1971 6.96168 62.3445 6.8971C62.4918 6.83252 62.6234 6.7369 62.7304 6.61677L63.2315 7.05109C63.0669 7.23667 62.8609 7.38087 62.6302 7.47204C62.3745 7.57047 62.1023 7.61923 61.8284 7.61571C61.5037 7.62051 61.1826 7.54838 60.8912 7.40523Z" fill="white"/>
<path d="M63.7402 4.39336H64.5203V6.45805L66.1407 4.39336H66.8773V7.56722H66.1023V5.50255L64.4819 7.56222H63.7402V4.39336Z" fill="white"/>
<path d="M67.7188 4.39336H68.4988V6.45805L70.1192 4.39336H70.8575V7.56722H70.0808V5.50254L68.4604 7.56222H67.7188V4.39336ZM68.3435 3.498H68.8831C68.8831 3.7185 69.0234 3.83209 69.2856 3.83209C69.3908 3.83887 69.4952 3.8094 69.5813 3.74857C69.616 3.71758 69.6435 3.67941 69.662 3.63672C69.6804 3.59403 69.6894 3.54784 69.6882 3.50135H70.2261C70.2304 3.60004 70.2112 3.69835 70.1699 3.78812C70.1287 3.87789 70.0666 3.95652 69.9889 4.01751C69.779 4.14899 69.5327 4.21041 69.2856 4.19292C68.6642 4.19069 68.3502 3.95905 68.3435 3.498Z" fill="white"/>
<path d="M72.3614 7.4052C72.0926 7.27442 71.8645 7.07287 71.7016 6.82221C71.5443 6.56864 71.4609 6.27619 71.4609 5.9778C71.4609 5.67941 71.5443 5.38694 71.7016 5.13338C71.8645 4.88271 72.0926 4.68117 72.3614 4.55039C72.658 4.40731 72.9844 4.33688 73.3135 4.34493C73.5864 4.34137 73.8575 4.39014 74.112 4.48858C74.341 4.57963 74.5457 4.72258 74.71 4.9062L74.2089 5.34052C74.1016 5.221 73.9699 5.126 73.8226 5.06201C73.6752 4.99801 73.5159 4.96652 73.3553 4.96967C73.1599 4.96565 72.9666 5.00983 72.7924 5.0983C72.6329 5.17983 72.4992 5.3042 72.4065 5.45744C72.3167 5.61797 72.2695 5.79885 72.2695 5.9828C72.2695 6.16676 72.3167 6.34764 72.4065 6.50816C72.4992 6.66141 72.6329 6.78577 72.7924 6.86731C72.9666 6.95577 73.1599 6.99995 73.3553 6.99593C73.5162 6.99889 73.6758 6.96698 73.8231 6.90239C73.9705 6.8378 74.1021 6.74206 74.2089 6.62175L74.71 7.05607C74.5454 7.24164 74.3394 7.38586 74.1087 7.47703C73.8536 7.57544 73.582 7.6242 73.3085 7.62068C72.9802 7.62526 72.6554 7.55139 72.3614 7.4052Z" fill="white"/>
<path d="M76.5267 6.28595H75.9871V7.56217H75.207V4.38831H75.9871V5.68124H76.5501L77.4421 4.40001H78.2773L77.1564 5.92346L78.3007 7.56217H77.4087L76.5267 6.28595Z" fill="white"/>
<path d="M80.8987 6.8823H79.3285L79.0278 7.56217H78.2227L79.7361 4.38831H80.4978L82.0163 7.56217H81.1994L80.8987 6.8823ZM80.6498 6.32603L80.1119 5.11328L79.574 6.32603H80.6498Z" fill="white"/>
<path d="M85.0082 4.39336V7.56722H84.2315V6.732H83.5149L82.9135 7.56722H82.0783L82.7865 6.61173C82.5714 6.54093 82.3852 6.40176 82.2565 6.2154C82.1277 6.02903 82.0634 5.8057 82.0733 5.57939C82.0677 5.35569 82.13 5.13554 82.252 4.94796C82.3799 4.76712 82.5566 4.62635 82.7615 4.54204C83.0079 4.4416 83.2722 4.39271 83.5382 4.39838L85.0082 4.39336ZM83.0505 5.13672C82.9899 5.1898 82.9424 5.25617 82.9117 5.33064C82.8809 5.40511 82.8678 5.48566 82.8734 5.56603C82.8682 5.64494 82.8805 5.72403 82.9094 5.79766C82.9383 5.87129 82.983 5.93763 83.0404 5.99199C83.1838 6.10086 83.362 6.15372 83.5416 6.14066H84.2298V4.99139H83.5616C83.379 4.97911 83.1978 5.03046 83.0488 5.13672H83.0505Z" fill="white"/>
<path d="M40.189 14.1271C39.7808 13.9307 39.4341 13.6262 39.1867 13.2468C38.9497 12.8639 38.8242 12.4225 38.8242 11.9722C38.8242 11.5219 38.9497 11.0806 39.1867 10.6977C39.434 10.3177 39.7806 10.0127 40.189 9.81566C40.6319 9.59978 41.1195 9.49106 41.6122 9.49827C42.024 9.49237 42.4331 9.56669 42.8166 9.7171C43.1628 9.8538 43.4727 10.0688 43.722 10.3452L42.9602 11.0017C42.7982 10.821 42.5992 10.6773 42.3767 10.5804C42.1541 10.4836 41.9133 10.4358 41.6706 10.4404C41.3761 10.4352 41.0847 10.5023 40.8221 10.6358C40.5809 10.7589 40.379 10.947 40.2391 11.1787C40.1022 11.4205 40.0302 11.6936 40.0302 11.9714C40.0302 12.2492 40.1022 12.5223 40.2391 12.764C40.3785 12.9962 40.5805 13.1844 40.8221 13.3069C41.0847 13.4405 41.3761 13.5076 41.6706 13.5024C41.914 13.5074 42.1555 13.4591 42.3783 13.361C42.601 13.2629 42.7996 13.1173 42.9602 12.9344L43.722 13.5909C43.4734 13.8716 43.162 14.0897 42.8132 14.2273C42.4284 14.3768 42.0183 14.4506 41.6055 14.4445C41.1149 14.4522 40.6294 14.3434 40.189 14.1271Z" fill="white"/>
<path d="M49.1605 9.5801V14.3676H47.9812V10.4821H45.6676V14.3676H44.4883V9.5801H49.1605Z" fill="white"/>
<path d="M53.9005 13.3386H51.5201L51.0657 14.3676H49.8496L52.1348 9.58508H53.3041L55.6077 14.3676H54.3615L53.9005 13.3386ZM53.5263 12.5034L52.7128 10.6659L51.9009 12.5034H53.5263Z" fill="white"/>
<path d="M59.675 9.79225C59.9859 9.91318 60.2547 10.1222 60.4485 10.3936C60.6245 10.6677 60.718 10.9866 60.718 11.3124C60.718 11.6381 60.6245 11.957 60.4485 12.2311C60.2556 12.5034 59.9865 12.7127 59.675 12.8325C59.2984 12.9792 58.8965 13.0502 58.4924 13.0413H57.46V14.3676H56.2773V9.58011H58.4957C58.899 9.57189 59.2999 9.64399 59.675 9.79225ZM59.2407 11.9271C59.3279 11.8501 59.3976 11.7555 59.4454 11.6495C59.4932 11.5436 59.5179 11.4286 59.5179 11.3124C59.5179 11.1961 59.4932 11.0812 59.4454 10.9752C59.3976 10.8692 59.3279 10.7746 59.2407 10.6976C59.0005 10.5386 58.7147 10.4629 58.4272 10.4821H57.46V12.1426H58.4272C58.7147 12.1618 59.0005 12.0861 59.2407 11.9271Z" fill="white"/>
<path d="M65.2726 10.4821H63.6256V14.3676H62.4563V10.4821H60.8242V9.5801H65.2693L65.2726 10.4821Z" fill="white"/>
<path d="M69.2269 13.3386H66.8465L66.3938 14.3676H65.1777L67.4679 9.5801H68.6372L70.9258 14.3676H69.6813L69.2269 13.3386ZM68.8544 12.5034L68.0409 10.6659L67.2274 12.5034H68.8544Z" fill="white"/>
<path d="M73.5855 12.4366H72.7653V14.3676H71.5859V9.5801H72.7653V11.5145H73.6139L74.9619 9.5801H76.2148L74.5443 11.8903L76.2649 14.3676H74.9185L73.5855 12.4366Z" fill="white"/>
<path d="M76.8223 9.5801H77.9916V12.6972L80.4371 9.58176H81.5513V14.3676H80.382V11.2539L77.9348 14.3676H76.8223V9.5801Z" fill="white"/>
<path d="M86.2914 13.3386H83.911L83.4566 14.3676H82.2422L84.5257 9.58508H85.695L87.9902 14.3676H86.7457L86.2914 13.3386ZM85.9172 12.5034L85.1053 10.6659L84.2918 12.5034H85.9172Z" fill="white"/>
<path d="M93.9948 13.4606V15.3532H92.8957V14.3677H89.2791V15.3582H88.1816V13.4656H88.3871C88.6945 13.4567 88.9116 13.2473 89.0386 12.8375C89.1889 12.2642 89.268 11.6746 89.2741 11.0819L89.3326 9.57848H93.2715V13.4589L93.9948 13.4606ZM90.1711 12.6103C90.127 12.9198 90.0039 13.2126 89.8137 13.4606H92.1055V10.4822H90.3532L90.3298 11.1788C90.3144 11.6594 90.2614 12.138 90.1711 12.6103Z" fill="white"/>
<path d="M98.3008 13.3386H95.9205L95.4661 14.3626H94.25L96.5335 9.5801H97.7028L99.9997 14.3676H98.7536L98.3008 13.3386ZM97.9267 12.5034L97.1132 10.6659L96.3013 12.5034H97.9267Z" fill="white"/>
<path d="M42.9491 28.8053V29.7475H39.1773V28.9974L41.1016 27.18C41.2655 27.0361 41.4054 26.8669 41.5159 26.6788C41.5846 26.5503 41.6212 26.407 41.6228 26.2612C41.6279 26.174 41.6121 26.0867 41.5767 26.0068C41.5412 25.9269 41.4872 25.8566 41.419 25.8019C41.2451 25.6812 41.0357 25.6223 40.8243 25.6348C40.6203 25.6316 40.4182 25.6744 40.233 25.7601C40.0552 25.8439 39.9026 25.9729 39.7903 26.1343L38.9551 25.5914C39.1577 25.296 39.4365 25.0611 39.7619 24.9115C40.1284 24.7431 40.528 24.6591 40.9312 24.666C41.2648 24.6589 41.5962 24.7203 41.9051 24.8464C42.165 24.9538 42.3896 25.1321 42.5532 25.3609C42.7099 25.5904 42.791 25.8631 42.7854 26.141C42.7888 26.4048 42.7317 26.666 42.6184 26.9044C42.4468 27.2133 42.2204 27.4884 41.9502 27.7162L40.8026 28.8003L42.9491 28.8053Z" fill="white"/>
<path d="M44.4461 29.5253C44.1126 29.3095 43.8491 29.0013 43.6877 28.6383C43.3203 27.7499 43.3203 26.7521 43.6877 25.8637C43.8496 25.501 44.113 25.193 44.4461 24.9767C44.6939 24.8161 44.9736 24.7112 45.2659 24.6692C45.5582 24.6272 45.8561 24.6491 46.1391 24.7335C46.4221 24.8178 46.6834 24.9625 46.905 25.1577C47.1267 25.3528 47.3033 25.5937 47.4228 25.8637C47.7881 26.7525 47.7881 27.7495 47.4228 28.6383C47.2613 29.0017 46.9971 29.31 46.6628 29.5253C46.3293 29.7264 45.9472 29.8327 45.5578 29.8327C45.1683 29.8327 44.7862 29.7264 44.4527 29.5253H44.4461ZM46.2685 28.4629C46.4423 28.2023 46.5291 27.7986 46.5291 27.2518C46.5291 26.7039 46.4423 26.3014 46.2685 26.0391C46.1925 25.9187 46.0872 25.8195 45.9625 25.7507C45.8378 25.682 45.6977 25.6459 45.5552 25.6459C45.4128 25.6459 45.2727 25.682 45.148 25.7507C45.0233 25.8195 44.918 25.9187 44.842 26.0391C44.6749 26.3014 44.5814 26.7073 44.5814 27.2518C44.5814 27.7964 44.6682 28.2023 44.842 28.4629C44.918 28.5833 45.0233 28.6826 45.148 28.7513C45.2727 28.8201 45.4128 28.8561 45.5552 28.8561C45.6977 28.8561 45.8378 28.8201 45.9625 28.7513C46.0872 28.6826 46.1925 28.5833 46.2685 28.4629Z" fill="white"/>
<path d="M51.933 28.8054V29.7475H48.1678V28.9975L50.0955 27.18C50.259 27.0361 50.3983 26.8669 50.5081 26.6789C50.5767 26.5503 50.6134 26.407 50.615 26.2613C50.62 26.1742 50.6044 26.0871 50.5692 26.0072C50.5341 25.9274 50.4805 25.857 50.4129 25.8019C50.2384 25.6809 50.0284 25.6221 49.8165 25.6348C49.6125 25.6316 49.4104 25.6745 49.2252 25.7601C49.048 25.8448 48.8955 25.9737 48.7825 26.1343L47.9473 25.5914C48.1488 25.2957 48.4272 25.0607 48.7524 24.9115C49.1189 24.7432 49.5185 24.6593 49.9217 24.666C50.2553 24.6588 50.5868 24.7202 50.8956 24.8464C51.1555 24.9539 51.3801 25.1321 51.5437 25.3609C51.7014 25.59 51.7827 25.863 51.7759 26.141C51.7785 26.4048 51.7214 26.6658 51.6089 26.9044C51.4362 27.2126 51.2099 27.4875 50.9407 27.7162L49.7931 28.8003L51.933 28.8054Z" fill="white"/>
<path d="M56.1483 28.8054V29.7475H52.3765V28.9975L54.3008 27.18C54.4643 27.0356 54.6041 26.8665 54.7151 26.6789C54.783 26.55 54.8196 26.4069 54.822 26.2613C54.8267 26.174 54.8107 26.0869 54.7753 26.0071C54.7399 25.9272 54.6861 25.8569 54.6182 25.8019C54.4443 25.6812 54.2349 25.6224 54.0235 25.6348C53.819 25.6318 53.6164 25.6747 53.4305 25.7601C53.2535 25.8444 53.1015 25.9734 52.9895 26.1343L52.1543 25.5914C52.3566 25.2965 52.6348 25.0616 52.9595 24.9115C53.326 24.7434 53.7256 24.6595 54.1288 24.666C54.4618 24.6588 54.7927 24.7202 55.101 24.8464C55.3615 24.9536 55.5867 25.1319 55.7508 25.3609C55.9068 25.5906 55.9874 25.8633 55.9813 26.141C55.9839 26.4048 55.9268 26.6658 55.8143 26.9044C55.6421 27.2129 55.4157 27.4879 55.1461 27.7162L53.9985 28.8003L56.1483 28.8054Z" fill="white"/>
</g>
<defs>
<radialGradient id="paint0_radial_769_3819" cx="0" cy="0" r="1" gradientUnits="userSpaceOnUse" gradientTransform="translate(18.2433 15.9545) scale(14.4143 14.4143)">
<stop stop-color="#D9151C"/>
<stop offset="0.74" stop-color="#DA191B"/>
</radialGradient>
<linearGradient id="paint1_linear_769_3819" x1="3.4082" y1="16.2335" x2="28.1393" y2="16.2335" gradientUnits="userSpaceOnUse">
<stop stop-color="#357EC0"/>
<stop offset="0.35" stop-color="#347BBD"/>
<stop offset="0.66" stop-color="#3070B4"/>
<stop offset="0.94" stop-color="#2A5FA6"/>
<stop offset="1" stop-color="#285AA2"/>
</linearGradient>
<clipPath id="clip0_769_3819">
<rect width="100" height="32.2397" fill="white"/>
</clipPath>
</defs>
</svg>
