<svg width="77" height="98" viewBox="0 0 77 98" fill="none" xmlns="http://www.w3.org/2000/svg">
<path d="M60.5142 0.836121H0.984375V97.3642H76.6002V16.9221L60.5142 0.836121Z" fill="#E8E8E8"/>
<path d="M63.7588 48.572C62.599 46.5047 58.5912 45.8552 56.7526 45.563C55.3034 45.3325 53.8239 45.2637 52.358 45.265C51.2071 45.2573 50.0731 45.314 48.9536 45.3777C48.541 45.4054 48.1325 45.441 47.7244 45.4764C47.306 45.0434 46.9017 44.5961 46.5104 44.1386C44.0207 41.1913 42.0105 37.849 40.3724 34.3759C40.8073 32.6977 41.1553 30.9463 41.3654 29.1274C41.7491 25.8077 41.8809 22.0244 40.637 18.8594C40.2075 17.7671 39.0623 16.4372 37.741 17.0994C36.2221 17.861 35.7948 20.0186 35.671 21.5481C35.5713 22.7844 35.641 24.0238 35.8486 25.2394C36.06 26.4632 36.4004 27.6253 36.771 28.7858C37.1167 29.8498 37.4978 30.9055 37.9133 31.9514C37.6497 32.7747 37.3698 33.5837 37.076 34.372C36.3908 36.1686 35.6499 37.8755 34.9374 39.5173C34.5617 40.3314 34.194 41.1283 33.8342 41.9074C32.6957 44.4082 31.4598 46.8632 30.0726 49.2364C26.837 50.3778 23.9334 51.701 21.522 53.2559C20.2284 54.0917 19.0858 54.9994 18.1341 55.9949C17.2357 56.9348 16.3226 58.1545 16.2426 59.5047C16.1978 60.2669 16.4996 61.0065 17.1239 61.4586C17.9826 62.1001 19.1205 62.0574 20.1167 61.8486C23.38 61.1641 25.886 58.3589 28.02 55.9946C29.49 54.3661 31.1631 52.2982 32.9132 49.7974C32.917 49.7917 32.9208 49.7859 32.925 49.7802C35.9266 48.8496 39.1935 48.0638 42.6606 47.4863C44.2445 47.2236 45.8705 47.0087 47.5289 46.8578C48.6951 47.9502 49.9553 48.9448 51.33 49.7754C52.4007 50.4341 53.5395 50.9903 54.7315 51.4052C55.9369 51.799 57.1496 52.1206 58.4018 52.324C59.0341 52.4145 59.6807 52.4555 60.3414 52.4307C61.8158 52.375 63.932 51.8095 64.0708 50.0206C64.1135 49.473 63.9954 48.9929 63.7588 48.572ZM28.4607 51.8544C27.7701 52.9242 27.1041 53.8863 26.4766 54.7329C24.9398 56.824 23.1845 59.3076 20.6433 60.2363C20.1606 60.4127 19.5251 60.5948 18.8552 60.5553C18.2586 60.5203 17.6702 60.257 17.6973 59.5795C17.7107 59.2248 17.8842 58.7724 18.1504 58.328C18.4417 57.8405 18.8024 57.3935 19.193 56.9825C20.0301 56.1032 21.0883 55.2509 22.3058 54.4616C24.1731 53.2502 26.4024 52.1597 28.8873 51.1868C28.7444 51.4128 28.6017 51.6376 28.4607 51.8544ZM37.1275 25.028C36.9359 23.9092 36.9069 22.7748 37.0247 21.6841C37.0833 21.1387 37.1944 20.6064 37.3552 20.1075C37.4914 19.684 37.7856 18.6506 38.2549 18.5178C39.0286 18.2988 39.2664 19.9597 39.3539 20.4297C39.8525 23.1028 39.4132 26.0754 38.8149 28.6976C38.7197 29.1147 38.6137 29.5251 38.5051 29.9339C38.3199 29.4241 38.1432 28.9128 37.9805 28.399C37.6303 27.2767 37.31 26.1414 37.1275 25.028ZM42.439 46.13C39.5322 46.6012 36.7671 47.2185 34.1679 47.9473C34.4809 47.8598 35.911 45.1494 36.23 44.5868C37.7331 41.9395 38.9627 39.1611 39.8462 36.2463C41.4062 39.3317 43.2996 42.2834 45.6257 44.9106C45.8399 45.1491 46.0577 45.3847 46.2793 45.6174C44.9758 45.7578 43.6931 45.9288 42.439 46.13ZM62.0969 49.8531C61.9905 50.4278 60.7632 50.7563 60.1904 50.8468C58.4979 51.1129 56.7074 50.8999 55.0875 50.3558C53.976 49.9827 52.9041 49.4746 51.8856 48.8633C50.8731 48.2517 49.926 47.5321 49.0406 46.7387C50.1323 46.6732 51.2374 46.6302 52.3479 46.6512C53.4584 46.6623 54.5775 46.7184 55.6829 46.8626C57.7558 47.0937 60.0787 47.8053 61.7104 49.1504C62.0316 49.4157 62.1341 49.65 62.0969 49.8531Z" fill="#FB3449"/>
<path d="M63.0036 8.87928H0.984375V0.836121H60.5142L63.0036 8.87928Z" fill="#FB3449"/>
<path d="M30.9117 77.6133C30.9117 79.3201 30.4087 80.6382 29.402 81.5679C28.3953 82.4979 26.9658 82.9627 25.1128 82.9627H23.953V88.0303H19.8262V72.7549H25.1131C27.0425 72.7549 28.4914 73.1764 29.4596 74.0192C30.4278 74.8619 30.9117 76.06 30.9117 77.6133ZM23.9533 79.5984H24.7056C25.3255 79.5984 25.8183 79.4246 26.1842 79.0759C26.55 78.7276 26.7327 78.2469 26.7327 77.634C26.7327 76.6031 26.1616 76.0877 25.0192 76.0877H23.9533V79.5984Z" fill="#A4A9AD"/>
<path d="M46.3122 80.0686C46.3122 82.6179 45.6102 84.5823 44.2068 85.9615C42.8034 87.3407 40.8301 88.0303 38.2879 88.0303H33.3457V72.7549H38.6327C41.0845 72.7549 42.9772 73.3818 44.3112 74.6355C45.6449 75.8893 46.3122 77.7005 46.3122 80.0686ZM42.0285 80.2151C42.0285 78.8149 41.7515 77.7773 41.1978 77.1014C40.6442 76.4258 39.803 76.088 38.6744 76.088H37.4731V84.645H38.3926C39.6467 84.645 40.5659 84.2811 41.151 83.553C41.7359 82.8255 42.0285 81.7127 42.0285 80.2151Z" fill="#A4A9AD"/>
<path d="M53.1152 88.0303H49.0508V72.7549H58.0784V76.067H53.1152V78.982H57.6915V82.2941H53.1152V88.0303Z" fill="#A4A9AD"/>
<path d="M60.5137 16.9221H76.5997L60.5137 0.836121V16.9221Z" fill="#D1D3D3"/>
</svg>
