<svg width="467" height="395" viewBox="0 0 467 395" fill="none" xmlns="http://www.w3.org/2000/svg">
<path d="M413.882 398.194L247.243 215.271C234.094 200.947 215.801 192.422 196.375 191.565C176.949 190.709 157.977 197.591 143.618 210.703L-49.4902 386.632L-45.3155 391.222L147.793 215.293C160.937 203.291 178.304 196.99 196.086 197.772C213.868 198.555 230.615 206.357 242.653 219.468L405.467 398.194H413.882Z" fill="#164194"/>
<path d="M449.75 398.195L255.789 185.415C240.954 169.253 220.315 159.634 198.398 158.667C176.481 157.7 155.075 165.464 138.875 180.256L-66.8672 367.573L-62.146 372.753L143.596 185.415C158.426 171.843 178.04 164.716 198.123 165.601C218.207 166.487 237.117 175.312 250.696 190.136L440.307 398.282L449.75 398.195Z" fill="#164194"/>
<path d="M399.829 398.195L245.911 229.239C233.262 215.454 215.66 207.251 196.97 206.432C178.279 205.612 160.027 212.243 146.22 224.867L-41.293 395.66L-37.2712 400.031L150.307 229.239C162.951 217.7 179.653 211.643 196.754 212.397C213.855 213.151 229.96 220.653 241.539 233.261L391.786 398.195H399.829Z" fill="#164194"/>
<path d="M431.215 398.195L252.641 202.157C238.358 186.604 218.491 177.349 197.395 176.419C176.299 175.489 155.695 182.96 140.099 197.196L-57.8184 377.496L-53.2939 382.479L144.645 202.179C158.913 189.14 177.771 182.296 197.081 183.148C216.39 184.001 234.573 192.48 247.636 206.726L422.078 398.195H431.215Z" fill="#164194"/>
<path d="M466.055 398.195L258.652 170.53C243.052 153.525 221.343 143.404 198.289 142.388C175.235 141.372 152.719 149.543 135.684 165.11L-75.8066 357.759L-70.8451 363.201L140.645 170.552C156.236 156.308 176.84 148.829 197.938 149.755C219.035 150.681 238.905 159.937 253.188 175.492L456.066 398.195H466.055Z" fill="#164194"/>
<path d="M-2.87117 185.742L-5.84375 196.518L31.1168 236.101L34.0893 225.326L-2.87117 185.742Z" fill="#164194"/>
<path d="M208.01 350.524L205.037 361.278L241.998 400.883L244.97 390.108L208.01 350.524Z" fill="url(#paint0_linear_466_233)"/>
<path d="M43.2265 226.856L38.418 244.232L98.11 308.187L102.897 290.788L43.2265 226.856Z" fill="#D52C1E"/>
<path d="M-31.7632 115.712L-40.7246 148.17L70.6597 267.51L79.6211 235.052L-31.7632 115.712Z" fill="url(#paint1_linear_466_233)"/>
<path d="M147.62 203.119L138.658 235.577L250.042 354.896L259.004 322.438L147.62 203.119Z" fill="url(#paint2_linear_466_233)"/>
<path d="M-51.7436 77.1117L-60.7051 109.57L50.6792 228.91L59.6407 196.452L-51.7436 77.1117Z" fill="#164194"/>
<path d="M150.591 270.374L146.264 286.089L200.164 343.858L204.513 328.143L150.591 270.374Z" fill="#D52C1E"/>
<path d="M67.8183 191.753L63.4688 207.468L117.39 265.237L121.718 249.522L67.8183 191.753Z" fill="#164194"/>
<path d="M-22.7358 0.917839L-28.375 21.3325L41.721 96.4338L47.3602 76.0192L-22.7358 0.917839Z" fill="#D52C1E"/>
<path d="M71.3156 113.046L74.2882 102.27L37.3495 62.6868L34.377 73.4406L71.3156 113.046Z" fill="#164194"/>
<path d="M225.584 274.176L228.556 263.401L191.596 223.817L188.623 234.571L225.584 274.176Z" fill="#164194"/>
<path d="M185.429 363.201L188.402 352.447L151.441 312.842L148.469 323.617L185.429 363.201Z" fill="#164194"/>
<path d="M282.346 435.286L287.155 417.888L227.462 353.955L222.676 371.332L282.346 435.286Z" fill="#164194"/>
<path d="M63.73 160.104L72.6696 127.646L-38.6928 8.32771L-47.6543 40.7857L63.73 160.104Z" fill="url(#paint3_linear_466_233)"/>
<path d="M419.412 503.437L428.373 470.979L316.989 351.638L308.027 384.096L419.412 503.437Z" fill="url(#paint4_linear_466_233)"/>
<path d="M88.2515 203.775L97.2129 171.317L-14.1714 51.9984L-23.1328 84.4563L88.2515 203.775Z" fill="#164194"/>
<path d="M139.248 185.983L143.597 170.289L89.6754 112.521L85.3477 128.236L139.248 185.983Z" fill="#164194"/>
<path d="M273.32 367.725L277.669 352.032L223.748 294.263L219.42 309.979L273.32 367.725Z" fill="#164194"/>
<path d="M121.346 208.518L126.985 188.081L56.8892 112.98L51.25 133.416L121.346 208.518Z" fill="#D52C1E"/>
<path d="M336.485 405.342L342.124 384.927L272.028 309.826L266.389 330.24L336.485 405.342Z" fill="#D52C1E"/>
<defs>
<linearGradient id="paint0_linear_466_233" x1="204.666" y1="353.853" x2="245.647" y2="397.653" gradientUnits="userSpaceOnUse">
<stop stop-color="#DFDE40"/>
<stop offset="1" stop-color="#3C9F36"/>
</linearGradient>
<linearGradient id="paint1_linear_466_233" x1="-42.1852" y1="125.682" x2="81.3928" y2="257.694" gradientUnits="userSpaceOnUse">
<stop stop-color="#DFDE40"/>
<stop offset="1" stop-color="#3C9F36"/>
</linearGradient>
<linearGradient id="paint2_linear_466_233" x1="137.189" y1="213.064" x2="260.768" y2="345.054" gradientUnits="userSpaceOnUse">
<stop stop-color="#DFDE40"/>
<stop offset="1" stop-color="#3C9F36"/>
</linearGradient>
<linearGradient id="paint3_linear_466_233" x1="-49.139" y1="18.2724" x2="74.439" y2="150.285" gradientUnits="userSpaceOnUse">
<stop stop-color="#DFDE40"/>
<stop offset="1" stop-color="#3C9F36"/>
</linearGradient>
<linearGradient id="paint4_linear_466_233" x1="306.582" y1="361.59" x2="430.139" y2="493.579" gradientUnits="userSpaceOnUse">
<stop stop-color="#DFDE40"/>
<stop offset="1" stop-color="#3C9F36"/>
</linearGradient>
</defs>
</svg>
