<svg width="162" height="132" viewBox="0 0 162 132" fill="none" xmlns="http://www.w3.org/2000/svg">
<mask id="mask0_1089_84" style="mask-type:alpha" maskUnits="userSpaceOnUse" x="0" y="0" width="162" height="132">
<rect width="162" height="132" fill="#D9D9D9"/>
</mask>
<g mask="url(#mask0_1089_84)">
<path d="M8.32449 69.212L5.05859 81.9614L49.4577 127.779L52.7141 115.03L8.32449 69.212Z" fill="#D42D1E"/>
<path d="M85.3883 132.35L91.4821 108.555L8.63482 23.0323L2.54102 46.8268L85.3883 132.35Z" fill="url(#paint0_linear_1089_84)"/>
<path d="M11.9214 49.5118L15.7586 34.5439L-36.3911 -19.2816L-40.2188 -4.31366L11.9214 49.5118Z" fill="#D42D1E"/>
<path d="M151.166 91.7972L31.4796 -30.3361H24.9668L144.501 91.6829L151.166 91.7972Z" fill="#144390"/>
<path d="M124.019 91.5401L4.59944 -30.3361H-2.72266L-1.83715 -29.384L116.659 91.5401H124.019Z" fill="#144390"/>
<path d="M162.001 92.0257L42.105 -30.3361H35.8398L155.583 91.8734L162.001 92.0257Z" fill="#144390"/>
<path d="M138.131 91.6258L18.6351 -30.3361H11.5605L130.99 91.5401C133.37 91.5687 135.751 91.5973 138.131 91.6258Z" fill="#144390"/>
<path d="M111.766 91.5497L-7.65324 -30.3361H-15.0801C-14.0041 -29.0317 -12.8711 -27.7653 -11.6618 -26.5275L104.073 91.5782L111.766 91.5497Z" fill="#144390"/>
</g>
<defs>
<linearGradient id="paint0_linear_1089_84" x1="1.03126" y1="30.3963" x2="92.9345" y2="124.992" gradientUnits="userSpaceOnUse">
<stop stop-color="#DEDD41"/>
<stop offset="1" stop-color="#3C9E36"/>
</linearGradient>
</defs>
</svg>
