<svg width="313" height="308" viewBox="0 0 313 308" fill="none" xmlns="http://www.w3.org/2000/svg">
<g clip-path="url(#clip0_465_2184)">
<path d="M197.649 196.699L55.4177 51.422H47.6738L189.769 196.506L197.649 196.699Z" fill="#144390"/>
<path d="M165.383 196.337L23.4003 51.422H14.6602C15.0111 51.7956 15.3508 52.1692 15.713 52.5542L156.597 196.337C159.575 196.314 162.473 196.325 165.383 196.337Z" fill="#144390"/>
<path d="M210.522 196.914L67.9963 51.422H60.5469L202.925 196.699L210.522 196.914Z" fill="#144390"/>
<path d="M182.216 196.427L40.0865 51.422H31.6406L173.646 196.337L182.216 196.427Z" fill="#144390"/>
<path d="M150.822 196.348L8.8175 51.4333H-0.00195312C1.27737 52.9731 2.62464 54.4901 4.05114 55.9619L141.663 196.382L150.822 196.348Z" fill="#144390"/>
<path d="M272.29 185.83L269.369 196.654L306.685 236.131L309.606 225.308L272.29 185.83Z" fill="#144390"/>
<path d="M242.877 115.784L234.092 148.402L346.548 267.39L355.333 234.773L242.877 115.784Z" fill="url(#paint0_linear_465_2184)"/>
<path d="M111.289 21.1598L105.764 41.6856L176.534 116.566L182.059 96.0512L111.289 21.1598Z" fill="#D42D1E"/>
<path d="M222.59 77.1896L213.805 109.795L326.261 228.784L335.046 196.178L222.59 77.1896Z" fill="#11458F"/>
<path d="M158.206 60.4679L153.949 76.25L208.383 133.842L212.64 118.06L158.206 60.4679Z" fill="#144390"/>
<path d="M198.667 40.2138L193.143 60.7283L263.913 135.62L269.449 115.094L198.667 40.2138Z" fill="#D42D1E"/>
<path d="M251.199 0.577393L245.674 21.1032L316.444 95.9832L321.98 75.4688L251.199 0.577393Z" fill="#D42D1E"/>
<path d="M346.241 112.456L349.151 101.633L311.835 62.1548L308.926 72.9781L346.241 112.456Z" fill="#144390"/>
<path d="M338.917 159.7L347.691 127.095L235.235 8.10616L226.461 40.7233L338.917 159.7Z" fill="url(#paint1_linear_465_2184)"/>
<path d="M363.792 203.356L372.577 170.739L260.121 51.7617L251.336 84.3674L363.792 203.356Z" fill="#144390"/>
<path d="M247.984 73.3743L252.23 57.5922L197.796 0L193.551 15.7821L247.984 73.3743Z" fill="#144390"/>
</g>
<defs>
<linearGradient id="paint0_linear_465_2184" x1="231.699" y1="125.462" x2="356.091" y2="257.536" gradientUnits="userSpaceOnUse">
<stop stop-color="#DEDD41"/>
<stop offset="1" stop-color="#3C9E36"/>
</linearGradient>
<linearGradient id="paint1_linear_465_2184" x1="224.405" y1="17.7062" x2="348.796" y2="149.791" gradientUnits="userSpaceOnUse">
<stop stop-color="#DEDD41"/>
<stop offset="1" stop-color="#3C9E36"/>
</linearGradient>
<clipPath id="clip0_465_2184">
<rect width="419.086" height="308" fill="white" transform="translate(-0.00195312)"/>
</clipPath>
</defs>
</svg>
