<svg width="16" height="15" viewBox="0 0 16 15" fill="none" xmlns="http://www.w3.org/2000/svg">
<path d="M15.0387 5.47745C14.9273 5.1785 14.6534 4.97239 14.3368 4.94454L10.1395 4.44691L8.4219 0.489995C8.29192 0.187331 7.99482 0.0852051 7.66523 0.0852051H7.66431C7.33565 0.0852051 7.03762 0.185474 6.90672 0.487209L5.18822 4.44691L0.991779 4.94454C0.673332 4.97239 0.400374 5.17943 0.431012 5.47838C0.177554 5.77733 0.247186 6.11249 0.469077 6.3418L3.70275 9.39815L2.72606 13.8713C2.6685 14.1879 2.79941 14.5091 3.4298 14.6948C3.20327 14.7941 3.37038 14.8452 3.53749 14.8452C3.67954 14.8452 3.82159 14.809 3.94878 14.7356L7.66431 12.3691L11.3789 14.7356C11.507 14.809 11.6491 14.8452 11.7902 14.8452C11.9573 14.8452 12.1235 14.7941 12.2646 14.6948C12.5283 14.51 12.6592 14.1906 12.6026 13.874L11.6249 9.39815L14.8605 6.33995C15.0814 6.11156 15.36 5.77547 15.0387 5.47745Z" fill="url(#paint0_linear_465_2734)"/>
<defs>
<linearGradient id="paint0_linear_465_2734" x1="0.269531" y1="14.8092" x2="1.28859" y2="0.0837241" gradientUnits="userSpaceOnUse">
<stop stop-color="#9A9A9A"/>
<stop offset="1" stop-color="#D2D2D2"/>
</linearGradient>
</defs>
</svg>
