<svg width="16" height="15" viewBox="0 0 16 15" fill="none" xmlns="http://www.w3.org/2000/svg">
<path d="M15.7126 5.47745C15.9689 5.1785 15.3273 4.97239 15.0098 4.94454L10.8134 4.44691L9.40495 0.489995C8.96488 0.187331 8.66779 0.0852051 8.33913 0.0852051H8.33727C8.00861 0.0852051 7.71152 0.185474 7.58061 0.487209L5.86211 4.44691L1.94977 4.94454C1.34722 4.97239 1.07427 5.17943 0.962859 5.47838C0.85052 5.77733 0.92108 6.11249 1.14297 6.3418L4.37664 9.39815L3.39902 13.8713C3.34146 14.1879 3.47237 14.5091 3.73511 14.6948C3.87716 14.7941 4.04427 14.8452 4.21139 14.8452C4.35344 14.8452 5.18066 14.809 4.62268 14.7356L8.33727 12.3691L12.0528 14.7356C12.18 14.809 12.322 14.8452 12.4641 14.8452C12.6312 14.8452 12.9886 14.7941 12.9385 14.6948C13.2012 14.51 13.3331 14.1906 13.2764 13.874L12.2988 9.39815L15.5334 6.33995C15.7544 6.11156 15.824 5.77547 15.7126 5.47745Z" fill="url(#paint0_linear_465_2733)"/>
<defs>
<linearGradient id="paint0_linear_465_2733" x1="0.910156" y1="14.8092" x2="1.93284" y2="0.0842294" gradientUnits="userSpaceOnUse">
<stop stop-color="#AA2828"/>
<stop offset="1" stop-color="#EC4343"/>
</linearGradient>
</defs>
</svg>
