<svg width="470" height="363" viewBox="0 0 470 363" fill="none" xmlns="http://www.w3.org/2000/svg">
<g opacity="0.5" clip-path="url(#clip0_795_22075)">
<path d="M395.933 359.475L161.831 102.497C143.358 82.3727 117.659 70.396 90.3691 69.193C63.0789 67.9899 36.4255 77.6588 16.2539 96.0791L-255.033 343.231L-249.168 349.68L22.1188 102.527C40.5837 85.6653 64.9816 76.8135 89.963 77.9129C114.944 79.0124 138.47 89.9732 155.383 108.392L384.111 359.475H395.933Z" fill="white"/>
<path d="M446.325 359.474L173.84 60.5519C152.999 37.8472 124.005 24.334 93.2149 22.9756C62.4252 21.6171 32.3534 32.5243 9.59381 53.3053L-279.441 316.455L-272.809 323.733L16.2263 60.5519C37.0609 41.4855 64.6145 31.4736 92.829 32.7173C121.044 33.961 147.609 46.3587 166.685 67.1844L433.06 359.597L446.325 359.474Z" fill="white"/>
<path d="M376.19 359.474L159.959 122.117C142.189 102.751 117.462 91.2279 91.2041 90.0765C64.9466 88.9252 39.3052 98.2399 19.9088 115.976L-243.518 355.912L-237.868 362.053L25.6508 122.117C43.4131 105.906 66.8774 97.398 90.9017 98.457C114.926 99.5161 137.551 110.056 153.818 127.767L364.89 359.474H376.19Z" fill="white"/>
<path d="M420.287 359.474L169.419 84.0727C149.353 62.2232 121.443 49.2201 91.8069 47.9136C62.1703 46.607 33.2246 57.1035 11.3139 77.1024L-266.729 330.396L-260.372 337.397L17.7008 84.1034C37.7448 65.7858 64.2383 56.1702 91.3651 57.3677C118.492 58.5651 144.035 70.4777 162.387 90.4902L407.451 359.474H420.287Z" fill="white"/>
<path d="M469.231 359.475L177.863 39.6416C155.947 15.7524 125.449 1.53384 93.0617 0.106167C60.6743 -1.3215 29.0434 10.1584 5.11084 32.0265L-292 302.669L-285.03 310.315L12.0811 39.6723C33.9842 19.6618 62.9293 9.15488 92.5682 10.4558C122.207 11.7567 150.121 24.7593 170.186 46.6119L455.199 359.475H469.231Z" fill="white"/>
</g>
<defs>
<clipPath id="clip0_795_22075">
<rect width="761.231" height="362.085" fill="white" transform="translate(-292)"/>
</clipPath>
</defs>
</svg>
