<svg width="490" height="363" viewBox="0 0 490 363" fill="none" xmlns="http://www.w3.org/2000/svg">
<g opacity="0.5" clip-path="url(#clip0_795_22081)">
<path d="M73.2974 2.6099L307.4 259.588C325.872 279.712 351.571 291.689 378.861 292.892C406.152 294.095 432.805 284.426 452.977 266.006L724.264 18.8534L718.399 12.4052L447.112 259.557C428.647 276.419 404.249 285.271 379.267 284.172C354.286 283.072 330.76 272.111 313.848 253.693L85.1192 2.6099L73.2974 2.6099Z" fill="white"/>
<path d="M22.9059 2.61023L295.391 301.533C316.232 324.237 345.226 337.751 376.016 339.109C406.805 340.468 436.877 329.56 459.637 308.779L748.672 45.6294L742.039 38.3521L453.004 301.533C432.17 320.599 404.616 330.611 376.401 329.367C348.187 328.124 321.621 315.726 302.545 294.9L36.1708 2.48739L22.9059 2.61023Z" fill="white"/>
<path d="M93.0404 2.61051L309.272 239.968C327.041 259.333 351.769 270.857 378.026 272.008C404.284 273.16 429.925 263.845 449.322 246.109L712.748 6.17249L707.098 0.03128L443.58 239.968C425.817 256.179 402.353 264.687 378.329 263.628C354.304 262.569 331.68 252.029 315.413 234.318L104.34 2.61051L93.0404 2.61051Z" fill="white"/>
<path d="M48.9439 2.6102L299.812 278.012C319.877 299.862 347.787 312.865 377.424 314.171C407.06 315.478 436.006 304.981 457.917 284.982L735.959 31.6888L729.603 24.6878L451.53 277.981C431.486 296.299 404.992 305.914 377.865 304.717C350.738 303.52 325.195 291.607 306.843 271.594L61.779 2.6102L48.9439 2.6102Z" fill="white"/>
<path d="M-0.0008841 2.60977L291.368 322.443C313.283 346.332 343.781 360.551 376.169 361.979C408.556 363.406 440.187 351.926 464.12 330.058L761.23 59.4159L754.26 51.7701L457.149 322.412C435.246 342.423 406.301 352.93 376.662 351.629C347.023 350.328 319.11 337.325 299.044 315.473L14.0316 2.60977L-0.0008841 2.60977Z" fill="white"/>
</g>
<defs>
<clipPath id="clip0_795_22081">
<rect width="761.231" height="362.085" fill="white" transform="translate(761.23 362.085) rotate(-180)"/>
</clipPath>
</defs>
</svg>
