<svg width="305" height="387" viewBox="0 0 305 387" fill="none" xmlns="http://www.w3.org/2000/svg">
<path d="M254.427 385.455L93.1187 208.384C80.3903 194.518 62.6823 186.265 43.878 185.436C25.0737 184.607 6.70825 191.27 -7.19096 203.962L-194.121 374.262L-190.08 378.705L-3.1498 208.405C9.57341 196.786 26.3848 190.687 43.5982 191.445C60.8116 192.202 77.0222 199.755 88.6755 212.446L246.281 385.455H254.427Z" fill="#164194"/>
<path d="M289.145 385.455L101.39 179.483C87.0292 163.838 67.0507 154.527 45.8351 153.591C24.6195 152.655 3.89853 160.17 -11.784 174.489L-210.943 355.813L-206.373 360.827L-7.21387 179.483C7.1422 166.345 26.128 159.446 45.5692 160.303C65.0104 161.16 83.3155 169.703 96.4599 184.053L280.005 385.539L289.145 385.455Z" fill="#164194"/>
<path d="M240.821 385.455L91.8274 221.905C79.5834 208.561 62.5448 200.62 44.4521 199.827C26.3594 199.034 8.69122 205.452 -4.67378 217.673L-186.188 383.001L-182.294 387.233L-0.71727 221.905C11.5218 210.735 27.6898 204.872 44.2438 205.602C60.7977 206.331 76.3872 213.594 87.5959 225.798L233.035 385.455H240.821Z" fill="#164194"/>
<path d="M271.203 385.455L98.3434 195.69C84.5171 180.634 65.2859 171.675 44.8649 170.774C24.4438 169.874 4.49878 177.107 -10.5987 190.887L-202.184 365.418L-197.804 370.242L-6.19788 195.711C7.61345 183.089 25.8688 176.464 44.5605 177.289C63.2522 178.114 80.8527 186.322 93.4982 200.112L262.359 385.455H271.203Z" fill="#164194"/>
<path d="M304.93 385.455L104.163 165.074C89.0617 148.614 68.0471 138.816 45.7306 137.832C23.4141 136.849 1.61891 144.759 -14.8718 159.827L-219.596 346.313L-214.793 351.581L-10.0689 165.095C5.02335 151.307 24.9679 144.068 45.3906 144.964C65.8134 145.86 85.047 154.82 98.8731 169.877L295.261 385.455H304.93Z" fill="#164194"/>
<path d="M55.1411 339.31L52.2637 349.719L88.0417 388.058L90.9192 377.627L55.1411 339.31Z" fill="url(#paint0_linear_795_29061)"/>
<path d="M-3.31746 196.621L-11.9922 228.04L95.8285 343.541L104.503 312.122L-3.31746 196.621Z" fill="url(#paint1_linear_795_29061)"/>
<path d="M-0.443556 261.724L-4.63281 276.936L47.5426 332.857L51.753 317.644L-0.443556 261.724Z" fill="#D52C1E"/>
<path d="M72.1491 265.405L75.0266 254.974L39.2486 216.657L36.3711 227.066L72.1491 265.405Z" fill="#164194"/>
<path d="M33.2819 351.581L36.1594 341.171L0.381383 302.833L-2.49609 313.264L33.2819 351.581Z" fill="#164194"/>
<path d="M127.099 421.36L131.754 404.518L73.9714 342.631L69.3379 359.452L127.099 421.36Z" fill="#164194"/>
<path d="M259.778 487.33L268.452 455.91L160.632 340.388L151.957 371.808L259.778 487.33Z" fill="url(#paint2_linear_795_29061)"/>
<path d="M118.359 355.96L122.569 340.769L70.3729 284.849L66.1836 300.061L118.359 355.96Z" fill="#164194"/>
<path d="M179.506 392.373L184.964 372.612L117.111 299.913L111.652 319.675L179.506 392.373Z" fill="#D52C1E"/>
<defs>
<linearGradient id="paint0_linear_795_29061" x1="51.9046" y1="342.532" x2="91.5741" y2="384.931" gradientUnits="userSpaceOnUse">
<stop stop-color="#DFDE40"/>
<stop offset="1" stop-color="#3C9F36"/>
</linearGradient>
<linearGradient id="paint1_linear_795_29061" x1="-13.4143" y1="206.247" x2="106.211" y2="334.015" gradientUnits="userSpaceOnUse">
<stop stop-color="#DFDE40"/>
<stop offset="1" stop-color="#3C9F36"/>
</linearGradient>
<linearGradient id="paint2_linear_795_29061" x1="150.558" y1="350.021" x2="270.162" y2="477.788" gradientUnits="userSpaceOnUse">
<stop stop-color="#DFDE40"/>
<stop offset="1" stop-color="#3C9F36"/>
</linearGradient>
</defs>
</svg>
