<svg width="381" height="377" viewBox="0 0 381 377" fill="none" xmlns="http://www.w3.org/2000/svg">
<path d="M50.4664 -5.82087L210.672 170.04C223.313 183.811 240.901 192.008 259.576 192.831C278.252 193.654 296.492 187.037 310.296 174.432L495.949 5.29526L491.936 0.882434L306.283 170.019C293.646 181.558 276.95 187.616 259.854 186.863C242.758 186.111 226.659 178.61 215.085 166.005L58.5565 -5.82087L50.4664 -5.82087Z" fill="#164194"/>
<path d="M15.9849 -5.82105L202.457 198.744C216.72 214.282 236.562 223.529 257.632 224.459C278.703 225.389 299.282 217.924 314.858 203.703L512.656 23.6187L508.117 18.6386L310.319 198.744C296.061 211.792 277.205 218.643 257.896 217.792C238.588 216.941 220.408 208.457 207.353 194.205L25.0627 -5.90511L15.9849 -5.82105Z" fill="#164194"/>
<path d="M63.979 -5.82147L211.955 156.612C224.115 169.864 241.037 177.75 259.007 178.538C276.976 179.326 294.523 172.952 307.797 160.814L488.07 -3.38388L484.204 -7.58654L303.867 156.612C291.712 167.705 275.654 173.528 259.214 172.803C242.773 172.078 227.29 164.866 216.158 152.745L71.7119 -5.82147L63.979 -5.82147Z" fill="#164194"/>
<path d="M33.8045 -5.82122L205.483 182.647C219.215 197.6 238.315 206.499 258.597 207.393C278.878 208.287 298.687 201.104 313.681 187.418L503.957 14.0785L499.607 9.28744L309.31 182.626C295.593 195.162 277.463 201.742 258.899 200.923C240.335 200.103 222.855 191.951 210.296 178.256L42.5881 -5.82122L33.8045 -5.82122Z" fill="#164194"/>
<path d="M0.308249 -5.82133L199.704 213.054C214.702 229.402 235.573 239.132 257.737 240.109C279.901 241.086 301.547 233.23 317.925 218.265L521.25 33.0534L516.48 27.8211L313.155 213.033C298.166 226.727 278.357 233.917 258.074 233.027C237.791 232.136 218.689 223.238 204.957 208.284L9.91131 -5.82133L0.308249 -5.82133Z" fill="#164194"/>
<path d="M248.392 40.0088L251.25 29.6703L215.716 -8.40592L212.859 1.95367L248.392 40.0088Z" fill="url(#paint0_linear_795_29092)"/>
<path d="M406.813 158.903L411.436 142.197L354.048 80.7119L349.446 97.4385L406.813 158.903Z" fill="#D52C1E"/>
<path d="M478.908 265.756L487.523 234.551L380.439 119.818L371.824 151.023L478.908 265.756Z" fill="url(#paint1_linear_795_29092)"/>
<path d="M306.451 181.723L315.066 150.518L207.982 35.8061L199.367 67.0109L306.451 181.723Z" fill="url(#paint2_linear_795_29092)"/>
<path d="M303.595 117.065L307.756 101.956L255.937 46.4178L251.755 61.5264L303.595 117.065Z" fill="#D52C1E"/>
<path d="M383.172 192.65L387.354 177.542L335.514 122.003L331.353 137.112L383.172 192.65Z" fill="#164194"/>
<path d="M379.81 268.319L376.952 278.678L412.464 316.733L415.322 306.395L379.81 268.319Z" fill="#164194"/>
<path d="M231.498 113.409L228.64 123.769L264.173 161.824L267.031 151.485L231.498 113.409Z" fill="#164194"/>
<path d="M270.101 27.8217L267.243 38.1602L302.777 76.2364L305.635 65.8768L270.101 27.8217Z" fill="#164194"/>
<path d="M176.925 -41.4805L172.302 -24.7539L229.689 36.7101L234.291 20.0045L176.925 -41.4805Z" fill="#164194"/>
<path d="M387.102 223.077L378.507 254.282L485.57 368.994L494.186 337.789L387.102 223.077Z" fill="url(#paint3_linear_795_29092)"/>
<path d="M45.1523 -107L36.5368 -75.7951L143.621 38.9377L152.236 7.7329L45.1523 -107Z" fill="url(#paint4_linear_795_29092)"/>
<path d="M363.527 181.093L354.912 212.297L461.996 327.009L470.611 295.804L363.527 181.093Z" fill="#164194"/>
<path d="M314.499 198.198L310.318 213.285L362.158 268.823L366.318 253.715L314.499 198.198Z" fill="#164194"/>
<path d="M185.605 23.4719L181.423 38.5595L233.263 94.0977L237.424 78.9891L185.605 23.4719Z" fill="#164194"/>
<path d="M331.71 176.533L326.288 196.18L393.678 268.382L399.1 248.735L331.71 176.533Z" fill="#D52C1E"/>
<path d="M124.876 -12.6923L119.454 6.93413L186.844 79.136L192.266 59.5095L124.876 -12.6923Z" fill="#D52C1E"/>
<defs>
<linearGradient id="paint0_linear_795_29092" x1="251.607" y1="36.8083" x2="212.208" y2="-5.30087" gradientUnits="userSpaceOnUse">
<stop stop-color="#DFDE40"/>
<stop offset="1" stop-color="#3C9F36"/>
</linearGradient>
<linearGradient id="paint1_linear_795_29092" x1="488.928" y1="256.17" x2="370.121" y2="129.255" gradientUnits="userSpaceOnUse">
<stop stop-color="#DFDE40"/>
<stop offset="1" stop-color="#3C9F36"/>
</linearGradient>
<linearGradient id="paint2_linear_795_29092" x1="316.479" y1="172.162" x2="197.671" y2="45.2675" gradientUnits="userSpaceOnUse">
<stop stop-color="#DFDE40"/>
<stop offset="1" stop-color="#3C9F36"/>
</linearGradient>
<linearGradient id="paint3_linear_795_29092" x1="495.613" y1="359.433" x2="376.806" y2="232.518" gradientUnits="userSpaceOnUse">
<stop stop-color="#DFDE40"/>
<stop offset="1" stop-color="#3C9F36"/>
</linearGradient>
<linearGradient id="paint4_linear_795_29092" x1="153.626" y1="29.3706" x2="34.8389" y2="-97.5232" gradientUnits="userSpaceOnUse">
<stop stop-color="#DFDE40"/>
<stop offset="1" stop-color="#3C9F36"/>
</linearGradient>
</defs>
</svg>
