<svg width="217" height="70" viewBox="0 0 217 70" fill="none" xmlns="http://www.w3.org/2000/svg">
<g clip-path="url(#clip0_795_29151)">
<path d="M55.4857 68.3074H15.8404C12.8254 68.2901 9.94051 67.0774 7.81879 64.9353C5.69708 62.7931 4.51195 59.8967 4.52352 56.8817V16.8558C4.51484 13.8427 5.70124 10.9491 7.82264 8.80932C9.94405 6.66957 12.8273 5.4583 15.8404 5.44104H55.4857C58.501 5.4583 61.3863 6.67095 63.5086 8.81295C65.6309 10.9549 66.8169 13.8514 66.8063 16.8667V56.8817C66.8169 59.8971 65.6309 62.7935 63.5086 64.9355C61.3863 67.0775 58.501 68.2901 55.4857 68.3074V68.3074ZM16.337 8.29382C11.7552 8.29382 7.51768 12.2304 7.51768 16.8558V56.8817C7.50996 59.0949 8.38027 61.2209 9.93775 62.7933C11.4952 64.3657 13.6127 65.2563 15.8259 65.2697H55.4857C57.6995 65.2573 59.818 64.3671 61.3763 62.7946C62.9345 61.222 63.8053 59.0956 63.7976 56.8817V16.8558C63.8053 14.642 62.9345 12.5155 61.3763 10.943C59.818 9.37043 57.6995 8.48028 55.4857 8.46781L16.337 8.29382Z" fill="white"/>
<path d="M37.016 10.8008L11.6405 27.8781C5.58161 31.9556 3.97543 40.1728 8.05297 46.2317L20.0868 64.113C24.1644 70.1719 32.3816 71.7781 38.4405 67.7006L63.8159 50.6232C69.8748 46.5457 71.481 38.3285 67.4035 32.2696L55.3696 14.3883C51.2921 8.32941 43.0748 6.72322 37.016 10.8008Z" fill="#D32E1E"/>
<path d="M57.6822 17.8562L49.3703 5.50624C45.8469 0.27191 38.5863 -1.06568 33.236 2.53383L5.54913 21.1657C0.198798 24.7652 -1.29466 31.9933 2.2251 37.2312L10.537 49.5812L57.6822 17.8562Z" fill="white"/>
<path d="M57.6222 17.8453C55.1646 14.3872 52.7504 11.0378 50.4051 7.69566L49.5315 6.44147L49.0965 5.81437C48.9479 5.60775 48.792 5.41925 48.6398 5.21625C48.3328 4.82343 47.9997 4.45165 47.6429 4.10341C47.4653 3.92942 47.2804 3.77718 47.0811 3.61406L46.7984 3.37118C46.7041 3.28781 46.5954 3.22619 46.4975 3.15007L45.8849 2.72596L45.236 2.36347L44.9098 2.18223L44.5473 2.0336C44.3189 1.93935 44.0942 1.82698 43.8622 1.74361C43.3955 1.57445 42.9184 1.43523 42.434 1.32676L42.0715 1.247L41.8902 1.20351L41.7054 1.18176L40.9804 1.08388C40.7375 1.04763 40.4874 1.05851 40.2554 1.04401C40.014 1.02848 39.7719 1.02848 39.5304 1.04401L38.7475 1.09114C38.501 1.11651 38.2581 1.16363 38.0225 1.19988L37.66 1.25789C37.5368 1.28326 37.4208 1.31589 37.2975 1.34851L36.5726 1.52975L35.873 1.78348L35.5105 1.91036L35.177 2.07349L34.5064 2.38885L33.8684 2.77309L33.5494 2.96157L33.2268 3.17544L32.5852 3.62855C31.7261 4.20854 30.8597 4.78127 29.9934 5.35037C28.2643 6.49584 26.5207 7.62318 24.7808 8.75052L19.5573 12.1325C16.0702 14.38 12.6036 16.6576 9.15756 18.9654L6.58027 20.709L5.93504 21.144L5.61605 21.3651L5.31156 21.5935L4.70257 22.0575L4.14072 22.5795L3.86161 22.8368L3.60786 23.1268L3.10401 23.6995L2.67265 24.2904C2.60015 24.3919 2.52403 24.4934 2.45515 24.6021L2.26304 24.932C2.13979 25.1531 2.00567 25.3706 1.90055 25.5953L1.58518 26.2877C1.47801 26.5228 1.38717 26.7651 1.31332 27.0127C1.2372 27.2519 1.13569 27.4875 1.08132 27.7377L0.903705 28.4626L0.856579 28.6475L0.831202 28.8324L0.776831 29.1949C0.707332 29.6947 0.668591 30.1983 0.660833 30.7028C0.660833 30.9529 0.682588 31.2067 0.689838 31.4568L0.711586 31.8193C0.711586 31.9425 0.747833 32.0694 0.765957 32.1818L0.878328 32.9249L1.06682 33.6498C1.09944 33.7695 1.1212 33.8927 1.1647 34.0123L1.29519 34.3748C1.38581 34.6068 1.45831 34.846 1.55981 35.0744C1.76459 35.5306 1.99952 35.9726 2.26304 36.3975C2.39716 36.6077 2.51677 36.8216 2.66539 37.0319L3.10763 37.6698L3.9921 38.953L7.51912 44.075L11.028 49.2151L10.2269 49.0592C14.1164 46.4131 17.9805 43.756 21.8845 41.1497C23.8275 39.8375 25.7885 38.5434 27.7496 37.2457C29.7106 35.948 31.6681 34.6503 33.6473 33.3599L39.5812 29.4849L42.5536 27.5383L45.5514 25.6026L51.5506 21.753L57.6222 17.8453ZM57.7419 17.8707L52.0291 21.8943L46.2546 25.9325L43.3547 27.9588L40.4331 29.9815L34.5825 34.0341C32.6323 35.3898 30.664 36.7346 28.6957 38.0794C26.7274 39.4243 24.7591 40.7727 22.7726 42.1067C18.8106 44.7855 14.8233 47.4172 10.8613 50.0597L10.3791 50.3787L10.0602 49.9038L6.62014 44.7166L3.22363 39.5149L2.36816 38.2136L1.94404 37.5611C1.80267 37.34 1.67218 37.1007 1.53806 36.8687C1.26835 36.4028 1.03213 35.9183 0.831202 35.4188C0.726081 35.1687 0.657208 34.9077 0.57021 34.6575L0.443337 34.2733C0.403464 34.1464 0.381722 34.0123 0.349098 33.8818L0.178728 33.0988L0.080849 32.3014C0.080849 32.1709 0.0482268 32.0368 0.0373522 31.9026V31.5039C0.0373522 31.2357 0.0192278 30.971 0.0373522 30.7028C0.0596531 30.1716 0.116564 29.6425 0.207722 29.1187L0.272967 28.7236L0.309218 28.5279L0.359972 28.3357L0.566593 27.5673C0.631841 27.3099 0.747834 27.067 0.834831 26.8169C0.920036 26.5687 1.02176 26.3265 1.13932 26.0919L1.50181 25.367C1.6323 25.135 1.7773 24.9139 1.91142 24.6891L2.12166 24.352C2.19416 24.2396 2.27753 24.1381 2.35728 24.033L2.82852 23.3951L3.36137 22.8114L3.62961 22.5178L3.92323 22.2532L4.51046 21.724L5.14481 21.2527C5.35505 21.0932 5.56893 20.941 5.78642 20.7996L6.43165 20.3683L9.01619 18.6356C12.455 16.3157 15.8708 13.9619 19.2637 11.5743L24.3676 8.01105C26.0676 6.82209 27.7641 5.63311 29.4787 4.46227C30.3305 3.87504 31.1896 3.29143 32.0487 2.71145L32.6939 2.27648L33.0165 2.05897L33.379 1.84875L34.075 1.42825L34.8 1.06576L35.1625 0.891772L35.5467 0.757653L36.3152 0.485787L37.1018 0.290029C37.2359 0.26103 37.3664 0.221175 37.4969 0.1958L37.8992 0.13779C38.1675 0.101541 38.4357 0.0507937 38.704 0.0254195L39.4725 0.00367106C39.7416 -0.014448 40.0117 -0.014448 40.2808 0.00367106C40.5527 0.0217955 40.8245 0.00367637 41.0928 0.0544247L41.8939 0.166795L42.0969 0.1958L42.2926 0.242904L42.6877 0.340783C43.2125 0.467353 43.7284 0.628412 44.2319 0.822898C44.4857 0.92077 44.7249 1.04401 44.9569 1.15275L45.3194 1.32313C45.439 1.38838 45.555 1.45725 45.6819 1.52613L46.3779 1.93574L47.034 2.4106C47.1427 2.49397 47.2587 2.56284 47.3566 2.65346L47.6611 2.92533C47.8568 3.10657 48.067 3.28782 48.2519 3.47269C48.627 3.85877 48.9746 4.27058 49.2923 4.70513C49.4518 4.92263 49.6149 5.13651 49.7635 5.35763L50.1949 6.0246L51.0576 7.35132C53.3521 10.911 55.5669 14.4452 57.7419 17.8707V17.8707Z" fill="#1B458F"/>
<path d="M52.7071 9.35228H18.829C16.0928 9.35227 13.4684 10.4377 11.5316 12.3704C9.59479 14.3032 8.50381 16.9253 8.49805 19.6614V53.4707C8.49805 56.2107 9.58649 58.8384 11.5239 60.7758C13.4613 62.7132 16.089 63.8017 18.829 63.8017H52.7071C55.4464 63.8007 58.0732 62.7118 60.0098 60.7745C61.9465 58.8372 63.0344 56.21 63.0344 53.4707V19.6614C63.0287 16.9259 61.9382 14.3043 60.0022 12.3717C58.0661 10.4391 55.4427 9.35323 52.7071 9.35228ZM62.1644 19.6614V53.4707C62.1548 55.973 61.1543 58.3696 59.3819 60.1359C57.6094 61.9023 55.2094 62.8945 52.7071 62.8954H18.829C16.327 62.8945 13.9274 61.9021 12.1555 60.1357C10.3836 58.3693 9.3839 55.9727 9.37527 53.4707V19.6614C9.3839 17.1595 10.3836 14.7629 12.1555 12.9965C13.9274 11.23 16.327 10.2377 18.829 10.2368H52.7071C55.2094 10.2377 57.6094 11.2299 59.3819 12.9963C61.1543 14.7626 62.1548 17.1592 62.1644 19.6614V19.6614Z" fill="white"/>
<path d="M51.3933 11.1248H19.9402C17.3925 11.1296 14.9507 12.1449 13.1505 13.9477C11.3504 15.7506 10.3388 18.1939 10.3379 20.7417V52.2347C10.3388 54.7821 11.3505 57.225 13.1507 59.0273C14.951 60.8296 17.3928 61.844 19.9402 61.8478H51.3933C53.9404 61.843 56.3817 60.8283 58.1817 59.0263C59.9818 57.2242 60.9937 54.7818 60.9956 52.2347V20.7417C60.9947 18.1939 59.9832 15.7506 58.183 13.9477C56.3828 12.1449 53.941 11.1296 51.3933 11.1248V11.1248ZM60.1655 20.7417V52.2347C60.1636 54.5616 59.2391 56.7929 57.5948 58.4393C55.9504 60.0857 53.7203 61.0129 51.3933 61.0177H19.9402C17.6133 61.0129 15.3831 60.0857 13.7388 58.4393C12.0944 56.7929 11.1699 54.5616 11.168 52.2347V20.7417C11.1718 18.416 12.0971 16.1866 13.7413 14.5417C15.3855 12.8969 17.6145 11.9706 19.9402 11.9658H51.3933C53.719 11.9706 55.948 12.8969 57.5922 14.5417C59.2364 16.1866 60.1617 18.416 60.1655 20.7417Z" fill="white"/>
<path d="M27.9216 56.2184C47.7135 40.6314 61.6004 41.5666 65.7364 29.8292C64.6489 27.734 53.2197 11.2263 53.2197 11.2263L53.9918 11.2915C43.6464 25.831 20.3819 25.8273 12.4941 31.7214C5.53797 36.9195 4.71875 41.2911 4.71875 41.2911L19.9433 63.9285C19.9433 63.9285 25.6959 57.98 27.9216 56.2184Z" fill="#12448D"/>
<path d="M15.5955 66.9915L13.0364 66.31L12.75 64.436C13.0826 63.6349 13.3316 62.8016 13.4931 61.9493C13.7337 60.6595 13.7753 59.3405 13.6164 58.0381L14.7763 57.4327L16.306 57.2696L26.3977 47.1018L30.3488 45.8983L37.5986 36.1909L39.0848 31.841L43.7573 28.0204L46.2947 17.8164L39.9511 17.3343L36.3081 16.3845C35.13 16.3845 33.8903 16.3338 32.5962 16.2287C29.7124 16.0021 26.8537 15.5254 24.0524 14.8041L19.9563 16.1489C19.6119 15.7466 20.906 14.2567 20.906 14.2567L15.4687 13.4774L19.398 12.1036L25.8902 13.191L35.0503 12.9953L40.3716 13.2998L43.1374 13.3433L47.7772 12.5023L50.833 12.553L53.3523 11.6287C51.9201 11.8864 50.4463 11.783 49.0641 11.3278C47.7271 10.8614 46.4953 10.1359 45.4392 9.19276L48.843 9.23265C48.843 9.23265 44.7179 7.9168 44.5547 7.69568L42.8728 5.39752L45.6349 6.12975L49.4918 5.64401L46.8058 4.24481C48.426 4.32153 50.0491 4.17764 51.6305 3.81708C53.1167 3.42921 54.6246 2.92896 55.6831 2.53022C56.7416 2.13149 58.5613 2.26924 59.4385 2.33812C60.4788 2.25474 60.5078 3.38933 60.6855 4.05631C60.7558 4.38031 60.7069 4.71881 60.5477 5.00965L61.0842 6.41611C60.9824 6.5275 60.9089 6.66169 60.8698 6.8074C60.8307 6.95312 60.8272 7.10609 60.8594 7.25346C60.8898 7.35485 60.9432 7.44788 61.0153 7.52532L62.1717 8.97528C62.1597 9.05238 62.1299 9.12563 62.0847 9.18916C61.878 9.47915 61.4358 9.37402 61.3597 9.55164C61.3234 9.62777 61.3379 9.75825 61.5663 10.0192C61.5952 10.1494 61.5952 10.2842 61.5663 10.4143C61.5228 10.6137 61.4285 10.6899 61.3705 10.911C61.3382 11.0289 61.3247 11.1513 61.3307 11.2735C61.3658 11.4713 61.3658 11.6737 61.3307 11.8716C61.2957 12.0826 61.222 12.2854 61.1132 12.4697L58.2133 12.8322L56.477 15.9314L57.1621 22.0466L50.5176 31.3154H57.9124L64.2705 32.1963L66.4454 34.1755L65.3579 37.8366L56.6256 42.9114L48.6508 47.1888L44.9752 50.3316L43.5253 52.144L42.6698 51.0275L42.7822 48.4213C43.6908 47.7265 44.4081 46.8122 44.8665 45.7642C45.1758 45.0449 45.3562 44.2768 45.3993 43.495L46.9653 42.3169L49.1909 43.2739L54.94 38.4238L45.1528 39.3264L41.7708 43.2232L32.8536 49.9655L30.9687 50.607L19.0065 59.024C18.4873 60.4984 17.7755 61.8976 16.8896 63.1854C16.436 63.7229 16.0813 64.3365 15.842 64.9978C15.6295 65.6397 15.5458 66.3172 15.5955 66.9915Z" fill="url(#paint0_radial_795_29151)"/>
<path d="M15.858 67.3178L12.8131 66.5094L12.4941 64.4034L12.5231 64.3417C13.3412 62.358 13.6334 60.1968 13.3714 58.0671L13.3496 57.9003L14.7017 57.1753L16.1915 57.0159L26.2651 46.8662L30.1981 45.6772L37.379 36.064L38.8724 31.6707L43.5376 27.8573L45.9953 18.023L39.9164 17.5626H39.8983L36.2734 16.6202C35.0409 16.6202 33.7976 16.5622 32.5724 16.4643C29.6979 16.2355 26.8481 15.7626 24.0539 15.0506L19.8962 16.4172L19.7874 16.2939C19.559 16.0257 19.6605 15.5689 20.1136 14.902C20.2296 14.7243 20.3529 14.5395 20.458 14.4235L14.3827 13.5535L19.3524 11.7411L25.9207 12.9409L35.0699 12.7452L40.3949 13.0496L43.1353 13.0931L47.7751 12.2522L50.8092 12.3029L51.6175 12.0057C50.7277 11.9896 49.8453 11.8393 49.0003 11.5598C47.6242 11.0759 46.3567 10.3258 45.2703 9.35226L44.8136 8.9209L47.2314 8.94991C44.5272 8.05094 44.4076 7.89145 44.3605 7.82257L42.2581 4.95891L45.6437 5.87964L48.6705 5.49901L45.6582 3.93308L46.8109 4.00195C48.4054 4.07397 50.0024 3.93254 51.5595 3.58146C52.8463 3.24072 54.3543 2.76224 55.5904 2.30188C56.7177 1.87777 58.4468 2.01551 59.3747 2.08801H59.4291C60.5166 2.01551 60.7051 2.99785 60.8392 3.65033C60.8646 3.77358 60.8863 3.88957 60.9153 3.99107C60.9954 4.33586 60.9558 4.69765 60.803 5.01692L61.3576 6.46687L61.2525 6.57924C61.1792 6.65693 61.1239 6.74983 61.0907 6.85135C61.0575 6.95287 61.0471 7.06048 61.0603 7.16647C61.0813 7.23217 61.1159 7.29269 61.1618 7.34409V7.34409L62.387 8.89915V9.00429C62.3687 9.11927 62.3241 9.22845 62.2565 9.32328C62.1057 9.50443 61.8922 9.62218 61.6584 9.65313L61.5751 9.67125C61.6143 9.73758 61.6605 9.79956 61.7128 9.85613L61.7527 9.90325V9.96487C61.7906 10.1295 61.7906 10.3005 61.7527 10.4651C61.7282 10.5714 61.6891 10.6739 61.6367 10.7696C61.6012 10.8351 61.5732 10.9044 61.5533 10.9762C61.5308 11.0613 61.521 11.1493 61.5243 11.2372C61.5624 11.4567 61.5624 11.6811 61.5243 11.9006C61.4854 12.1416 61.4004 12.373 61.2742 12.582L61.2126 12.6872L58.3127 13.0496L56.6778 15.9496L57.3666 22.0792L50.9433 31.0363L57.8741 31.0544L64.3119 31.9462L66.6427 34.0849L65.5697 38.0106L56.7322 43.1398L48.7575 47.4063L45.1326 50.5128L43.5014 52.5572L42.4139 51.1073L42.5336 48.3016L42.6242 48.2328C43.5002 47.5618 44.1922 46.6802 44.636 45.67C44.9338 44.981 45.1069 44.2446 45.1471 43.495V43.379L46.9197 42.0451L49.1345 42.9984L54.1694 38.7501L45.2558 39.5729L41.9209 43.4117L41.8992 43.4298L32.9457 50.212L31.0536 50.8536L19.1929 59.1908C18.6654 60.6613 17.9502 62.0575 17.0651 63.3449C17.0325 63.3884 16.9999 63.4355 16.9636 63.479C16.5686 63.9603 16.2618 64.5076 16.0574 65.0957C15.863 65.6965 15.7867 66.3292 15.8327 66.9589L15.858 67.3178ZM13.2518 66.1143L15.3324 66.6689C15.3262 66.0882 15.4144 65.5104 15.5934 64.958C15.8154 64.319 16.1479 63.7239 16.5758 63.1999C16.6084 63.1528 16.6446 63.1093 16.6773 63.0658C17.5456 61.7965 18.245 60.4195 18.7579 58.9697L18.7833 58.8936L18.8486 58.8501L30.8324 50.4113L32.7137 49.7697L41.5766 43.0673L45.0094 39.1162L55.6738 38.1302L49.2142 43.5857L46.9777 42.6251L45.6328 43.6509C45.5777 44.4219 45.3926 45.1781 45.0855 45.8875C44.6261 46.9389 43.9153 47.8613 43.0157 48.5735L42.9142 50.9732L43.5231 51.7707L44.7919 50.183L48.5074 47.0076H48.5291L56.5038 42.7338L65.1419 37.7025L66.1388 34.2842L64.1415 32.4718L57.8741 31.6018L50.0189 31.5402L56.8881 21.9632L56.203 15.8626L58.0408 12.6002L60.9407 12.2377C61.0036 12.1081 61.0476 11.9702 61.0712 11.8281C61.1002 11.6577 61.1002 11.4837 61.0712 11.3133V11.2807C61.0667 11.1366 61.0826 10.9926 61.1183 10.853C61.1486 10.7503 61.1886 10.6507 61.2379 10.5557C61.2717 10.4979 61.2974 10.4357 61.3141 10.3709C61.3269 10.2928 61.3269 10.2133 61.3141 10.1353C61.2194 10.0532 61.15 9.94588 61.114 9.82584C61.0781 9.7058 61.077 9.578 61.1111 9.4574C61.1592 9.37761 61.2258 9.31058 61.3053 9.262C61.3848 9.21341 61.4749 9.18469 61.5678 9.17828C61.7164 9.14565 61.8179 9.12028 61.8723 9.04416V9.02241L60.7848 7.66308C60.6912 7.55871 60.6219 7.43492 60.5818 7.30059C60.5436 7.13862 60.5424 6.97013 60.5782 6.80761C60.6139 6.64509 60.6858 6.4927 60.7885 6.36173L60.2628 4.98428L60.31 4.8864C60.443 4.65107 60.4868 4.37568 60.4332 4.1107C60.4006 3.9947 60.3752 3.87145 60.3498 3.74821C60.194 2.98698 60.0526 2.52661 59.4436 2.57736H59.4219H59.3276C58.4395 2.50848 56.7902 2.37799 55.7535 2.76223C54.5029 3.22984 52.9805 3.71195 51.6755 4.05631C50.4154 4.35621 49.1248 4.50828 47.8295 4.50942L50.3089 5.80351L45.6328 6.37988L43.5014 5.80351L44.7556 7.51084C45.0492 7.69933 47.3583 8.47868 48.9315 8.98254L50.501 9.48278L46.1512 9.42839C47.0566 10.1398 48.0731 10.697 49.1598 11.0777C50.5037 11.519 51.9364 11.6186 53.3284 11.3677L53.459 11.8389L50.8962 12.7814L47.8186 12.7307L43.1788 13.5716H43.1534L40.3767 13.5281L35.262 14.6808L25.8808 13.4158L19.3561 12.2594L16.5794 13.3723L21.3932 14.061L21.0996 14.4017C20.6501 14.9201 21.0996 14.9455 20.9909 15.25L24.0503 14.525H24.1192C26.908 15.2407 29.7531 15.7161 32.6231 15.9459C33.8483 16.0402 35.0917 16.0946 36.3205 16.0982H36.3495L39.9998 17.0515L46.6115 17.5517L43.9799 28.1219L39.2965 31.9462L37.8212 36.296L37.7995 36.3287L30.4989 46.1158L26.5333 47.3229L16.4235 57.5088L14.8503 57.6756L13.8825 58.1831C14.1167 60.3171 13.8165 62.4759 13.0089 64.465L13.2518 66.1143Z" fill="white"/>
<path d="M10.2364 67.3432L7.67727 66.6653L7.39453 64.7876C8.22897 62.765 8.52617 60.5611 8.25726 58.3897L9.41721 57.7844L10.9505 57.6212L21.0422 47.4716L24.9933 46.2645L32.2431 36.5607L33.7257 32.2108L38.4018 28.3938L40.9392 18.1861L34.5956 17.704L30.9708 16.7543C29.7927 16.7543 28.553 16.7036 27.2553 16.5984C24.3715 16.3715 21.5128 15.8948 18.7114 15.1738L14.6189 16.5187C14.2564 16.1163 15.565 14.6265 15.565 14.6265C13.7526 14.3655 10.3488 14.931 10.1277 13.8471L13.8722 12.6618L20.5456 13.5572L29.7093 13.365L35.027 13.6659L37.7964 13.713L42.4363 12.8684L45.492 12.9192L48.0113 11.9948C46.5782 12.2523 45.1035 12.1502 43.7195 11.6976C42.383 11.2284 41.1515 10.5018 40.0946 9.5589L43.4984 9.6024C43.4984 9.6024 39.3732 8.28294 39.2137 8.06182L37.5282 5.76366L40.2831 6.51401L44.14 6.02827L41.4503 4.62907C43.0705 4.70579 44.6936 4.5619 46.275 4.20133C47.7612 3.81347 49.5157 3.2806 50.6249 3.14285L53.2602 3.3531C54.3005 3.26611 55.1415 3.77359 55.3191 4.44057C55.3901 4.76376 55.3398 5.10178 55.1777 5.39028L55.7142 6.79674C55.6104 6.9051 55.5337 7.03644 55.4902 7.18005C55.4468 7.32366 55.4378 7.4755 55.4641 7.62323C55.4951 7.72542 55.5484 7.81949 55.62 7.89872L56.7763 9.34867C56.7655 9.42659 56.737 9.50098 56.6929 9.56616C56.4827 9.85252 56.0405 9.75103 55.968 9.92865C55.9353 10.0011 55.968 10.1353 56.1746 10.3926C56.2036 10.5227 56.2036 10.6576 56.1746 10.7877C56.1311 10.9871 56.0404 11.0632 55.9788 11.2843C55.9466 11.4023 55.9332 11.5247 55.939 11.6468C56.014 12.0588 55.9367 12.4839 55.7215 12.843L52.8216 13.2055L51.0852 16.3012L52.6331 22.8405L51.4912 24.1454L49.5773 24.6529L45.0063 31.6526H52.5352L58.8969 32.5334L61.0718 34.5126L60.0061 38.1737L51.2701 43.2486L43.2954 47.5259L39.6197 50.6687L38.1698 52.4812L37.2962 51.4046L37.4086 48.8019C38.3165 48.1063 39.0335 47.1923 39.4929 46.1448C39.8036 45.426 39.9841 44.6577 40.0257 43.8757L41.5917 42.694L43.8173 43.6509L49.5628 38.79L39.7756 39.6926L36.3936 43.5893L27.48 50.3316L25.5914 50.9732L13.6293 59.3902C13.1116 60.8651 12.3997 62.2646 11.5124 63.5515C11.0598 64.0891 10.7064 64.7028 10.4684 65.364C10.2625 66.0022 10.1836 66.6746 10.2364 67.3432V67.3432Z" fill="url(#paint1_linear_795_29151)"/>
<path d="M10.5045 67.6694L7.45962 66.8611L7.14062 64.7586L7.166 64.6934C7.49172 63.9076 7.73469 63.09 7.89098 62.2538C8.1296 60.9907 8.17117 59.6982 8.01422 58.4223L7.99247 58.252L9.34456 57.527L10.838 57.3675L20.9116 47.2178L24.8446 46.0397L32.0218 36.4302L33.5153 32.0332L38.1805 28.2198L40.6346 18.3783L34.5592 17.9143H34.5375L30.9126 16.9718C29.6838 16.9718 28.4368 16.9138 27.2116 16.8159C24.3372 16.5869 21.4874 16.1139 18.6931 15.4022L14.5136 16.7724L14.4049 16.6492C14.1765 16.3846 14.278 15.9242 14.7311 15.2572C14.8435 15.0869 14.9595 14.9274 15.0646 14.7932C14.5535 14.7606 13.9554 14.7642 13.3754 14.7679C11.6645 14.7679 10.0478 14.7896 9.86292 13.8653L9.81942 13.6514L13.8285 12.3827H13.8829L20.5382 13.2744L29.691 13.0823L35.016 13.3832L37.7528 13.4303L42.3926 12.5857L45.4266 12.6364L46.235 12.3392C45.3463 12.3231 44.4652 12.1728 43.6215 11.8933C42.2564 11.4171 40.9979 10.6783 39.9168 9.71841L39.471 9.27256L41.8851 9.30156C39.181 8.40621 39.065 8.24308 39.0142 8.17421L36.9118 5.31056L40.2974 6.23127L43.3242 5.86878L40.3156 4.30283L41.4646 4.37171C43.0592 4.44381 44.6562 4.3024 46.2132 3.95123L47.3007 3.65762C48.389 3.3308 49.4968 3.07292 50.6175 2.88551H50.6428L53.2818 3.09576C54.3946 3.01239 55.3588 3.54523 55.5763 4.36808C55.6578 4.71244 55.6195 5.07431 55.4676 5.39393L56.0222 6.84388L55.917 6.95625C55.8424 7.03305 55.7863 7.12586 55.753 7.22763C55.7197 7.3294 55.7101 7.43743 55.7249 7.54348C55.7436 7.61014 55.7785 7.67115 55.8264 7.72109L57.0516 9.27256V9.37767C57.0355 9.49262 56.992 9.60202 56.9248 9.69666C56.7747 9.88064 56.5589 9.99896 56.323 10.0265L56.2433 10.0447C56.2814 10.1108 56.3263 10.1728 56.3774 10.2295L56.4209 10.2767V10.3383C56.457 10.5031 56.457 10.6737 56.4209 10.8385C56.3957 10.9458 56.3567 11.0493 56.3049 11.1466C56.2696 11.2114 56.2405 11.2794 56.2179 11.3496C56.1956 11.4347 56.1858 11.5227 56.1889 11.6106C56.2684 12.0744 56.1797 12.5512 55.9388 12.9554L55.8772 13.0606L52.9773 13.4231L51.3497 16.323L52.8867 22.8949L51.6107 24.3448L49.7185 24.874L45.4448 31.3988H52.5387L58.9765 32.2869L61.3109 34.4256L60.1727 38.326L51.3751 43.5023L43.4003 47.7688L39.7755 50.8753L38.1479 52.927L37.0604 51.4771L37.1764 48.6678L37.2707 48.5989C38.0132 48.0401 38.6249 47.326 39.0631 46.5065C39.5013 45.687 39.7556 44.7818 39.8081 43.8539V43.7379L41.5806 42.4076L43.7954 43.3573L48.8304 39.109L39.9204 39.9318L36.5711 43.7814H36.5529L27.6067 50.5491L25.6964 51.2052L13.8358 59.5424C13.3078 61.0121 12.5939 62.4081 11.7116 63.6966L11.6065 63.8343C11.212 64.316 10.9053 64.8632 10.7003 65.451C10.5068 66.0519 10.4317 66.6847 10.4791 67.3142L10.5045 67.6694ZM7.89461 66.4659L9.97891 67.0206C9.97 66.44 10.057 65.8619 10.2363 65.3096C10.4583 64.6706 10.7908 64.0755 11.2186 63.5515L11.3201 63.4174C12.1886 62.1495 12.888 60.7737 13.4008 59.3249L13.4262 59.2488L13.4914 59.2017L25.4753 50.7521L27.3566 50.1105L36.2086 43.419L39.6413 39.4678L50.3094 38.4819L43.8571 43.9373L41.6241 42.9767L40.2612 44.0026C40.2071 44.7745 40.0233 45.5319 39.7174 46.2427C39.2622 47.2967 38.5552 48.2227 37.6585 48.9396L37.557 51.3393L38.1696 52.1368L39.4383 50.5491L43.1502 47.3737H43.1756L51.1503 43.0963L59.7703 38.036L60.7671 34.6177L58.7698 32.8053L52.5205 31.9244H44.5458L49.4176 24.4681L51.3497 23.928L52.361 22.7752L50.8386 16.2505L52.68 12.9591L55.5799 12.5966C55.644 12.4672 55.6892 12.3292 55.7141 12.187C55.7431 12.0166 55.7431 11.8426 55.7141 11.6722V11.6396C55.706 11.4954 55.7219 11.3508 55.7612 11.2119C55.7882 11.1081 55.8284 11.0082 55.8808 10.9146C55.9133 10.8566 55.9377 10.7944 55.9533 10.7298C55.9679 10.6519 55.9679 10.572 55.9533 10.4941C55.8596 10.4114 55.7911 10.3039 55.7559 10.184C55.7206 10.064 55.7199 9.93658 55.7539 9.81629C55.8017 9.73724 55.8678 9.67091 55.9467 9.62294C56.0256 9.57497 56.1149 9.54679 56.207 9.54079C56.3557 9.50454 56.4608 9.47917 56.5115 9.40305V9.3813L55.4241 8.02197C55.3311 7.91719 55.2618 7.79353 55.2211 7.65948C55.1832 7.4975 55.182 7.32906 55.2178 7.16659C55.2535 7.00411 55.3253 6.85174 55.4277 6.72065L54.9021 5.34317L54.9528 5.24532C55.0843 5.00942 55.1268 4.73414 55.0724 4.46959C54.9166 3.87873 54.1445 3.49086 53.26 3.55974H53.2383H53.1223L50.6066 3.364C49.5191 3.54854 48.4441 3.80033 47.3877 4.11796C47.0252 4.21583 46.6627 4.32095 46.3002 4.41157C45.0418 4.71357 43.752 4.86566 42.4579 4.86469L44.9155 6.14428L40.2286 6.73514L38.1443 6.16603L39.3985 7.87336C39.6921 8.06185 42.0048 8.8412 43.578 9.34506L45.1439 9.84529L40.794 9.79091C41.6998 10.5017 42.7163 11.0589 43.8027 11.4402C45.1479 11.8815 46.5817 11.9812 47.9749 11.7302L48.1018 12.2015L45.539 13.1439L42.4615 13.0932L37.8216 13.9341H37.7999L35.0196 13.8907L29.6838 13.5753L20.5128 13.771H20.4947L13.8757 12.8866L10.4791 13.974C10.9141 14.3075 12.3133 14.2966 13.379 14.2894C14.1146 14.266 14.851 14.2926 15.583 14.3691L16.0288 14.4308L15.7316 14.7715C15.3518 15.1883 15.041 15.6631 14.8109 16.178L18.6859 14.9056L18.7547 14.9237C21.5467 15.6308 24.3943 16.0965 27.266 16.3157C28.4876 16.4136 29.7309 16.4643 30.9597 16.4679H30.9924L34.639 17.4213L41.2544 17.9215L38.6191 28.4917L33.9358 32.3159L32.4641 36.6658L32.4387 36.6948L25.1418 46.482L21.1544 47.6927L11.0628 57.8569L9.48955 58.0236L8.5217 58.5311C8.66234 59.8036 8.61348 61.0899 8.37671 62.3481C8.21654 63.1927 7.97372 64.0195 7.65173 64.8166L7.89461 66.4659Z" fill="white"/>
<path d="M10.6352 67.829L7.35107 66.9554L7.01758 64.7406L7.05383 64.65C7.86763 62.6868 8.15742 60.5458 7.8948 58.4369L7.8658 58.1832L9.31575 57.4256L10.7657 57.2697L20.832 47.12L24.7577 45.9275L31.8988 36.3614L33.3995 31.9499L38.0611 28.1438L40.4825 18.4907L34.5087 18.0303L30.9128 17.0915C29.684 17.0915 28.4406 17.0335 27.2191 16.9356C24.3483 16.7081 21.5021 16.2364 18.7114 15.5256L14.4885 16.9139L14.329 16.729C13.9665 16.3158 14.329 15.6416 14.648 15.1921C14.7096 15.0978 14.7748 14.9999 14.8473 14.9021C14.3942 14.8803 13.8867 14.8839 13.3974 14.9021C11.6321 14.9021 9.97186 14.9238 9.77249 13.9052L9.70725 13.5826L13.8432 12.274H13.923L20.5783 13.1658L29.713 12.9737L35.0452 13.2745L37.782 13.318L42.3711 12.4698L45.4087 12.5205L45.6443 12.4335C44.9431 12.3718 44.2512 12.2308 43.5818 12.013C42.1994 11.524 40.9261 10.7691 39.8336 9.79099L39.1522 9.14938L41.1132 9.17113C39.0761 8.47515 38.9709 8.33379 38.9057 8.24679L36.6039 5.10402L40.2976 6.11173L42.9184 5.77825L39.7503 4.13256L41.4612 4.23404C43.0435 4.30278 44.6279 4.16263 46.1736 3.81719L47.2393 3.53081C48.3373 3.19658 49.4562 2.93503 50.5887 2.74785H50.6104L53.2783 2.9581C54.4274 2.8711 55.4533 3.44381 55.678 4.32104C55.7631 4.67467 55.73 5.04648 55.5838 5.37952L56.1456 6.85485L55.9897 7.02158C55.9291 7.08386 55.8828 7.1586 55.854 7.24061C55.8252 7.32262 55.8146 7.40992 55.823 7.49644C55.8389 7.5448 55.8649 7.58928 55.8991 7.62695L57.1715 9.24L57.1461 9.39587C57.1253 9.52657 57.0744 9.65065 56.9975 9.75836C56.8554 9.94651 56.6489 10.0756 56.4175 10.1208L56.4429 10.1499L56.5045 10.2187L56.5262 10.313C56.5996 10.6135 56.5568 10.9307 56.4066 11.2011C56.3762 11.2593 56.3508 11.3199 56.3305 11.3823C56.3129 11.4559 56.3044 11.5314 56.3051 11.6071C56.3829 12.094 56.2881 12.5928 56.0369 13.0171L55.9463 13.173L53.0463 13.5355L51.4695 16.3484L53.0101 22.9385L51.6725 24.4645L49.7876 24.9901L45.6588 31.3119H52.5461L59.0455 32.2109L61.4597 34.4221L60.3033 38.4276L60.2635 38.4529L51.4333 43.6039L43.4839 47.8523L39.859 50.9552L38.1481 53.1011L36.9265 51.5062L37.0497 48.6063L37.1875 48.5011C37.9109 47.9536 38.5066 47.2555 38.9335 46.4549C39.3604 45.6544 39.6081 44.7707 39.6597 43.8649V43.6945L41.5301 42.2845L43.7449 43.2378L48.4282 39.283L39.946 40.066L36.6039 43.9011L27.6432 50.6797L25.751 51.3249L13.9339 59.6621C13.4033 61.1261 12.6896 62.517 11.8097 63.8018L11.7082 63.9395C11.3215 64.41 11.0208 64.945 10.8201 65.5199C10.6301 66.1041 10.5563 66.7198 10.6026 67.3324L10.6352 67.829ZM7.57218 66.7633L10.3815 67.51V67.336C10.3328 66.6905 10.4104 66.0416 10.6098 65.4257C10.817 64.8252 11.1301 64.2666 11.5342 63.7764L11.6357 63.6386C12.5088 62.3603 13.2142 60.9752 13.7345 59.5171V59.4809L13.7671 59.4592L25.6458 51.1147L27.5344 50.4731L36.477 43.709L39.8336 39.8231L49.175 38.964L43.792 43.5024L41.5736 42.5491L39.9025 43.8069V43.8649C39.8597 44.6319 39.6818 45.3854 39.3769 46.0906C38.9282 47.1191 38.2245 48.0161 37.3325 48.6969L37.2853 48.7331L37.1694 51.4409L38.1517 52.7205L39.6886 50.7993L43.3606 47.6601L51.3354 43.3937L60.1149 38.279L61.2023 34.4946L58.9513 32.4356L52.5534 31.5403H45.2383L49.6571 24.7726L51.5601 24.2434L52.7709 22.8587L51.2339 16.3158L52.9159 13.3144L55.8158 12.9519L55.8484 12.9012C55.9645 12.703 56.0443 12.4857 56.084 12.2595C56.12 12.0533 56.12 11.8423 56.084 11.6361C56.0786 11.5297 56.0909 11.4231 56.1202 11.3207C56.1422 11.2427 56.1726 11.1673 56.2109 11.0959C56.2586 11.0082 56.2939 10.9143 56.316 10.8168C56.3503 10.669 56.3503 10.5152 56.316 10.3674V10.3384L56.2942 10.313C56.2368 10.2502 56.1869 10.1808 56.1456 10.1064L56.0695 9.97224L56.2181 9.93237H56.2979C56.5063 9.91022 56.6983 9.80902 56.8344 9.64962C56.8905 9.56997 56.9265 9.47795 56.9395 9.38138V9.327L55.7469 7.81543C55.6852 7.74984 55.6404 7.67021 55.6164 7.58343C55.5963 7.4571 55.6058 7.32784 55.6442 7.20581C55.6826 7.08378 55.7487 6.97231 55.8375 6.8802L55.8882 6.82221L55.3445 5.39401L55.3663 5.35051C55.5042 5.05516 55.5399 4.72231 55.4678 4.40442C55.2648 3.63595 54.3549 3.13933 53.2928 3.21908L50.6358 3.00883C49.5212 3.19545 48.4195 3.45212 47.3372 3.7773L46.2497 4.07092C44.681 4.42628 43.0716 4.56895 41.4648 4.49504L40.8776 4.45878L43.7304 5.94137L40.2976 6.37636L37.2201 5.53901L39.1196 8.12716C39.1848 8.21779 39.7285 8.48965 41.9324 9.21463L42.6574 9.45751L39.7757 9.42125L40.0076 9.64238C41.0747 10.5989 42.3184 11.3377 43.6688 11.8173C44.5027 12.0902 45.3724 12.238 46.2497 12.2559H46.884L45.4595 12.7815L42.4037 12.7271L37.7856 13.5681L35.0234 13.5246L29.6949 13.2237L20.5529 13.4159L13.8505 12.5205L9.97186 13.7457L9.9936 13.8581C10.1567 14.681 11.7263 14.6737 13.3829 14.6628C13.9665 14.6628 14.5646 14.6628 15.0829 14.6882H15.3077L15.1844 14.8658C15.0612 15.0217 14.9524 15.1776 14.8582 15.3189C14.445 15.9424 14.3362 16.352 14.5247 16.5695L14.5791 16.6311L18.7151 15.2718H18.7477C21.5325 15.9808 24.3726 16.4513 27.2372 16.6783C28.4588 16.7761 29.7021 16.8269 30.9273 16.8341H30.9563L34.5812 17.7766L40.8015 18.2479L38.2894 28.2779L33.6206 32.0913L32.1199 36.4883L24.9172 46.1341L20.9843 47.3448L10.9035 57.4944L9.39187 57.6539L8.13404 58.3137V58.4007C8.29273 59.6898 8.25116 60.9957 8.01079 62.2721C7.85221 63.1147 7.60933 63.9393 7.28582 64.7334V64.766L7.57218 66.7633ZM10.1096 67.1765L7.80055 66.5639L7.53232 64.8022V64.7732C7.85649 63.9831 8.0994 63.1621 8.25729 62.3228C8.49224 61.0779 8.5411 59.805 8.40229 58.5457V58.4623L9.48975 57.9041L11.0195 57.741L21.1184 47.5659L25.0804 46.3588L32.3555 36.6151L33.8345 32.2653L38.5142 28.441L41.1024 18.0485L34.6319 17.5591L30.9599 16.6094C29.7311 16.6094 28.4841 16.5514 27.2553 16.4535C24.379 16.2259 21.5277 15.7505 18.7332 15.0326H18.697L14.6298 16.3665L14.7023 16.1418C14.9387 15.6113 15.2581 15.1219 15.6484 14.6918L15.8007 14.5178L15.5723 14.4852C14.85 14.4091 14.1233 14.3824 13.3974 14.4055C12.2845 14.4055 10.8962 14.4055 10.4286 14.0647L10.2437 13.927L13.8867 12.7743H13.9121L20.5348 13.6587L29.7057 13.4666L35.0234 13.7711L37.8218 13.8146L42.4363 12.9737L45.5175 13.0244L47.9534 12.129L47.8809 11.868C46.5032 12.0976 45.0905 11.9906 43.763 11.5563C42.6635 11.1671 41.634 10.6028 40.7145 9.88524L40.4354 9.66774L44.3539 9.71486L43.5528 9.46114C42.1028 8.99353 39.6669 8.17792 39.3443 7.97492L39.3117 7.94592L37.8617 5.95949L40.2904 6.62285L44.5714 6.07912L42.034 4.75965H42.5124C43.798 4.76076 45.0793 4.60989 46.3294 4.31017L47.4169 4.02019C48.4874 3.69872 49.577 3.44447 50.6793 3.25895V3.25895L53.3218 3.4692C54.2462 3.38945 55.0763 3.83169 55.2467 4.46604C55.3096 4.75873 55.2631 5.06433 55.1161 5.32514L55.0908 5.37589L55.62 6.76423L55.5838 6.81859C55.492 6.93463 55.4275 7.06978 55.3949 7.21406C55.3622 7.35834 55.3624 7.50808 55.3953 7.6523C55.4298 7.76955 55.4905 7.8774 55.5729 7.96767L56.7002 9.39587L56.6386 9.50101C56.5429 9.60227 56.4145 9.66646 56.2761 9.68225C56.1275 9.71488 55.9716 9.75113 55.9136 9.8925C55.8556 10.0339 55.9136 10.2151 56.0949 10.4435L56.1166 10.4688V10.5015C56.1331 10.5938 56.1331 10.6883 56.1166 10.7806C56.1 10.8557 56.0718 10.9279 56.0332 10.9945C55.9865 11.0818 55.95 11.1742 55.9245 11.27C55.8882 11.3971 55.8735 11.5294 55.881 11.6614V11.6832C55.9118 11.8643 55.9118 12.0494 55.881 12.2305C55.8565 12.3842 55.8088 12.5334 55.7396 12.6728L55.7106 12.7344L52.8107 13.0969L51.02 16.294L52.5461 22.8188L51.4586 24.044L49.5375 24.5805L44.8251 31.8303L52.5679 31.8484L58.8897 32.722L60.9703 34.6214L59.9373 38.1593L59.8974 38.1847L51.252 43.2161L43.2048 47.4608L39.5002 50.6253L38.1517 52.3181L37.4267 51.3648L37.5319 48.8636L37.5753 48.831C38.4589 48.131 39.1572 47.2249 39.6089 46.1921C39.9103 45.4953 40.0916 44.7526 40.1454 43.9954V43.941L41.5953 42.8536L43.8246 43.8105L49.9398 38.6523L39.6995 39.5984L36.2921 43.5024L27.4148 50.2193L25.5298 50.8609L13.5279 59.3105V59.3504C13.013 60.8123 12.3086 62.2004 11.4327 63.4791L11.3312 63.6096C10.9112 64.1252 10.5849 64.7104 10.367 65.3387C10.1901 65.8778 10.1043 66.4425 10.1132 67.0098L10.1096 67.1765ZM8.01442 66.3718L9.87036 66.8648C9.87841 66.3241 9.96761 65.7877 10.135 65.2735C10.359 64.6206 10.6978 64.0129 11.1354 63.4791L11.2333 63.345C12.0977 62.0891 12.7913 60.7239 13.2959 59.2851L13.3357 59.1728L13.4336 59.1039L25.432 50.6543L27.3133 50.0163L36.1508 43.332L39.6053 39.3447L50.7083 38.3297L43.8971 44.0751L41.6461 43.1145L40.3846 44.0643C40.3242 44.8313 40.1381 45.5833 39.8336 46.2899C39.3723 47.3403 38.6649 48.2641 37.7711 48.9832L37.6732 51.2887L38.1626 51.9266L39.337 50.4767L43.096 47.2397L51.0708 42.9623L59.669 37.9563L60.6296 34.6577L58.7193 32.9069L52.5207 32.0405H44.3466L49.3635 24.3594L51.3064 23.8193L52.2525 22.7318L50.7083 16.2215L52.6041 12.8395L55.504 12.477C55.5485 12.375 55.5801 12.2679 55.5983 12.1581C55.6273 12.0023 55.6273 11.8425 55.5983 11.6868V11.6469C55.5892 11.4881 55.6064 11.3289 55.649 11.1757C55.6815 11.0715 55.7265 10.9717 55.7831 10.8785C55.8107 10.8283 55.8314 10.7746 55.8447 10.719C55.854 10.6662 55.854 10.6122 55.8447 10.5595C55.7437 10.4601 55.6722 10.3346 55.6382 10.197C55.6043 10.0594 55.6093 9.91506 55.6526 9.78011C55.7057 9.68054 55.7824 9.59547 55.8759 9.53229C55.9694 9.46911 56.0769 9.42975 56.1891 9.41762C56.2509 9.40625 56.3116 9.38928 56.3704 9.36689L55.3663 8.09455C55.2638 7.97639 55.1873 7.8381 55.1415 7.68857C55.0999 7.52036 55.0952 7.34513 55.1277 7.17492C55.1603 7.00472 55.2293 6.84357 55.33 6.70259L54.808 5.33239L54.8805 5.18739C55.001 4.9793 55.041 4.73426 54.9929 4.49867C54.8515 3.96219 54.1338 3.61057 53.3182 3.67582H53.282L50.6612 3.4692C49.5836 3.65407 48.5183 3.90466 47.4713 4.21955L46.3838 4.51316C45.2687 4.78503 44.1275 4.93573 42.98 4.96265L45.3616 6.19874L40.2686 6.84396L38.4562 6.35098L39.4929 7.76107C39.8155 7.94231 41.8636 8.64554 43.6253 9.21102L45.9561 9.95775L41.1567 9.89611C41.9762 10.4971 42.8801 10.9735 43.8391 11.3098C45.1646 11.7439 46.5773 11.8411 47.9498 11.5926H48.0585L48.2434 12.2777L45.5573 13.2673L42.4581 13.2129L37.7928 14.0539L35.0162 14.0104L29.684 13.695L20.513 13.8907H20.484L13.8904 13.0063L10.8056 13.985C11.3747 14.1699 12.5129 14.159 13.3792 14.1553C14.1197 14.1302 14.861 14.1569 15.5977 14.2351L16.2646 14.3294L15.8261 14.8368C15.5194 15.182 15.2519 15.5601 15.0286 15.9642L18.6788 14.7643L18.7839 14.7897C21.5655 15.5046 24.4033 15.9788 27.2662 16.207C28.4878 16.3013 29.7275 16.3557 30.9527 16.3593H31.0143L34.6646 17.3126L41.396 17.8201L38.7172 28.5679L34.0338 32.3958L32.5295 36.7456L25.2072 46.5328L21.2199 47.7472L11.0992 57.9367L9.50787 58.1107L8.65965 58.6001C8.87991 60.7176 8.57874 62.8568 7.78242 64.8312L8.01442 66.3718Z" fill="white"/>
<path d="M88.672 36.47V40.8851H87.6571V37.3037H85.6634V40.8851H84.6484V36.47H88.672Z" fill="white"/>
<path d="M90.6372 40.664C90.2788 40.4785 89.9798 40.1959 89.7745 39.8484C89.5678 39.4935 89.459 39.0901 89.459 38.6794C89.459 38.2687 89.5678 37.8653 89.7745 37.5104C89.9803 37.1624 90.2791 36.8788 90.6372 36.6912C91.0206 36.4958 91.4448 36.3939 91.8751 36.3939C92.3054 36.3939 92.7296 36.4958 93.113 36.6912C93.4694 36.8812 93.7675 37.1643 93.9757 37.5104C94.1345 37.7719 94.2384 38.0631 94.2809 38.3662C94.3234 38.6692 94.3037 38.9777 94.2229 39.2729C94.1422 39.568 94.0021 39.8436 93.8113 40.0828C93.6205 40.322 93.3828 40.5198 93.113 40.664C92.7296 40.8595 92.3054 40.9613 91.8751 40.9613C91.4448 40.9613 91.0206 40.8595 90.6372 40.664V40.664ZM92.5838 39.9101C92.7914 39.7924 92.9621 39.6192 93.0767 39.4098C93.1985 39.1878 93.261 38.9381 93.258 38.6849C93.26 38.4317 93.1976 38.1823 93.0767 37.9599C92.9621 37.7505 92.7914 37.5773 92.5838 37.4597C92.3664 37.3432 92.1235 37.2823 91.8769 37.2823C91.6303 37.2823 91.3875 37.3432 91.1701 37.4597C90.9613 37.5771 90.7894 37.7503 90.6734 37.9599C90.5537 38.1826 90.4926 38.432 90.4958 38.6849C90.4918 38.9378 90.5529 39.1875 90.6734 39.4098C90.7894 39.6194 90.9613 39.7926 91.1701 39.9101C91.3866 40.0291 91.6298 40.0914 91.8769 40.0914C92.124 40.0914 92.3672 40.0291 92.5838 39.9101V39.9101Z" fill="white"/>
<path d="M100.799 36.47V40.8851H99.788V37.3037H98.2764L98.2438 38.2244C98.2342 38.7352 98.1833 39.2443 98.0915 39.7469C98.0399 40.0753 97.9023 40.3841 97.6928 40.6422C97.5926 40.7487 97.4702 40.8318 97.3342 40.8857C97.1983 40.9396 97.0522 40.9628 96.9062 40.9539C96.7362 40.9505 96.5671 40.9274 96.4023 40.8851L96.464 40.0224C96.5238 40.0407 96.5862 40.0492 96.6488 40.0477C96.7705 40.045 96.8875 40.0007 96.9805 39.9222C97.0735 39.8437 97.1368 39.7358 97.16 39.6164C97.2772 39.1739 97.3381 38.7184 97.3412 38.2606L97.4064 36.47H100.799Z" fill="white"/>
<path d="M105.321 40.0659V40.8851H101.902V36.47H105.241V37.2928H102.906V38.2498H104.958V39.0436H102.906V40.0659H105.321Z" fill="white"/>
<path d="M109.523 37.3037H108.109V40.8851H107.102V37.3037H105.695V36.47H109.523V37.3037Z" fill="white"/>
<path d="M114.212 36.47V40.8851H113.194V39.0726H111.186V40.8851H110.156V36.47H111.178V38.2135H113.187V36.47H114.212Z" fill="white"/>
<path d="M115.317 36.47H116.318V39.3481L118.424 36.47H119.384V40.8851H118.373V38.0178L116.267 40.8851H115.303L115.317 36.47Z" fill="white"/>
<path d="M124.515 40.8851V38.2425L123.217 40.4175H122.76L121.463 38.2897V40.8815H120.502V36.47H121.35L123 39.214L124.627 36.47H125.472V40.8851H124.515Z" fill="white"/>
<path d="M132.033 38.9748C132.179 39.1673 132.255 39.404 132.247 39.6454C132.253 39.8225 132.215 39.9983 132.137 40.1575C132.06 40.3167 131.944 40.4545 131.801 40.5589C131.423 40.7986 130.979 40.9128 130.532 40.8851H128.357V36.47H130.413C130.833 36.4466 131.251 36.5502 131.613 36.7673C131.75 36.8594 131.862 36.9855 131.937 37.1334C132.012 37.2814 132.048 37.4462 132.04 37.6119C132.045 37.816 131.988 38.0169 131.877 38.1882C131.764 38.3609 131.605 38.498 131.417 38.5833C131.658 38.6471 131.873 38.7838 132.033 38.9748V38.9748ZM129.369 38.3006H130.322C130.5 38.3125 130.677 38.2654 130.826 38.1665C130.88 38.115 130.924 38.0529 130.954 37.984C130.983 37.9151 130.999 37.8409 130.999 37.7659C130.999 37.6909 130.983 37.6167 130.954 37.5478C130.924 37.479 130.88 37.4169 130.826 37.3654C130.679 37.2645 130.503 37.2159 130.326 37.2276H129.369V38.3006ZM131.21 39.562C131.21 39.1996 130.971 39.0147 130.485 39.0147H129.369V40.1275H130.492C130.971 40.1275 131.21 39.939 131.21 39.562Z" fill="white"/>
<path d="M133.055 36.47H134.081V39.3481L136.187 36.47H137.144V40.8851H136.136V38.0178L134.03 40.8851H133.066L133.055 36.47Z" fill="white"/>
<path d="M142.756 40.055V41.8022H141.81V40.8851H138.692V41.8022H137.746V40.055H137.92C138.188 40.055 138.373 39.852 138.482 39.475C138.612 38.9432 138.68 38.3983 138.685 37.851L138.736 36.47H142.129V40.055H142.756ZM139.461 39.2684C139.423 39.5517 139.318 39.8217 139.153 40.055H141.128V37.3037H139.613V37.9453C139.595 38.3894 139.544 38.8317 139.461 39.2684V39.2684Z" fill="white"/>
<path d="M146.466 39.939H144.418L144.026 40.8851H142.979L144.954 36.47H145.962L147.937 40.8851H146.85L146.466 39.939ZM146.147 39.1633L145.443 37.4741L144.744 39.1524L146.147 39.1633Z" fill="white"/>
<path d="M152.535 40.8851V38.2425L151.237 40.4175H150.784L149.482 38.2897V40.8815H148.525V36.47H149.37L151.023 39.214L152.651 36.47H153.495V40.8851H152.535Z" fill="white"/>
<path d="M157.245 40.6677C156.89 40.4803 156.593 40.1996 156.386 39.8557C156.182 39.4974 156.074 39.092 156.074 38.6795C156.074 38.2669 156.182 37.8615 156.386 37.5032C156.593 37.1584 156.89 36.8764 157.245 36.6876C157.622 36.4883 158.044 36.3873 158.47 36.394C158.827 36.3895 159.182 36.4586 159.511 36.597C159.811 36.7269 160.077 36.9256 160.286 37.1769L159.63 37.7823C159.496 37.6185 159.327 37.4872 159.135 37.3981C158.943 37.3089 158.733 37.2643 158.521 37.2676C158.268 37.2643 158.019 37.3254 157.796 37.4452C157.586 37.5614 157.412 37.7349 157.296 37.9454C157.176 38.1681 157.115 38.4176 157.118 38.6704C157.114 38.9233 157.175 39.173 157.296 39.3954C157.412 39.6059 157.586 39.7793 157.796 39.8956C158.018 40.0183 158.268 40.0808 158.521 40.0768C158.734 40.0797 158.944 40.0342 159.136 39.9438C159.328 39.8534 159.497 39.7204 159.63 39.5549L160.286 40.1602C160.077 40.4146 159.81 40.6148 159.507 40.7438C159.146 40.8919 158.757 40.9604 158.366 40.9448C157.976 40.9292 157.594 40.8297 157.245 40.6532V40.6677Z" fill="white"/>
<path d="M164.979 36.47V40.8851H163.964V37.3037H161.97V40.8851H160.955V36.47H164.979Z" fill="white"/>
<path d="M166.944 40.664C166.585 40.478 166.285 40.1955 166.077 39.8484C165.873 39.4927 165.766 39.0896 165.766 38.6794C165.766 38.2692 165.873 37.8662 166.077 37.5104C166.286 37.1634 166.585 36.8801 166.944 36.6912C167.327 36.4958 167.751 36.3939 168.181 36.3939C168.612 36.3939 169.036 36.4958 169.419 36.6912C169.776 36.8812 170.074 37.1643 170.282 37.5104C170.441 37.7719 170.545 38.0631 170.587 38.3662C170.63 38.6692 170.61 38.9777 170.529 39.2729C170.449 39.568 170.308 39.8436 170.118 40.0828C169.927 40.322 169.689 40.5198 169.419 40.664C169.036 40.8595 168.612 40.9613 168.181 40.9613C167.751 40.9613 167.327 40.8595 166.944 40.664V40.664ZM168.89 39.9101C169.098 39.7924 169.268 39.6192 169.383 39.4098C169.505 39.1878 169.567 38.9381 169.564 38.6849C169.566 38.4317 169.504 38.1823 169.383 37.9599C169.268 37.7505 169.098 37.5773 168.89 37.4597C168.673 37.3432 168.43 37.2823 168.183 37.2823C167.937 37.2823 167.694 37.3432 167.476 37.4597C167.268 37.5771 167.096 37.7503 166.98 37.9599C166.86 38.1826 166.799 38.432 166.802 38.6849C166.798 38.9378 166.859 39.1875 166.98 39.4098C167.096 39.6194 167.268 39.7926 167.476 39.9101C167.693 40.0291 167.936 40.0914 168.183 40.0914C168.43 40.0914 168.674 40.0291 168.89 39.9101V39.9101Z" fill="white"/>
<path d="M174.318 36.6658C174.588 36.7827 174.818 36.9753 174.981 37.2204C175.141 37.4752 175.223 37.7714 175.217 38.0723C175.223 38.3721 175.141 38.6672 174.981 38.9205C174.82 39.1674 174.589 39.3606 174.318 39.4751C173.996 39.6108 173.648 39.6763 173.299 39.6672H172.411V40.8852H171.389V36.47H173.299C173.649 36.462 173.996 36.5287 174.318 36.6658V36.6658ZM173.955 38.6377C174.031 38.5638 174.091 38.4755 174.132 38.3781C174.173 38.2807 174.194 38.1761 174.194 38.0704C174.194 37.9648 174.173 37.8602 174.132 37.7627C174.091 37.6653 174.031 37.5771 173.955 37.5031C173.753 37.3561 173.505 37.2855 173.255 37.3038H172.425V38.8371H173.23C173.488 38.8616 173.746 38.7907 173.955 38.6377V38.6377Z" fill="white"/>
<path d="M179.146 37.3037H177.733V40.8851H176.725V37.3037H175.318V36.47H179.146V37.3037Z" fill="white"/>
<path d="M182.555 39.939H180.507L180.116 40.8851H179.068L181.037 36.47H182.044L184.02 40.8851H182.932L182.555 39.939ZM182.233 39.1633L181.533 37.4741L180.841 39.1524L182.233 39.1633Z" fill="white"/>
<path d="M187.259 40.6677C186.904 40.4803 186.607 40.1996 186.4 39.8557C186.195 39.4974 186.088 39.092 186.088 38.6795C186.088 38.2669 186.195 37.8615 186.4 37.5032C186.607 37.1584 186.904 36.8764 187.259 36.6876C187.636 36.4883 188.057 36.3873 188.484 36.394C188.848 36.3927 189.209 36.468 189.543 36.6151C189.844 36.745 190.111 36.9436 190.322 37.1951L189.666 37.8004C189.531 37.6368 189.361 37.5056 189.168 37.4165C188.975 37.3274 188.765 37.2827 188.553 37.2857C188.3 37.2806 188.05 37.3419 187.828 37.4633C187.616 37.5784 187.441 37.752 187.324 37.9635C187.204 38.1862 187.143 38.4357 187.146 38.6885C187.142 38.9414 187.204 39.1911 187.324 39.4135C187.441 39.625 187.616 39.7987 187.828 39.9137C188.05 40.0364 188.3 40.0989 188.553 40.095C188.766 40.0973 188.976 40.0516 189.169 39.9613C189.362 39.8709 189.532 39.7381 189.666 39.573L190.322 40.1784C190.111 40.4329 189.843 40.633 189.539 40.762C189.177 40.91 188.788 40.9785 188.398 40.9629C188.008 40.9473 187.625 40.8478 187.277 40.6713L187.259 40.6677Z" fill="white"/>
<path d="M193.892 36.6657C194.164 36.7815 194.395 36.9743 194.559 37.2203C194.718 37.4755 194.798 37.7717 194.791 38.0722C194.799 38.3716 194.718 38.6667 194.559 38.9204C194.398 39.169 194.166 39.3625 193.892 39.475C193.57 39.6112 193.223 39.6767 192.873 39.6671H191.985V40.8851H190.963V36.47H192.873C193.223 36.4616 193.57 36.5283 193.892 36.6657ZM193.529 38.6377C193.605 38.5637 193.665 38.4755 193.706 38.3781C193.747 38.2806 193.768 38.1761 193.768 38.0704C193.768 37.9647 193.747 37.8601 193.706 37.7627C193.665 37.6653 193.605 37.577 193.529 37.5031C193.327 37.3566 193.079 37.2861 192.83 37.3037H191.996V38.837H192.83C193.079 38.8547 193.327 38.7841 193.529 38.6377V38.6377Z" fill="white"/>
<path d="M198.889 40.0659V40.8851H195.471V36.47H198.809V37.2928H196.486V38.2498H198.537V39.0436H196.486V40.0659H198.889Z" fill="white"/>
<path d="M204.272 40.055V41.8022H203.315V40.8851H200.198V41.8022H199.252V40.055H199.426C199.694 40.055 199.879 39.852 199.988 39.475C200.117 38.9432 200.186 38.3983 200.191 37.851L200.242 36.47H203.634V40.055H204.272ZM200.977 39.2684C200.94 39.5517 200.834 39.8217 200.669 40.055H202.645V37.3037H201.141V37.9453C201.119 38.3897 201.064 38.832 200.977 39.2684V39.2684Z" fill="white"/>
<path d="M204.957 36.47H205.972V39.3481L208.078 36.47H209.039V40.8851H208.027V38.0178L205.921 40.8851H204.957V36.47Z" fill="white"/>
<path d="M85.5069 48.2364C85.1527 48.0479 84.8559 47.7674 84.6478 47.4244C84.4434 47.0661 84.3359 46.6606 84.3359 46.2481C84.3359 45.8356 84.4434 45.4302 84.6478 45.0719C84.8548 44.727 85.1518 44.4451 85.5069 44.2563C85.8841 44.0569 86.3055 43.9559 86.7321 43.9626C87.0892 43.9581 87.4433 44.0272 87.7725 44.1656C88.0746 44.2943 88.3418 44.4931 88.5518 44.7456L87.8957 45.351C87.7608 45.1869 87.5907 45.0551 87.3981 44.9654C87.2056 44.8757 86.9953 44.8303 86.7829 44.8326C86.5295 44.8286 86.2796 44.8911 86.0579 45.0138C85.8455 45.1289 85.6706 45.3025 85.554 45.5141C85.4343 45.7367 85.3731 45.9862 85.3764 46.2391C85.3723 46.492 85.4335 46.7416 85.554 46.964C85.6706 47.1756 85.8455 47.3492 86.0579 47.4643C86.2796 47.587 86.5295 47.6495 86.7829 47.6455C86.9957 47.6479 87.2063 47.6022 87.399 47.5118C87.5917 47.4214 87.7615 47.2887 87.8957 47.1235L88.5518 47.7289C88.3414 47.9834 88.0728 48.1836 87.7688 48.3125C87.4074 48.4606 87.0183 48.5291 86.628 48.5134C86.2377 48.4978 85.8554 48.3984 85.5069 48.2219V48.2364Z" fill="white"/>
<path d="M89.2266 44.0388H90.2415V46.917L92.3476 44.0388H93.3082V48.454H92.2968V45.5867L90.1908 48.454H89.2266V44.0388Z" fill="white"/>
<path d="M98.3074 44.0388V48.454H97.2997V44.8726H95.7881L95.7555 45.7933C95.7459 46.3041 95.695 46.8132 95.6032 47.3158C95.5508 47.6439 95.4133 47.9526 95.2045 48.2111C95.1043 48.3176 94.9819 48.4007 94.8459 48.4546C94.71 48.5084 94.5639 48.5317 94.4179 48.5228C94.2479 48.5194 94.0788 48.4962 93.9141 48.454L93.9757 47.5913C94.036 47.6076 94.0981 47.6161 94.1606 47.6166C94.2822 47.6139 94.3992 47.5696 94.4922 47.4911C94.5852 47.4126 94.6485 47.3047 94.6717 47.1852C94.7889 46.7428 94.8498 46.2873 94.8529 45.8295L94.9145 44.0388H98.3074Z" fill="white"/>
<path d="M102.791 45.8513C102.939 45.9845 103.054 46.1498 103.129 46.3344C103.204 46.519 103.236 46.7183 103.222 46.917C103.235 47.131 103.2 47.3453 103.117 47.5432C103.035 47.7412 102.908 47.9176 102.747 48.0589C102.36 48.3444 101.885 48.4843 101.406 48.454H99.4121V44.0388H100.427V45.4888H101.551C101.994 45.4595 102.433 45.5879 102.791 45.8513V45.8513ZM101.968 47.4897C102.045 47.4187 102.106 47.3308 102.145 47.2329C102.184 47.1349 102.2 47.0294 102.192 46.9243C102.192 46.4639 101.913 46.2355 101.348 46.2355H100.427V47.6855H101.348C101.571 47.6988 101.792 47.6291 101.968 47.4897Z" fill="white"/>
<path d="M108.008 44.0388V48.454H106.989V46.6415H104.981V48.454H103.959V44.0388H104.981V45.7788H106.989V44.0388H108.008Z" fill="white"/>
<path d="M112.532 47.6347V48.454H109.113V44.0388H112.448V44.8581H110.128V45.8187H112.176V46.6125H110.128V47.6347H112.532Z" fill="white"/>
<path d="M113.357 44.0389H114.372V46.917L116.478 44.0389H117.439V48.454H116.428V45.5867L114.322 48.454H113.357V44.0389ZM114.169 42.7919H114.869C114.869 43.0964 115.054 43.2523 115.395 43.2523C115.532 43.2612 115.669 43.22 115.779 43.1363C115.827 43.0894 115.864 43.0327 115.887 42.9701C115.911 42.9075 115.921 42.8406 115.917 42.7738H116.616C116.625 42.9103 116.602 43.0469 116.548 43.1728C116.495 43.2987 116.412 43.4103 116.308 43.4987C116.04 43.6807 115.718 43.7675 115.395 43.7452C114.586 43.7561 114.18 43.4335 114.169 42.7774V42.7919Z" fill="white"/>
<path d="M124.362 44.0388V48.454H118.533V44.0388H119.548V47.6239H120.944V44.0388H121.959V47.6239H123.347V44.0388H124.362Z" fill="white"/>
<path d="M125.46 44.0388H126.468V46.917L128.574 44.0388H129.531V48.454H128.523V45.5867L126.417 48.454H125.453L125.46 44.0388Z" fill="white"/>
<path d="M131.43 44.0388L132.347 45.3764L133.261 44.0388H134.461L132.993 46.1522L134.584 48.454H133.377L132.351 47.004L131.336 48.454H130.154L131.731 46.1957L130.256 44.0388H131.43Z" fill="white"/>
<path d="M137.843 48.2364C137.489 48.0479 137.192 47.7674 136.984 47.4244C136.779 47.0661 136.672 46.6606 136.672 46.2481C136.672 45.8356 136.779 45.4302 136.984 45.0719C137.191 44.727 137.488 44.4451 137.843 44.2563C138.22 44.0569 138.641 43.9559 139.068 43.9626C139.425 43.9581 139.779 44.0272 140.108 44.1656C140.409 44.2944 140.675 44.4932 140.884 44.7456L140.243 45.351C140.108 45.1869 139.938 45.0551 139.745 44.9654C139.552 44.8757 139.342 44.8303 139.13 44.8326C138.876 44.8286 138.626 44.8911 138.405 45.0138C138.192 45.1289 138.017 45.3025 137.901 45.5141C137.781 45.7367 137.72 45.9862 137.723 46.2391C137.719 46.492 137.78 46.7416 137.901 46.964C138.017 47.1756 138.192 47.3492 138.405 47.4643C138.626 47.587 138.876 47.6495 139.13 47.6455C139.342 47.6483 139.553 47.6032 139.745 47.5134C139.938 47.4237 140.108 47.2917 140.243 47.1272L140.895 47.7325C140.686 47.9869 140.419 48.1871 140.116 48.3161C139.754 48.4642 139.365 48.5327 138.975 48.5171C138.585 48.5014 138.202 48.402 137.854 48.2255L137.843 48.2364Z" fill="white"/>
<path d="M145.578 44.0388V48.454H144.563V44.8726H142.57V48.454H141.555V44.0388H145.578Z" fill="white"/>
<path d="M147.543 48.2327C147.185 48.0472 146.886 47.7646 146.68 47.4171C146.521 47.1554 146.416 46.864 146.374 46.5605C146.331 46.2571 146.35 45.9482 146.431 45.6526C146.512 45.357 146.652 45.081 146.843 44.8415C147.035 44.602 147.273 44.4041 147.543 44.2599C147.926 44.0644 148.351 43.9626 148.781 43.9626C149.211 43.9626 149.635 44.0644 150.019 44.2599C150.374 44.4496 150.672 44.7313 150.881 45.0755C151.088 45.4311 151.197 45.835 151.197 46.2463C151.197 46.6576 151.088 47.0615 150.881 47.4171C150.674 47.7629 150.376 48.045 150.019 48.2327C149.635 48.4281 149.211 48.53 148.781 48.53C148.351 48.53 147.926 48.4281 147.543 48.2327V48.2327ZM149.49 47.4787C149.697 47.3611 149.868 47.1879 149.983 46.9785C150.104 46.7565 150.167 46.5068 150.164 46.2536C150.166 46.0004 150.103 45.751 149.983 45.5286C149.868 45.3192 149.697 45.146 149.49 45.0283C149.273 44.9094 149.03 44.847 148.783 44.847C148.536 44.847 148.292 44.9094 148.076 45.0283C147.867 45.1458 147.695 45.319 147.579 45.5286C147.459 45.7512 147.398 46.0007 147.402 46.2536C147.398 46.5065 147.459 46.7561 147.579 46.9785C147.695 47.1881 147.867 47.3613 148.076 47.4787C148.292 47.5977 148.536 47.6601 148.783 47.6601C149.03 47.6601 149.273 47.5977 149.49 47.4787V47.4787Z" fill="white"/>
<path d="M154.915 44.2273C155.186 44.3431 155.417 44.536 155.579 44.7819C155.733 45.0387 155.814 45.3325 155.814 45.6319C155.814 45.9314 155.733 46.2252 155.579 46.482C155.419 46.73 155.188 46.9235 154.915 47.0366C154.593 47.1723 154.246 47.2378 153.897 47.2287H153.009V48.4467H151.986V44.0388H153.897C154.246 44.0284 154.593 44.0927 154.915 44.2273V44.2273ZM154.553 46.1992C154.628 46.1253 154.688 46.0371 154.729 45.9396C154.77 45.8422 154.791 45.7376 154.791 45.6319C154.791 45.5263 154.77 45.4216 154.729 45.3242C154.688 45.2268 154.628 45.1386 154.553 45.0646C154.35 44.9176 154.103 44.847 153.853 44.8653H153.023V46.4022H153.853C154.097 46.4158 154.338 46.3468 154.538 46.2065L154.553 46.1992Z" fill="white"/>
<path d="M159.744 44.8726H158.33V48.454H157.322V44.8726H155.916V44.0388H159.744V44.8726Z" fill="white"/>
<path d="M161.19 48.2364C160.836 48.048 160.539 47.7675 160.331 47.4245C160.127 47.0661 160.02 46.6607 160.02 46.2482C160.02 45.8357 160.127 45.4303 160.331 45.0719C160.538 44.7271 160.835 44.4451 161.19 44.2563C161.569 44.0564 161.991 43.9554 162.419 43.9627C162.775 43.9585 163.128 44.0276 163.456 44.1657C163.758 44.2943 164.025 44.4931 164.235 44.7457L163.579 45.351C163.444 45.1869 163.274 45.0552 163.082 44.9655C162.889 44.8758 162.679 44.8304 162.466 44.8327C162.213 44.8287 161.963 44.8912 161.741 45.0139C161.529 45.129 161.354 45.3026 161.238 45.5141C161.118 45.7368 161.057 45.9863 161.06 46.2391C161.056 46.492 161.117 46.7417 161.238 46.9641C161.349 47.1845 161.523 47.3673 161.738 47.4897C161.96 47.6124 162.209 47.6749 162.463 47.6709C162.676 47.6733 162.886 47.6276 163.079 47.5372C163.272 47.4468 163.441 47.3141 163.576 47.149L164.232 47.7543C164.021 48.0088 163.753 48.209 163.449 48.3379C163.087 48.486 162.698 48.5545 162.308 48.5389C161.918 48.5232 161.535 48.4238 161.187 48.2473L161.19 48.2364Z" fill="white"/>
<path d="M168.92 48.454V45.8114L167.618 47.9864H167.165L165.868 45.8622V48.454H164.893V44.0388H165.737L167.39 46.7829L169.018 44.0388H169.862V48.454H168.92Z" fill="white"/>
<path d="M174.397 47.6347V48.454H170.979V44.0388H174.317V44.8581H171.997V45.8187H174.045V46.6125H171.997V47.6347H174.397Z" fill="white"/>
<path d="M179.272 44.0388V48.454H178.249V46.6415H176.241V48.454H175.223V44.0388H176.241V45.7788H178.249V44.0388H179.272Z" fill="white"/>
<path d="M181.24 48.2328C180.883 48.0462 180.584 47.7638 180.378 47.4172C180.218 47.1555 180.114 46.864 180.071 46.5606C180.028 46.2572 180.048 45.9482 180.128 45.6526C180.209 45.357 180.349 45.081 180.541 44.8416C180.732 44.6021 180.97 44.4042 181.24 44.2599C181.623 44.0599 182.049 43.9578 182.48 43.9627C182.91 43.9568 183.335 44.059 183.716 44.2599C184.072 44.4506 184.371 44.732 184.582 45.0755C184.742 45.3373 184.847 45.629 184.89 45.9327C184.932 46.2364 184.913 46.5456 184.832 46.8414C184.75 47.1371 184.61 47.4132 184.418 47.6525C184.226 47.8917 183.987 48.0892 183.716 48.2328C183.336 48.4351 182.911 48.5374 182.48 48.53C182.048 48.5366 181.622 48.4344 181.24 48.2328V48.2328ZM183.187 47.4788C183.396 47.3614 183.568 47.1882 183.683 46.9786C183.804 46.7562 183.865 46.5065 183.861 46.2536C183.864 46.0008 183.803 45.7513 183.683 45.5286C183.568 45.319 183.396 45.1458 183.187 45.0284C182.97 44.9094 182.727 44.847 182.48 44.847C182.233 44.847 181.99 44.9094 181.773 45.0284C181.565 45.146 181.395 45.3193 181.28 45.5286C181.159 45.751 181.097 46.0005 181.099 46.2536C181.096 46.5068 181.158 46.7565 181.28 46.9786C181.395 47.1879 181.565 47.3611 181.773 47.4788C181.99 47.5978 182.233 47.6602 182.48 47.6602C182.727 47.6602 182.97 47.5978 183.187 47.4788V47.4788Z" fill="white"/>
<path d="M189.359 46.5436C189.507 46.7337 189.584 46.9697 189.577 47.2106C189.583 47.3882 189.546 47.5647 189.468 47.7246C189.39 47.8845 189.274 48.0229 189.131 48.1277C188.752 48.3679 188.306 48.482 187.859 48.4539H185.684V44.0388H187.728C188.149 44.0154 188.567 44.119 188.928 44.336C189.066 44.4281 189.178 44.5543 189.253 44.7022C189.327 44.8502 189.363 45.015 189.356 45.1806C189.36 45.3847 189.303 45.5855 189.192 45.757C189.077 45.9277 188.918 46.0642 188.732 46.1521C188.978 46.2122 189.197 46.3494 189.359 46.5436V46.5436ZM186.699 45.8694H187.652C187.831 45.8816 188.008 45.8331 188.156 45.7316C188.21 45.6804 188.254 45.6186 188.283 45.5501C188.313 45.4815 188.328 45.4076 188.328 45.3329C188.328 45.2582 188.313 45.1843 188.283 45.1157C188.254 45.0471 188.21 44.9853 188.156 44.9341C188.009 44.8338 187.833 44.7853 187.656 44.7964H186.702L186.699 45.8694ZM188.54 47.1308C188.54 46.7683 188.301 46.5798 187.815 46.5798H186.691V47.6963H187.815C188.298 47.6963 188.54 47.5066 188.54 47.1272V47.1308Z" fill="white"/>
<path d="M90.3501 13.4339C90.5944 13.7245 90.7234 14.0948 90.7126 14.4743C90.7238 14.7539 90.663 15.0318 90.5361 15.2812C90.4091 15.5307 90.2203 15.7433 89.9876 15.8989C89.3476 16.2769 88.6091 16.4549 87.8671 16.41H84.2422V9.52271H87.6713C88.3689 9.48347 89.0631 9.64444 89.6723 9.98668C89.9004 10.1204 90.0882 10.3132 90.2158 10.5448C90.3434 10.7764 90.4061 11.0382 90.3972 11.3025C90.4018 11.6236 90.3054 11.9381 90.1217 12.2015C89.9248 12.4706 89.6594 12.6821 89.3533 12.8141C89.74 12.9164 90.0873 13.1323 90.3501 13.4339V13.4339ZM85.906 12.3827H87.4973C87.7929 12.4037 88.0874 12.3301 88.3383 12.1725C88.4285 12.0959 88.5009 12.0007 88.5506 11.8933C88.6002 11.786 88.6259 11.6691 88.6259 11.5508C88.6259 11.4325 88.6002 11.3157 88.5506 11.2083C88.5009 11.101 88.4285 11.0057 88.3383 10.9292C88.0895 10.7693 87.7961 10.6931 87.501 10.7117H85.906V12.3827ZM88.9799 14.3474C88.9799 13.7783 88.5812 13.492 87.7801 13.492H85.906V15.2283H87.7801C88.5812 15.2283 88.9799 14.9347 88.9799 14.3474V14.3474Z" fill="white"/>
<path d="M93.4813 16.0693C92.8966 15.7875 92.4011 15.3497 92.0495 14.8042C91.7082 14.254 91.5273 13.6193 91.5273 12.9718C91.5273 12.3243 91.7082 11.6897 92.0495 11.1394C92.4011 10.5939 92.8966 10.1561 93.4813 9.87437C94.1172 9.56297 94.8178 9.40645 95.5258 9.41763C96.118 9.40929 96.7063 9.51515 97.2584 9.72938C97.7564 9.92693 98.2018 10.2371 98.5598 10.6356L97.4723 11.5781C97.2394 11.3189 96.9534 11.1129 96.6338 10.974C96.3142 10.8352 95.9684 10.7667 95.62 10.7734C95.1961 10.7646 94.7765 10.8605 94.3984 11.0525C94.0509 11.2274 93.7605 11.4978 93.5611 11.8318C93.3637 12.1794 93.26 12.5722 93.26 12.9718C93.26 13.3715 93.3637 13.7643 93.5611 14.1119C93.7605 14.4459 94.0509 14.7162 94.3984 14.8912C94.7765 15.0832 95.1961 15.1791 95.62 15.1703C95.9684 15.1757 96.3138 15.106 96.6329 14.9659C96.9519 14.8258 97.237 14.6186 97.4687 14.3583L98.5562 15.3008C98.1989 15.7035 97.7519 16.0164 97.2512 16.2143C96.6963 16.4279 96.1058 16.5337 95.5112 16.526C94.8081 16.5359 94.1125 16.3794 93.4813 16.0693V16.0693Z" fill="white"/>
<path d="M105.38 15.1339V16.4099H99.6777V9.52261H105.246V10.7986H101.371V12.292H104.792V13.5317H101.371V15.1231L105.38 15.1339Z" fill="white"/>
<path d="M111.64 9.83802C112.085 10.015 112.47 10.3156 112.749 10.7044C113.005 11.0984 113.141 11.5579 113.141 12.0274C113.141 12.497 113.005 12.9565 112.749 13.3505C112.471 13.7401 112.086 14.0399 111.64 14.2133C111.099 14.4242 110.521 14.5264 109.94 14.5141H108.454V16.4099H106.75V9.52265H109.94C110.522 9.51295 111.1 9.62019 111.64 9.83802V9.83802ZM111.013 12.9083C111.138 12.7974 111.238 12.6612 111.307 12.5088C111.375 12.3563 111.411 12.191 111.411 12.0238C111.411 11.8566 111.375 11.6913 111.307 11.5389C111.238 11.3864 111.138 11.2502 111.013 11.1393C110.668 10.9112 110.258 10.8029 109.846 10.8312H108.454V13.2164H109.846C110.258 13.2447 110.668 13.1364 111.013 12.9083V12.9083Z" fill="white"/>
<path d="M115.808 16.0656C115.217 15.7824 114.716 15.3422 114.358 14.7932C114.021 14.2489 113.842 13.6212 113.842 12.9808C113.842 12.3404 114.021 11.7127 114.358 11.1684C114.716 10.6194 115.217 10.1792 115.808 9.89602C116.454 9.59274 117.159 9.43552 117.872 9.43552C118.586 9.43552 119.291 9.59274 119.937 9.89602C120.526 10.1814 121.027 10.6211 121.387 11.1684C121.729 11.711 121.91 12.3394 121.91 12.9808C121.91 13.6222 121.729 14.2505 121.387 14.7932C121.027 15.3405 120.526 15.7802 119.937 16.0656C119.291 16.3689 118.586 16.5261 117.872 16.5261C117.159 16.5261 116.454 16.3689 115.808 16.0656V16.0656ZM119.07 14.8911C119.412 14.7118 119.698 14.4422 119.897 14.1118C120.092 13.7634 120.194 13.3709 120.194 12.9717C120.194 12.5726 120.092 12.1801 119.897 11.8317C119.698 11.5013 119.412 11.2317 119.07 11.0524C118.704 10.8687 118.3 10.773 117.89 10.773C117.481 10.773 117.077 10.8687 116.711 11.0524C116.368 11.2297 116.081 11.4997 115.884 11.8317C115.687 12.1793 115.583 12.5721 115.583 12.9717C115.583 13.3714 115.687 13.7642 115.884 14.1118C116.081 14.4438 116.368 14.7138 116.711 14.8911C117.077 15.0748 117.481 15.1704 117.89 15.1704C118.3 15.1704 118.704 15.0748 119.07 14.8911Z" fill="white"/>
<path d="M124.656 16.0693C124.065 15.7892 123.563 15.3514 123.206 14.8042C122.864 14.254 122.684 13.6193 122.684 12.9718C122.684 12.3243 122.864 11.6897 123.206 11.1394C123.563 10.5923 124.065 10.1545 124.656 9.87437C125.293 9.56293 125.995 9.40643 126.704 9.41763C127.295 9.40958 127.882 9.51543 128.433 9.72939C128.931 9.92599 129.377 10.2363 129.734 10.6356L128.647 11.5781C128.414 11.3189 128.128 11.1129 127.808 10.974C127.489 10.8352 127.143 10.7667 126.794 10.7734C126.37 10.7646 125.951 10.8605 125.573 11.0525C125.225 11.2274 124.935 11.4978 124.735 11.8318C124.538 12.1794 124.434 12.5722 124.434 12.9718C124.434 13.3715 124.538 13.7643 124.735 14.1119C124.935 14.4459 125.225 14.7162 125.573 14.8912C125.951 15.0832 126.37 15.1791 126.794 15.1703C127.143 15.1758 127.488 15.106 127.807 14.9659C128.126 14.8258 128.411 14.6186 128.643 14.3583L129.731 15.3008C129.373 15.7035 128.926 16.0164 128.426 16.2143C127.872 16.4278 127.283 16.5337 126.689 16.526C125.985 16.5359 125.288 16.3794 124.656 16.0693V16.0693Z" fill="white"/>
<path d="M132.134 16.0693C131.543 15.7903 131.041 15.3523 130.684 14.8042C130.343 14.254 130.162 13.6193 130.162 12.9718C130.162 12.3243 130.343 11.6897 130.684 11.1394C131.041 10.5914 131.543 10.1534 132.134 9.87437C132.77 9.56297 133.471 9.40645 134.179 9.41763C134.771 9.40929 135.359 9.51515 135.911 9.72938C136.409 9.92693 136.855 10.2371 137.213 10.6356L136.125 11.5781C135.892 11.3189 135.606 11.1129 135.287 10.974C134.967 10.8352 134.621 10.7667 134.273 10.7734C133.849 10.7646 133.429 10.8605 133.051 11.0525C132.704 11.2274 132.413 11.4978 132.214 11.8318C132.017 12.1794 131.913 12.5722 131.913 12.9718C131.913 13.3715 132.017 13.7643 132.214 14.1119C132.413 14.4459 132.704 14.7162 133.051 14.8912C133.429 15.0832 133.849 15.1791 134.273 15.1703C134.622 15.1763 134.968 15.1068 135.288 14.9667C135.607 14.8265 135.893 14.619 136.125 14.3583L137.213 15.3008C136.855 15.7035 136.408 16.0164 135.908 16.2143C135.353 16.4279 134.762 16.5337 134.168 16.526C133.463 16.5365 132.767 16.3799 132.134 16.0693Z" fill="white"/>
<path d="M138.318 9.53355H140.011V14.0139L143.527 9.53355H145.126V16.4208H143.444V11.9405L139.928 16.41H138.318V9.53355Z" fill="white"/>
<path d="M146.949 9.53357H148.642V14.0139L152.158 9.53357H153.76V16.4208H152.075V11.9405L148.559 16.41H146.949V9.53357ZM148.305 7.59064H149.476C149.476 8.06912 149.78 8.31561 150.349 8.31561C150.578 8.33033 150.804 8.26636 150.991 8.13437C151.066 8.06712 151.126 7.9843 151.166 7.89166C151.206 7.79903 151.225 7.69879 151.223 7.59789H152.39C152.4 7.81207 152.358 8.02539 152.268 8.22019C152.179 8.41499 152.044 8.58563 151.875 8.71797C151.42 9.00328 150.886 9.13657 150.349 9.0986C149.001 9.09377 148.319 8.5911 148.305 7.59064Z" fill="white"/>
<path d="M157.024 16.0692C156.441 15.7854 155.946 15.3481 155.592 14.8041C155.251 14.2539 155.07 13.6193 155.07 12.9718C155.07 12.3243 155.251 11.6896 155.592 11.1394C155.946 10.5954 156.441 10.1581 157.024 9.87429C157.668 9.56381 158.376 9.41098 159.09 9.42844C159.683 9.42073 160.271 9.52655 160.823 9.74017C161.32 9.93774 161.764 10.248 162.121 10.6464L161.033 11.5889C160.801 11.3295 160.515 11.1234 160.195 10.9845C159.875 10.8456 159.53 10.7773 159.181 10.7841C158.757 10.7754 158.338 10.8713 157.96 11.0633C157.613 11.2402 157.323 11.5101 157.122 11.8426C156.927 12.1909 156.825 12.5835 156.825 12.9826C156.825 13.3818 156.927 13.7743 157.122 14.1227C157.323 14.4552 157.613 14.7251 157.96 14.902C158.338 15.094 158.757 15.1898 159.181 15.1811C159.53 15.1875 159.876 15.1183 160.196 14.9781C160.516 14.838 160.802 14.6302 161.033 14.3692L162.121 15.3116C161.764 15.7143 161.317 16.0273 160.816 16.2251C160.262 16.4387 159.673 16.5445 159.08 16.5368C158.367 16.5468 157.662 16.3865 157.024 16.0692V16.0692Z" fill="white"/>
<path d="M166.065 13.6405H164.894V16.4099H163.201V9.52261H164.894V12.3283H166.116L168.051 9.54799H169.864L167.431 12.8539L169.914 16.4099H167.979L166.065 13.6405Z" fill="white"/>
<path d="M175.549 14.9346H172.142L171.489 16.4099H169.742L173.026 9.52261H174.679L177.974 16.4099H176.202L175.549 14.9346ZM175.009 13.7275L173.842 11.0958L172.675 13.7275H175.009Z" fill="white"/>
<path d="M184.467 9.53355V16.4208H182.781V14.6084H181.226L179.921 16.4208H178.109L179.646 14.3474C179.179 14.1938 178.775 13.8918 178.495 13.4874C178.216 13.083 178.076 12.5983 178.098 12.1072C178.086 11.6218 178.221 11.1441 178.486 10.737C178.763 10.3446 179.147 10.0391 179.591 9.85617C180.126 9.63822 180.7 9.53213 181.277 9.54444L184.467 9.53355ZM180.218 11.1466C180.087 11.2618 179.984 11.4058 179.917 11.5674C179.851 11.729 179.822 11.9038 179.834 12.0782C179.823 12.2495 179.85 12.4211 179.912 12.5809C179.975 12.7406 180.072 12.8846 180.197 13.0026C180.508 13.2388 180.894 13.3535 181.284 13.3252H182.778V10.8313H181.328C180.931 10.8046 180.538 10.9161 180.215 11.1466H180.218Z" fill="white"/>
<path d="M87.2076 30.6558C86.3218 30.2295 85.5696 29.5689 85.0326 28.7454C84.5185 27.9145 84.2461 26.9568 84.2461 25.9797C84.2461 25.0025 84.5185 24.0448 85.0326 23.2139C85.5694 22.3894 86.3215 21.7275 87.2076 21.2999C88.1688 20.8315 89.2268 20.5956 90.296 20.6112C91.1897 20.5984 92.0774 20.7597 92.9095 21.0861C93.6608 21.3827 94.3332 21.8492 94.8742 22.449L93.2213 23.8736C92.8697 23.4814 92.4378 23.1696 91.9549 22.9595C91.472 22.7493 90.9494 22.6457 90.4228 22.6556C89.7836 22.6442 89.1513 22.7899 88.5814 23.0797C88.0581 23.3468 87.6199 23.7549 87.3163 24.2578C87.0193 24.7824 86.8632 25.375 86.8632 25.9779C86.8632 26.5807 87.0193 27.1733 87.3163 27.6979C87.6188 28.2017 88.0573 28.61 88.5814 28.876C89.1513 29.1658 89.7836 29.3115 90.4228 29.3001C90.9509 29.3109 91.475 29.2062 91.9584 28.9933C92.4418 28.7805 92.8728 28.4645 93.2213 28.0676L94.8742 29.4922C94.3348 30.1014 93.6592 30.5746 92.9023 30.8732C92.0672 31.1976 91.1773 31.3577 90.2815 31.3445C89.2168 31.3611 88.1634 31.1251 87.2076 30.6558V30.6558Z" fill="white"/>
<path d="M106.68 20.7888V31.1777H104.121V22.7462H99.1002V31.1777H96.541V20.7888H106.68Z" fill="white"/>
<path d="M116.964 28.9447H111.799L110.813 31.1776H108.174L113.133 20.7996H115.67L120.669 31.1776H117.965L116.964 28.9447ZM116.152 27.1323L114.387 23.1449L112.625 27.1323H116.152Z" fill="white"/>
<path d="M129.492 21.2491C130.167 21.5116 130.75 21.9651 131.17 22.5541C131.552 23.1489 131.755 23.8409 131.755 24.5478C131.755 25.2547 131.552 25.9467 131.17 26.5415C130.752 27.1324 130.168 27.5865 129.492 27.8464C128.675 28.1649 127.803 28.3188 126.926 28.2995H124.686V31.1777H122.119V20.7888H126.933C127.808 20.771 128.678 20.9274 129.492 21.2491V21.2491ZM128.55 25.8818C128.739 25.7147 128.89 25.5094 128.994 25.2795C129.098 25.0495 129.151 24.8001 129.151 24.5478C129.151 24.2955 129.098 24.0461 128.994 23.8161C128.89 23.5862 128.739 23.3809 128.55 23.2138C128.028 22.8688 127.408 22.7045 126.784 22.7462H124.686V26.3494H126.784C127.408 26.3911 128.028 26.2268 128.55 25.8818V25.8818Z" fill="white"/>
<path d="M141.643 22.7462H138.069V31.1777H135.532V22.7462H131.99V20.7888H141.636L141.643 22.7462Z" fill="white"/>
<path d="M150.222 28.9448H145.057L144.074 31.1777H141.436L146.405 20.7888H148.943L153.909 31.1777H151.208L150.222 28.9448ZM149.414 27.1323L147.649 23.145L145.883 27.1323H149.414Z" fill="white"/>
<path d="M159.681 26.9873H157.901V31.1777H155.342V20.7888H157.901V24.9864H159.742L162.668 20.7888H165.386L161.761 25.802L165.495 31.1777H162.573L159.681 26.9873Z" fill="white"/>
<path d="M166.705 20.7888H169.242V27.5528L174.549 20.7924H176.967V31.1777H174.43V24.4209L169.119 31.1777H166.705V20.7888Z" fill="white"/>
<path d="M187.252 28.9447H182.086L181.1 31.1776H178.465L183.42 20.7996H185.957L190.938 31.1776H188.238L187.252 28.9447ZM186.44 27.1323L184.678 23.1449L182.913 27.1323H186.44Z" fill="white"/>
<path d="M203.968 29.2095V33.3165H201.583V31.1778H193.735V33.3273H191.354V29.2204H191.799C192.466 29.201 192.938 28.7467 193.213 27.8574C193.539 26.6133 193.711 25.3338 193.724 24.0477L193.851 20.7853H202.399V29.2059L203.968 29.2095ZM195.671 27.3644C195.575 28.0359 195.308 28.6713 194.895 29.2095H199.868V22.7463H196.066L196.015 24.2579C195.982 25.3008 195.867 26.3395 195.671 27.3644Z" fill="white"/>
<path d="M213.314 28.9448H208.148L207.162 31.1668H204.523L209.479 20.7888H212.016L217 31.1777H214.296L213.314 28.9448ZM212.502 27.1323L210.736 23.145L208.975 27.1323H212.502Z" fill="white"/>
<path d="M93.1983 62.5075V64.552H85.0134V62.9244L89.1892 58.9805C89.5449 58.6683 89.8484 58.3012 90.0882 57.8931C90.2372 57.614 90.3168 57.3032 90.3202 56.9868C90.3314 56.7975 90.297 56.6081 90.2201 56.4347C90.1432 56.2613 90.0258 56.1088 89.878 55.99C89.5005 55.7281 89.0461 55.6005 88.5875 55.6275C88.1448 55.6206 87.7062 55.7135 87.3043 55.8994C86.9185 56.0813 86.5873 56.3613 86.3437 56.7114L84.5312 55.5333C84.9709 54.8924 85.5759 54.3826 86.2821 54.0579C87.0773 53.6924 87.9444 53.5103 88.8195 53.5251C89.5433 53.5098 90.2625 53.643 90.9328 53.9166C91.4968 54.1498 91.9841 54.5366 92.3392 55.033C92.6791 55.5312 92.8553 56.1229 92.8431 56.7258C92.8504 57.2985 92.7264 57.8652 92.4806 58.3824C92.1083 59.0528 91.6169 59.6498 91.0307 60.1441L88.5404 62.4967L93.1983 62.5075Z" fill="white"/>
<path d="M96.4468 64.0699C95.7232 63.6015 95.1514 62.9327 94.8011 62.1451C94.0038 60.2173 94.0038 58.052 94.8011 56.1242C95.1525 55.3372 95.724 54.6687 96.4468 54.1994C96.9845 53.8509 97.5915 53.6233 98.2258 53.5321C98.86 53.441 99.5065 53.4886 100.121 53.6716C100.735 53.8546 101.302 54.1686 101.783 54.5921C102.264 55.0155 102.647 55.5382 102.906 56.1242C103.699 58.0529 103.699 60.2164 102.906 62.1451C102.556 62.9337 101.983 63.6027 101.257 64.0699C100.533 64.5063 99.7043 64.7369 98.8592 64.7369C98.0141 64.7369 97.185 64.5063 96.4613 64.0699H96.4468ZM100.402 61.7645C100.779 61.199 100.967 60.323 100.967 59.1365C100.967 57.9475 100.779 57.0739 100.402 56.5048C100.237 56.2435 100.008 56.0282 99.7374 55.879C99.4668 55.7298 99.1628 55.6516 98.8537 55.6516C98.5447 55.6516 98.2407 55.7298 97.97 55.879C97.6994 56.0282 97.4709 56.2435 97.3059 56.5048C96.9434 57.0739 96.7404 57.9547 96.7404 59.1365C96.7404 60.3182 96.9289 61.199 97.3059 61.7645C97.4709 62.0258 97.6994 62.2411 97.97 62.3903C98.2407 62.5395 98.5447 62.6177 98.8537 62.6177C99.1628 62.6177 99.4668 62.5395 99.7374 62.3903C100.008 62.2411 100.237 62.0258 100.402 61.7645Z" fill="white"/>
<path d="M112.694 62.5076V64.552H104.523V62.9245L108.707 58.9806C109.061 58.6684 109.364 58.3012 109.602 57.8931C109.751 57.6141 109.83 57.3032 109.834 56.9869C109.845 56.7979 109.811 56.609 109.735 56.4357C109.658 56.2624 109.542 56.1096 109.395 55.9901C109.017 55.7276 108.561 55.6 108.101 55.6276C107.658 55.6206 107.22 55.7136 106.818 55.8994C106.433 56.0833 106.103 56.3629 105.857 56.7114L104.045 55.5333C104.482 54.8917 105.086 54.3816 105.792 54.058C106.587 53.6928 107.455 53.5107 108.33 53.5251C109.053 53.5095 109.773 53.6427 110.443 53.9166C111.007 54.1499 111.494 54.5367 111.849 55.0331C112.191 55.5302 112.368 56.1226 112.353 56.7259C112.359 57.2984 112.235 57.8647 111.991 58.3825C111.616 59.0512 111.125 59.6478 110.541 60.1442L108.05 62.4967L112.694 62.5076Z" fill="white"/>
<path d="M121.841 62.5076V64.552H113.656V62.9245L117.832 58.9806C118.186 58.6673 118.49 58.3004 118.731 57.8931C118.878 57.6134 118.958 57.303 118.963 56.9869C118.973 56.7976 118.938 56.6086 118.861 56.4353C118.785 56.2621 118.668 56.1095 118.521 55.9901C118.143 55.7282 117.689 55.6005 117.23 55.6276C116.786 55.6211 116.347 55.714 115.943 55.8994C115.559 56.0824 115.229 56.3623 114.986 56.7114L113.174 55.5333C113.613 54.8933 114.217 54.3836 114.921 54.058C115.716 53.6931 116.583 53.511 117.458 53.5251C118.181 53.5095 118.899 53.6427 119.568 53.9166C120.133 54.1493 120.622 54.5362 120.978 55.0331C121.317 55.5317 121.492 56.1233 121.478 56.7259C121.484 57.2984 121.36 57.8647 121.116 58.3825C120.742 59.052 120.251 59.6488 119.666 60.1442L117.176 62.4967L121.841 62.5076Z" fill="white"/>
</g>
<defs>
<radialGradient id="paint0_radial_795_29151" cx="0" cy="0" r="1" gradientUnits="userSpaceOnUse" gradientTransform="translate(39.585 34.6213) scale(31.2791 31.2791)">
<stop stop-color="#D9151C"/>
<stop offset="0.74" stop-color="#DA191B"/>
</radialGradient>
<linearGradient id="paint1_linear_795_29151" x1="7.39453" y1="35.2267" x2="61.0609" y2="35.2267" gradientUnits="userSpaceOnUse">
<stop stop-color="#357EC0"/>
<stop offset="0.35" stop-color="#347BBD"/>
<stop offset="0.66" stop-color="#3070B4"/>
<stop offset="0.94" stop-color="#2A5FA6"/>
<stop offset="1" stop-color="#285AA2"/>
</linearGradient>
<clipPath id="clip0_795_29151">
<rect width="217" height="69.9602" fill="white"/>
</clipPath>
</defs>
</svg>
