<svg width="20" height="20" viewBox="0 0 20 20" fill="none" xmlns="http://www.w3.org/2000/svg">
<g clip-path="url(#clip0_742_57)">
<path d="M9.77026 0.803589C4.6467 0.803589 0.492188 4.95731 0.492188 10.0817C0.492188 15.206 4.64551 19.3597 9.77026 19.3597C14.895 19.3597 19.0483 15.2064 19.0483 10.0817C19.0483 4.95692 14.8946 0.803589 9.77026 0.803589Z" fill="#FDE577"/>
<path d="M9.76965 2.05811C10.3133 2.0579 10.8555 2.1125 11.3882 2.22107C11.9036 2.32679 12.4074 2.48325 12.8921 2.68814C13.369 2.89003 13.8253 3.13768 14.2544 3.42762C14.6812 3.71579 15.0795 4.04399 15.4439 4.40776C15.8077 4.77221 16.1359 5.17051 16.4241 5.59726C16.7141 6.02637 16.9617 6.48264 17.1636 6.95963C17.3685 7.44444 17.5249 7.94834 17.6306 8.46394C17.7392 8.99646 17.7938 9.53858 17.7936 10.0821C17.7938 10.6255 17.7392 11.1677 17.6306 11.7002C17.5249 12.2158 17.3685 12.7197 17.1636 13.2045C16.9618 13.6814 16.7142 14.1375 16.4241 14.5665C16.1361 14.9934 15.8079 15.3917 15.4439 15.756C15.0796 16.12 14.6813 16.4483 14.2544 16.7365C13.8253 17.0264 13.369 17.2741 12.8921 17.476C12.4074 17.6809 11.9037 17.8372 11.3882 17.9426C10.8555 18.0513 10.3133 18.1061 9.76965 18.106C9.22616 18.1061 8.68404 18.0514 8.15154 17.9426C7.63591 17.8372 7.132 17.6809 6.64722 17.476C6.17039 17.2741 5.71426 17.0264 5.28524 16.7365C4.85833 16.4484 4.46001 16.1201 4.09575 15.756C3.73178 15.3916 3.40344 14.9933 3.11521 14.5665C2.82542 14.1373 2.57778 13.6812 2.37574 13.2045C2.17079 12.7197 2.01446 12.2158 1.90905 11.7002C1.80046 11.1677 1.74587 10.6255 1.74609 10.0821C1.74587 9.53858 1.80046 8.99646 1.90905 8.46394C2.01446 7.9483 2.17079 7.44439 2.37574 6.95963C2.57786 6.48279 2.8255 6.02656 3.11521 5.59726C3.40364 5.1706 3.73197 4.77231 4.09575 4.40776C4.46012 4.0439 4.85843 3.71569 5.28524 3.42762C5.71426 3.13768 6.17039 2.89003 6.64722 2.68814C7.13206 2.4833 7.63594 2.32685 8.15154 2.22107C8.68406 2.11248 9.22617 2.05788 9.76965 2.05811Z" fill="#FED94F"/>
<path d="M17.1896 7.0004C17.3943 7.48509 17.5507 7.98885 17.6563 8.50432C17.7648 9.03698 17.8194 9.57922 17.8192 10.1228C17.8194 10.6663 17.7648 11.2084 17.6563 11.7409C17.5506 12.2559 17.3942 12.7591 17.1896 13.2433C16.9876 13.7202 16.74 14.1764 16.4501 14.6056C16.1618 15.0324 15.8334 15.4307 15.4696 15.7951C15.1051 16.159 14.7068 16.4873 14.2801 16.7757C13.851 17.0655 13.3949 17.3131 12.9181 17.5152C12.4332 17.7199 11.9294 17.8762 11.4138 17.9818C10.8813 18.0904 10.3391 18.145 9.79567 18.1448C9.25206 18.145 8.70982 18.0904 8.17716 17.9818C7.66169 17.8762 7.15793 17.7199 6.67324 17.5152C6.19632 17.3132 5.74007 17.0656 5.31087 16.7757C4.88693 16.489 4.49116 16.1626 4.12891 15.8011C4.20186 15.8804 4.27601 15.9597 4.35174 16.0338C4.71619 16.3976 5.11449 16.7258 5.54124 17.014C5.97044 17.3038 6.42669 17.5515 6.9036 17.7534C7.38878 17.9587 7.89307 18.1154 8.40911 18.2213C8.94163 18.3299 9.48375 18.3845 10.0272 18.3843C10.5707 18.3845 11.1128 18.3299 11.6453 18.2213C12.1609 18.1156 12.6648 17.9591 13.1497 17.7542C13.6266 17.5523 14.0828 17.3046 14.512 17.0148C14.9389 16.7267 15.3372 16.3985 15.7015 16.0346C16.0655 15.6703 16.3939 15.272 16.6821 14.8451C16.9719 14.4159 17.2196 13.9597 17.4215 13.4828C17.6264 12.9979 17.7829 12.494 17.8886 11.9784C17.997 11.4459 18.0516 10.9038 18.0516 10.3603C18.0516 9.81686 17.997 9.27477 17.8886 8.74222C17.7829 8.22661 17.6264 7.72272 17.4215 7.2379C17.2196 6.76099 16.9719 6.30474 16.6821 5.87553C16.394 5.4486 16.0656 5.05028 15.7015 4.68603L15.6956 4.67969C15.9716 4.97891 16.2248 5.29847 16.4529 5.63565C16.7419 6.06571 16.9886 6.52277 17.1896 7.0004Z" fill="#FBEF9D"/>
<path d="M9.99985 1.04229C11.2215 1.04074 12.4314 1.28125 13.5596 1.74995C14.6879 2.21864 15.712 2.90622 16.573 3.77298C15.7055 2.83522 14.6532 2.08726 13.4825 1.57621C12.3117 1.06516 11.0477 0.802101 9.77027 0.803595C4.64671 0.803595 0.492196 4.95732 0.492196 10.0817C0.490596 11.297 0.728565 12.5006 1.19249 13.6239C1.65642 14.7471 2.33721 15.7679 3.19592 16.6279C1.6024 14.9142 0.718088 12.66 0.721373 10.32C0.722563 5.19561 4.87629 1.04229 9.99985 1.04229Z" fill="#FFF3A7"/>
<g opacity="0.1">
<path d="M6.64687 17.4735C7.13114 17.6783 7.63451 17.8346 8.1496 17.9402C8.6821 18.0489 9.22422 18.1037 9.76771 18.1036C10.3113 18.1036 10.8536 18.0489 11.3862 17.9402C11.9017 17.8348 12.4055 17.6785 12.8901 17.4735C13.3682 17.2718 13.8255 17.0242 14.2557 16.7341C14.6825 16.4459 15.0808 16.1175 15.4452 15.7535C15.8091 15.3892 16.1374 14.9909 16.4253 14.564C16.7154 14.1351 16.9631 13.6789 17.1648 13.202C17.3697 12.7172 17.5261 12.2133 17.6319 11.6977C17.7405 11.1652 17.7951 10.6231 17.7948 10.0796C17.7951 9.53614 17.7405 8.99402 17.6319 8.46151C17.5261 7.9459 17.3697 7.44201 17.1648 6.95719C17.0285 6.63487 16.8712 6.32188 16.6938 6.02026C14.1517 6.68812 11.8054 7.95218 9.84939 9.7077C7.74197 11.6089 6.15824 14.0196 5.25 16.7087L5.28727 16.7341C5.71554 17.0239 6.17086 17.2715 6.64687 17.4735Z" fill="#F7931E"/>
</g>
<path d="M3.11701 14.0093C2.91217 13.5244 2.75572 13.0205 2.64994 12.5049C2.54134 11.9724 2.48675 11.4303 2.48697 10.8868C2.48675 10.3434 2.54134 9.80124 2.64994 9.26872C2.75561 8.7531 2.91206 8.2492 3.11701 7.76441C3.3189 7.28745 3.56655 6.8312 3.85648 6.40204C4.14466 5.97529 4.47286 5.57699 4.83663 5.21254C5.20108 4.84877 5.59938 4.52057 6.02612 4.23239C6.45533 3.94253 6.91158 3.69489 7.38849 3.49292C7.87331 3.28803 8.37721 3.13157 8.89281 3.02585C9.42533 2.91726 9.96745 2.86266 10.5109 2.86289C11.0544 2.86266 11.5965 2.91726 12.129 3.02585C12.6446 3.13157 13.1485 3.28803 13.6334 3.49292C14.1102 3.69481 14.5663 3.94245 14.9953 4.23239C15.3619 4.4801 15.7075 4.75752 16.0286 5.06187C15.8491 4.83982 15.6581 4.62727 15.4565 4.42509C15.092 4.06132 14.6937 3.73312 14.267 3.44494C13.8378 3.15494 13.3816 2.90729 12.9046 2.70548C12.4198 2.50058 11.9159 2.34413 11.4003 2.2384C10.8678 2.12981 10.3256 2.07521 9.78216 2.07544C9.23868 2.07521 8.69657 2.12981 8.16405 2.2384C7.64844 2.34413 7.14455 2.50058 6.65973 2.70548C6.18274 2.90729 5.72648 3.15494 5.29736 3.44494C4.87053 3.733 4.47222 4.06122 4.10786 4.42509C3.74385 4.78944 3.41551 5.18775 3.12732 5.61459C2.8373 6.0437 2.58965 6.49996 2.38785 6.97696C2.18291 7.46159 2.02658 7.96536 1.92117 8.48088C1.81247 9.01352 1.75774 9.55576 1.75781 10.0994C1.75774 10.6429 1.81247 11.185 1.92117 11.7175C2.02664 12.2331 2.18296 12.737 2.38785 13.2218C2.58973 13.6986 2.83738 14.1548 3.12732 14.5838C3.41541 15.0107 3.74376 15.409 4.10786 15.7733C4.15861 15.8244 4.21056 15.8744 4.2629 15.924C4.11883 15.7458 3.98283 15.562 3.8549 15.3724C3.56544 14.943 3.31832 14.4864 3.11701 14.0093Z" fill="#E3B81E"/>
</g>
<defs>
<clipPath id="clip0_742_57">
<rect width="18.5542" height="18.5542" fill="white" transform="translate(0.494141 0.803589)"/>
</clipPath>
</defs>
</svg>
