<svg width="19" height="20" viewBox="0 0 19 20" fill="none" xmlns="http://www.w3.org/2000/svg">
<g clip-path="url(#clip0_742_65)">
<path d="M9.44214 0.803589C4.31858 0.803589 0.164062 4.95731 0.164062 10.0817C0.164062 15.206 4.31739 19.3597 9.44214 19.3597C14.5669 19.3597 18.7202 15.2064 18.7202 10.0817C18.7202 4.95692 14.5669 0.803589 9.44214 0.803589Z" fill="#CCCCCC"/>
<path d="M9.44461 2.05795C9.98821 2.05775 10.5305 2.11234 11.0631 2.22091C11.5786 2.32664 12.0824 2.4831 12.567 2.68799C13.044 2.88979 13.5003 3.13744 13.9294 3.42746C14.3561 3.71564 14.7544 4.04384 15.1189 4.40761C15.4827 4.77206 15.8109 5.17036 16.099 5.5971C16.3891 6.02622 16.6367 6.48249 16.8385 6.95947C17.0436 7.44423 17.2 7.94814 17.3056 8.46379C17.4142 8.99631 17.4688 9.53842 17.4686 10.0819C17.4688 10.6254 17.4142 11.1675 17.3056 11.7C17.2 12.2157 17.0436 12.7196 16.8385 13.2043C16.6366 13.6808 16.3888 14.1366 16.0986 14.5651C15.8107 14.992 15.4825 15.3903 15.1185 15.7546C14.7542 16.1186 14.3559 16.447 13.929 16.7352C13.4999 17.0252 13.0436 17.2728 12.5666 17.4746C12.0821 17.6791 11.5785 17.8351 11.0631 17.9401C10.5305 18.0488 9.98823 18.1035 9.44461 18.1035C8.90112 18.1035 8.359 18.0488 7.82649 17.9401C7.31098 17.8347 6.8072 17.6784 6.32257 17.4734C5.84557 17.2716 5.38931 17.024 4.9602 16.734C4.53328 16.4459 4.13496 16.1175 3.7707 15.7534C3.40673 15.389 3.0784 14.9907 2.79016 14.5639C2.50038 14.1348 2.25273 13.6787 2.05069 13.202C1.84695 12.7174 1.69156 12.2139 1.58679 11.6988C1.4782 11.1663 1.4236 10.6242 1.42383 10.0807C1.4236 9.53724 1.4782 8.99512 1.58679 8.4626C1.69238 7.94701 1.8487 7.44311 2.05347 6.95828C2.2556 6.48145 2.50323 6.02521 2.79294 5.59591C3.08138 5.16925 3.4097 4.77097 3.77348 4.40642C4.13785 4.04255 4.53616 3.71435 4.96298 3.42627C5.39209 3.13625 5.84835 2.8886 6.32535 2.6868C6.81003 2.48191 7.31379 2.32546 7.82927 2.21973C8.36179 2.11116 8.9039 2.05656 9.44738 2.05676" fill="#CFCFCF"/>
<path d="M16.8657 7.0004C17.0707 7.48503 17.227 7.98881 17.3324 8.50432C17.441 9.03698 17.4956 9.57922 17.4954 10.1228C17.4956 10.6663 17.441 11.2084 17.3324 11.7409C17.227 12.2565 17.0707 12.7602 16.8657 13.2449C16.6638 13.7218 16.4161 14.178 16.1263 14.6072C15.838 15.0341 15.5097 15.4324 15.1457 15.7967C14.7813 16.1606 14.383 16.4889 13.9562 16.7773C13.5271 17.0671 13.071 17.3147 12.5942 17.5167C12.1094 17.7215 11.6055 17.8778 11.0899 17.9834C10.5574 18.092 10.0153 18.1466 9.47182 18.1464C8.92834 18.1466 8.38622 18.092 7.8537 17.9834C7.33809 17.8779 6.8342 17.7216 6.34939 17.5167C5.87255 17.3146 5.41632 17.067 4.98702 16.7773C4.5635 16.4896 4.16827 16.1623 3.80664 15.7999C3.8796 15.8792 3.95374 15.9585 4.02987 16.0326C4.39423 16.3965 4.79254 16.7247 5.21937 17.0128C5.64857 17.3026 6.10482 17.5503 6.58174 17.7523C7.06585 17.9577 7.56907 18.1148 8.08407 18.2213C8.61659 18.3299 9.1587 18.3845 9.70218 18.3843C10.2457 18.3845 10.7878 18.3299 11.3203 18.2213C11.8359 18.1156 12.3398 17.9591 12.8246 17.7542C13.3015 17.5523 13.7578 17.3046 14.187 17.0148C14.6138 16.7267 15.0121 16.3985 15.3765 16.0346C15.7405 15.6703 16.0688 15.272 16.357 14.8451C16.6469 14.4159 16.8945 13.9597 17.0965 13.4828C17.3014 12.9979 17.4578 12.494 17.5636 11.9784C17.672 11.4459 17.7266 10.9038 17.7265 10.3603C17.7266 9.81686 17.672 9.27477 17.5636 8.74222C17.4578 8.22661 17.3014 7.72272 17.0965 7.2379C16.8945 6.76099 16.6469 6.30474 16.357 5.87553C16.0689 5.4486 15.7406 5.05028 15.3765 4.68603L15.3705 4.67969C15.6466 4.97891 15.8997 5.29847 16.1278 5.63565C16.4173 6.06567 16.6644 6.52272 16.8657 7.0004Z" fill="#E6E6E6"/>
<path d="M9.67367 1.04217C10.8954 1.04061 12.1053 1.28113 13.2335 1.74982C14.3617 2.21852 15.3859 2.9061 16.2468 3.77285C15.3794 2.8351 14.3271 2.08714 13.1563 1.57609C11.9855 1.06504 10.7216 0.801979 9.4441 0.803473C4.32054 0.803473 0.166024 4.9572 0.166024 10.0816C0.164424 11.2968 0.402393 12.5005 0.86632 13.6238C1.33025 14.747 2.01103 15.7678 2.86975 16.6277C1.27619 14.9139 0.392005 12.6593 0.395598 10.3191C0.395598 5.19549 4.54892 1.04217 9.67367 1.04217Z" fill="#E6E6E6"/>
<g opacity="0.1">
<path d="M6.32267 17.4737C6.8073 17.6786 7.31108 17.8349 7.8266 17.9403C8.3591 18.049 8.90122 18.1038 9.44471 18.1037C9.98833 18.1038 10.5306 18.049 11.0632 17.9403C11.5787 17.8349 12.0825 17.6786 12.5671 17.4737C13.0441 17.2719 13.5004 17.0242 13.9295 16.7342C14.3564 16.446 14.7547 16.1176 15.119 15.7536C15.483 15.3894 15.8112 14.991 16.0992 14.5641C16.3892 14.1352 16.6369 13.6791 16.8386 13.2022C17.0437 12.7174 17.2002 12.2135 17.3057 11.6979C17.4143 11.1653 17.4689 10.6232 17.4687 10.0797C17.4689 9.53626 17.4143 8.99415 17.3057 8.46163C17.2002 7.94597 17.0437 7.44207 16.8386 6.95731C16.7024 6.63499 16.545 6.322 16.3676 6.02039C13.8255 6.68824 11.4793 7.95231 9.52322 9.70783C7.4158 11.6091 5.83207 14.0198 4.92383 16.7088L4.9611 16.7342C5.38995 17.0242 5.84595 17.2718 6.32267 17.4737Z" fill="#F2F2F2"/>
</g>
<path d="M2.78654 14.0093C2.5817 13.5244 2.42525 13.0205 2.31946 12.5049C2.21087 11.9724 2.15627 11.4303 2.1565 10.8868C2.15627 10.3434 2.21087 9.80124 2.31946 9.26872C2.42513 8.7531 2.58159 8.2492 2.78654 7.76441C2.98842 7.28745 3.23607 6.8312 3.52601 6.40204C3.81419 5.97529 4.14238 5.57699 4.50615 5.21254C4.87061 4.84877 5.26891 4.52057 5.69565 4.23239C6.12486 3.94253 6.58111 3.69489 7.05802 3.49292C7.54284 3.28803 8.04673 3.13157 8.56233 3.02585C9.09485 2.91726 9.63697 2.86266 10.1804 2.86289C10.7239 2.86266 11.266 2.91726 11.7986 3.02585C12.3142 3.13157 12.8181 3.28803 13.3029 3.49292C13.7797 3.69481 14.2358 3.94245 14.6649 4.23239C15.0314 4.4801 15.377 4.75752 15.6981 5.06187C15.5187 4.83972 15.3277 4.62717 15.126 4.42509C14.7615 4.06132 14.3632 3.73312 13.9365 3.44494C13.5074 3.15494 13.0511 2.90729 12.5741 2.70548C12.0893 2.50058 11.5854 2.34413 11.0698 2.2384C10.5373 2.12981 9.99516 2.07521 9.45168 2.07544C8.9082 2.07521 8.36609 2.12981 7.83357 2.2384C7.31796 2.34413 6.81407 2.50058 6.32925 2.70548C5.85235 2.90721 5.39621 3.15486 4.96728 3.44494C4.54039 3.73292 4.14207 4.06114 3.77778 4.42509C3.41389 4.78954 3.08556 5.18784 2.79724 5.61459C2.50737 6.04379 2.25973 6.50004 2.05777 6.97696C1.85283 7.46159 1.6965 7.96536 1.59109 8.48088C1.48239 9.01352 1.42766 9.55576 1.42773 10.0994C1.42766 10.6429 1.48239 11.185 1.59109 11.7175C1.69656 12.2331 1.85288 12.737 2.05777 13.2218C2.25982 13.6986 2.50746 14.1547 2.79724 14.5838C3.08546 15.0106 3.4138 15.4089 3.77778 15.7733C3.82854 15.8244 3.88047 15.8744 3.93281 15.924C3.78875 15.7458 3.65276 15.562 3.52482 15.3724C3.23522 14.943 2.98797 14.4865 2.78654 14.0093Z" fill="#B3B3B3"/>
</g>
<defs>
<clipPath id="clip0_742_65">
<rect width="18.5542" height="18.5542" fill="white" transform="translate(0.166016 0.803589)"/>
</clipPath>
</defs>
</svg>
