<svg width="20" height="20" viewBox="0 0 20 20" fill="none" xmlns="http://www.w3.org/2000/svg">
<g clip-path="url(#clip0_742_73)">
<path d="M9.97339 0.803589C4.84983 0.803589 0.695312 4.95731 0.695312 10.0817C0.695312 15.206 4.84864 19.3597 9.97339 19.3597C15.0981 19.3597 19.2515 15.2064 19.2515 10.0817C19.2515 4.95692 15.0981 0.803589 9.97339 0.803589Z" fill="#E17551"/>
<path d="M9.97389 2.05795C10.5174 2.05773 11.0595 2.11232 11.592 2.22091C12.1076 2.32664 12.6115 2.4831 13.0963 2.68799C13.5732 2.88996 14.0295 3.13761 14.4587 3.42746C14.8855 3.71552 15.2838 4.04373 15.6482 4.40761C16.0122 4.77195 16.3405 5.17026 16.6287 5.5971C16.9186 6.02631 17.1662 6.48256 17.3682 6.95947C17.5731 7.44429 17.7296 7.94818 17.8353 8.46379C17.9437 8.99634 17.9983 9.53843 17.9982 10.0819C17.9983 10.6254 17.9437 11.1675 17.8353 11.7C17.7296 12.2156 17.5731 12.7195 17.3682 13.2043C17.1663 13.6812 16.9187 14.1373 16.6287 14.5663C16.3407 14.9933 16.0124 15.3916 15.6482 15.7558C15.2839 16.1199 14.8856 16.4483 14.4587 16.7363C14.0295 17.0262 13.5732 17.2738 13.0963 17.4758C12.6116 17.6808 12.1077 17.8371 11.592 17.9425C11.0594 18.05 10.5173 18.1036 9.97389 18.1023C9.4304 18.1024 8.88829 18.0476 8.35579 17.9389C7.84015 17.8335 7.33623 17.6772 6.85146 17.4722C6.37455 17.2703 5.91831 17.0226 5.4891 16.7328C5.06217 16.4447 4.66385 16.1164 4.2996 15.7522C3.93541 15.3881 3.60705 14.9897 3.31906 14.5627C3.03049 14.1343 2.78404 13.679 2.58316 13.2031C2.37826 12.7183 2.22181 12.2144 2.11608 11.6988C2.00768 11.1663 1.95309 10.6242 1.95313 10.0807C1.95309 9.53725 2.00768 8.99515 2.11608 8.4626C2.22181 7.94699 2.37826 7.4431 2.58316 6.95828C2.78513 6.48137 3.03277 6.02512 3.32262 5.59591C3.61082 5.16907 3.93916 4.77076 4.30317 4.40642C4.66752 4.04254 5.06583 3.71433 5.49266 3.42627C5.92187 3.13642 6.37812 2.88877 6.85504 2.6868C7.33985 2.48191 7.84374 2.32546 8.35935 2.21973C8.89187 2.11114 9.43399 2.05654 9.97747 2.05676" fill="#E58057"/>
<path d="M17.3962 7.0003C17.6011 7.48498 17.7576 7.98874 17.8633 8.50422C17.9719 9.03688 18.0265 9.57912 18.0263 10.1227C18.0265 10.6662 17.9719 11.2083 17.8633 11.7408C17.7576 12.2563 17.6011 12.7601 17.3962 13.2448C17.1944 13.7218 16.9468 14.178 16.6567 14.6071C16.3687 15.034 16.0405 15.4323 15.6766 15.7966C15.3121 16.1604 14.9138 16.4887 14.4871 16.7772C14.0578 17.0669 13.6016 17.3145 13.1247 17.5166C12.6399 17.7214 12.136 17.8777 11.6204 17.9833C11.0879 18.0919 10.5458 18.1465 10.0023 18.1463C9.45883 18.1465 8.91671 18.0919 8.3842 17.9833C7.8686 17.8777 7.36471 17.7214 6.87988 17.5166C6.40316 17.3137 5.94717 17.0651 5.5183 16.7744C5.09423 16.4877 4.69833 16.1613 4.33594 15.7998C4.40889 15.8791 4.48344 15.9584 4.55917 16.0325C4.92363 16.3963 5.32193 16.7245 5.74867 17.0127C6.17778 17.3027 6.63404 17.5504 7.11103 17.7522C7.59552 17.9577 8.09915 18.1148 8.61456 18.2212C9.14722 18.3298 9.68946 18.3844 10.2331 18.3842C10.7765 18.3844 11.3187 18.3298 11.8512 18.2212C12.3667 18.1155 12.8704 17.959 13.3551 17.7541C13.832 17.5517 14.2882 17.3034 14.7171 17.0127C15.1439 16.7246 15.5422 16.3964 15.9066 16.0325C16.2704 15.668 16.5987 15.2697 16.8871 14.8431C17.1768 14.4137 17.4245 13.9575 17.6266 13.4807C17.8313 12.9958 17.9877 12.492 18.0933 11.9764C18.2019 11.4438 18.2565 10.9017 18.2562 10.3583C18.2565 9.81477 18.2019 9.27266 18.0933 8.74014C17.9877 8.22454 17.8313 7.72065 17.6266 7.23582C17.4245 6.75898 17.1768 6.30275 16.8871 5.87345C16.5988 5.4467 16.2705 5.0484 15.9066 4.68395L15.9002 4.67761C16.1764 4.97674 16.4295 5.2963 16.6575 5.63357C16.9475 6.0641 17.1949 6.52183 17.3962 7.0003Z" fill="#E79174"/>
<path d="M10.2033 1.04229C11.4253 1.04055 12.6355 1.28098 13.764 1.74967C14.8925 2.21837 15.9169 2.90605 16.7781 3.77298C15.9106 2.83524 14.8583 2.08729 13.6875 1.57625C12.5167 1.0652 11.2528 0.802125 9.97535 0.803595C4.85179 0.803595 0.697275 4.95732 0.697275 10.0817C0.695588 11.297 0.933518 12.5007 1.39745 13.6239C1.86138 14.7472 2.54222 15.768 3.40101 16.6279C1.80749 14.9142 0.923167 12.66 0.926452 10.32C0.926452 5.19561 5.08136 1.04229 10.2033 1.04229Z" fill="#E79174"/>
<g opacity="0.1">
<path d="M6.84962 17.4735C7.33439 17.6784 7.8383 17.8348 8.35395 17.9402C8.8865 18.0485 9.4286 18.1028 9.97205 18.1023C10.5155 18.1024 11.0577 18.0477 11.5902 17.939C12.1058 17.8336 12.6097 17.6773 13.0945 17.4723C13.5714 17.2703 14.0276 17.0227 14.4569 16.7328C14.8838 16.4448 15.2821 16.1164 15.6464 15.7523C16.0106 15.3881 16.3389 14.9898 16.6269 14.5628C16.9168 14.1338 17.1645 13.6777 17.3664 13.2008C17.5713 12.716 17.7277 12.2121 17.8334 11.6965C17.9418 11.164 17.9964 10.6219 17.9964 10.0784C17.9964 9.53493 17.9418 8.99283 17.8334 8.46028C17.7277 7.94468 17.5713 7.44079 17.3664 6.95597C17.23 6.63364 17.0725 6.32065 16.8949 6.01904C14.3529 6.68698 12.0067 7.95104 10.0506 9.70648C7.94294 11.6076 6.35917 14.0183 5.45117 16.7075L5.48805 16.7328C5.91696 17.0231 6.37294 17.2711 6.84962 17.4735Z" fill="#EFB39A"/>
</g>
<g opacity="0.41">
<path d="M3.31544 14.0093C3.11073 13.5244 2.95441 13.0205 2.84876 12.5049C2.74017 11.9724 2.68557 11.4303 2.6858 10.8868C2.68557 10.3434 2.74017 9.80124 2.84876 9.26872C2.95429 8.75311 3.11061 8.24922 3.31544 7.76441C3.51748 7.28753 3.76511 6.83129 4.0549 6.40204C4.34334 5.97538 4.67167 5.57709 5.03545 5.21254C5.39982 4.84868 5.79813 4.52046 6.22495 4.23239C6.65397 3.94245 7.11009 3.69481 7.58692 3.49292C8.07176 3.28809 8.57564 3.13163 9.09123 3.02585C9.62375 2.91726 10.1659 2.86266 10.7093 2.86289C11.253 2.86268 11.7952 2.91728 12.3279 3.02585C12.8433 3.13157 13.3471 3.28803 13.8318 3.49292C14.3088 3.69472 14.765 3.94237 15.1942 4.23239C15.5607 4.4801 15.9063 4.75752 16.2274 5.06187C16.0479 4.83972 15.8568 4.62717 15.6549 4.42509C15.2906 4.06114 14.8923 3.73292 14.4654 3.44494C14.0365 3.15486 13.5803 2.90721 13.1034 2.70548C12.6186 2.50058 12.1147 2.34413 11.5991 2.2384C11.0666 2.12981 10.5245 2.07521 9.98099 2.07544C9.43751 2.07521 8.89539 2.12981 8.36287 2.2384C7.84726 2.34413 7.34337 2.50058 6.85856 2.70548C6.38157 2.90729 5.9253 3.15494 5.49618 3.44494C5.06944 3.73312 4.67114 4.06132 4.30668 4.42509C3.94292 4.78955 3.61472 5.18785 3.32654 5.61459C3.03652 6.0437 2.78887 6.49996 2.58707 6.97696C2.38218 7.46164 2.22573 7.9654 2.12 8.48088C2.01143 9.01353 1.95683 9.55578 1.95703 10.0994C1.95682 10.6429 2.01142 11.185 2.12 11.7175C2.22578 12.2331 2.38224 12.737 2.58707 13.2218C2.78896 13.6986 3.0366 14.1548 3.32654 14.5838C3.61462 15.0106 3.94282 15.4089 4.30668 15.7733C4.35783 15.8244 4.40937 15.8744 4.46211 15.924C4.31805 15.7458 4.18192 15.562 4.05372 15.3724C3.76428 14.9429 3.51703 14.4864 3.31544 14.0093Z" fill="#BA582E"/>
</g>
</g>
<defs>
<clipPath id="clip0_742_73">
<rect width="18.5542" height="18.5542" fill="white" transform="translate(0.697266 0.803589)"/>
</clipPath>
</defs>
</svg>
