<svg width="94" height="94" viewBox="0 0 94 94" fill="none" xmlns="http://www.w3.org/2000/svg">
<path d="M77.358 36.2093C76.5019 35.9758 66.3068 32.6293 64.3611 32.0067C63.2716 31.0728 58.9912 27.5706 56.2673 25.3915C56.2673 27.5706 55.956 30.3724 55.1777 32.6293C58.1351 34.108 61.3259 35.5867 62.5711 35.9758H62.649C64.4389 36.5206 76.0349 38.4662 76.8132 38.6218C77.1245 38.6218 77.358 38.6218 77.6693 38.4662C78.2919 38.0771 78.4475 37.2988 78.0584 36.6762C77.9027 36.4427 77.6693 36.2871 77.358 36.2093Z" fill="white"/>
<path d="M53.6214 22.2008C56.2674 23.0568 59.147 21.5003 59.9252 18.8543C60.7813 16.2082 59.2248 13.3287 56.5787 12.5504C53.9327 11.6943 51.0531 13.2509 50.2749 15.8969C49.4188 18.543 50.9753 21.4225 53.6214 22.2008Z" fill="white"/>
<path d="M56.6563 66.7946C53.8546 66.7946 51.5977 69.0515 51.5977 71.8532C51.5977 74.655 53.8546 76.9119 56.6563 76.9119C59.458 76.9119 61.7149 74.655 61.7149 71.8532C61.7149 69.0515 59.458 66.7946 56.6563 66.7946Z" fill="white"/>
<path d="M21.0903 37.7658C21.4016 37.8436 21.7129 37.7658 22.0242 37.688C23.5029 37.0654 34.9433 31.462 34.9433 31.462C34.9433 31.462 45.5275 29.9055 47.1618 29.5163C48.7962 29.1272 50.1192 28.0376 50.4305 26.4033C50.8974 24.2242 49.4966 22.1229 47.3953 21.656C46.5392 21.5003 45.761 21.656 44.9827 21.8894C44.2045 22.1229 33.2311 26.8703 33.2311 26.8703C33.0754 26.9481 32.9198 27.0259 32.842 27.1037L20.7012 35.3532C20.4677 35.5089 20.2343 35.8202 20.1564 36.1315C19.923 36.8319 20.3899 37.5323 21.0903 37.7658Z" fill="white"/>
<path d="M48.3306 39.2445C46.6184 38.8554 44.7506 39.4002 43.5832 40.8788C43.3498 41.1901 43.1163 41.5793 42.8828 41.9684C41.6376 44.381 38.6802 51.1518 37.5129 54.4983C36.5011 54.3426 18.6013 51.6187 18.1344 51.6187C17.6674 51.6187 17.3561 51.6187 16.967 51.8522C16.1887 52.397 15.9552 53.4087 16.5 54.187C16.7335 54.5761 17.1226 54.8096 17.4339 54.8874L38.5246 60.5687C39.692 60.88 40.9372 60.413 41.7154 59.4013L48.5641 49.8288C50.821 51.93 53.5449 54.1091 56.5801 56.2883L68.176 75.0442C68.4095 75.4333 68.7986 75.6668 69.2656 75.7446C70.1217 75.8224 70.8999 75.2776 70.9778 74.4216C71.0556 74.1103 70.9778 73.799 70.8221 73.5655L61.0939 53.4087C61.0161 53.1752 60.8605 53.0196 60.7048 52.8639C60.7048 52.8639 51.5992 41.5014 50.7432 40.801C49.8871 39.8671 49.1867 39.478 48.3306 39.2445Z" fill="white"/>
</svg>
