<svg width="94" height="94" viewBox="0 0 94 94" fill="none" xmlns="http://www.w3.org/2000/svg">
<path d="M52.4955 30.528C54.1299 31.851 56.5425 31.5397 57.8655 29.9054C59.1885 28.2711 58.8772 25.8585 57.2429 24.5355C55.6086 23.2124 53.196 23.5237 51.8729 25.1581C50.5499 26.7924 50.7834 29.205 52.4955 30.528Z" fill="white"/>
<path d="M47.5947 38.1549C49.4625 37.1432 50.0851 34.8084 49.0734 32.9406C48.0616 31.0728 45.7269 30.4502 43.8591 31.4619C41.9913 32.4737 41.3687 34.8084 42.3804 36.6762C43.3921 38.4662 45.7269 39.1666 47.5947 38.1549Z" fill="white"/>
<path d="M26.4267 62.8255C26.3489 63.1368 26.5046 63.5259 26.6602 63.8372C27.1272 64.382 27.9054 64.5377 28.4502 64.1485C28.6837 63.9929 28.8393 63.7594 28.9172 63.5259L33.898 49.1283C34.2093 48.1944 34.2871 46.9491 33.8202 46.0931C33.1197 44.9257 27.5941 36.1314 27.5941 36.1314C26.5824 34.4971 24.4033 33.9523 22.6911 34.964C22.3798 35.1197 21.9129 35.5088 21.6016 36.0536C19.189 39.5557 5.95869 61.5803 5.64738 62.592C5.49173 62.9812 5.56956 63.4481 5.80304 63.8372C6.26999 64.382 7.04824 64.5377 7.59302 64.1485C7.67084 64.0707 7.82649 63.9929 7.98214 63.7594C8.21562 63.4481 24.7146 43.447 24.7146 43.447C26.3489 45.237 27.9833 46.8713 29.5398 48.35C28.4502 52.4747 26.738 60.3351 26.4267 62.8255Z" fill="white"/>
<path d="M60.2001 45.237C59.5775 45.9374 59.1106 47.2604 59.1106 48.5057L58.4102 62.9812C58.4102 63.3703 58.5658 63.8372 58.9549 64.0707C59.4997 64.5377 60.3558 64.382 60.7449 63.7594C60.9006 63.6038 60.9006 63.3703 60.9784 63.2146C61.9901 57.8447 63.0019 52.7082 63.4688 48.6613C64.4805 47.8831 66.6596 46.1709 68.6053 44.5366L70.94 51.463C71.0957 51.8521 71.3292 52.2413 71.6405 52.4747L85.8825 64.0707C86.4273 64.5377 87.2834 64.382 87.6725 63.7594C88.0616 63.2146 87.9838 62.5142 87.5168 62.0473C83.003 57.1443 78.5669 52.4747 75.2204 49.673C75.1426 47.027 74.7535 41.4236 74.0531 38.6997C73.8196 37.7658 73.197 37.0653 72.4965 36.5984C71.1735 35.8201 69.5392 35.898 68.3718 36.9097C66.8931 38.3884 60.9784 44.2253 60.2001 45.237Z" fill="white"/>
<path d="M60.98 28.4267C58.9566 31.1506 56.9331 33.8745 55.221 36.6762C53.0419 38.9331 50.7071 41.8126 48.2167 44.9257C45.2593 44.3809 42.3798 43.9139 39.6559 43.6026C40.2007 40.4118 40.5898 37.1431 40.512 34.4971C40.512 33.5632 39.9672 32.6293 39.1111 32.0845C37.7103 31.2284 35.9203 31.6954 35.0642 33.0184C34.7529 33.4853 34.6751 33.9523 34.5973 34.4971C34.5194 37.3766 35.0642 41.4235 35.7646 45.3926C35.8425 45.9374 36.0759 46.4043 36.6207 46.7156C36.932 46.8713 37.2433 46.9491 37.5546 46.9491C37.5546 46.9491 47.9832 46.9491 48.3723 46.9491C48.8393 46.9491 48.9171 46.9491 49.3062 46.7156L65.4161 32.2401C65.883 31.851 66.1943 31.3062 66.35 30.6836C66.6613 29.1271 65.6496 27.4928 64.0931 27.1815C62.77 27.0258 61.6805 27.4928 60.98 28.4267Z" fill="white"/>
</svg>
