<svg width="94" height="94" viewBox="0 0 94 94" fill="none" xmlns="http://www.w3.org/2000/svg">
<path d="M37.0244 43.914C40.8378 43.914 43.873 40.8788 43.873 37.0653C43.873 33.2519 40.8378 30.2167 37.0244 30.2167C33.211 30.2167 30.1758 33.2519 30.1758 37.0653C30.1758 40.8788 33.2888 43.914 37.0244 43.914Z" fill="white"/>
<path d="M83.9496 55.1987C84.8835 55.043 85.5839 54.2648 85.5839 53.3309C85.5839 52.3191 84.7278 51.4631 83.7161 51.4631H82.9378C83.0157 50.2957 83.0935 49.1283 83.0935 47.9609H88.0743C88.4634 47.9609 88.7747 47.6496 88.7747 47.2605C88.7747 46.8714 88.4634 46.5601 88.0743 46.5601H83.0935C82.7822 28.8159 73.8323 11.9278 61.458 6.01306C61.0689 5.85741 60.6798 6.01306 60.5241 6.32436L60.135 7.33609C59.9794 7.64739 60.135 8.11435 60.4463 8.27C71.9645 13.8734 80.2918 29.7498 80.6031 46.5601H22.5454H18.4206C10.8716 46.5601 9.70421 46.7935 8.30335 47.4161C7.2138 47.8831 6.43555 48.9726 6.43555 50.2178C6.43555 51.2296 6.9025 52.1635 7.75858 52.7083C10.0933 54.1869 20.9889 58.7008 22.8567 59.0899C23.7906 59.2456 25.0358 57.2221 25.5028 54.6539C25.7362 53.3309 25.8141 52.1635 25.6584 51.2296C29.3162 50.6848 31.4953 50.3735 32.0401 50.2178C32.974 50.0622 33.5966 49.2839 33.5966 48.35C33.5966 48.35 33.5966 48.1944 33.5966 47.9609H80.6031C80.6031 49.1283 80.5253 50.2957 80.4474 51.4631H63.3259H46.5156C47.0604 53.7978 47.3717 57.3778 47.2938 60.8021C53.442 60.0238 60.6798 58.4673 63.8706 57.7669C66.828 57.5334 74.844 56.5217 79.9027 55.8213C77.6457 69.5185 70.1745 81.5036 60.5241 86.1731C60.2128 86.3288 60.0572 86.7179 60.2128 87.107L60.6798 88.1188C60.8354 88.5079 61.2246 88.6636 61.6137 88.4301C72.198 83.2936 80.2918 70.219 82.5487 55.4321C83.1713 55.3543 83.7161 55.2765 83.9496 55.1987Z" fill="white"/>
</svg>
