<svg width="95" height="94" viewBox="0 0 95 94" fill="none" xmlns="http://www.w3.org/2000/svg">
<path d="M40.3873 71.6975C41.1655 70.9971 43.5781 68.5845 46.0685 66.0941C45.9907 68.1954 45.9907 70.2189 45.9907 71.7754C39.7647 73.8766 25.2892 79.0909 24.7444 79.3244C24.2774 79.5579 23.9661 79.8692 23.8105 80.3362C23.4992 81.2701 23.9661 82.2818 24.9 82.6709C25.2113 82.7487 25.4448 82.8266 25.7561 82.7487C25.8339 82.7487 25.9118 82.7487 25.9896 82.6709C28.7135 82.1261 48.0142 77.6901 50.2711 77.0675C51.205 76.834 52.0611 75.9779 52.3724 74.9662C52.3724 74.8884 52.3724 74.8884 52.4502 74.8106C52.8393 73.4875 55.2519 59.479 55.5632 56.8329C55.5632 56.6773 55.5632 56.5994 55.641 56.4438C55.7967 53.9534 53.9289 51.7743 51.3606 51.5408C49.9598 51.463 48.5589 52.0077 47.7029 53.0195C44.979 56.1325 39.9981 62.4363 37.5077 65.705C32.06 63.6815 20.5418 59.8681 19.5301 59.5568C18.7518 59.3233 17.8957 59.6346 17.5066 60.335C17.1175 61.1133 17.351 62.0472 18.207 62.5142C19.7636 63.3702 36.7295 71.8532 37.3521 72.0867C38.3638 72.6314 39.5312 72.398 40.3873 71.6975Z" fill="white"/>
<path d="M45.0568 33.8745C47.7028 34.1858 50.0376 32.2401 50.2711 29.6719C50.5824 27.0258 48.6367 24.6911 46.0685 24.4576C43.4224 24.1463 41.0877 26.0919 40.8542 28.6602C40.5429 31.3062 42.4107 33.641 45.0568 33.8745Z" fill="white"/>
<path d="M63.5763 18.8542C66.2224 19.1655 68.5571 17.2198 68.7906 14.6516C69.1019 12.0055 67.1563 9.67079 64.588 9.43731C61.942 9.12601 59.6072 11.0716 59.3737 13.6399C59.0624 16.2081 60.9302 18.5429 63.5763 18.8542Z" fill="white"/>
<path d="M72.7586 21.578C73.1478 21.1111 73.2256 20.4885 72.9143 19.9437C72.5252 19.3211 71.6691 19.0876 71.0465 19.4767L70.9687 19.5546C69.2565 20.7998 63.1861 25.3136 59.9953 27.8041C58.6723 28.5045 53.6136 31.5397 50.6562 33.4075C50.8119 33.5631 51.0454 33.641 51.201 33.7966C52.8354 34.964 54.1584 36.754 55.0923 38.8553C57.4271 36.6761 62.1744 31.9288 63.0305 31.0727L63.1083 30.9949C64.1979 29.9832 71.0465 23.2124 72.6808 21.6559L72.7586 21.578Z" fill="white"/>
<path d="M45.7546 44.2253C48.0893 43.8362 49.6459 41.657 49.2567 39.4001C48.8676 37.1432 46.6885 35.5867 44.4316 36.0536C44.1981 36.1314 43.9646 36.1314 43.7311 36.2093C42.3303 36.6762 38.906 38.0771 35.8708 39.2445C37.116 34.9641 38.5947 29.8276 39.0616 28.0376C39.2173 27.415 39.0616 26.7924 38.5947 26.4811C37.9721 26.0142 37.0382 26.092 36.4934 26.7146C36.4155 26.8702 36.3377 26.9481 36.2599 27.1037C36.2599 27.1037 31.5126 37.7658 29.5669 42.7466C29.4891 42.9023 29.4891 43.0579 29.4113 43.2136C29.1778 44.5366 30.0339 45.8596 31.4347 46.0931C31.6682 46.1709 31.9795 46.1709 32.213 46.0931C33.4582 45.8596 44.5872 44.3809 45.7546 44.2253Z" fill="white"/>
</svg>
