<svg width="95" height="94" viewBox="0 0 95 94" fill="none" xmlns="http://www.w3.org/2000/svg">
<path d="M73.2358 78.7906C73.158 78.4793 72.0685 75.5997 72.0685 75.5997L74.2476 74.588L66.7763 54.12L68.9554 52.0187L63.7411 48.8278L45.4522 61.4355C44.6739 61.9803 44.1292 62.7586 43.9735 63.6146L40.1601 77.1562C40.1601 77.1562 35.4127 78.2458 35.3349 78.2458C35.2571 78.2458 35.2571 78.2458 35.1792 78.2458C34.7901 78.4015 34.6345 78.7906 34.7901 79.1797C34.8679 79.4132 35.0236 79.491 35.2571 79.5688C35.3349 79.5688 35.4127 79.5688 35.4905 79.5688H41.4053C41.4831 79.5688 41.5609 79.5688 41.6387 79.5688C41.7944 79.491 41.95 79.4132 42.0279 79.2575C42.1835 79.1019 43.5066 75.8332 43.5066 75.8332L45.997 76.6893L50.3552 67.1168L61.3286 61.5134L70.2006 77.701C70.2006 77.701 67.2433 78.4015 67.1655 78.4015C67.0876 78.4015 67.0876 78.4015 67.0098 78.4793C66.6985 78.6349 66.5429 79.0241 66.6985 79.3354C66.7763 79.491 66.932 79.6467 67.0876 79.7245C67.1655 79.7245 67.2433 79.7245 67.3211 79.7245H72.5354C72.6911 79.7245 72.8467 79.7245 72.9245 79.6467C73.158 79.491 73.3137 79.1019 73.2358 78.7906Z" fill="white"/>
<path d="M48.4852 10.3821C48.4852 10.3821 43.66 10.8491 43.4266 10.8491C43.1931 10.8491 43.0374 10.9269 42.8818 11.2382C42.804 11.5495 41.8701 14.3512 41.8701 14.3512L39.6131 13.8064L36.5779 22.6785L29.9628 28.0485L27.9393 26.5698L25.3711 31.1615L33.9319 38.4771C33.9319 38.4771 44.5939 36.7649 45.3722 36.6093C45.7613 36.5314 46.1505 36.3758 46.5396 36.2201C46.8509 36.0645 47.0844 35.9088 47.3957 35.5975C47.9404 35.0528 58.2134 25.7915 58.2134 25.7915C58.2134 25.7915 62.5716 27.2702 62.6494 27.348C62.7273 27.348 62.8051 27.4259 62.8829 27.4259C63.272 27.5037 63.5833 27.2702 63.6612 26.8811C63.739 26.5698 63.5833 26.3363 63.3498 26.1807C63.272 26.1807 63.1942 26.1028 63.1942 26.1028C63.1942 26.1028 58.5247 23.2233 58.369 23.1455C58.1356 22.9898 57.8243 22.9898 57.5908 23.1455C57.4351 23.2233 54.6334 25.1689 54.6334 25.1689L52.9991 23.2233L43.66 29.605L38.757 29.7606C38.757 29.7606 41.0918 27.348 41.5588 26.8033C41.7922 26.492 41.9479 26.2585 42.1035 26.025C42.2592 25.7137 42.337 25.4024 42.4148 25.0911C42.5705 24.3129 44.6718 12.9504 44.6718 12.9504C44.6718 12.9504 47.8626 11.9386 48.7187 11.6273C48.8743 11.6273 48.8743 11.5495 48.9522 11.5495C49.1856 11.3939 49.3413 11.0825 49.1856 10.6934C49.1078 10.4599 48.8743 10.3821 48.7187 10.3821C48.6409 10.3821 48.563 10.3821 48.4852 10.3821Z" fill="white"/>
<path d="M61.5611 47.5048L50.043 40.3449C49.4204 39.9557 48.6421 39.7223 47.7861 39.7223C46.2295 39.8001 44.9065 40.6562 44.2839 41.9792L40.3148 50.073L33.6997 55.443L30.7423 50.8513C30.431 50.3843 30.0419 50.073 29.5749 49.8396L28.7188 49.4504L31.9097 39.7223L24.205 33.1071L16.0333 47.6604C15.4885 48.5943 15.3329 49.7617 15.722 50.8513C16.189 52.2521 17.4342 53.2639 18.835 53.4973L27.0845 54.8982C27.0845 54.8982 33.3105 62.136 33.544 62.3694C33.7775 62.6029 34.0888 62.7586 34.4779 62.7586C35.1005 62.6807 35.4897 62.2138 35.4897 61.5912C35.4897 61.4355 35.4118 61.2799 35.334 61.1242C35.2562 60.9686 33.7775 58.4782 33.7775 58.4782L36.2679 57.0773L37.2018 58.4782C37.2018 58.4782 43.8948 54.4312 44.1283 54.3534C44.3617 54.1978 44.5952 54.0421 44.7509 53.8086C44.9065 53.653 47.3969 50.7735 47.3969 50.7735L53.7008 53.1082L61.5611 47.5048Z" fill="white"/>
<path d="M32.5332 44.1584C32.5332 46.4931 34.401 48.3609 36.7358 48.3609C39.0705 48.3609 40.9383 46.4931 40.9383 44.1584C40.9383 41.8236 39.0705 39.9558 36.7358 39.9558C34.401 39.878 32.5332 41.8236 32.5332 44.1584Z" fill="white"/>
<path d="M23.3491 55.9878C21.0143 55.9878 19.1465 57.8556 19.1465 60.1903C19.1465 62.5251 21.0143 64.3929 23.3491 64.3929C25.6838 64.3929 27.5516 62.5251 27.5516 60.1903C27.5516 57.8556 25.6838 55.9878 23.3491 55.9878Z" fill="white"/>
</svg>
