<svg width="94" height="95" viewBox="0 0 94 95" fill="none" xmlns="http://www.w3.org/2000/svg">
<path d="M51.6768 49.4159C50.8985 48.2485 49.5755 47.4703 48.0968 47.4703C45.8399 47.4703 43.9721 49.1824 43.8164 51.3616C43.8164 51.5172 43.8164 51.595 43.8164 51.7507C43.8164 52.8402 45.0616 68.8723 45.1394 69.4949C45.1394 69.8062 45.2951 70.1175 45.3729 70.4288C45.6842 71.1292 46.3068 71.674 47.0072 71.9853C50.0424 73.1527 65.1405 78.8339 67.2418 79.5343C67.3197 79.5343 67.4753 79.6121 67.4753 79.6121C67.7866 79.69 68.1757 79.6122 68.487 79.4565C69.2653 79.0674 69.6544 78.1335 69.2653 77.2774C69.1096 76.9661 68.954 76.8104 68.7205 76.6548C68.3314 76.4213 56.1128 69.9618 51.2098 67.3936C51.2876 65.7592 51.3655 63.5023 51.4433 61.1675C53.2333 63.7358 54.7898 65.9927 54.9454 66.1484C54.9454 66.2262 55.0233 66.2262 55.0233 66.304C55.4902 66.8488 56.1128 67.0823 56.8132 67.1601C58.4476 67.3157 74.0905 67.8605 74.8687 67.7827C75.18 67.7827 75.4913 67.6271 75.8026 67.3936C76.4252 66.8488 76.4252 65.9149 75.8804 65.3701C75.7248 65.1366 75.4913 65.0588 75.18 64.981C74.8687 64.9032 63.1171 62.8019 58.8367 62.1014C56.8132 58.4437 52.2994 50.1942 51.6768 49.4159Z" fill="white"/>
<path d="M62.3391 30.4266C63.4286 28.4031 66.6195 19.3754 66.8529 18.3636C66.8529 18.2858 66.8529 18.208 66.8529 18.0523C66.8529 17.4297 66.386 16.885 65.7634 16.885C65.7634 14.1611 63.5064 11.9041 60.7826 11.9041C58.0587 11.9041 55.8017 14.1611 55.8017 16.885C55.8017 19.6089 58.0587 21.8658 60.7826 21.8658C61.2495 21.8658 61.7943 21.788 62.1834 21.6323C62.1056 21.788 61.9499 22.0214 61.8721 22.2549C61.2495 23.3445 59.8487 25.9905 59.0704 27.6249C57.903 27.8583 52.2218 29.337 50.9766 29.6483C51.5992 30.9713 52.1439 33.2283 51.7548 36.1856C54.6344 34.9404 60.5491 31.8274 61.5608 31.127C61.9499 30.9713 62.1834 30.7379 62.3391 30.4266Z" fill="white"/>
<path d="M46.539 28.7923C49.0294 28.7923 51.1307 26.7688 51.1307 24.2006C51.1307 21.7102 49.1072 19.6089 46.539 19.6089C44.0485 19.6089 41.9473 21.6324 41.9473 24.2006C41.9473 26.7688 43.9707 28.7923 46.539 28.7923Z" fill="white"/>
<path d="M26.0703 54.5525C27.549 53.9299 38.4446 48.6378 39.3785 48.0152C39.6898 47.8595 39.9232 47.626 40.0789 47.3926C40.8571 46.5365 46.6162 37.4309 47.0053 36.4192C47.161 36.0301 47.2388 35.5631 47.2388 35.0962C47.2388 33.0727 45.6045 31.4384 43.581 31.4384C42.1802 31.4384 41.0128 32.2166 40.3902 33.384C39.9232 34.1623 37.1994 41.5557 36.2654 44.4352C33.2303 46.2252 25.0586 51.4395 24.436 52.1399C24.2025 52.3734 24.0469 52.7625 24.0469 53.1516C24.0469 53.9299 24.6695 54.6303 25.5256 54.6303C25.8369 54.6303 25.9925 54.5525 26.0703 54.5525Z" fill="white"/>
<path d="M15.9538 27.0022C16.0316 27.0022 16.1094 27.0022 16.1872 27.0022C16.5764 26.9244 16.732 26.5353 16.6542 26.1462L13.5412 16.418C15.4868 17.2741 18.522 17.5076 20.5455 17.5076C22.5689 17.5076 25.6041 17.2741 27.5497 16.418L24.4367 26.1462C24.3589 26.5353 24.5146 26.8466 24.9037 27.0022C24.9815 27.0022 25.0593 27.0022 25.1372 27.0022C25.4485 27.0022 25.6819 26.8466 25.7598 26.5353C25.7598 26.5353 29.7288 15.8732 29.7288 14.1611C29.7288 11.515 23.9698 10.8146 20.6233 10.8146C19.7672 10.8146 18.8333 10.8924 17.8216 10.9702C17.199 11.515 16.5764 11.982 15.9538 12.6046C17.2768 12.2933 18.9111 12.2154 20.7011 12.2154C24.8259 12.2154 28.1723 12.9937 28.1723 14.2389C28.1723 15.4841 24.748 16.2623 20.7011 16.2623C17.4324 16.2623 14.5529 15.7176 13.5412 14.8615C12.9964 15.4063 12.5295 15.951 12.0625 16.4958C13.1521 20.1536 15.4868 26.6131 15.4868 26.6131C15.409 26.8466 15.6425 27.0022 15.9538 27.0022Z" fill="white"/>
</svg>
