<svg width="95" height="95" viewBox="0 0 95 95" fill="none" xmlns="http://www.w3.org/2000/svg">
<path d="M73.1838 23.8893C72.9504 23.4224 72.4056 23.2667 71.9386 23.4224C71.4717 23.5002 61.4322 26.5354 59.4866 27.158C59.3309 27.2358 59.2531 27.2358 59.1753 27.2358C59.0975 27.2358 59.0196 27.3136 58.864 27.3915C57.5409 27.9362 52.7158 30.271 49.9141 31.8275C51.7819 32.4501 53.0271 33.7732 54.6614 36.4192C56.9962 34.5514 60.187 31.9053 61.1209 31.0493C63.5335 29.9597 72.3278 25.7571 72.8725 25.4458C73.3395 25.1345 73.4951 24.4341 73.1838 23.8893Z" fill="white"/>
<path d="M56.1405 11.2816L56.6852 11.2037L61.7439 11.982L60.9656 7.07899L56.3739 9.33593L55.8292 9.41375C55.2844 9.49158 54.9731 9.95853 55.0509 10.5033C55.1287 10.9703 55.5957 11.3594 56.1405 11.2816Z" fill="white"/>
<path d="M33.649 50.1943C34.1159 50.1943 34.5829 50.0386 34.972 49.8051C35.5946 49.4938 40.7311 45.5247 43.6884 43.3456C44.4667 42.8008 45.0115 42.3339 45.6341 41.7113C46.2567 41.0887 46.8014 40.077 46.8014 39.0652C46.8014 36.9639 45.0893 35.3296 42.988 35.3296C42.2876 35.3296 41.5871 35.5631 41.0424 35.8744C40.8867 35.9522 40.5754 36.2635 40.2641 36.5748C39.1746 37.6644 36.762 40.5439 34.8163 42.8787C33.8046 38.9874 32.4816 34.0844 32.2481 33.2283C32.2481 33.2283 32.1703 33.0727 32.1703 32.917L33.1042 29.804L33.0264 28.7923L35.8281 19.2976C36.9955 19.4532 39.0967 19.3754 40.4198 17.1185C41.8206 14.8616 41.4315 12.6046 41.1202 11.4372C40.6532 9.88073 39.7193 8.869 38.3185 8.40205C36.9176 8.01293 35.5168 8.32423 34.2716 9.41378C33.3377 10.192 31.859 11.9042 31.7812 14.5503C31.7033 17.1963 33.3377 18.3637 34.4272 18.8306L31.6255 28.3253L31.0807 29.1036L29.9133 33.1505C29.8355 33.3062 29.8355 33.4618 29.8355 33.4618C29.7577 35.0183 31.0029 46.6143 31.4699 48.4821C31.7033 49.4938 32.5594 50.1943 33.649 50.1943ZM33.182 14.5503C33.2598 12.449 34.505 11.1259 35.2055 10.5033C36.0615 9.80291 36.9176 9.56943 37.8515 9.80291C38.7854 10.0364 39.408 10.7368 39.7193 11.8264C39.9528 12.7603 40.2641 14.5503 39.1746 16.3402C38.085 18.1302 36.4507 17.9746 35.5168 17.6633C34.5829 17.4298 33.1042 16.6515 33.182 14.5503Z" fill="white"/>
<path d="M39.7969 28.014C39.7969 30.5045 41.8203 32.6057 44.3886 32.6057C46.879 32.6057 48.9803 30.5823 48.9803 28.014C48.9803 25.5236 46.9568 23.4223 44.3886 23.4223C41.8203 23.4223 39.7969 25.4458 39.7969 28.014Z" fill="white"/>
<path d="M53.3369 51.3615C53.0256 51.2059 52.6365 50.8946 52.0139 50.7389C51.547 50.5833 51.08 50.5054 50.6131 50.5054C48.3561 50.5054 46.4883 52.1398 46.0992 54.3967C45.7101 56.5758 45.3988 66.6931 45.3988 70.9735C41.274 74.1643 31.8571 81.9469 30.3006 83.4256C29.9893 83.7369 29.8337 84.126 29.7559 84.5929C29.7559 85.5268 30.4563 86.2273 31.3124 86.2273C31.5458 86.2273 31.7793 86.1494 32.0128 86.0716C33.5693 85.2934 49.6013 75.643 50.4574 74.8648C50.9244 74.4756 51.2357 74.0087 51.3913 73.4639C51.4691 73.3083 51.547 73.0748 51.6248 72.7635C56.6056 70.3509 64.2325 66.5375 64.8551 65.9927C65.4777 65.5257 65.8668 64.9031 66.0225 64.1249C66.1781 63.191 65.8668 62.3349 65.2442 61.7123C63.6099 59.8445 55.8273 52.9959 53.3369 51.3615ZM53.1035 66.9266C53.4926 65.0588 53.8817 63.1131 54.2708 61.3232C55.516 62.1014 56.7613 62.9575 57.9286 63.6579C56.45 64.6697 54.7378 65.837 53.1035 66.9266Z" fill="white"/>
</svg>
