<svg width="94" height="95" viewBox="0 0 94 95" fill="none" xmlns="http://www.w3.org/2000/svg">
<path d="M16.2811 34.9405C16.6702 35.6409 17.4485 36.1079 18.3046 36.1079V34.8627L40.9517 36.964C40.4848 34.6292 40.2513 32.4501 40.407 30.7379L18.3046 32.7614V31.5162C17.9154 31.5162 17.5263 31.594 17.1372 31.8275C16.5924 32.1388 16.2033 32.6836 16.0476 33.2283H2.42819C2.27254 33.6175 2.19471 34.0066 2.03906 34.4735H16.0476C16.1254 34.6292 16.2033 34.7848 16.2811 34.9405Z" fill="white"/>
<path d="M47.6435 18.5193C47.6435 18.5193 45.9314 18.0524 43.8301 18.0524V27.6249L47.6435 26.1462V18.5193Z" fill="white"/>
<path d="M47.5679 33.0727C47.6457 34.4735 48.5796 35.6409 49.8248 36.1857C51.9261 37.0418 62.666 40.8552 62.8216 40.933C65.3899 42.3339 73.795 47.0812 75.0402 47.7038C75.2737 47.8595 75.6628 47.9373 75.9741 47.8595C76.6745 47.7038 77.2193 47.0034 77.0637 46.303C76.9858 45.9917 76.8302 45.7582 76.6745 45.5247C75.6628 44.5908 65.9346 37.3531 64.9229 36.7305C63.0551 35.4853 54.1052 30.1153 52.86 29.5705C52.3152 29.3371 51.6926 29.1814 50.9922 29.2592C48.8909 29.3371 47.4122 31.127 47.5679 33.0727Z" fill="white"/>
<path d="M42.5081 27.7805V18.0524C39.4729 18.4415 38.6946 20.465 38.6946 22.9554C38.6168 25.3679 39.3951 27.4692 42.5081 27.7805Z" fill="white"/>
<path d="M51.3025 44.9799C50.0573 44.6686 48.423 44.8243 47.7226 44.9799C45.8547 45.2912 35.1149 49.1047 32.5466 50.0386C31.6905 50.3499 31.1458 51.206 30.9901 52.1399C29.9784 58.9107 29.1223 65.8371 28.4219 72.6858C28.4219 72.9192 28.4219 73.1527 28.5775 73.3862C28.8888 74.0866 29.7449 74.3979 30.4453 74.0866C30.8345 73.931 31.0679 73.6197 31.1458 73.3084C31.3792 72.6079 34.7257 60.7785 36.1266 55.5642C39.4731 55.3307 45.3878 54.7081 48.8121 54.0855L77.6075 74.0088C77.841 74.1644 78.1523 74.2423 78.4636 74.2423C79.2418 74.2423 79.8644 73.5418 79.8644 72.7636C79.8644 72.3745 79.7088 72.0631 79.4753 71.8297L53.326 46.1473C53.0147 45.836 52.7034 45.6025 52.3921 45.4469C52.0808 45.2912 51.6138 45.0578 51.3025 44.9799Z" fill="white"/>
</svg>
