<svg width="94" height="94" viewBox="0 0 94 94" fill="none" xmlns="http://www.w3.org/2000/svg">
<path d="M70.5887 47.7848C70.5887 47.9405 70.5887 48.174 70.5887 48.3296C70.5887 50.5865 69.6548 52.6878 68.2539 54.2443C69.0322 54.4778 69.8882 54.5556 70.7443 54.5556C72.8456 54.5556 74.7912 53.8552 76.3477 52.6878C77.9042 53.8552 79.8499 54.5556 81.9512 54.5556C84.4416 54.5556 86.6985 53.6217 88.4107 51.9874C82.6516 50.1196 76.7369 48.6409 70.5887 47.7848Z" fill="white"/>
<path d="M22.3366 43.66C23.3483 43.4266 34.0882 39.7688 39.2247 37.7453C40.0807 39.3796 41.0925 41.4809 42.182 43.4266C29.263 44.4383 16.9666 47.7069 5.75977 52.8434C7.31627 53.933 9.10625 54.5556 11.1297 54.5556C13.231 54.5556 15.1766 53.8551 16.7331 52.6878C18.2896 53.8551 20.2353 54.5556 22.3366 54.5556C24.4378 54.5556 26.3835 53.8551 27.94 52.6878C29.4965 53.8551 31.4421 54.5556 33.5434 54.5556C35.6447 54.5556 37.5903 53.8551 39.1468 52.6878C40.7033 53.8551 42.649 54.5556 44.7503 54.5556C48.5637 54.5556 51.7545 52.2208 53.3889 48.9522C53.4667 48.7187 53.6223 48.4852 53.7002 48.2517C54.0893 47.0065 54.0115 45.7613 53.3889 44.7496C51.6767 41.6366 44.2055 32.1419 42.3377 31.208C42.182 31.1302 41.9485 31.0523 41.7929 30.9745C41.1703 30.741 40.5477 30.8189 39.9251 30.9745C38.6799 31.3636 21.6361 39.6909 21.0135 40.1579C20.6244 40.3914 20.3131 40.7805 20.2353 41.2474C19.924 42.2592 20.5466 43.3487 21.5583 43.66C21.7918 43.66 22.1031 43.7379 22.3366 43.66Z" fill="white"/>
<path d="M62.0288 42.0257C58.6044 42.0257 55.8027 44.8274 55.8027 48.2518C55.8027 51.6761 58.6044 54.4778 62.0288 54.4778C65.4531 54.4778 68.2548 51.6761 68.2548 48.2518C68.2548 44.8274 65.4531 42.0257 62.0288 42.0257Z" fill="white"/>
</svg>
