<svg width="94" height="94" viewBox="0 0 94 94" fill="none" xmlns="http://www.w3.org/2000/svg">
<path d="M61.7138 42.6483C62.1808 42.6483 62.4921 42.2592 62.4921 41.87V14.709C62.4921 14.2421 62.1029 13.9308 61.7138 13.9308C61.2468 13.9308 60.9355 14.3199 60.9355 14.709V41.7922C60.9355 42.2592 61.2468 42.6483 61.7138 42.6483Z" fill="white"/>
<path d="M21.4805 57.3573C21.4805 57.8242 21.8696 58.1355 22.2587 58.1355C22.7257 58.1355 23.037 57.7464 23.037 57.3573V29.3402C23.037 28.8732 22.6478 28.5619 22.2587 28.5619C21.7918 28.5619 21.4805 28.951 21.4805 29.3402V57.3573Z" fill="white"/>
<path d="M45.6826 50.1196C48.0952 49.497 49.4183 47.0066 48.7956 44.594C48.173 42.1814 45.6826 40.8584 43.27 41.481C40.8575 42.1036 39.5344 44.594 40.157 47.0066C40.7796 49.4192 43.2701 50.82 45.6826 50.1196Z" fill="white"/>
<path d="M35.7206 35.4885C35.6428 35.5663 35.565 35.5663 35.4093 35.6441C35.098 35.8776 34.9424 36.1889 34.7867 36.5002C34.3976 37.2006 30.8176 46.1505 30.662 46.6175C30.4285 47.3179 30.4285 48.0183 30.5842 48.7188C31.1289 50.5866 33.0746 51.754 34.9424 51.2092C36.2654 50.8201 37.2771 49.7305 37.5106 48.4853C37.7441 47.2401 38.4445 41.0919 38.678 38.6793C40.7793 37.2784 45.5266 34.0098 46.7718 33.0759L61.2473 55.0226C59.8465 55.4896 54.6322 57.3574 52.2196 58.2135C50.1961 56.5791 45.4488 52.7657 44.5927 52.2209C44.4371 52.9213 44.2036 53.8552 43.7366 55.2561C43.4253 56.2678 43.0362 57.2796 42.5693 58.2913C45.2153 59.5365 50.5074 61.9491 51.0522 62.1047C51.3635 62.2604 51.6748 62.2604 51.9861 62.2604C52.2974 62.2604 52.3752 62.1826 52.6087 62.1047C53.2313 61.8713 62.4147 57.0461 62.4925 56.8904C62.4925 56.8904 65.4499 61.4043 65.9168 62.1047C66.0725 62.3382 66.1503 62.7273 66.306 63.1943L14.3965 69.4203C16.0308 71.5994 18.6769 73.0003 21.5564 73.0003C23.8912 73.0003 25.9925 72.1442 27.549 70.6655C29.1055 72.0664 31.2846 73.0003 33.5415 73.0003C35.8763 73.0003 37.9776 72.1442 39.5341 70.6655C41.0906 72.0664 43.2697 73.0003 45.5266 73.0003C47.8614 73.0003 49.9627 72.1442 51.5192 70.6655C53.0757 72.0664 55.2548 73.0003 57.5117 73.0003C60.3913 73.0003 62.9595 71.5994 64.5938 69.4981C64.6716 69.576 64.8273 69.576 64.9051 69.6538C67.0064 70.5099 69.5746 70.8212 71.8316 70.6655C75.2559 70.3542 78.1354 69.0312 80.1589 67.0855C81.9489 65.3734 83.0384 63.1943 83.3497 61.093L69.7303 62.7273C68.4851 61.9491 67.3177 61.4043 67.0064 61.0152C66.8508 60.4704 44.9818 27.239 44.5149 26.5386C44.0479 25.8381 43.8145 22.5695 42.6471 20.7795L37.7441 13.3082C37.0437 12.2187 36.1876 11.7517 34.4754 13.6974C32.9967 15.4095 33.4637 16.4213 33.9306 17.2773C34.0863 17.5108 37.8219 23.1921 37.8219 23.1921C38.1332 23.659 38.4445 24.0481 38.6002 24.2816C40.001 25.7603 42.8806 26.9277 43.2697 27.5503C43.7366 28.2507 45.371 30.8189 45.371 30.8189C43.4253 31.7528 36.0319 35.3328 35.7206 35.4885Z" fill="white"/>
</svg>
