<svg width="94" height="94" viewBox="0 0 94 94" fill="none" xmlns="http://www.w3.org/2000/svg">
<path d="M51.6779 74.9226C51.6779 73.9887 49.9657 64.2605 49.4988 61.9258L50.0435 55.3884C49.0318 57.7232 47.7088 60.5249 46.7749 62.6262C46.7749 63.7158 46.6971 65.4279 46.6971 67.2957L49.1875 74.9226H45.2184C45.2184 73.9887 45.374 64.7275 45.4519 62.3149C46.6192 59.8245 49.9657 52.5089 50.4327 51.0302C50.5105 50.7968 50.5105 50.7189 50.5105 50.6411C50.8996 48.462 49.4988 46.4385 47.3975 45.9716C45.2962 45.5825 43.2727 46.9055 42.8058 48.9289C42.4945 50.1741 41.0158 60.2914 41.1715 61.7701C41.3271 63.6379 42.6501 73.9887 42.8836 75.0004H9.10742C9.80785 75.9343 10.5861 76.8682 11.3644 77.8021H82.1076C82.8858 76.8682 83.6641 75.9343 84.3645 75.0004H51.6779V74.9226Z" fill="white"/>
<path d="M58.7569 59.7466C60.8582 58.268 61.4029 55.3106 59.9243 53.2093C58.4456 51.108 55.4882 50.5633 53.3869 52.0419C51.2856 53.5206 50.7409 56.478 52.2196 58.5793C53.6982 60.6806 56.6556 61.2253 58.7569 59.7466Z" fill="white"/>
<path d="M85.8411 28.6943C85.6076 28.383 85.2185 28.2274 84.8293 28.2274C83.195 28.1495 67.7856 28.6165 65.2952 28.85C59.3804 28.6165 51.5201 28.6943 49.5745 28.6943C47.7066 28.1495 39.3793 25.6591 34.3207 24.4917C27.4721 21.9235 15.0978 18.3435 14.8644 18.2657C14.3974 18.1101 13.8526 18.1879 13.4635 18.577C12.8409 19.1218 12.8409 20.0557 13.3857 20.6783C13.5413 20.8339 13.6191 20.9118 13.7748 20.9896C14.1639 21.2231 47.2397 36.4768 47.2397 36.4768C47.9401 36.7881 48.7184 36.9438 49.4966 36.7881C50.0414 36.7881 84.3624 31.1847 85.1406 30.9512C85.3741 30.8734 85.6076 30.7956 85.7632 30.6399C86.3858 30.173 86.3858 29.3169 85.8411 28.6943Z" fill="white"/>
</svg>
