<svg width="95" height="94" viewBox="0 0 95 94" fill="none" xmlns="http://www.w3.org/2000/svg">
<path d="M77.5422 36.1656C77.1531 30.9513 73.4953 28.6944 72.2501 28.7722C71.0827 28.85 68.2031 31.1069 67.9697 35.3873C67.3471 35.3873 66.6466 35.3873 65.9462 35.3873C65.5571 33.5195 64.5454 28.6165 63.7671 25.6592C63.3001 28.6165 61.7436 31.1069 59.8758 32.9748C60.3428 33.9087 60.7319 34.6869 61.121 35.3873C59.9537 35.3873 58.8641 35.4652 57.9302 35.543C58.008 33.1304 58.0859 29.5504 57.9302 27.06C57.8524 26.3596 57.6967 25.5813 57.2298 24.9587C55.9846 23.0909 53.4163 22.624 51.5485 23.8692C50.0698 24.8809 49.4472 26.6709 49.9142 28.2274C51.0037 32.5856 53.1829 39.123 53.1829 39.123C53.572 40.2125 54.5837 40.9129 55.7511 40.8351C56.9185 40.7573 63.6114 39.6677 68.3588 38.8895C69.3705 42.5473 72.2501 44.1816 73.2618 44.1038C74.507 44.1038 77.8535 41.3799 77.5422 36.1656Z" fill="white"/>
<path d="M58.7851 22.9352C61.0421 24.6474 64.3107 24.1026 66.0229 21.8456C67.7351 19.5887 67.1903 16.32 64.9334 14.6079C62.6764 12.8957 59.4078 13.4405 57.6956 15.6974C55.9834 18.0322 56.5282 21.223 58.7851 22.9352Z" fill="white"/>
<path d="M46.8013 39.6676C45.0892 38.7337 42.9101 38.8115 41.3535 40.1346C41.2757 40.2124 41.1201 40.368 40.9644 40.4459C37.151 44.0258 15.8268 69.8638 15.1264 71.3425C15.0486 71.4982 14.9708 71.7317 14.9708 71.9651C14.8929 72.8212 15.5934 73.5216 16.4494 73.5995C16.8386 73.5995 17.1499 73.5216 17.3833 73.2882C17.7725 72.9769 37.5401 55.8553 44.8557 49.5514C46.8013 50.5632 48.9026 51.5749 51.0817 52.5088C45.7118 57.2561 37.3066 65.0387 36.4506 66.4395C35.9058 67.2178 36.1392 68.3073 36.9953 68.8521C37.5401 69.1634 38.1627 69.2412 38.6297 69.0078C40.5753 68.0739 57.5412 56.0109 59.4869 53.9875C60.6542 52.8201 60.7321 50.8745 59.7203 49.6293C59.7203 49.5514 59.4868 49.3958 59.409 49.318C57.5412 47.4501 48.28 40.4459 46.8013 39.6676Z" fill="white"/>
</svg>
