<svg width="151" height="49" viewBox="0 0 151 49" fill="none" xmlns="http://www.w3.org/2000/svg">
<g clip-path="url(#clip0_465_2243)">
<path d="M38.6107 47.5343H11.0234C8.92541 47.5223 6.91792 46.6784 5.44152 45.1878C3.96512 43.6972 3.14044 41.6818 3.1485 39.5838V11.7316C3.14044 9.63339 3.96504 7.61766 5.44137 6.12667C6.91769 4.63568 8.92518 3.79121 11.0234 3.77853H38.6107C40.7091 3.79121 42.7169 4.6356 44.1936 6.12652C45.6703 7.61743 46.4955 9.63316 46.4881 11.7316V39.5838C46.4955 41.682 45.6702 43.6975 44.1934 45.188C42.7166 46.6785 40.7089 47.5223 38.6107 47.5343ZM11.3689 5.77374C8.17813 5.77374 5.23198 8.51305 5.23198 11.7316V39.5838C5.22661 41.1238 5.83222 42.6032 6.916 43.6973C7.99978 44.7915 9.47325 45.4112 11.0133 45.4206H38.6107C40.1512 45.4119 41.6253 44.7925 42.7096 43.6982C43.7939 42.604 44.3999 41.1243 44.3945 39.5838V11.7316C44.3999 10.1911 43.7939 8.71141 42.7096 7.61716C41.6253 6.52291 40.1512 5.90349 38.6107 5.89481L11.3689 5.77374Z" fill="url(#paint0_linear_465_2243)"/>
<path d="M25.7505 7.52273L8.09289 19.406C3.8768 22.2434 2.75913 27.9614 5.5965 32.1775L13.9703 44.6202C16.8077 48.8363 22.5256 49.954 26.7417 47.1166L44.3993 35.2333C48.6154 32.3959 49.7331 26.678 46.8957 22.4619L38.5219 10.0191C35.6845 5.80304 29.9666 4.68536 25.7505 7.52273Z" fill="#D32E1E"/>
<path d="M40.1375 12.4278L34.3536 3.82897C31.9019 0.186652 26.8496 -0.744107 23.1265 1.76062L3.86054 14.7257C0.137503 17.2304 -0.901718 22.26 1.54752 25.9024L7.33134 34.4986L40.1375 12.4278Z" fill="white"/>
<path d="M40.0963 12.4202C38.3861 10.0114 36.7037 7.68067 35.0742 5.35755L34.4613 4.48985L34.1586 4.05348C34.0552 3.9097 33.9467 3.77602 33.8408 3.63729C33.6272 3.36394 33.3954 3.10523 33.1471 2.86291C33.0235 2.73932 32.8949 2.6359 32.7562 2.51987L32.5594 2.35087C32.4938 2.29538 32.4182 2.24997 32.3501 2.19953L31.9389 1.90189L31.4874 1.64965C31.4117 1.60929 31.3361 1.56388 31.2604 1.52605L31.0082 1.42263C30.8492 1.35453 30.6929 1.27886 30.5314 1.21832C30.2066 1.10143 29.8747 1.00539 29.5376 0.930766L29.2854 0.872753L29.1592 0.845006L29.0306 0.827352L28.5261 0.761767C28.3571 0.736543 28.1831 0.74411 28.0217 0.734021C27.8495 0.722669 27.6767 0.722669 27.5046 0.734021L27.0001 0.764292C26.8286 0.781949 26.6596 0.814736 26.4956 0.83996L26.2434 0.877798C26.1576 0.895455 26.0769 0.920679 25.9911 0.940858L25.4867 1.0695L24.9998 1.24606L24.7476 1.33435L24.5155 1.44533L24.0489 1.6673L23.605 1.93215L23.3628 2.06332L23.1383 2.21214L22.6893 2.51482C22.0915 2.91588 21.4887 3.31442 20.8858 3.71043C19.6826 4.51003 18.4694 5.29197 17.2586 6.07643L13.6239 8.43234C11.1974 9.99285 8.78511 11.5778 6.38717 13.187L4.59375 14.3978L4.14477 14.703L3.9228 14.8543L3.71092 15.0158L3.28716 15.3361L2.89619 15.6993L2.70196 15.8809L2.5254 16.0802L2.17479 16.4787L1.86453 16.9101C1.81409 16.9832 1.75859 17.0538 1.71319 17.127L1.5795 17.3565C1.49374 17.5129 1.40041 17.6617 1.32726 17.8181L1.10782 18.3024C1.03326 18.4617 0.970041 18.6261 0.918639 18.7943C0.865669 18.9633 0.795042 19.1247 0.757206 19.2988L0.633608 19.8032L0.600816 19.9319L0.583161 20.063L0.545323 20.3153C0.496962 20.6631 0.470008 21.0135 0.464609 21.3646C0.464609 21.5386 0.479744 21.7127 0.484789 21.8893L0.499922 22.1415C0.499922 22.2273 0.525145 22.313 0.537756 22.3937L0.615954 22.9108L0.747115 23.4153C0.769816 23.4985 0.784952 23.5868 0.81522 23.6675L0.906026 23.9198C0.969086 24.0837 1.01953 24.2502 1.09016 24.4091C1.23266 24.7265 1.39613 25.0341 1.5795 25.3298C1.67283 25.4761 1.75607 25.6224 1.85949 25.7712L2.16722 26.2151L2.78268 27.1055L5.23696 30.6722L7.67863 34.2489L7.12118 34.1405C9.8277 32.2991 12.5166 30.4502 15.2332 28.6366C16.5852 27.7235 17.9498 26.8205 19.3144 25.92C20.679 25.0195 22.0411 24.1115 23.4183 23.216L27.5474 20.5171L29.6158 19.1651L31.7018 17.8156L35.8839 15.1091L40.0963 12.4202ZM40.1795 12.4354L36.2043 15.2352L32.1912 18.0451L30.1732 19.4577L28.1402 20.8652L24.0691 23.6852C22.712 24.6286 21.3424 25.5644 19.9727 26.5002C18.6031 27.436 17.2334 28.3743 15.8512 29.3C13.0992 31.1666 10.3221 32.9978 7.56008 34.8341L7.2246 35.0586L7.00263 34.7257L4.60888 31.1187L2.2328 27.499L1.63752 26.596L1.3424 26.142C1.24402 25.9881 1.15322 25.8191 1.05989 25.6602C0.872312 25.3359 0.707946 24.9988 0.568028 24.6513C0.494879 24.4797 0.446953 24.2981 0.386416 24.1216L0.298131 23.8567C0.270385 23.7684 0.255252 23.6751 0.23255 23.5843L0.113998 23.0395L0.0458924 22.4845C0.0458924 22.3912 0.0231922 22.3004 0.015625 22.2071V21.9296C0.015625 21.743 0.015625 21.5563 0.015625 21.3722C0.0310121 21.0017 0.0706143 20.6327 0.134177 20.2674L0.179578 19.9949L0.204804 19.8587L0.240117 19.725L0.383891 19.1903C0.429294 19.0112 0.510011 18.8422 0.570549 18.6682C0.629392 18.4953 0.700189 18.3267 0.782428 18.1637L1.03467 17.6592C1.12547 17.4978 1.22637 17.3439 1.3197 17.185L1.466 16.9504C1.51644 16.8748 1.57446 16.8041 1.62995 16.7285L1.95786 16.287L2.32865 15.8784L2.51531 15.6766L2.71962 15.4925L3.12825 15.1217L3.56966 14.7963C3.71596 14.6853 3.86478 14.5769 4.01613 14.481L4.46511 14.1809L6.26357 12.9752C8.65815 11.3608 11.0351 9.72296 13.3943 8.06155L16.9232 5.59466C18.1062 4.76731 19.2866 3.93745 20.4797 3.12524C21.0725 2.71662 21.6703 2.30799 22.2681 1.90693L22.7171 1.60424C22.7928 1.55379 22.8659 1.50083 22.9416 1.4529L23.1938 1.3066L23.6781 1.01401L24.1826 0.761767L24.4348 0.643215L24.7022 0.547367L25.2369 0.360709L25.7843 0.224502C25.8776 0.2018 25.9684 0.176574 26.0592 0.158917L26.3392 0.116037C26.5259 0.0908135 26.7125 0.0580217 26.8992 0.040365L27.4642 0.0100977C27.6515 -0.00125 27.8394 -0.00125 28.0267 0.0100977C28.2159 0.025232 28.4051 0.0100961 28.5917 0.0479319L29.1492 0.126129L29.2904 0.146305L29.4266 0.179097L29.7016 0.247202C30.0667 0.335277 30.4257 0.447346 30.7761 0.58268C30.9527 0.650784 31.1191 0.736542 31.2806 0.812214L31.5328 0.930766C31.6161 0.973647 31.6968 1.0241 31.7851 1.0695L32.2693 1.35705L32.7259 1.68748C32.8039 1.73953 32.8788 1.79596 32.9504 1.85648L33.1623 2.04314C33.2985 2.17178 33.4448 2.29538 33.5734 2.42654C33.835 2.69465 34.077 2.98126 34.2973 3.28415C34.4058 3.43549 34.5218 3.58432 34.6253 3.73818L34.9254 4.19978L35.5257 5.12297C37.1249 7.59491 38.6661 10.0542 40.1795 12.4354Z" fill="#1B458F"/>
<path d="M37.8071 5.23141H11.8896C9.98605 5.23876 8.16314 6.00078 6.82069 7.35032C5.47823 8.69987 4.72584 10.5268 4.72852 12.4303V38.479C4.72584 40.3823 5.47832 42.2089 6.82084 43.558C8.16337 44.9072 9.98628 45.6686 11.8896 45.6753H37.8071C39.7102 45.668 41.5327 44.9063 42.8751 43.5573C44.2174 42.2083 44.9701 40.3821 44.9681 38.479V12.4303C44.9708 10.5268 44.2184 8.69987 42.8759 7.35032C41.5335 6.00078 39.7106 5.23876 37.8071 5.23141ZM44.3653 12.4303V38.479C44.3679 40.2219 43.6788 41.8947 42.4492 43.13C41.2196 44.3653 39.55 45.0621 37.8071 45.0674H11.8896C10.1468 45.0614 8.47764 44.3644 7.24817 43.1292C6.0187 41.8941 5.32936 40.2217 5.33137 38.479V12.4303C5.32936 10.6876 6.0187 9.01516 7.24817 7.78002C8.47764 6.54488 10.1468 5.84784 11.8896 5.84183H37.8071C39.5491 5.84851 41.2174 6.54592 42.4459 7.78106C43.6745 9.01621 44.3629 10.6882 44.3602 12.4303H44.3653Z" fill="#29295B"/>
<path d="M36.6751 6.50772H13.1009C11.1965 6.50772 9.36991 7.26338 8.02211 8.60881C6.67431 9.95424 5.91545 11.7795 5.91211 13.6839V37.2102C5.91612 39.1141 6.67527 40.9388 8.023 42.2836C9.37073 43.6285 11.1969 44.3838 13.1009 44.3838H36.6751C38.5791 44.3838 40.4053 43.6285 41.753 42.2836C43.1007 40.9388 43.8599 39.1141 43.8639 37.2102V13.6839C43.8606 11.7795 43.1017 9.95424 41.7539 8.60881C40.4061 7.26338 38.5795 6.50772 36.6751 6.50772ZM43.256 13.6839V37.2102C43.2493 38.9514 42.5531 40.6191 41.3198 41.8482C40.0864 43.0773 38.4163 43.7677 36.6751 43.7684H13.1009C11.3599 43.7677 9.6901 43.0772 8.45714 41.848C7.22418 40.6188 6.52853 38.9512 6.52253 37.2102V13.6839C6.52853 11.9429 7.22418 10.2752 8.45714 9.04606C9.6901 7.81688 11.3599 7.12637 13.1009 7.12571H36.6751C38.4163 7.12636 40.0864 7.8168 41.3198 9.04591C42.5531 10.275 43.2493 11.9427 43.256 13.6839Z" fill="#29295B"/>
<path d="M35.7619 7.74371H13.8752C12.1043 7.74638 10.4067 8.45086 9.15425 9.70282C7.90182 10.9548 7.19669 12.6521 7.19336 14.423V36.3375C7.19402 38.1103 7.89789 39.8105 9.15054 41.065C10.4032 42.3196 12.1023 43.026 13.8752 43.0293H35.7619C37.5347 43.026 39.2339 42.3196 40.4865 41.065C41.7391 39.8105 42.443 38.1103 42.4437 36.3375V14.423C42.4397 12.6523 41.7343 10.9554 40.482 9.70355C39.2298 8.45174 37.5325 7.74704 35.7619 7.74371ZM41.866 14.423V36.3375C41.8647 37.9567 41.2214 39.5093 40.0772 40.655C38.9329 41.8006 37.3811 42.4459 35.7619 42.4492H13.8752C12.2559 42.4459 10.7041 41.8006 9.55987 40.655C8.41562 39.5093 7.77232 37.9567 7.77099 36.3375V14.423C7.77232 12.8038 8.41562 11.2511 9.55987 10.1055C10.7041 8.95981 12.2559 8.31459 13.8752 8.31125H35.7619C37.3811 8.31459 38.9329 8.95981 40.0772 10.1055C41.2214 11.2511 41.8647 12.8038 41.866 14.423Z" fill="#29295B"/>
<path d="M19.4309 39.1197C33.2032 28.2734 42.8664 28.9267 45.7445 20.7592C44.9877 19.3013 37.0347 7.81436 37.0347 7.81436L37.5719 7.85724C30.373 17.9745 14.1844 17.972 8.69567 22.0734C3.85522 25.693 3.28516 28.735 3.28516 28.735L13.8792 44.4848C13.8792 44.4848 17.8746 40.3481 19.4309 39.1197Z" fill="#12448D"/>
<path d="M10.8512 46.6187L9.07036 46.1445L8.87109 44.8404C9.09853 44.2817 9.26759 43.701 9.37557 43.1076C9.54299 42.2109 9.57191 41.2939 9.46133 40.3884L10.2685 39.9672L11.3329 39.8512L18.3553 32.7885L21.1047 31.951L26.1494 25.1961L27.1836 22.1566L30.435 19.5006L32.2006 12.3975L27.7864 12.0646L25.2691 11.3961C24.4493 11.3961 23.5867 11.3583 22.6862 11.2877C20.6798 11.1275 18.6908 10.7959 16.7409 10.2964L13.8906 11.2297C13.651 10.9522 14.5515 9.91298 14.5515 9.91298L10.7679 9.37319L13.5022 8.41721L18.0198 9.17393L24.3938 9.03772L28.0967 9.24707L30.0213 9.27987L33.2499 8.69215L35.3763 8.72998L37.1294 8.08425C36.133 8.2647 35.1073 8.19361 34.1454 7.87742C33.2144 7.55322 32.357 7.04737 31.623 6.38921L33.9915 6.41948C33.9915 6.41948 31.121 5.50133 31.0075 5.34999L29.8371 3.7508L31.7516 4.27293L34.4355 3.93241L32.5664 2.96129C33.6938 3.01468 34.8232 2.91455 35.9237 2.66365C36.9578 2.39124 38.0072 2.04315 38.7437 1.76821C39.4802 1.49327 40.7465 1.5866 41.3569 1.63452C42.0808 1.57651 42.101 2.36349 42.2246 2.83013C42.2733 3.0556 42.2393 3.29106 42.1287 3.49352L42.502 4.4722C42.4293 4.54726 42.3755 4.63861 42.3453 4.73865C42.315 4.83869 42.3091 4.94451 42.328 5.04731C42.3504 5.11733 42.3873 5.18181 42.4365 5.23649L43.2411 6.25805C43.2324 6.31158 43.2117 6.36245 43.1806 6.40687C43.0368 6.60866 42.7291 6.53551 42.6761 6.65911C42.6509 6.70956 42.661 6.80289 42.8199 6.98197C42.84 7.07336 42.84 7.16805 42.8199 7.25944C42.7896 7.39565 42.724 7.45114 42.6837 7.605C42.661 7.68706 42.6516 7.77222 42.6559 7.85724C42.6804 7.99489 42.6804 8.13578 42.6559 8.27343C42.6305 8.41923 42.5792 8.55932 42.5046 8.6871L40.4867 8.93934L39.2784 11.096L39.7577 15.3386L35.1392 21.7884H40.2849L44.7091 22.4013L46.2226 23.7811L45.4785 26.3287L39.402 29.86L33.8528 32.8389L31.2951 35.0258L30.2861 36.287L29.6681 35.5253L29.7438 33.7142C30.2792 33.3102 30.7198 32.794 31.0348 32.2019C31.3498 31.6098 31.5316 30.956 31.5675 30.2863L32.6572 29.4665L34.2059 30.1299L38.2064 26.7549L31.396 27.3855L29.0426 30.0946L22.8577 34.7887L21.5461 35.2352L13.2222 41.0922C12.8604 42.1179 12.3651 43.0914 11.7491 43.9879C11.433 44.3615 11.1861 44.7886 11.0202 45.2491C10.8755 45.6903 10.818 46.1555 10.8512 46.6187Z" fill="url(#paint1_radial_465_2243)"/>
<path d="M11.0361 46.8432L8.91728 46.2807L8.69531 44.8177L8.71549 44.7748C9.2856 43.3929 9.48892 41.8872 9.30573 40.4035L9.2906 40.285L10.2314 39.7957L11.2681 39.6822L18.2778 32.6195L21.0146 31.7846L26.0115 25.0977L27.0507 22.0381L30.297 19.387L32.0047 12.5362L27.7746 12.2159H27.762L25.2396 11.5626C24.382 11.5626 23.5168 11.5197 22.6643 11.4541C20.664 11.2941 18.681 10.9642 16.7367 10.4679L13.8284 11.4239L13.7527 11.3381C13.5938 11.1515 13.6644 10.8336 13.9797 10.367C14.0604 10.2459 14.1462 10.1299 14.2193 10.0366L9.99434 9.43371L13.4525 8.17252L18.0231 9.00743L24.3972 8.87374L28.1025 9.08562L30.0095 9.11589L33.2381 8.5307L35.3493 8.56601L35.9118 8.35918C35.2929 8.34547 34.6793 8.24094 34.0907 8.04892C33.1401 7.71312 32.2644 7.19472 31.5128 6.52288L31.195 6.2202L32.8774 6.2429C30.9957 5.61735 30.9125 5.50384 30.8797 5.45844L29.4167 3.45062L31.7726 4.09383L33.8788 3.82645L31.7827 2.73678L32.5848 2.78471C33.6936 2.83627 34.8042 2.73785 35.8866 2.49211C36.7846 2.25753 37.8339 1.92458 38.694 1.60171C39.4785 1.30911 40.6817 1.40496 41.3274 1.45541H41.3652C42.1219 1.40496 42.2531 2.08853 42.3464 2.54256C42.3641 2.62832 42.3792 2.70904 42.3994 2.77966C42.4552 3.01875 42.4276 3.26971 42.3212 3.49098L42.7071 4.49993L42.634 4.57812C42.5826 4.63247 42.544 4.69754 42.5209 4.76865C42.4977 4.83976 42.4907 4.91512 42.5003 4.98927C42.5149 5.03499 42.5389 5.07711 42.5709 5.11287L43.4235 6.19245L43.4109 6.26812C43.3982 6.34813 43.3671 6.42411 43.3201 6.49009C43.2151 6.61615 43.0665 6.69809 42.9039 6.71963L42.8459 6.73224C42.8728 6.77789 42.9049 6.82022 42.9417 6.85836L42.9695 6.89115V6.93403C42.9959 7.0494 42.9959 7.16927 42.9695 7.28464C42.9524 7.35864 42.9253 7.42993 42.8887 7.49652C42.864 7.54121 42.8445 7.58861 42.8307 7.63778C42.8152 7.69787 42.8084 7.75988 42.8106 7.82191C42.8627 8.14489 42.8002 8.47592 42.634 8.75771L42.5911 8.83086L40.5732 9.0831L39.4356 11.1161L39.9149 15.3815L35.4704 21.6168H40.2932H40.3058L44.7856 22.2424L46.41 23.7281L45.6205 26.4447L39.4785 30.0189L33.9292 32.9877L31.4069 35.1519L30.2718 36.5746L29.5151 35.5656L29.5983 33.6108L29.6614 33.5628C30.2715 33.0976 30.7533 32.4848 31.0613 31.782C31.2685 31.3026 31.3889 30.7902 31.4169 30.2686V30.1904L32.6504 29.2622L34.1916 29.9256L37.6952 26.9693L31.4876 27.5394L29.1645 30.2207H29.1493L22.9241 34.93L21.6099 35.379L13.3567 41.1804C12.9902 42.2039 12.4925 43.1756 11.876 44.0711L11.8054 44.167C11.5305 44.5018 11.3171 44.8827 11.1748 45.2919C11.0395 45.71 10.9864 46.1502 11.0184 46.5884L11.0361 46.8432ZM9.22249 46.0083L10.6703 46.3917C10.666 45.9884 10.7273 45.5872 10.8519 45.2036C11.0065 44.7582 11.2378 44.3433 11.5355 43.9778L11.6061 43.8844C12.2105 43.0025 12.6964 42.0451 13.0515 41.0367L13.0716 40.9837L13.1171 40.9509L21.4561 35.0788L22.7652 34.6349L28.9324 29.9684L31.3211 27.2216L38.7495 26.5304L34.2546 30.314L32.6958 29.6632L31.7499 30.3745C31.7115 30.9119 31.5827 31.4389 31.369 31.9334C31.0502 32.6648 30.5554 33.3061 29.9287 33.7999L29.8581 35.4723L30.2819 36.0247L31.1647 34.9199L33.7501 32.7128H33.7653L39.3145 29.7364L45.3304 26.2353L46.0241 23.8542L44.6342 22.593L40.2629 21.97L34.7969 21.9573L39.5769 15.2907L39.1001 11.048L40.379 8.77789L42.3969 8.52565C42.4411 8.43568 42.4718 8.33962 42.4877 8.24063C42.5079 8.12209 42.5079 8.00099 42.4877 7.88245V7.86479C42.4846 7.76453 42.4956 7.66433 42.5205 7.56715C42.541 7.49553 42.5689 7.42622 42.6037 7.36031C42.6272 7.31916 42.645 7.27504 42.6567 7.22915C42.6654 7.17569 42.6654 7.12118 42.6567 7.06772C42.5955 7.00915 42.5516 6.93486 42.5298 6.853C42.508 6.77114 42.5091 6.68485 42.5331 6.6036C42.5662 6.54779 42.6125 6.50092 42.6679 6.46707C42.7233 6.43322 42.7861 6.41342 42.8509 6.40937C42.9543 6.38667 43.025 6.3665 43.0628 6.31353V6.30091L42.3061 5.35502C42.2407 5.28254 42.1925 5.19635 42.1648 5.10278C42.1375 4.99053 42.1363 4.87351 42.1612 4.76071C42.1861 4.64791 42.2365 4.54231 42.3086 4.45201L41.9429 3.4935L41.9756 3.42539C42.0682 3.2607 42.0986 3.06829 42.0614 2.88308C42.0387 2.80489 42.021 2.71913 42.0034 2.63084C41.8949 2.10114 41.7966 1.78332 41.3728 1.81864H41.3577H41.2921C40.6741 1.77071 39.5264 1.67738 38.805 1.94728C37.9348 2.27266 36.8754 2.60814 35.9673 2.84525C35.0908 3.05595 34.1925 3.16262 33.2911 3.16307L35.0013 4.05095L31.7398 4.46462L30.2642 4.06103L31.137 5.24908C31.3413 5.38024 32.948 5.92508 34.0427 6.27569L35.1425 6.6036L32.1156 6.56324C32.7455 7.05915 33.4529 7.44777 34.2092 7.71345C35.1446 8.01987 36.1415 8.08836 37.11 7.91272L37.2008 8.24315L35.4174 8.89897L33.2759 8.86113L30.0473 9.44885H30.0296L28.0975 9.41606L24.5384 10.2207L18.0206 9.34039H18.008L13.4677 8.53575L11.5355 9.31012L14.8852 9.78937L14.6809 10.0265C14.3682 10.3872 14.6809 10.4048 14.6053 10.6167L16.7341 10.1122L16.7821 10.1248C18.7228 10.6221 20.7025 10.9521 22.6996 11.1111C23.5522 11.1792 24.4173 11.2145 25.2724 11.2196H25.2926L27.8326 11.8829L32.4436 12.2336L30.6123 19.5863L27.3433 22.2424L26.3167 25.2692L26.3015 25.2919L21.2215 32.0797L18.4595 32.9222L11.4245 40.0075L10.3323 40.1261L9.65886 40.4767C9.75589 41.3623 9.72104 42.2574 9.55544 43.1328C9.44552 43.7217 9.2765 44.298 9.05097 44.853L9.22249 46.0083Z" fill="white"/>
<path d="M7.12403 46.8634L5.34323 46.3892L5.14648 45.0851C5.37238 44.5267 5.54139 43.947 5.65096 43.3548C5.81968 42.4574 5.84861 41.5393 5.73672 40.6331L6.54389 40.2119L7.61085 40.0958L14.6332 33.0332L17.3826 32.1957L22.4273 25.4408L23.459 22.4139L26.7129 19.7553L28.4785 12.6548L24.0644 12.3193L21.542 11.6585C20.7222 11.6585 19.8596 11.6206 18.9565 11.55C16.9528 11.3837 14.9671 11.0452 13.0214 10.5385L10.1736 11.4743C9.92136 11.1944 10.8319 10.1577 10.8319 10.1577C9.57075 9.97604 7.20223 10.3695 7.04836 9.61534L9.65398 8.79052L14.2826 9.41355L20.6591 9.27734L24.3595 9.48922L26.2866 9.51949L29.5152 8.9343L31.6416 8.96961L33.3947 8.32388C32.4033 8.50305 31.3828 8.43195 30.4258 8.11704C29.4954 7.79157 28.6383 7.28586 27.9034 6.62884L30.272 6.65911C30.272 6.65911 27.399 5.74348 27.2905 5.59466L26.1176 3.99547L28.0346 4.5176L30.7184 4.17708L28.8468 3.20596C29.9742 3.25935 31.1037 3.15922 32.2041 2.90832C33.2383 2.63591 34.4591 2.26511 35.231 2.17178L37.0647 2.31556C37.7887 2.25755 38.3739 2.60816 38.4974 3.07228C38.5458 3.29803 38.5109 3.53367 38.3991 3.73566L38.7724 4.71435C38.7002 4.78975 38.6468 4.88113 38.6165 4.98106C38.5863 5.081 38.58 5.18666 38.5983 5.28945C38.6207 5.35947 38.6577 5.42395 38.7068 5.47863L39.5114 6.5002C39.5043 6.55372 39.4844 6.60476 39.4534 6.64901C39.3071 6.85081 38.9994 6.77766 38.949 6.90125C38.9263 6.95422 38.9363 7.04503 39.0927 7.22412C39.1129 7.31551 39.1129 7.4102 39.0927 7.50158C39.0625 7.64031 38.9994 7.69328 38.9565 7.84715C38.9339 7.92921 38.9245 8.01436 38.9288 8.09939C38.9522 8.23713 38.9522 8.37784 38.9288 8.51558C38.9021 8.66222 38.8501 8.80307 38.7749 8.93177L36.757 9.18401L35.5513 11.3407L36.6158 15.8961L35.8212 16.8041L34.4894 17.1749L31.3061 22.0456L36.5476 22.0583L40.9744 22.6687L42.4879 24.0484L41.7463 26.596L35.6673 30.1274L30.1181 33.1038L27.5579 35.2907L26.5489 36.5519L25.9511 35.775L26.0293 33.9614C26.6623 33.4787 27.1616 32.8422 27.4797 32.1125C27.6962 31.6124 27.8217 31.0777 27.8505 30.5335L28.9401 29.7137L30.4889 30.3796L34.4894 27.0021L27.6789 27.6327L25.3256 30.3418L19.123 35.0359L17.8139 35.4799L9.49003 41.3368C9.12921 42.363 8.63387 43.3367 8.01696 44.2325C7.70226 44.6068 7.45632 45.0337 7.29051 45.4937C7.1469 45.9352 7.09036 46.4004 7.12403 46.8634Z" fill="url(#paint2_linear_465_2243)"/>
<path d="M7.30952 47.0904L5.19072 46.5254L4.96875 45.0624L4.9864 45.0195C5.21305 44.4727 5.38212 43.9038 5.49088 43.322C5.65694 42.4422 5.68588 41.5419 5.57665 40.6533L5.56151 40.5372L6.50236 40.0454L7.54158 39.9344L14.5513 32.8717L17.2881 32.0393L22.2824 25.35L23.3216 22.2903L26.5679 19.6393L28.2756 12.7885L24.0481 12.4682H24.0329L21.5105 11.8123C20.6555 11.8123 19.7878 11.7695 18.9352 11.7039C16.9352 11.5433 14.9523 11.2142 13.0076 10.7201L10.0993 11.6736L10.0236 11.5878C9.8647 11.4012 9.93532 11.0834 10.2506 10.6192C10.3288 10.5007 10.4095 10.3897 10.4827 10.2964C10.127 10.2712 9.71083 10.2737 9.30725 10.2762C8.11668 10.2762 6.9917 10.2939 6.86306 9.65065L6.83279 9.49931L9.63264 8.62152H9.67047L14.3016 9.24203L20.6706 9.10582L24.3734 9.3177L26.2804 9.34797L29.509 8.76277L31.6203 8.79809L32.1828 8.59125C31.5645 8.57877 30.9515 8.47421 30.3641 8.281C29.4133 7.94585 28.5374 7.42738 27.7862 6.75496L27.4684 6.45227L29.1483 6.47497C27.2666 5.84942 27.1859 5.73591 27.1506 5.69051L25.6876 3.69531L28.0435 4.33851L30.1497 4.07114L28.0561 2.98399L28.8557 3.0294C29.9653 3.08097 31.0768 2.98255 32.16 2.7368L32.9168 2.53501C33.6737 2.30639 34.4446 2.12693 35.2247 1.99774H35.2399L37.0787 2.14152C37.8531 2.0835 38.524 2.45681 38.6754 3.0294C38.7319 3.26903 38.7052 3.52077 38.5997 3.74323L38.9856 4.75218L38.9125 4.83038C38.8611 4.88472 38.8225 4.9498 38.7994 5.0209C38.7762 5.09201 38.7692 5.16737 38.7788 5.24153C38.7923 5.28768 38.8165 5.33001 38.8494 5.36512L39.702 6.4447V6.52037C39.6901 6.60019 39.6599 6.67617 39.6137 6.74235C39.5078 6.86856 39.3584 6.95047 39.195 6.97188L39.1395 6.98449C39.1666 7.03016 39.1978 7.07323 39.2328 7.11314L39.2631 7.14593V7.18881C39.2895 7.30334 39.2895 7.42237 39.2631 7.5369C39.2478 7.61104 39.2214 7.68246 39.1849 7.74877C39.1603 7.79474 39.1401 7.84287 39.1243 7.89255C39.1087 7.95176 39.1019 8.01296 39.1042 8.07416C39.1307 8.22689 39.1307 8.38304 39.1042 8.53576C39.0768 8.70307 39.0186 8.86385 38.9327 9.00997L38.8898 9.08312L36.8719 9.33536L35.7393 11.3533L36.8113 15.9364L35.9234 16.9454L34.6068 17.3111L31.6329 21.864L36.5692 21.8766L41.059 22.4946L42.6834 23.9828L41.8914 26.6969L35.7494 30.2711L30.2002 33.24L27.6778 35.4042L26.5452 36.8268L25.7885 35.8179L25.8692 33.8655L25.9348 33.8151C26.5441 33.3496 27.025 32.7368 27.3322 32.0343C27.5391 31.5546 27.6603 31.0424 27.6904 30.5209V30.4427L28.9238 29.5144L30.465 30.1778L33.956 27.2216L27.761 27.7916L25.4379 30.4628L19.2 35.1847L17.8834 35.6337L9.63011 41.4352C9.2627 42.4579 8.76596 43.4293 8.152 44.3259L8.07885 44.4192C7.80489 44.7547 7.5915 45.1354 7.44825 45.5442C7.31376 45.9624 7.26151 46.4026 7.29439 46.8407L7.30952 47.0904ZM5.49341 46.253L6.94378 46.6389C6.93739 46.2349 6.9979 45.8326 7.12286 45.4483C7.27737 45.0029 7.50872 44.588 7.80643 44.2225L7.87706 44.1316C8.48079 43.2481 8.96746 42.29 9.32491 41.2814L9.34256 41.2284L9.38797 41.1956L17.727 35.326L19.0361 34.8795L25.2033 30.2156L27.592 27.4663L35.0154 26.7827L30.518 30.5663L28.9642 29.9004L28.0158 30.6142C27.9782 31.1506 27.8503 31.6767 27.6374 32.1705C27.3178 32.9022 26.8221 33.5434 26.1946 34.0371L26.124 35.7094L26.5503 36.2643L27.4331 35.157L30.016 32.9499H30.0337L35.5829 29.9735L41.5988 26.4724L42.2925 24.0938L40.9026 22.8326L36.5414 22.2273L30.9922 22.2147L34.3823 17.0261L35.7267 16.6528L36.4304 15.8482L35.371 11.3079L36.6524 9.01754L38.6703 8.7653C38.7155 8.67547 38.7469 8.5794 38.7636 8.48027C38.7838 8.36258 38.7838 8.2423 38.7636 8.12461V8.11704C38.758 8.0167 38.7691 7.91612 38.7964 7.81941C38.8148 7.74703 38.8428 7.67745 38.8797 7.61257C38.9023 7.5722 38.9193 7.52892 38.9301 7.48393C38.9403 7.42975 38.9403 7.37415 38.9301 7.31997C38.8652 7.26223 38.8177 7.1874 38.7932 7.10401C38.7686 7.02061 38.768 6.93201 38.7914 6.84829C38.8245 6.79296 38.8704 6.74642 38.9253 6.71261C38.9802 6.6788 39.0424 6.65871 39.1067 6.65406C39.2101 6.63136 39.2833 6.6137 39.3186 6.56073C39.3193 6.55572 39.3193 6.55062 39.3186 6.5456L38.5619 5.59971C38.4976 5.52644 38.4495 5.4405 38.4206 5.34747C38.3938 5.23477 38.3929 5.11749 38.4178 5.00437C38.4427 4.89125 38.4928 4.78521 38.5644 4.69417L38.1986 3.73566L38.2339 3.66756C38.3252 3.50333 38.3548 3.31187 38.3172 3.12777C38.2087 2.71662 37.6689 2.4442 37.056 2.49465H37.0409H36.9601L35.2096 2.35592C34.4528 2.48532 33.7048 2.66138 32.9697 2.8831L32.213 3.08741C31.3371 3.29631 30.4398 3.40213 29.5393 3.40271L31.2495 4.29311L27.988 4.70426L26.5099 4.30068L27.3827 5.49124C27.587 5.62241 29.1937 6.16472 30.291 6.51533L31.3806 6.86342L28.3538 6.82558C28.9841 7.32022 29.6913 7.70794 30.4473 7.97327C31.3828 8.27897 32.3793 8.3483 33.3481 8.17506L33.4389 8.50297L31.6556 9.15879L29.5141 9.12348L26.2854 9.70867H26.2703L24.3356 9.67588L20.6403 9.46652L14.2587 9.60273H14.2814L9.67552 8.98475L7.31204 9.74146C7.61473 9.971 8.58837 9.96595 9.32995 9.96091C9.84176 9.94388 10.3541 9.96158 10.8636 10.0139L11.1738 10.0593L10.967 10.2964C10.7033 10.5865 10.4863 10.9158 10.3238 11.2725L13.0227 10.3872L13.0706 10.3998C15.0112 10.8983 16.991 11.2291 18.9882 11.3886C19.8382 11.4542 20.7034 11.492 21.5585 11.4945H21.5812L24.1187 12.1579L28.722 12.506L26.8883 19.8587L23.6142 22.4946L22.5901 25.5215L22.5725 25.5442L17.4949 32.3319L14.7203 33.1744L7.69797 40.2598L6.60325 40.3783L5.92978 40.7315C6.02758 41.6161 5.99358 42.5104 5.82888 43.385C5.71778 43.9737 5.5488 44.5499 5.32441 45.1053L5.49341 46.253Z" fill="white"/>
<path d="M7.40015 47.1988L5.11487 46.5935L4.88281 45.0523L4.90803 44.9867C5.47631 43.6185 5.67801 42.1257 5.49323 40.6558L5.47305 40.4817L6.482 39.9545L7.49096 39.8461L14.4956 32.7834L17.2274 31.951L22.1965 25.297L23.2508 22.2424L26.4946 19.5913L28.1695 12.8641L24.0126 12.5463L21.5104 11.9006C20.6553 11.9006 19.7901 11.8577 18.9375 11.7921C16.9405 11.6311 14.9609 11.3003 13.02 10.8034L10.0814 11.7669L9.97046 11.6383C9.71822 11.3532 9.97046 10.8815 10.1924 10.5688C10.2353 10.5057 10.2807 10.4376 10.3312 10.3695C10.0133 10.3544 9.66273 10.3569 9.32221 10.3695C8.09381 10.3695 6.93855 10.3846 6.79982 9.67584L6.75442 9.45135L9.63246 8.54077H9.68795L14.319 9.16128L20.6755 9.02507L24.3859 9.23695L26.2903 9.26722L29.5013 8.68203L31.615 8.71734L31.779 8.6568C31.2908 8.61424 30.8091 8.51521 30.3438 8.36168C29.3814 8.02339 28.4952 7.49884 27.7356 6.81799L27.2614 6.369L28.626 6.38666C27.2084 5.90236 27.1353 5.80399 27.0899 5.74345L25.4882 3.55654L28.0585 4.25524L29.8822 4.02571L27.6751 2.87802L28.8682 2.94865C29.9693 2.99933 31.0722 2.90177 32.1473 2.65857C32.3869 2.59804 32.6517 2.52741 32.8888 2.45931C33.6533 2.22862 34.4318 2.04747 35.2195 1.91699H35.217L37.0735 2.06077C37.8731 2.00023 38.5869 2.39877 38.7433 3.00919C38.8025 3.25527 38.7795 3.51398 38.6777 3.74572L39.0687 4.77485L38.9602 4.89089C38.9179 4.93412 38.8856 4.98612 38.8655 5.04322C38.8455 5.10031 38.8382 5.16111 38.8442 5.22132C38.8553 5.25497 38.8733 5.28591 38.8972 5.31212L39.7825 6.43206L39.7649 6.54304C39.7499 6.63387 39.7146 6.72012 39.6614 6.79528C39.5626 6.92621 39.4189 7.01603 39.2579 7.04752L39.2755 7.0677L39.3184 7.11563L39.3335 7.17869C39.3612 7.30584 39.3612 7.43745 39.3335 7.56461C39.3153 7.64576 39.2855 7.72389 39.2452 7.79667C39.2246 7.83738 39.2069 7.87953 39.1923 7.92279C39.1801 7.97486 39.1741 8.02821 39.1746 8.0817C39.2011 8.24035 39.2011 8.4023 39.1746 8.56095C39.1438 8.73874 39.0814 8.90959 38.9905 9.06543L38.9274 9.17389L36.9095 9.42613L35.8123 11.3835L36.8843 15.9692L35.9737 17.016L34.6621 17.3817L31.7866 21.7782L36.5917 21.7934L41.0967 22.4164L42.7766 23.9551L41.9619 26.7524L41.9341 26.77L35.7921 30.3443L30.258 33.3106L27.7356 35.4672L26.545 36.963L25.695 35.8531L25.7808 33.8352L25.8741 33.7621C26.3802 33.3805 26.7969 32.8929 27.0949 32.3335C27.3929 31.7741 27.5651 31.1563 27.5994 30.5233V30.4048L28.901 29.4236L30.4421 30.0845L33.7036 27.33L27.8012 27.8748L25.4756 30.5435L19.2402 35.2604L17.9235 35.7094L9.70056 41.4982C9.33363 42.5186 8.83865 43.4882 8.22749 44.3839L8.15687 44.4797C7.88726 44.8077 7.67802 45.1809 7.53888 45.582C7.40671 45.9885 7.3553 46.4169 7.38754 46.8432L7.40015 47.1988ZM5.26369 46.4573L7.21854 46.9769V46.8533C7.18696 46.4048 7.24177 45.9543 7.37997 45.5265C7.52417 45.1078 7.742 44.7183 8.02318 44.3763L8.09381 44.283C8.70071 43.3925 9.1907 42.4278 9.55174 41.4125V41.3873L9.57444 41.3721L17.8378 35.553L19.1519 35.1065L25.3797 30.4048L27.7154 27.7134L34.208 27.1131L30.4623 30.2736L28.9186 29.6102L27.7558 30.4855V30.5259C27.7295 31.0609 27.6082 31.5871 27.3976 32.0797C27.0853 32.796 26.5957 33.4211 25.975 33.8958L25.9422 33.921L25.8615 35.8052L26.545 36.6956L27.6145 35.3588L30.1722 33.1668L35.7215 30.198L41.8307 26.6414L42.5874 24.008L41.0185 22.5753L36.5665 21.9573L31.4763 21.9447L34.5511 17.238L35.8753 16.8672L36.7178 15.9061L35.6483 11.3406L36.8187 9.25461L38.8366 9.00237L38.8593 8.96453C38.9401 8.82758 38.9957 8.67721 39.0233 8.5206C39.0486 8.37624 39.0486 8.22857 39.0233 8.08422C39.0196 8.01101 39.0281 7.9377 39.0485 7.8673C39.0642 7.81238 39.0854 7.75915 39.1116 7.70839C39.1981 7.55518 39.2225 7.37458 39.1797 7.20391V7.18121L39.1645 7.16355C39.1241 7.12113 39.0893 7.07365 39.0611 7.0223L39.0081 6.92897L39.1116 6.90122L39.1671 6.88861C39.3123 6.87205 39.4458 6.8008 39.5404 6.68934C39.5794 6.63392 39.6045 6.56989 39.6135 6.50269V6.46485L38.7837 5.41554C38.7417 5.36918 38.7107 5.31402 38.6928 5.25411C38.6768 5.16384 38.6824 5.07106 38.7091 4.98337C38.7359 4.89568 38.783 4.81558 38.8467 4.74963L38.882 4.71179L38.5037 3.71797L38.5188 3.68518C38.6157 3.47993 38.6406 3.24799 38.5894 3.02684C38.4482 2.49462 37.8151 2.14653 37.076 2.20202L35.2271 2.05825C34.4513 2.18689 33.6845 2.36551 32.9317 2.59299C32.6795 2.66362 32.4272 2.73424 32.175 2.79478C31.0836 3.04347 29.9636 3.14275 28.8455 3.0899L28.4368 3.0672L30.4219 4.09886L28.0333 4.40154L25.8968 3.82896L27.2185 5.62994C27.2639 5.693 27.6423 5.88218 29.1759 6.38666L29.6804 6.55818L27.6751 6.53296L27.8365 6.68682C28.5791 7.35235 29.4445 7.86645 30.3841 8.20025C30.964 8.39218 31.5694 8.49591 32.18 8.50798H32.6215L31.6352 8.87373L29.5088 8.83842L26.2953 9.42361L24.3733 9.39334L20.6654 9.18146L14.3039 9.31767L9.64003 8.69464L6.94107 9.5472L6.95621 9.6254C7.06972 10.198 8.16191 10.1929 9.31464 10.1828C9.72074 10.1828 10.1369 10.1828 10.4976 10.203H10.654L10.5582 10.3266C10.4724 10.4376 10.3967 10.5435 10.3312 10.6444C10.0436 11.0783 9.96794 11.3608 10.0991 11.5121L10.1369 11.5575L13.02 10.6394H13.0427C14.9826 11.1361 16.9615 11.4652 18.9577 11.6231C19.8078 11.6887 20.6729 11.7265 21.5255 11.7316H21.5457L24.0681 12.3874L28.3965 12.7153L26.6409 19.6872L23.3921 22.3407L22.3528 25.4004L17.3434 32.1099L14.599 32.9474L7.58428 40.01L6.53245 40.1236L5.65718 40.5801V40.6406C5.76765 41.5377 5.73872 42.4464 5.57142 43.3345C5.46144 43.9218 5.29242 44.4965 5.06695 45.0498V45.0699L5.26369 46.4573ZM7.02936 46.7448L5.4226 46.3185L5.23594 45.0926V45.0725C5.46119 44.5226 5.63021 43.9513 5.74042 43.3673C5.90397 42.5002 5.93797 41.6136 5.84132 40.7365V40.681L6.59803 40.2925L7.66248 40.179L14.6898 33.0987L17.4468 32.2588L22.5168 25.471L23.5459 22.4442L26.8023 19.7856L28.6033 12.5539L24.1009 12.2134L21.5457 11.55C20.6906 11.55 19.8229 11.5096 18.9678 11.444C16.9656 11.2833 14.9808 10.9517 13.0352 10.4527H13.0125L10.1823 11.381L10.2328 11.2246C10.3969 10.8553 10.6192 10.5146 10.8911 10.2156L10.9971 10.0946L10.8382 10.0719C10.3355 10.0198 9.82982 10.0021 9.32473 10.0189C8.55036 10.0189 7.58429 10.0189 7.2589 9.78179L7.13025 9.68342L9.65264 8.8813H9.6703L14.2812 9.49928L20.6628 9.36559L24.3632 9.57495L26.3105 9.60774L29.5215 9.02255L31.6655 9.05786L33.3605 8.43231L33.3101 8.2507C32.3515 8.41173 31.3681 8.33729 30.4447 8.03377C29.6797 7.76361 28.9634 7.37181 28.3233 6.87348L28.1291 6.71961L30.8558 6.75493L30.2984 6.57584C29.2894 6.25297 27.5944 5.68544 27.3699 5.54418L27.3472 5.52148L26.3382 4.14174L28.0282 4.60081L31.0071 4.22498L29.2415 3.3043H29.5744C30.4689 3.30373 31.3603 3.19876 32.2305 2.99153L32.9746 2.78974C33.7195 2.56538 34.4777 2.38763 35.2447 2.25752L37.0836 2.40129C37.7268 2.34832 38.3044 2.65353 38.4229 3.09495C38.4669 3.29943 38.4346 3.51293 38.3321 3.69527L38.3145 3.73059L38.6828 4.69666L38.6575 4.73197C38.5939 4.81281 38.549 4.90685 38.5264 5.00722C38.5037 5.10759 38.5037 5.21176 38.5264 5.31212C38.5503 5.39447 38.5926 5.47034 38.65 5.53409L39.4344 6.52791L39.3915 6.59854C39.3259 6.67066 39.2362 6.71639 39.1393 6.72718C39.0359 6.74988 38.9274 6.77258 38.8871 6.87348C38.8467 6.97437 38.8871 7.09797 39.0132 7.25688L39.0283 7.27454V7.29724C39.0488 7.41545 39.0264 7.53707 38.9653 7.64028C38.9323 7.70083 38.9068 7.76522 38.8896 7.83198C38.8643 7.91959 38.8541 8.01085 38.8593 8.10188V8.11701C38.8807 8.24307 38.8807 8.37183 38.8593 8.49789C38.8423 8.60485 38.8091 8.7086 38.7609 8.80562L38.7408 8.84598L36.7229 9.09822L35.4692 11.3154L36.5312 15.8557L35.7744 16.7108L34.4376 17.0841L31.1585 22.1162L36.5488 22.1289L40.9428 22.7468L42.3907 24.0711L41.6718 26.5304L41.644 26.5481L35.6282 30.0491L30.0638 33.0306L27.4859 35.2352L26.5476 36.4106L26.0431 35.7472L26.1162 34.0093L26.1465 33.9841C26.761 33.4977 27.2469 32.8681 27.5616 32.1503C27.7716 31.6647 27.8978 31.147 27.9349 30.6192V30.5662L28.9438 29.8095L30.4951 30.4754L34.7504 26.8861L27.6322 27.5394L25.2536 30.2762L19.0737 34.9552L17.7621 35.3991L9.41301 41.2813V41.3091C9.0523 42.3288 8.5587 43.2965 7.94499 44.1871L7.87436 44.2804C7.58156 44.6379 7.3544 45.0444 7.2034 45.4811C7.0807 45.8563 7.02103 46.2492 7.02684 46.6439L7.02936 46.7448ZM5.57142 46.1848L6.86288 46.5279C6.86829 46.1516 6.93037 45.7783 7.04702 45.4206C7.20156 44.9618 7.43738 44.5346 7.7432 44.1594L7.8113 44.0686C8.41176 43.194 8.89433 42.2441 9.24653 41.2435L9.27428 41.1628L9.34239 41.1148L17.6915 35.2377L19.0006 34.7912L25.1502 30.1399L27.554 27.3653L35.275 26.6515L30.5355 30.652L28.9766 29.9836L28.0988 30.6444C28.0571 31.1774 27.9276 31.6999 27.7154 32.1906C27.395 32.9226 26.9027 33.5664 26.2802 34.0673L26.2121 35.669L26.5526 36.1155L27.3699 35.0939L29.9957 32.854L35.5449 29.8776L41.523 26.4144L42.1914 24.1165L40.8621 22.8982L36.5261 22.2979L30.8381 22.2852L34.3367 16.9454L35.6887 16.567L36.347 15.8103L35.2876 11.2877L36.6068 8.93174L38.6247 8.6795C38.6553 8.60838 38.6773 8.53387 38.6903 8.45754C38.708 8.3481 38.708 8.23654 38.6903 8.1271V8.11701C38.684 8.00568 38.696 7.89407 38.7256 7.78658C38.7454 7.7099 38.7751 7.63612 38.8139 7.56714C38.8327 7.53202 38.8471 7.49475 38.8568 7.45615C38.8632 7.41943 38.8632 7.38189 38.8568 7.34516C38.7865 7.27603 38.7367 7.18871 38.7131 7.09295C38.6895 6.99719 38.693 6.89675 38.7231 6.80285C38.7609 6.73536 38.8147 6.6782 38.8798 6.63641C38.9449 6.59463 39.0193 6.56949 39.0964 6.56322C39.1392 6.55412 39.1813 6.54232 39.2225 6.52791L38.5238 5.64003C38.4523 5.55895 38.399 5.46348 38.3675 5.36005C38.3381 5.24303 38.3347 5.12102 38.3573 5.00253C38.38 4.88404 38.4282 4.77191 38.4986 4.67396L38.1354 3.7205L38.1858 3.6196C38.2699 3.47394 38.2977 3.30258 38.264 3.13783C38.1657 2.76703 37.6662 2.52236 37.0987 2.56777H37.0735L35.2498 2.42651C34.4997 2.55393 33.7583 2.72832 33.0301 2.94865L32.2734 3.15296C31.4976 3.34269 30.7033 3.44673 29.9049 3.46321L31.5621 4.32587L28.0181 4.77485L26.7569 4.42929L27.4783 5.41302C27.7028 5.53914 29.128 6.02848 30.3538 6.42197L31.9757 6.94158L28.6361 6.8987C29.2059 7.31692 29.8351 7.64764 30.5027 7.87991C31.4246 8.18377 32.4079 8.25227 33.363 8.07918L33.4387 8.06657L33.5674 8.5433L31.6857 9.22434L29.529 9.18903L26.2827 9.77422L24.3506 9.74395L20.6528 9.53207L14.2711 9.66828H14.2509L9.66273 9.05282L7.51618 9.73134C7.91219 9.85998 8.70422 9.85494 9.30707 9.85241C9.8223 9.83494 10.3381 9.85348 10.8508 9.90791L11.3149 9.97349L11.0097 10.3266C10.7963 10.5668 10.6102 10.8299 10.4548 11.1111L12.9948 10.2762L13.0679 10.2938C15.0035 10.7905 16.9783 11.1196 18.9703 11.2776C19.8204 11.3457 20.683 11.381 21.5356 11.386H21.5961L24.1185 12.0494L28.8101 12.4051L26.9461 19.8814L23.6872 22.5451L22.6404 25.587L17.5452 32.3975L14.7706 33.24L7.73058 40.3329L6.62326 40.4515L6.01284 40.7693C6.10446 41.6443 6.06792 42.5281 5.90437 43.3926C5.79217 43.9793 5.62321 44.5537 5.3999 45.1078L5.57142 46.1848Z" fill="white"/>
<path d="M61.7022 25.3802V28.4525H60.9959V25.9604H59.6086V28.4525H58.9023V25.3802H61.7022Z" fill="#29295B"/>
<path d="M63.0696 28.2961C62.8206 28.1656 62.6121 27.9693 62.4668 27.7286C62.3247 27.4805 62.25 27.1997 62.25 26.9138C62.25 26.628 62.3247 26.3472 62.4668 26.0991C62.6121 25.8584 62.8206 25.6621 63.0696 25.5316C63.3364 25.3956 63.6316 25.3247 63.931 25.3247C64.2304 25.3247 64.5256 25.3956 64.7924 25.5316C65.0455 25.6643 65.2575 25.8637 65.4054 26.1082C65.5533 26.3528 65.6315 26.6331 65.6315 26.9189C65.6315 27.2047 65.5533 27.485 65.4054 27.7296C65.2575 27.9741 65.0455 28.1735 64.7924 28.3062C64.5256 28.4422 64.2304 28.5131 63.931 28.5131C63.6316 28.5131 63.3364 28.4422 63.0696 28.3062V28.2961ZM64.4241 27.7715C64.5686 27.6896 64.6874 27.569 64.7672 27.4234C64.8483 27.2676 64.8907 27.0945 64.8907 26.9189C64.8907 26.7433 64.8483 26.5702 64.7672 26.4144C64.6874 26.2687 64.5686 26.1482 64.4241 26.0663C64.2734 25.9835 64.1042 25.9401 63.9323 25.9401C63.7603 25.9401 63.5911 25.9835 63.4404 26.0663C63.2951 26.148 63.1755 26.2686 63.0948 26.4144C63.0153 26.5707 62.9739 26.7436 62.9739 26.9189C62.9739 27.0942 63.0153 27.2671 63.0948 27.4234C63.1755 27.5692 63.2951 27.6897 63.4404 27.7715C63.5911 27.8543 63.7603 27.8977 63.9323 27.8977C64.1042 27.8977 64.2734 27.8543 64.4241 27.7715Z" fill="#29295B"/>
<path d="M70.1436 25.3802V28.4525H69.4399V25.9604H68.3881L68.3654 26.6011C68.3587 26.9565 68.3233 27.3108 68.2594 27.6605C68.2229 27.8888 68.1273 28.1036 67.982 28.2835C67.9118 28.3571 67.8265 28.4145 67.7321 28.452C67.6376 28.4894 67.5361 28.5059 67.4346 28.5004C67.3163 28.498 67.1986 28.4819 67.084 28.4525L67.1269 27.8522C67.1688 27.8636 67.2121 27.8695 67.2555 27.8698C67.4237 27.8698 67.5422 27.7689 67.6112 27.5672C67.6929 27.2601 67.7353 26.944 67.7373 26.6263L67.7827 25.3802H70.1436Z" fill="#29295B"/>
<path d="M73.2888 27.8824V28.4525H70.9102V25.3802H73.2333V25.9503H71.6164V26.6187H73.0542V27.1711H71.6164V27.8824H73.2888Z" fill="#29295B"/>
<path d="M76.2102 25.9604H75.2265V28.4525H74.5252V25.9604H73.5566V25.3802H76.2203L76.2102 25.9604Z" fill="#29295B"/>
<path d="M79.4757 25.3802V28.4525H78.7669V27.1913H77.3695V28.4525H76.6582V25.3802H77.3695V26.591H78.7669V25.3802H79.4757Z" fill="#29295B"/>
<path d="M80.2461 25.3802H80.9524V27.3805L82.4179 25.3802H83.0863V28.4525H82.3876V26.4548L80.9221 28.4525H80.2511L80.2461 25.3802Z" fill="#29295B"/>
<path d="M86.6442 28.4525V26.6137L85.7386 28.1271H85.4132L84.5102 26.649V28.4525H83.8418V25.3802H84.432L85.5797 27.2897L86.7123 25.3802H87.3V28.4525H86.6442Z" fill="#29295B"/>
<path d="M91.8761 27.1232C91.9773 27.2563 92.0298 27.4201 92.0249 27.5873C92.0302 27.7107 92.0046 27.8335 91.9504 27.9445C91.8962 28.0555 91.8152 28.1512 91.7146 28.2229C91.4524 28.3917 91.143 28.4722 90.8318 28.4525H89.3184V25.3802H90.7485C91.0414 25.3627 91.3327 25.4348 91.5835 25.587C91.6796 25.651 91.7575 25.7387 91.8097 25.8417C91.8619 25.9447 91.8865 26.0594 91.8811 26.1748C91.8837 26.3167 91.8442 26.4563 91.7676 26.5758C91.688 26.6951 91.5772 26.7902 91.4473 26.8508C91.6149 26.8951 91.7647 26.9903 91.8761 27.1232ZM90.0221 26.654H90.6855C90.8099 26.6629 90.9336 26.6291 91.0361 26.5582C91.0765 26.5246 91.1083 26.482 91.1289 26.4338C91.1495 26.3855 91.1583 26.333 91.1547 26.2807C91.1576 26.2282 91.1482 26.1757 91.1272 26.1275C91.1062 26.0793 91.0741 26.0368 91.0336 26.0032C90.9315 25.9334 90.809 25.8996 90.6855 25.9074H90.0221V26.654ZM91.3035 27.5318C91.3035 27.2796 91.137 27.1484 90.799 27.1484H90.0171V27.9253H90.799C91.1353 27.9253 91.3035 27.7967 91.3035 27.5394V27.5318Z" fill="#29295B"/>
<path d="M92.5859 25.3802H93.2922V27.3805L94.7577 25.3802H95.4236V28.4525H94.7224V26.4548L93.2569 28.4525H92.5859V25.3802Z" fill="#29295B"/>
<path d="M99.3344 27.8724V29.0882H98.6761V28.4525H96.5119V29.0882H95.8535V27.8724H95.9746C96.1612 27.8724 96.2899 27.7336 96.3656 27.4688C96.4559 27.0996 96.5033 26.7213 96.5068 26.3413L96.5421 25.3802H98.9031V27.8724H99.3344ZM97.0441 27.3275C97.0187 27.5241 96.945 27.7112 96.8297 27.8724H98.2044V25.9604H97.15V26.4069C97.1372 26.7159 97.1017 27.0236 97.0441 27.3275Z" fill="#29295B"/>
<path d="M101.921 27.7916H100.496L100.223 28.4499H99.4941L100.864 25.3777H101.557L102.932 28.4499H102.175L101.921 27.7916ZM101.699 27.2518L101.209 26.0764L100.723 27.2518H101.699Z" fill="#29295B"/>
<path d="M106.142 28.4525V26.6137L105.239 28.1271H104.924L104.019 26.649V28.4525H103.348V25.3802H103.935L105.088 27.2871L106.221 25.3777H106.808V28.4499L106.142 28.4525Z" fill="#29295B"/>
<path d="M109.418 28.2961C109.171 28.1647 108.965 27.9685 108.82 27.7286C108.709 27.5463 108.636 27.3432 108.606 27.1318C108.575 26.9203 108.589 26.7048 108.645 26.4987C108.701 26.2925 108.798 26.0999 108.931 25.9328C109.064 25.7656 109.23 25.6274 109.418 25.5265C109.681 25.3878 109.974 25.3176 110.271 25.3222C110.519 25.3191 110.766 25.3671 110.995 25.4635C111.204 25.5531 111.389 25.6914 111.535 25.867L111.078 26.2883C110.985 26.1739 110.867 26.082 110.733 26.0195C110.6 25.9571 110.454 25.9256 110.306 25.9276C110.13 25.9262 109.956 25.9696 109.802 26.0537C109.655 26.1346 109.535 26.2553 109.454 26.4018C109.372 26.5576 109.33 26.7306 109.33 26.9063C109.33 27.0819 109.372 27.255 109.454 27.4107C109.535 27.5573 109.655 27.6779 109.802 27.7588C109.956 27.8429 110.13 27.8863 110.306 27.885C110.454 27.887 110.601 27.8552 110.735 27.7918C110.868 27.7284 110.986 27.6351 111.078 27.5192L111.535 27.9404C111.389 28.1184 111.203 28.2585 110.992 28.3491C110.763 28.4452 110.517 28.4932 110.268 28.4903C109.973 28.4977 109.681 28.4309 109.418 28.2961Z" fill="#29295B"/>
<path d="M114.8 25.3802V28.4525H114.094V25.9604H112.706V28.4525H112V25.3802H114.8Z" fill="#29295B"/>
<path d="M116.167 28.2961C115.918 28.1656 115.71 27.9693 115.564 27.7286C115.422 27.4805 115.348 27.1997 115.348 26.9138C115.348 26.628 115.422 26.3472 115.564 26.0991C115.71 25.8584 115.918 25.6621 116.167 25.5316C116.434 25.3956 116.729 25.3247 117.029 25.3247C117.328 25.3247 117.623 25.3956 117.89 25.5316C118.143 25.6643 118.355 25.8637 118.503 26.1082C118.651 26.3528 118.729 26.6331 118.729 26.9189C118.729 27.2047 118.651 27.485 118.503 27.7296C118.355 27.9741 118.143 28.1735 117.89 28.3062C117.623 28.4422 117.328 28.5131 117.029 28.5131C116.729 28.5131 116.434 28.4422 116.167 28.3062V28.2961ZM117.522 27.7715C117.666 27.6896 117.785 27.569 117.865 27.4234C117.946 27.2676 117.988 27.0945 117.988 26.9189C117.988 26.7433 117.946 26.5702 117.865 26.4144C117.785 26.2687 117.666 26.1482 117.522 26.0663C117.371 25.9835 117.202 25.9401 117.03 25.9401C116.858 25.9401 116.689 25.9835 116.538 26.0663C116.393 26.148 116.273 26.2686 116.192 26.4144C116.113 26.5707 116.072 26.7436 116.072 26.9189C116.072 27.0942 116.113 27.2671 116.192 27.4234C116.273 27.5692 116.393 27.6897 116.538 27.7715C116.689 27.8543 116.858 27.8977 117.03 27.8977C117.202 27.8977 117.371 27.8543 117.522 27.7715Z" fill="#29295B"/>
<path d="M121.3 25.5215C121.491 25.6018 121.653 25.7385 121.765 25.9133C121.877 26.0881 121.933 26.2928 121.925 26.5002C121.929 26.7087 121.872 26.9139 121.761 27.0904C121.65 27.2623 121.489 27.3967 121.3 27.4763C121.075 27.5696 120.834 27.6151 120.591 27.61H119.971V28.4575H119.262V25.3802H120.591C120.835 25.3762 121.076 25.4244 121.3 25.5215ZM121.048 26.8937C121.1 26.842 121.142 26.7804 121.171 26.7124C121.199 26.6444 121.214 26.5714 121.214 26.4977C121.214 26.4239 121.199 26.3509 121.171 26.2829C121.142 26.2149 121.1 26.1533 121.048 26.1016C120.906 26.0018 120.734 25.9537 120.561 25.9654H119.971V27.0349H120.551C120.725 27.0437 120.897 26.9921 121.037 26.8886L121.048 26.8937Z" fill="#29295B"/>
<path d="M124.658 25.9604H123.674V28.4525H122.973V25.9604H121.986V25.3802H124.65L124.658 25.9604Z" fill="#29295B"/>
<path d="M127.032 27.7916H125.607L125.334 28.4499H124.605L125.975 25.3777H126.676L128.041 28.4525H127.284L127.032 27.7916ZM126.808 27.2518L126.321 26.0764L125.834 27.2518H126.808Z" fill="#29295B"/>
<path d="M130.311 28.2961C130.064 28.1647 129.857 27.9685 129.713 27.7285C129.601 27.5461 129.527 27.3426 129.497 27.1306C129.466 26.9186 129.479 26.7025 129.535 26.4957C129.591 26.2889 129.689 26.0958 129.822 25.9282C129.956 25.7607 130.122 25.6222 130.311 25.5215C130.574 25.3828 130.867 25.3125 131.164 25.3171C131.412 25.314 131.659 25.3621 131.888 25.4584C132.098 25.5479 132.284 25.6863 132.43 25.862L131.974 26.2832C131.88 26.169 131.761 26.0773 131.627 26.0149C131.493 25.9525 131.347 25.9209 131.199 25.9225C131.023 25.9198 130.849 25.9632 130.695 26.0486C130.547 26.1287 130.425 26.2495 130.344 26.3967C130.265 26.553 130.223 26.7259 130.223 26.9012C130.223 27.0765 130.265 27.2494 130.344 27.4057C130.425 27.5529 130.547 27.6737 130.695 27.7538C130.849 27.8392 131.023 27.8826 131.199 27.8799C131.347 27.8816 131.494 27.8496 131.628 27.7862C131.763 27.7228 131.881 27.6298 131.974 27.5141L132.43 27.9354C132.284 28.1139 132.097 28.2542 131.885 28.344C131.656 28.4401 131.41 28.4882 131.161 28.4853C130.867 28.4942 130.574 28.4291 130.311 28.2961Z" fill="#29295B"/>
<path d="M134.925 25.5215C135.117 25.6003 135.28 25.7366 135.392 25.9118C135.504 26.087 135.559 26.2925 135.55 26.5002C135.555 26.7085 135.499 26.9136 135.389 27.0904C135.277 27.2634 135.115 27.3981 134.925 27.4763C134.7 27.5698 134.459 27.6154 134.216 27.61H133.59V28.4575H132.879V25.3802H134.208C134.454 25.3749 134.699 25.4231 134.925 25.5215ZM134.672 26.8937C134.725 26.842 134.767 26.7804 134.795 26.7124C134.824 26.6444 134.839 26.5714 134.839 26.4976C134.839 26.4239 134.824 26.3509 134.795 26.2829C134.767 26.2149 134.725 26.1533 134.672 26.1016C134.53 26.0018 134.359 25.9537 134.185 25.9654H133.59V27.0349H134.17C134.347 27.0455 134.522 26.9937 134.665 26.8886L134.672 26.8937Z" fill="#29295B"/>
<path d="M138.398 27.8824V28.4525H136.02V25.3802H138.343V25.9503H136.726V26.6187H138.153V27.1711H136.726V27.8824H138.398Z" fill="#29295B"/>
<path d="M142.142 27.8724V29.0882H141.483V28.4525H139.317V29.0882H138.658V27.8724H138.779C138.966 27.8724 139.095 27.7336 139.17 27.4688C139.261 27.0996 139.308 26.7213 139.311 26.3413L139.347 25.3802H141.708V27.8724H142.142ZM139.851 27.3275C139.826 27.5241 139.752 27.7112 139.637 27.8724H141.012V25.9604H139.957V26.4069C139.944 26.7159 139.909 27.0236 139.851 27.3275Z" fill="#29295B"/>
<path d="M142.621 25.3802H143.327V27.3805L144.793 25.3802H145.461V28.4525H144.758V26.4548L143.292 28.4525H142.621V25.3802Z" fill="#29295B"/>
<path d="M59.5062 33.5679C59.2591 33.4365 59.0524 33.2403 58.9084 33.0004C58.7969 32.8181 58.7238 32.615 58.6935 32.4036C58.6633 32.1921 58.6766 31.9766 58.7325 31.7705C58.7885 31.5643 58.886 31.3717 59.019 31.2045C59.1521 31.0374 59.3178 30.8991 59.5062 30.7983C59.7687 30.6596 60.0619 30.5893 60.3587 30.594C60.6072 30.5909 60.8536 30.6389 61.0827 30.7353C61.2929 30.8248 61.4789 30.9631 61.625 31.1388L61.1684 31.5601C61.0745 31.4459 60.9562 31.3542 60.8222 31.2918C60.6882 31.2294 60.5419 31.1978 60.3941 31.1994C60.2178 31.1966 60.0438 31.2401 59.8896 31.3255C59.7418 31.4056 59.6201 31.5264 59.539 31.6736C59.4595 31.8299 59.418 32.0027 59.418 32.1781C59.418 32.3534 59.4595 32.5263 59.539 32.6825C59.6201 32.8297 59.7418 32.9506 59.8896 33.0306C60.0438 33.116 60.2178 33.1595 60.3941 33.1567C60.5423 33.1579 60.6889 33.1256 60.823 33.0623C60.9571 32.999 61.0752 32.9063 61.1684 32.791L61.625 33.2122C61.4793 33.3908 61.2923 33.531 61.0801 33.6209C60.851 33.717 60.6047 33.765 60.3562 33.7621C60.0611 33.7695 59.7688 33.7027 59.5062 33.5679Z" fill="#29295B"/>
<path d="M62.0898 30.647H62.7961V32.6472L64.2616 30.647H64.9301V33.7192H64.2263V31.7215L62.7608 33.7192H62.0898V30.647Z" fill="#29295B"/>
<path d="M68.4067 30.647V33.7192H67.7055V31.2271H66.6537L66.631 31.8678C66.624 32.2232 66.5886 32.5775 66.525 32.9272C66.4881 33.1554 66.3925 33.3701 66.2476 33.5502C66.1774 33.6238 66.0922 33.6812 65.9977 33.7187C65.9032 33.7561 65.8017 33.7727 65.7002 33.7672C65.5819 33.7647 65.4642 33.7487 65.3496 33.7192L65.3925 33.1164C65.4341 33.1291 65.4776 33.1351 65.5211 33.134C65.6059 33.1326 65.6876 33.1019 65.7524 33.0473C65.8172 32.9926 65.8611 32.9172 65.8768 32.8339C65.9583 32.5268 66.0007 32.2107 66.0029 31.893L66.0458 30.647H68.4067Z" fill="#29295B"/>
<path d="M71.5403 31.9056C71.6434 31.9984 71.7239 32.1133 71.7759 32.2418C71.8279 32.3703 71.85 32.5089 71.8405 32.6472C71.8502 32.7968 71.8253 32.9465 71.7675 33.0848C71.7097 33.2231 71.6208 33.3461 71.5075 33.4443C71.2397 33.6434 70.9098 33.7408 70.5768 33.7192H69.1895V30.647H69.8957V31.6559H70.6777C70.9855 31.6359 71.2907 31.7243 71.5403 31.9056ZM70.9677 33.0558C71.022 33.0059 71.0642 32.9443 71.0913 32.8757C71.1183 32.8072 71.1296 32.7334 71.1241 32.6598C71.1241 32.342 70.9299 32.1831 70.5364 32.1831H69.8957V33.1921H70.5314C70.6844 33.1994 70.835 33.151 70.9551 33.0558H70.9677Z" fill="#29295B"/>
<path d="M75.1587 30.647V33.7192H74.4499V32.458H73.0551V33.7192H72.3438V30.647H73.0551V31.8577H74.4525V30.647H75.1587Z" fill="#29295B"/>
<path d="M78.3044 33.1492V33.7192H75.9258V30.647H78.2464V31.217H76.632V31.8855H78.0572V32.4379H76.632V33.1492H78.3044Z" fill="#29295B"/>
<path d="M78.8809 30.647H79.5871V32.6472L81.0526 30.647H81.7211V33.7193H81.0173V31.7215L79.5518 33.7193H78.8809V30.647ZM79.4459 29.7768H79.9327C79.9327 29.9912 80.0613 30.0971 80.2984 30.0971C80.3945 30.1045 80.4899 30.0757 80.5658 30.0164C80.5979 29.9856 80.6231 29.9482 80.6396 29.9069C80.6561 29.8656 80.6637 29.8212 80.6617 29.7768H81.1485C81.1538 29.8717 81.1372 29.9665 81.1 30.054C81.0628 30.1414 81.0061 30.2192 80.9341 30.2812C80.7473 30.4079 80.5235 30.4683 80.2984 30.4528C79.7359 30.4502 79.4534 30.2257 79.4459 29.7768Z" fill="#29295B"/>
<path d="M86.5384 30.647V33.7192H82.4824V30.647H83.1887V33.1391H84.1522V30.647H84.8585V33.1391H85.8246V30.647H86.5384Z" fill="#29295B"/>
<path d="M87.3027 30.647H88.009V32.6472L89.4745 30.647H90.1404V33.7192H89.4493V31.7215L87.9838 33.7192H87.3128L87.3027 30.647Z" fill="#29295B"/>
<path d="M91.4666 30.647L92.1047 31.5777L92.7404 30.647H93.5753L92.5512 32.1175L93.6585 33.7192H92.8186L92.1047 32.7103L91.3985 33.7192H90.5762L91.6734 32.1478L90.6468 30.647H91.4666Z" fill="#29295B"/>
<path d="M95.9202 33.5679C95.6731 33.4365 95.4665 33.2403 95.3224 33.0004C95.2109 32.8181 95.1378 32.615 95.1076 32.4036C95.0774 32.1921 95.0906 31.9766 95.1466 31.7705C95.2026 31.5643 95.3001 31.3717 95.4331 31.2045C95.5661 31.0374 95.7319 30.8991 95.9202 30.7983C96.1827 30.6596 96.476 30.5893 96.7728 30.594C97.0213 30.5909 97.2677 30.6389 97.4967 30.7353C97.7063 30.8249 97.8913 30.9632 98.0365 31.1388L97.5825 31.5601C97.4886 31.4459 97.3703 31.3542 97.2363 31.2918C97.1023 31.2294 96.956 31.1978 96.8081 31.1994C96.632 31.198 96.4584 31.2414 96.3036 31.3255C96.1571 31.4064 96.0365 31.5271 95.9556 31.6736C95.876 31.8299 95.8346 32.0027 95.8346 32.1781C95.8346 32.3534 95.876 32.5263 95.9556 32.6825C96.0365 32.8291 96.1571 32.9497 96.3036 33.0306C96.4584 33.1147 96.632 33.1581 96.8081 33.1567C96.9564 33.1579 97.103 33.1256 97.2371 33.0623C97.3712 32.999 97.4892 32.9063 97.5825 32.791L98.0365 33.2122C97.8919 33.3907 97.7057 33.531 97.4942 33.6209C97.2651 33.717 97.0187 33.765 96.7703 33.7621C96.4752 33.7695 96.1829 33.7027 95.9202 33.5679Z" fill="#29295B"/>
<path d="M101.306 30.647V33.7192H100.599V31.2271H99.2121V33.7192H98.5059V30.647H101.306Z" fill="#29295B"/>
<path d="M102.668 33.5654C102.482 33.4626 102.319 33.3237 102.187 33.1568C102.056 32.9899 101.96 32.7984 101.904 32.5936C101.848 32.3888 101.834 32.1749 101.862 31.9644C101.89 31.754 101.96 31.5513 102.067 31.3684C102.21 31.1266 102.418 30.9299 102.668 30.8008C102.935 30.6649 103.23 30.594 103.529 30.594C103.829 30.594 104.124 30.6649 104.391 30.8008C104.641 30.9331 104.851 31.1322 104.996 31.3762C105.14 31.6202 105.215 31.8995 105.21 32.1831C105.214 32.4698 105.138 32.7519 104.991 32.9978C104.845 33.2373 104.638 33.4333 104.391 33.5654C104.124 33.7014 103.829 33.7722 103.529 33.7722C103.23 33.7722 102.935 33.7014 102.668 33.5654ZM104.022 33.0407C104.167 32.9588 104.286 32.8383 104.365 32.6926C104.446 32.5368 104.489 32.3638 104.489 32.1881C104.489 32.0125 104.446 31.8394 104.365 31.6837C104.286 31.538 104.167 31.4174 104.022 31.3356C103.872 31.2528 103.702 31.2094 103.53 31.2094C103.358 31.2094 103.189 31.2528 103.039 31.3356C102.893 31.4173 102.774 31.5378 102.693 31.6837C102.613 31.8399 102.572 32.0128 102.572 32.1881C102.572 32.3635 102.613 32.5363 102.693 32.6926C102.774 32.8385 102.893 32.959 103.039 33.0407C103.189 33.1235 103.358 33.1669 103.53 33.1669C103.702 33.1669 103.872 33.1235 104.022 33.0407Z" fill="#29295B"/>
<path d="M107.8 30.7832C107.988 30.8637 108.149 30.998 108.261 31.1691C108.369 31.3478 108.425 31.5522 108.425 31.7606C108.425 31.969 108.369 32.1734 108.261 32.3521C108.15 32.5247 107.989 32.6593 107.8 32.738C107.575 32.8313 107.334 32.8768 107.091 32.8717H106.473V33.7192H105.762V30.647H107.091C107.334 30.6414 107.576 30.6878 107.8 30.7832ZM107.548 32.1554C107.6 32.1037 107.642 32.0421 107.671 31.9741C107.699 31.9061 107.714 31.8331 107.714 31.7593C107.714 31.6856 107.699 31.6126 107.671 31.5446C107.642 31.4766 107.6 31.415 107.548 31.3633C107.406 31.2635 107.234 31.2154 107.061 31.2271H106.483V32.2916H107.061C107.23 32.301 107.398 32.253 107.537 32.1554H107.548Z" fill="#29295B"/>
<path d="M111.16 31.2271H110.176V33.7192H109.475V31.2271H108.496V30.647H111.16V31.2271Z" fill="#29295B"/>
<path d="M112.166 33.5679C111.919 33.4365 111.713 33.2403 111.569 33.0004C111.457 32.8181 111.384 32.615 111.354 32.4036C111.323 32.1921 111.337 31.9766 111.393 31.7705C111.449 31.5643 111.546 31.3717 111.679 31.2045C111.812 31.0374 111.978 30.8991 112.166 30.7983C112.429 30.6596 112.722 30.5893 113.019 30.594C113.267 30.5909 113.514 30.6389 113.743 30.7353C113.953 30.8248 114.139 30.9631 114.285 31.1388L113.829 31.5601C113.735 31.4459 113.616 31.3542 113.482 31.2918C113.348 31.2294 113.202 31.1978 113.054 31.1994C112.878 31.1966 112.704 31.2401 112.55 31.3255C112.402 31.4056 112.28 31.5264 112.199 31.6736C112.12 31.8299 112.078 32.0027 112.078 32.1781C112.078 32.3534 112.12 32.5263 112.199 32.6825C112.28 32.8297 112.402 32.9506 112.55 33.0306C112.704 33.116 112.878 33.1595 113.054 33.1567C113.202 33.1579 113.349 33.1256 113.483 33.0623C113.617 32.999 113.735 32.9063 113.829 32.791L114.285 33.2122C114.14 33.3908 113.952 33.531 113.74 33.6209C113.511 33.717 113.265 33.765 113.016 33.7621C112.721 33.7695 112.429 33.7027 112.166 33.5679Z" fill="#29295B"/>
<path d="M117.543 33.7192V31.8804L116.637 33.3938H116.322L115.429 31.9157V33.7192H114.748V30.647H115.336L116.486 32.5564L117.619 30.647H118.204V33.7192H117.543Z" fill="#29295B"/>
<path d="M121.355 33.1492V33.7192H118.977V30.647H121.297V31.217H119.683V31.8855H121.108V32.4379H119.683V33.1492H121.355Z" fill="#29295B"/>
<path d="M124.747 30.647V33.7192H124.036V32.458H122.638V33.7192H121.93V30.647H122.638V31.8577H124.036V30.647H124.747Z" fill="#29295B"/>
<path d="M126.118 33.5654C125.933 33.4619 125.77 33.3225 125.64 33.1556C125.509 32.9886 125.413 32.7972 125.357 32.5927C125.301 32.3882 125.287 32.1746 125.314 31.9644C125.342 31.7542 125.411 31.5516 125.518 31.3684C125.661 31.1272 125.869 30.9307 126.118 30.8008C126.384 30.6605 126.68 30.5894 126.981 30.594C127.28 30.5888 127.576 30.66 127.841 30.8008C128.026 30.9038 128.189 31.0429 128.32 31.2097C128.451 31.3766 128.548 31.568 128.604 31.7726C128.66 31.9772 128.675 32.191 128.647 32.4014C128.62 32.6118 128.551 32.8145 128.444 32.9978C128.296 33.2369 128.088 33.4327 127.841 33.5654C127.576 33.7051 127.28 33.7763 126.981 33.7722C126.68 33.7756 126.384 33.7046 126.118 33.5654ZM127.473 33.0407C127.617 32.9583 127.737 32.8379 127.818 32.6926C127.898 32.5363 127.939 32.3635 127.939 32.1881C127.939 32.0128 127.898 31.8399 127.818 31.6837C127.737 31.5384 127.617 31.418 127.473 31.3356C127.322 31.2528 127.153 31.2094 126.981 31.2094C126.809 31.2094 126.64 31.2528 126.489 31.3356C126.344 31.4174 126.226 31.538 126.146 31.6837C126.065 31.8394 126.022 32.0125 126.022 32.1881C126.022 32.3638 126.065 32.5368 126.146 32.6926C126.226 32.8383 126.344 32.9588 126.489 33.0407C126.64 33.1235 126.809 33.1669 126.981 33.1669C127.153 33.1669 127.322 33.1235 127.473 33.0407Z" fill="#29295B"/>
<path d="M131.767 32.3899C131.87 32.5222 131.923 32.6864 131.918 32.854C131.923 32.9775 131.898 33.1002 131.844 33.2112C131.789 33.3222 131.708 33.418 131.608 33.4897C131.345 33.6589 131.034 33.7393 130.722 33.7192H129.209V30.647H130.639C130.932 30.6294 131.223 30.7016 131.474 30.8538C131.57 30.9177 131.648 31.0054 131.7 31.1084C131.752 31.2114 131.777 31.3262 131.772 31.4415C131.774 31.5835 131.735 31.723 131.658 31.8426C131.578 31.9613 131.467 32.0563 131.338 32.1175C131.506 32.1608 131.656 32.2561 131.767 32.3899ZM129.915 31.9182H130.579C130.703 31.9273 130.826 31.8944 130.929 31.8249C130.969 31.791 131.001 31.7483 131.021 31.7001C131.042 31.652 131.051 31.5997 131.048 31.5475C131.051 31.4949 131.042 31.4424 131.021 31.3942C131 31.3459 130.967 31.3034 130.927 31.27C130.825 31.199 130.702 31.1652 130.579 31.1741H129.915V31.9182ZM131.197 32.796C131.197 32.5438 131.03 32.4151 130.692 32.4151H129.91V33.192H130.692C131.03 33.192 131.197 33.0609 131.197 32.796Z" fill="#29295B"/>
<path d="M62.8713 9.35047C63.0417 9.55244 63.1316 9.81025 63.1236 10.0744C63.1313 10.269 63.0891 10.4623 63.0007 10.6359C62.9124 10.8095 62.781 10.9575 62.6191 11.0657C62.173 11.3268 61.6594 11.4496 61.1435 11.4188H58.6211V6.6263H61.0073C61.4924 6.59823 61.9755 6.70937 62.3996 6.94664C62.558 7.04009 62.6884 7.17436 62.7771 7.33543C62.8659 7.4965 62.9097 7.67845 62.9041 7.86227C62.9076 8.08576 62.8405 8.30467 62.7124 8.48782C62.5755 8.67579 62.3909 8.82382 62.1777 8.91662C62.4471 8.98851 62.6888 9.13965 62.8713 9.35047ZM59.7789 8.6215H60.8862C61.0921 8.63534 61.2971 8.58322 61.4714 8.47268C61.5337 8.4194 61.5837 8.35326 61.618 8.2788C61.6523 8.20434 61.6701 8.12333 61.6701 8.04136C61.6701 7.95938 61.6523 7.87837 61.618 7.80391C61.5837 7.72945 61.5337 7.66331 61.4714 7.61003C61.2982 7.49881 61.0941 7.44579 60.8887 7.45869H59.7814L59.7789 8.6215ZM61.9179 9.98612C61.9179 9.5901 61.6404 9.39335 61.0829 9.39335H59.7789V10.6016H61.0829C61.6404 10.5991 61.9179 10.3872 61.9179 9.98359V9.98612Z" fill="#29295B"/>
<path d="M65.0569 11.1842C64.6501 10.9882 64.3053 10.6835 64.0606 10.3039C63.8231 9.92102 63.6973 9.47941 63.6973 9.02884C63.6973 8.57828 63.8231 8.13667 64.0606 7.75378C64.3051 7.37341 64.6499 7.06792 65.0569 6.87094C65.4994 6.65425 65.9869 6.54535 66.4796 6.55312C66.8919 6.54691 67.3015 6.62146 67.6853 6.77257C68.0311 6.91003 68.3409 7.12488 68.5908 7.40064L67.8341 8.05646C67.672 7.87612 67.473 7.73277 67.2506 7.63615C67.0282 7.53953 66.7876 7.4919 66.5452 7.49649C66.2499 7.49099 65.9579 7.55858 65.6951 7.69324C65.4533 7.815 65.2512 8.00311 65.1124 8.23555C64.9751 8.47693 64.9029 8.74987 64.9029 9.02758C64.9029 9.30529 64.9751 9.57823 65.1124 9.81961C65.2511 10.0528 65.4531 10.2418 65.6951 10.3644C65.9585 10.4971 66.2503 10.5637 66.5452 10.5587C66.7883 10.563 67.0294 10.5145 67.252 10.4165C67.4745 10.3185 67.6731 10.1734 67.8341 9.99113L68.5908 10.647C68.3422 10.9272 68.0311 11.1449 67.6827 11.2826C67.2971 11.4333 66.886 11.5078 66.472 11.502C65.9818 11.5093 65.4969 11.4004 65.0569 11.1842Z" fill="#29295B"/>
<path d="M73.329 10.531V11.4188H69.3613V6.62631H73.2357V7.51419H70.5317V8.55341H72.9128V9.41355H70.5317V10.5209L73.329 10.531Z" fill="#29295B"/>
<path d="M77.6859 6.85584C77.9952 6.9782 78.263 7.18651 78.4578 7.45617C78.6355 7.73034 78.7301 8.0501 78.7301 8.37684C78.7301 8.70358 78.6355 9.02334 78.4578 9.29751C78.2646 9.5693 77.9964 9.77883 77.6859 9.90036C77.3091 10.0471 76.9072 10.1183 76.5029 10.1097H75.4687V11.4264H74.2832V6.63387H76.5029C76.9081 6.62792 77.3104 6.7034 77.6859 6.85584ZM77.2495 8.9923C77.3366 8.91515 77.4063 8.82039 77.4541 8.7143C77.5018 8.6082 77.5265 8.49318 77.5265 8.37684C77.5265 8.2605 77.5018 8.14548 77.4541 8.03938C77.4063 7.93329 77.3366 7.83853 77.2495 7.76138C77.0097 7.60263 76.7243 7.52728 76.4373 7.54698H75.4687V9.20671H76.4373C76.725 9.22286 77.0101 9.14495 77.2495 8.98474V8.9923Z" fill="#29295B"/>
<path d="M80.5869 11.1817C80.1758 10.9847 79.8268 10.6784 79.5779 10.2964C79.3431 9.91761 79.2188 9.48082 79.2188 9.03519C79.2188 8.58955 79.3431 8.15276 79.5779 7.77399C79.8268 7.39198 80.1758 7.0857 80.5869 6.88864C81.0359 6.67606 81.5266 6.5658 82.0234 6.5658C82.5202 6.5658 83.0108 6.67606 83.4599 6.88864C83.87 7.08721 84.2187 7.39316 84.4688 7.77399C84.7053 8.15215 84.8307 8.58917 84.8307 9.03519C84.8307 9.4812 84.7053 9.91822 84.4688 10.2964C84.2187 10.6772 83.87 10.9832 83.4599 11.1817C83.0104 11.3928 82.52 11.5022 82.0234 11.5022C81.5268 11.5022 81.0364 11.3928 80.5869 11.1817ZM82.8444 10.3645C83.0834 10.2395 83.2833 10.051 83.4221 9.81965C83.5577 9.57771 83.629 9.30499 83.629 9.02762C83.629 8.75025 83.5577 8.47752 83.4221 8.23559C83.2833 8.00496 83.0833 7.81726 82.8444 7.69328C82.5905 7.56393 82.3096 7.49651 82.0247 7.49651C81.7397 7.49651 81.4588 7.56393 81.2049 7.69328C80.9662 7.81665 80.7669 8.00455 80.6298 8.23559C80.4925 8.47697 80.4202 8.74991 80.4202 9.02762C80.4202 9.30533 80.4925 9.57827 80.6298 9.81965C80.7669 10.0514 80.9661 10.2401 81.2049 10.3645C81.4593 10.4923 81.74 10.5588 82.0247 10.5588C82.3093 10.5588 82.5901 10.4923 82.8444 10.3645Z" fill="#29295B"/>
<path d="M86.7464 11.1842C86.34 10.9874 85.9954 10.6829 85.7501 10.3039C85.5126 9.92102 85.3867 9.47941 85.3867 9.02885C85.3867 8.57828 85.5126 8.13667 85.7501 7.75378C85.9953 7.37402 86.3399 7.06869 86.7464 6.87095C87.1556 6.6796 87.5991 6.5723 88.0506 6.5554C88.502 6.53851 88.9523 6.61235 89.3747 6.77257C89.7209 6.90939 90.0308 7.12434 90.2803 7.40065L89.5235 8.05647C89.3614 7.87612 89.1624 7.73277 88.94 7.63615C88.7176 7.53953 88.477 7.4919 88.2346 7.4965C87.9394 7.49131 87.6475 7.55888 87.3846 7.69325C87.1428 7.81501 86.9407 8.00311 86.8019 8.23556C86.6646 8.47694 86.5924 8.74988 86.5924 9.02759C86.5924 9.3053 86.6646 9.57823 86.8019 9.81961C86.9405 10.0528 87.1426 10.2418 87.3846 10.3645C87.6481 10.4969 87.9397 10.5635 88.2346 10.5587C88.4777 10.563 88.7189 10.5145 88.9414 10.4165C89.164 10.3185 89.3626 10.1734 89.5235 9.99113L90.2803 10.647C90.0317 10.9272 89.7206 11.1449 89.3722 11.2826C88.9875 11.4333 88.5771 11.5078 88.164 11.502C87.673 11.5093 87.1873 11.4004 86.7464 11.1842Z" fill="#29295B"/>
<path d="M91.9456 11.1842C91.5388 10.9882 91.194 10.6835 90.9493 10.3039C90.7118 9.92102 90.5859 9.47941 90.5859 9.02884C90.5859 8.57828 90.7118 8.13667 90.9493 7.75378C91.1938 7.37341 91.5386 7.06792 91.9456 6.87094C92.3881 6.65425 92.8756 6.54535 93.3682 6.55312C93.7806 6.54691 94.1902 6.62146 94.5739 6.77257C94.9198 6.91003 95.2296 7.12488 95.4795 7.40064L94.7228 8.05646C94.5607 7.87612 94.3617 7.73277 94.1393 7.63615C93.9169 7.53953 93.6763 7.4919 93.4338 7.49649C93.1386 7.49131 92.8467 7.55888 92.5838 7.69324C92.342 7.815 92.1399 8.00311 92.0011 8.23555C91.8638 8.47693 91.7916 8.74987 91.7916 9.02758C91.7916 9.30529 91.8638 9.57823 92.0011 9.81961C92.1397 10.0528 92.3418 10.2418 92.5838 10.3644C92.8473 10.4969 93.1389 10.5635 93.4338 10.5587C93.6769 10.563 93.9181 10.5145 94.1406 10.4165C94.3632 10.3185 94.5618 10.1734 94.7228 9.99113L95.4795 10.647C95.2309 10.9272 94.9198 11.1449 94.5714 11.2826C94.1858 11.4333 93.7746 11.5078 93.3607 11.502C92.8705 11.5093 92.3856 11.4004 91.9456 11.1842Z" fill="#29295B"/>
<path d="M96.2598 6.63638H97.4377V9.75152L99.8844 6.63638H100.997V11.4289H99.8163V8.31125L97.3696 11.4188H96.2598V6.63638Z" fill="#29295B"/>
<path d="M102.254 6.63638H103.432V9.75153L105.879 6.63638H106.993V11.4289H105.821V8.31125L103.374 11.4188H102.254V6.63638ZM103.197 5.28186H104.012C104.012 5.61482 104.224 5.78634 104.62 5.78634C104.779 5.79763 104.937 5.75302 105.066 5.66022C105.119 5.61375 105.161 5.55618 105.189 5.49164C105.217 5.4271 105.23 5.35719 105.228 5.28691H106.04C106.047 5.436 106.018 5.58458 105.956 5.7202C105.893 5.85582 105.799 5.97451 105.682 6.06632C105.366 6.26755 104.993 6.36133 104.62 6.33369C103.682 6.33033 103.207 5.97972 103.197 5.28186Z" fill="#29295B"/>
<path d="M109.267 11.1842C108.856 10.9886 108.507 10.6842 108.258 10.3039C108.02 9.92102 107.895 9.47941 107.895 9.02885C107.895 8.57828 108.02 8.13667 108.258 7.75378C108.507 7.37286 108.856 7.06754 109.267 6.87094C109.71 6.65423 110.199 6.54533 110.692 6.55312C111.104 6.54736 111.514 6.6219 111.898 6.77257C112.243 6.91005 112.552 7.12493 112.801 7.40065L112.044 8.05646C111.882 7.87599 111.683 7.73255 111.461 7.63592C111.238 7.53929 110.997 7.49173 110.755 7.49649C110.46 7.49131 110.168 7.55888 109.905 7.69324C109.664 7.81636 109.462 8.00415 109.322 8.23555C109.187 8.47749 109.115 8.75021 109.115 9.02758C109.115 9.30496 109.187 9.57768 109.322 9.81961C109.462 10.0517 109.664 10.2403 109.905 10.3644C110.168 10.4969 110.46 10.5635 110.755 10.5587C110.998 10.5632 111.239 10.5147 111.462 10.4167C111.685 10.3187 111.883 10.1735 112.044 9.99113L112.801 10.647C112.552 10.9272 112.241 11.1449 111.893 11.2826C111.508 11.4333 111.098 11.5078 110.684 11.502C110.193 11.5093 109.708 11.4004 109.267 11.1842Z" fill="#29295B"/>
<path d="M115.555 9.49174H114.735V11.4188H113.555V6.62631H114.735V8.56098H115.585L116.932 6.62631H118.193L116.516 8.93682L118.244 11.4088H116.897L115.555 9.49174Z" fill="#29295B"/>
<path d="M122.156 10.3872H119.775L119.321 11.4113H118.105L120.391 6.61874H121.561L123.854 11.4113H122.61L122.156 10.3872ZM121.781 9.54723L120.978 7.72355L120.166 9.5548L121.781 9.54723Z" fill="#29295B"/>
<path d="M128.36 6.63638V11.4289H127.187V10.1677H126.105L125.197 11.4289H123.936L125.005 9.98863C124.684 9.87485 124.406 9.66641 124.206 9.39083C124.016 9.10685 123.919 8.77112 123.928 8.4298C123.92 8.09201 124.014 7.75959 124.198 7.47634C124.39 7.20137 124.657 6.98765 124.968 6.86088C125.34 6.71007 125.739 6.63711 126.14 6.64647L128.36 6.63638ZM125.404 7.75632C125.236 7.92916 125.142 8.16084 125.142 8.40205C125.142 8.64326 125.236 8.87495 125.404 9.04778C125.62 9.21414 125.889 9.29498 126.161 9.27479H127.2V7.5394H126.191C125.911 7.51714 125.633 7.59392 125.404 7.75632Z" fill="#29295B"/>
<path d="M60.6956 21.3343C60.0791 21.0368 59.5557 20.5763 59.1822 20.0025C58.8243 19.4248 58.6348 18.7587 58.6348 18.0792C58.6348 17.3997 58.8243 16.7336 59.1822 16.1559C59.5557 15.5821 60.0791 15.1216 60.6956 14.8241C61.3136 14.5357 61.983 14.3739 62.6644 14.3483C63.3459 14.3228 64.0255 14.4339 64.6633 14.6752C65.1866 14.8808 65.6547 15.2055 66.0305 15.6237L64.8803 16.615C64.6356 16.3421 64.3351 16.1251 63.999 15.9788C63.663 15.8326 63.2994 15.7605 62.933 15.7674C62.4881 15.7595 62.0482 15.8608 61.6516 16.0626C61.2869 16.2476 60.9818 16.5317 60.7713 16.8823C60.5646 17.2474 60.456 17.6597 60.456 18.0792C60.456 18.4987 60.5646 18.911 60.7713 19.2761C60.9825 19.6261 61.2875 19.91 61.6516 20.0958C62.0482 20.2976 62.4881 20.3989 62.933 20.391C63.3004 20.3985 63.6651 20.3257 64.0015 20.1775C64.3378 20.0294 64.6378 19.8095 64.8803 19.5334L66.0305 20.5247C65.6557 20.9486 65.1853 21.2772 64.6583 21.4832C64.0773 21.7097 63.4581 21.8219 62.8346 21.8136C62.0937 21.8252 61.3607 21.6609 60.6956 21.3343Z" fill="#29295B"/>
<path d="M74.2328 14.4684V21.69H72.452V15.8305H68.9585V21.69H67.1777V14.4684H74.2328Z" fill="#29295B"/>
<path d="M81.3902 20.1412H77.7958L77.1097 21.69H75.2734L78.7241 14.4684H80.4897L83.953 21.69H82.0713L81.3902 20.1412ZM80.8252 18.88L79.5968 16.1054L78.3709 18.88H80.8252Z" fill="#29295B"/>
<path d="M90.1063 14.7888C90.5752 14.9721 90.9809 15.2875 91.2741 15.6968C91.5399 16.1107 91.6812 16.5922 91.6812 17.0841C91.6812 17.576 91.5399 18.0575 91.2741 18.4714C90.9824 18.8821 90.5762 19.1979 90.1063 19.3795C89.5375 19.6011 88.9307 19.7082 88.3204 19.6948H86.7616V21.6849H84.9707V14.4684H88.3204C88.9312 14.4539 89.5386 14.5629 90.1063 14.7888ZM89.4479 18.0124C89.5795 17.8961 89.6849 17.7533 89.757 17.5932C89.8292 17.4332 89.8665 17.2597 89.8665 17.0841C89.8665 16.9086 89.8292 16.735 89.757 16.575C89.6849 16.415 89.5795 16.2721 89.4479 16.1559C89.0852 15.9157 88.6536 15.8014 88.2195 15.8305H86.7591V18.3377H88.2195C88.6536 18.3668 89.0852 18.2525 89.4479 18.0124Z" fill="#29295B"/>
<path d="M98.5625 15.8305H96.0855V21.69H94.3198V15.8305H91.8555V14.4684H98.5675L98.5625 15.8305Z" fill="#29295B"/>
<path d="M104.532 20.1412H100.938L100.254 21.69H98.418L101.869 14.4684H103.634L107.105 21.69H105.226L104.532 20.1412ZM103.97 18.88L102.741 16.1054L101.513 18.88H103.97Z" fill="#29295B"/>
<path d="M111.114 18.7817H109.88V21.69H108.1V14.4684H109.88V17.3868H111.162L113.197 14.4684H115.089L112.567 17.9543L115.175 21.69H113.142L111.114 18.7817Z" fill="#29295B"/>
<path d="M115.99 14.4684H117.771V19.1726L121.464 14.4684H123.144V21.69H121.378V16.9958L117.685 21.69H115.993L115.99 14.4684Z" fill="#29295B"/>
<path d="M130.311 20.1412H126.704L126.023 21.69H124.189L127.638 14.4684H129.403L132.864 21.69H130.985L130.311 20.1412ZM129.746 18.88L128.52 16.1054L127.292 18.88H129.746Z" fill="#29295B"/>
<path d="M141.933 20.3279V23.1858H140.273V21.69H134.812V23.1858H133.152V20.3279H133.463C133.927 20.3153 134.255 19.9975 134.446 19.3795C134.673 18.5137 134.793 17.6234 134.802 16.7285L134.89 14.4583H140.838V20.3178L141.933 20.3279ZM136.159 19.044C136.092 19.5117 135.905 19.954 135.617 20.3279H139.08V15.8305H136.426L136.391 16.8823C136.37 17.6078 136.293 18.3306 136.159 19.044Z" fill="#29295B"/>
<path d="M148.435 20.1412H144.841L144.155 21.69H142.318L145.769 14.4684H147.535L150.995 21.69H149.114L148.435 20.1412ZM147.87 18.88L146.642 16.1054L145.416 18.88H147.87Z" fill="#29295B"/>
<path d="M64.8533 43.4985V44.9186H59.1577V43.7886L62.0635 41.0443C62.311 40.827 62.5222 40.5715 62.6891 40.2875C62.7928 40.0934 62.8482 39.8771 62.8505 39.6569C62.8583 39.5252 62.8344 39.3934 62.7809 39.2727C62.7273 39.1521 62.6457 39.046 62.5428 38.9633C62.2801 38.781 61.9639 38.6922 61.6448 38.711C61.337 38.7066 61.0321 38.7704 60.7519 38.8977C60.484 39.0251 60.2537 39.2197 60.0835 39.4627L58.8223 38.6455C59.1291 38.1997 59.5498 37.8443 60.0406 37.6163C60.5939 37.362 61.1973 37.2353 61.8063 37.2455C62.3102 37.2344 62.8109 37.3281 63.2768 37.5205C63.669 37.6821 64.008 37.9504 64.2555 38.2949C64.4925 38.6422 64.6151 39.0549 64.6061 39.4753C64.6112 39.873 64.5249 40.2665 64.3539 40.6255C64.0956 41.0933 63.7536 41.5097 63.3449 41.8539L61.612 43.491L64.8533 43.4985Z" fill="#29295B"/>
<path d="M67.114 44.5857C66.611 44.259 66.2133 43.7939 65.9688 43.2463C65.414 41.9048 65.414 40.3981 65.9688 39.0566C66.2126 38.5085 66.6105 38.0432 67.114 37.7172C67.6176 37.4135 68.1945 37.2531 68.7826 37.2531C69.3706 37.2531 69.9475 37.4135 70.4511 37.7172C70.9554 38.043 71.3541 38.5083 71.5988 39.0566C72.1503 40.3987 72.1503 41.9042 71.5988 43.2463C71.3534 43.7941 70.9548 44.2592 70.4511 44.5857C69.947 44.8877 69.3703 45.0473 68.7826 45.0473C68.1948 45.0473 67.6182 44.8877 67.114 44.5857ZM69.8659 42.9814C70.1182 42.5854 70.2594 41.9725 70.2594 41.1502C70.2594 40.3279 70.1282 39.7149 69.8659 39.3214C69.7511 39.1396 69.5921 38.9898 69.4038 38.886C69.2155 38.7822 69.0039 38.7277 68.7889 38.7277C68.5738 38.7277 68.3623 38.7822 68.1739 38.886C67.9856 38.9898 67.8266 39.1396 67.7118 39.3214C67.4495 39.7149 67.3183 40.3245 67.3183 41.1502C67.3183 41.9775 67.4495 42.5854 67.7118 42.9814C67.8266 43.1633 67.9856 43.3131 68.1739 43.4169C68.3623 43.5207 68.5738 43.5751 68.7889 43.5751C69.0039 43.5751 69.2155 43.5207 69.4038 43.4169C69.5921 43.3131 69.7511 43.1633 69.8659 42.9814Z" fill="#29295B"/>
<path d="M78.4275 43.4985V44.9186H72.732V43.7886L75.6403 41.0443C75.8871 40.827 76.0975 40.5715 76.2633 40.2875C76.367 40.0934 76.4224 39.8771 76.4247 39.6569C76.4324 39.5254 76.4087 39.394 76.3556 39.2734C76.3026 39.1528 76.2217 39.0465 76.1195 38.9633C75.8561 38.7807 75.539 38.6918 75.219 38.711C74.9113 38.7066 74.6063 38.7704 74.3261 38.8977C74.0586 39.0257 73.8285 39.2203 73.6577 39.4627L72.3965 38.6455C72.7014 38.1989 73.1215 37.8433 73.6123 37.6163C74.1657 37.3622 74.7691 37.2355 75.3779 37.2455C75.8819 37.2342 76.3827 37.3279 76.8485 37.5205C77.2407 37.6821 77.5797 37.9504 77.8272 38.2949C78.0653 38.6417 78.188 39.0548 78.1778 39.4753C78.1818 39.8729 78.0955 40.2661 77.9256 40.6255C77.6656 41.0922 77.3238 41.5082 76.9166 41.8539L75.1837 43.491L78.4275 43.4985Z" fill="#29295B"/>
<path d="M84.783 43.4985V44.9186H79.0874V43.7886L81.9932 41.0443C82.24 40.8263 82.4511 40.5709 82.6188 40.2875C82.7213 40.0929 82.7766 39.8769 82.7802 39.6569C82.7873 39.5252 82.7632 39.3937 82.7097 39.2731C82.6562 39.1526 82.5749 39.0464 82.4725 38.9633C82.2098 38.781 81.8936 38.6922 81.5745 38.7111C81.2659 38.7069 80.9603 38.7706 80.6791 38.8977C80.4123 39.0258 80.183 39.2204 80.0131 39.4627L78.752 38.6455C79.0581 38.2 79.4779 37.8447 79.9677 37.6163C80.5251 37.3606 81.1329 37.2338 81.746 37.2455C82.2492 37.2342 82.7491 37.3279 83.2141 37.5205C83.6071 37.6817 83.9471 37.95 84.1953 38.2949C84.4314 38.6425 84.5531 39.0552 84.5433 39.4753C84.5473 39.8729 84.4611 40.2661 84.2911 40.6255C84.032 41.0928 83.6901 41.509 83.2822 41.8539L81.5493 43.491L84.783 43.4985Z" fill="#29295B"/>
</g>
<defs>
<linearGradient id="paint0_linear_465_2243" x1="3.1485" y1="25.6577" x2="46.4881" y2="25.6577" gradientUnits="userSpaceOnUse">
<stop stop-color="#DDDC41"/>
<stop offset="1" stop-color="#3D9D36"/>
</linearGradient>
<radialGradient id="paint1_radial_465_2243" cx="0" cy="0" r="1" gradientUnits="userSpaceOnUse" gradientTransform="translate(27.5443 24.0938) scale(21.7656 21.7657)">
<stop stop-color="#D9151C"/>
<stop offset="0.74" stop-color="#DA191B"/>
</radialGradient>
<linearGradient id="paint2_linear_465_2243" x1="5.14648" y1="24.5151" x2="42.4904" y2="24.5151" gradientUnits="userSpaceOnUse">
<stop stop-color="#357EC0"/>
<stop offset="0.35" stop-color="#347BBD"/>
<stop offset="0.66" stop-color="#3070B4"/>
<stop offset="0.94" stop-color="#2A5FA6"/>
<stop offset="1" stop-color="#285AA2"/>
</linearGradient>
<clipPath id="clip0_465_2243">
<rect width="151" height="48.682" fill="white"/>
</clipPath>
</defs>
</svg>
