<svg width="217" height="70" viewBox="0 0 217 70" fill="none" xmlns="http://www.w3.org/2000/svg">
<g clip-path="url(#clip0_793_7709)">
<path d="M55.4858 68.311H15.8404C12.8254 68.2938 9.94051 67.081 7.81879 64.9389C5.69708 62.7968 4.51195 59.9004 4.52352 56.8854V16.8594C4.51195 13.8441 5.69696 10.9473 7.81857 8.80465C9.94018 6.66197 12.8251 5.44839 15.8404 5.43018H55.4858C58.5014 5.44839 61.3867 6.66185 63.5089 8.80443C65.6311 10.947 66.8169 13.8438 66.8063 16.8594V56.8854C66.8169 59.9007 65.6309 62.7971 63.5086 64.9391C61.3863 67.0811 58.501 68.2938 55.4858 68.311ZM16.337 8.29746C11.7515 8.29746 7.51767 12.2341 7.51767 16.8594V56.8854C7.50995 59.0986 8.38027 61.2245 9.93775 62.7969C11.4952 64.3694 13.6127 65.2599 15.8259 65.2734H55.4858C57.6996 65.2609 59.818 64.3707 61.3762 62.7982C62.9345 61.2257 63.8053 59.0992 63.7976 56.8854V16.8594C63.8053 14.6456 62.9345 12.5191 61.3762 10.9466C59.818 9.37408 57.6996 8.48392 55.4858 8.47145L16.337 8.29746Z" fill="url(#paint0_linear_793_7709)"/>
<path d="M37.0043 10.8109L11.6288 27.8882C5.5699 31.9657 3.96371 40.1829 8.04125 46.2418L20.0751 64.1231C24.1527 70.182 32.3699 71.7882 38.4287 67.7107L63.8042 50.6333C69.8631 46.5558 71.4693 38.3386 67.3918 32.2797L55.3579 14.3984C51.2803 8.33951 43.0631 6.73332 37.0043 10.8109Z" fill="#D32E1E"/>
<path d="M57.6822 17.8597L49.3703 5.50248C45.8469 0.268152 38.5863 -1.06943 33.236 2.53008L5.54912 21.162C0.198794 24.7615 -1.29466 31.9895 2.2251 37.2238L10.537 49.5774L57.6822 17.8597Z" fill="white"/>
<path d="M57.6209 17.8489C55.1632 14.3871 52.7454 11.0377 50.4037 7.69918L49.5229 6.45222L49.0879 5.82512C48.9393 5.6185 48.7834 5.42638 48.6312 5.22701C48.3242 4.83419 47.9911 4.4624 47.6343 4.11417C47.4567 3.93655 47.2718 3.78793 47.0725 3.62119L46.7897 3.37832C46.6955 3.29857 46.5867 3.23332 46.4889 3.16082L45.898 2.73309L45.2491 2.3706C45.1404 2.3126 45.0317 2.24735 44.9229 2.19298L44.5604 2.04436C44.3321 1.94649 44.1073 1.83774 43.8753 1.75074C43.4085 1.58277 42.9315 1.44474 42.4471 1.33751L42.0846 1.25414L41.9034 1.21426L41.7185 1.18889L40.9935 1.09464C40.7507 1.05839 40.5006 1.06927 40.2686 1.05477C40.0211 1.03845 39.7729 1.03845 39.5255 1.05477L38.8005 1.09827C38.554 1.12364 38.3111 1.17076 38.0755 1.20701L37.713 1.26139C37.5898 1.28676 37.4738 1.32301 37.3505 1.35201L36.6256 1.53688L35.926 1.79062L35.5635 1.91749L35.23 2.07699L34.5594 2.39597L33.9214 2.77659L33.5734 2.96508L33.2508 3.17895L32.6056 3.61393C31.7465 4.19029 30.8801 4.76302 30.0138 5.33213C28.2847 6.48122 26.5411 7.60493 24.8012 8.73227L19.5777 12.1179C16.0906 14.3605 12.624 16.6381 9.17794 18.9508L6.60064 20.6908L5.95542 21.1294L5.63642 21.3469L5.33194 21.5789L4.72296 22.0392L4.1611 22.5612L3.88198 22.8222L3.62824 23.1086L3.12438 23.6813L2.67852 24.3011C2.60603 24.4063 2.52628 24.5078 2.46103 24.6129L2.26891 24.9427C2.14566 25.1675 2.01154 25.3814 1.90642 25.6061L1.59106 26.3021C1.48391 26.531 1.39306 26.7672 1.31919 27.0089C1.24307 27.2518 1.14157 27.4838 1.0872 27.7339L0.90958 28.4589L0.862454 28.6438L0.837083 28.8322L0.782706 29.1947C0.713207 29.6945 0.674472 30.1981 0.666713 30.7027C0.666713 30.9528 0.688463 31.2029 0.695713 31.4567L0.717461 31.8192C0.717461 31.9424 0.753708 32.0656 0.771832 32.1816L0.884208 32.9247L1.0727 33.6497C1.10532 33.7693 1.12707 33.8962 1.17057 34.0122L1.30107 34.3747C1.39169 34.6103 1.46419 34.8496 1.56568 35.0779C1.77046 35.5341 2.00539 35.9761 2.26891 36.401C2.40303 36.6112 2.52265 36.8215 2.67127 37.0354L3.11351 37.6733L3.99798 38.9529L7.52499 44.0785L11.0339 49.2186L10.2328 49.0627C14.1223 46.4166 17.9864 43.7595 21.8904 41.1532C23.8333 39.841 25.7944 38.5433 27.7555 37.2492C29.7165 35.9551 31.674 34.6502 33.6531 33.3633L39.5871 29.4847L42.5595 27.5418L45.5573 25.6025L51.5673 21.713L57.6209 17.8489ZM57.7405 17.8706L52.0277 21.8942L46.2605 25.9323L43.3606 27.9623L40.4389 29.985L34.5884 34.0376C32.6382 35.3933 30.6699 36.7381 28.7016 38.083C26.7332 39.4278 24.7649 40.7762 22.7785 42.1066C18.8238 44.789 14.8328 47.4207 10.8635 50.0596L10.3814 50.3822L10.0624 49.9037L6.62239 44.7201L3.20775 39.5184L2.35228 38.2207L1.92817 37.5682C1.7868 37.3471 1.65631 37.1042 1.52219 36.8759C1.25262 36.4098 1.01641 35.9253 0.815335 35.4259C0.710213 35.1794 0.64134 34.9184 0.554343 34.6647L0.427469 34.2841C0.387596 34.1572 0.365848 34.0231 0.333225 33.8926L0.162855 33.1096L0.0649812 32.3121C0.0649812 32.178 0.032359 32.0475 0.0214844 31.9134V31.5147C0.0214844 31.2464 0.0214844 30.9782 0.0214844 30.7136C0.043597 30.1812 0.100509 29.6508 0.191854 29.1259L0.2571 28.7344L0.293351 28.5386L0.344099 28.3465L0.550714 27.578C0.615962 27.3207 0.73196 27.0778 0.818958 26.8277C0.90352 26.5793 1.00526 26.337 1.12345 26.1027L1.48593 25.3777C1.61643 25.1457 1.76143 24.9246 1.89555 24.6963L2.10579 24.3591C2.17829 24.2504 2.26166 24.1489 2.34141 24.0402L2.81264 23.4058L3.3455 22.8186L3.61374 22.5286L3.90736 22.264L4.49459 21.7311L5.12894 21.2635C5.33919 21.104 5.55306 20.9481 5.77055 20.8104L6.41578 20.379L9.00032 18.6463C12.4415 16.3264 15.8574 13.9726 19.2479 11.5851L24.3191 8.03992C26.0191 6.85096 27.7156 5.65837 29.4302 4.49116C30.282 3.90393 31.1411 3.3167 32.0002 2.74034L32.6454 2.30535C32.7542 2.23285 32.8593 2.15673 32.968 2.08786L33.3305 1.87762L34.0265 1.45713L34.7515 1.09464L35.114 0.924272L35.4982 0.78653L36.2667 0.518286L37.0533 0.322545C37.1874 0.289921 37.3179 0.253669 37.4484 0.228295L37.8508 0.166672C38.119 0.130424 38.3872 0.0832989 38.6555 0.0579248L39.4675 0.0144279C39.7367 -0.00187962 40.0066 -0.00187962 40.2758 0.0144279C40.5477 0.0361772 40.8195 0.0144257 41.0878 0.068799L41.8889 0.181175L42.0919 0.210169L42.2876 0.257294L42.6827 0.355168C43.2075 0.481738 43.7234 0.642791 44.2269 0.837278C44.4807 0.93515 44.7199 1.05839 44.9519 1.16714L45.3144 1.33751C45.434 1.39913 45.55 1.47163 45.6769 1.53688L46.3729 1.95011L47.029 2.42497C47.141 2.49978 47.2487 2.58086 47.3516 2.66784L47.6561 2.93608C47.8518 3.12095 48.0621 3.29857 48.2469 3.48707C48.6229 3.87236 48.9705 4.28425 49.2873 4.71952C49.4431 4.93702 49.6099 5.15089 49.7585 5.372L50.1899 6.03536L51.0526 7.36207C53.3508 10.9145 55.5656 14.4487 57.7405 17.8706Z" fill="#1B458F"/>
<path d="M54.3336 7.51807H17.0879C14.3524 7.52862 11.7327 8.62371 9.8035 10.5631C7.87428 12.5025 6.79303 15.1279 6.79689 17.8635V55.2976C6.79303 58.0329 7.87441 60.6579 9.80373 62.5967C11.7331 64.5356 14.3527 65.6298 17.0879 65.6394H54.3336C57.0685 65.6289 59.6876 64.5343 61.6167 62.5957C63.5459 60.657 64.6275 58.0326 64.6246 55.2976V17.8635C64.6285 15.1279 63.5472 12.5025 61.618 10.5631C59.6888 8.62371 57.0691 7.52862 54.3336 7.51807ZM63.7583 17.8635V55.2976C63.7621 57.8024 62.7718 60.2063 61.0048 61.9816C59.2377 63.7568 56.8384 64.7582 54.3336 64.7658H17.0879C14.5835 64.7572 12.1847 63.7555 10.4178 61.9805C8.65098 60.2055 7.66034 57.8021 7.66323 55.2976V17.8635C7.66034 15.359 8.65098 12.9556 10.4178 11.1806C12.1847 9.40563 14.5835 8.40393 17.0879 8.39529H54.3336C56.8371 8.40488 59.2346 9.40712 61.0001 11.1821C62.7656 12.9571 63.7549 15.36 63.751 17.8635H63.7583Z" fill="#29295B"/>
<path d="M52.7052 9.35229H18.827C16.0902 9.35229 13.4653 10.4382 11.5283 12.3717C9.59145 14.3052 8.5009 16.9283 8.49609 19.6651V53.4744C8.50185 56.2105 9.59283 58.8327 11.5296 60.7654C13.4664 62.6981 16.0908 63.7835 18.827 63.7835H52.7052C55.4413 63.7835 58.0657 62.6981 60.0025 60.7654C61.9393 58.8327 63.0303 56.2105 63.0361 53.4744V19.6651C63.0313 16.9283 61.9407 14.3052 60.0038 12.3717C58.0669 10.4382 55.442 9.35229 52.7052 9.35229ZM62.1625 19.6651V53.4744C62.1529 55.9767 61.1524 58.3732 59.3799 60.1396C57.6075 61.9059 55.2075 62.8981 52.7052 62.8991H18.827C16.325 62.8981 13.9254 61.9058 12.1535 60.1394C10.3816 58.3729 9.38195 55.9763 9.37331 53.4744V19.6651C9.38195 17.1631 10.3816 14.7665 12.1535 13.0001C13.9254 11.2337 16.325 10.2413 18.827 10.2404H52.7052C55.2075 10.2413 57.6075 11.2336 59.3799 12.9999C61.1524 14.7662 62.1529 17.1628 62.1625 19.6651Z" fill="#29295B"/>
<path d="M51.3933 11.1284H19.9402C17.3953 11.1323 14.9557 12.1446 13.1559 13.9438C11.356 15.743 10.3427 18.1822 10.3379 20.7271V52.2201C10.3388 54.7678 11.3504 57.2111 13.1505 59.014C14.9507 60.8169 17.3925 61.8321 19.9402 61.8369H51.3933C53.941 61.8321 56.3828 60.8169 58.183 59.014C59.9832 57.2111 60.9947 54.7678 60.9956 52.2201V20.7271C60.9899 18.1825 59.9763 15.7438 58.1766 13.9449C56.377 12.1459 53.9379 11.1332 51.3933 11.1284ZM60.1655 20.7271V52.2201C60.1636 54.547 59.2391 56.7783 57.5948 58.4247C55.9504 60.0711 53.7203 60.9984 51.3933 61.0032H19.9402C17.6133 60.9984 15.3832 60.0711 13.7388 58.4247C12.0944 56.7783 11.1699 54.547 11.168 52.2201V20.7271C11.1699 18.4002 12.0944 16.1689 13.7388 14.5225C15.3832 12.8761 17.6133 11.9488 19.9402 11.944H51.3933C53.7203 11.9488 55.9504 12.8761 57.5948 14.5225C59.2391 16.1689 60.1636 18.4002 60.1655 20.7271Z" fill="#29295B"/>
<path d="M27.9216 56.2184C47.7135 40.6314 61.6004 41.5702 65.7364 29.8329C64.6489 27.7377 53.2197 11.23 53.2197 11.23L53.9918 11.2916C43.6464 25.831 20.3819 25.8274 12.4941 31.7214C5.53798 36.9231 4.71875 41.2948 4.71875 41.2948L19.9433 63.9285C19.9433 63.9285 25.6851 57.9837 27.9216 56.2184Z" fill="#12448D"/>
<path d="M15.5936 66.9951L13.0344 66.3136L12.748 64.4395C13.0749 63.6366 13.3178 62.8021 13.473 61.9492C13.7136 60.6606 13.7552 59.3428 13.5963 58.0416L14.7562 57.4362L16.2859 57.2695L26.3776 47.1198L30.3287 45.9164L37.5785 36.2089L39.0647 31.8409L43.7372 28.0239L46.2746 17.8163L39.931 17.3378L36.3134 16.3772C35.1353 16.3772 33.8956 16.3228 32.6015 16.2213C29.7181 15.9912 26.8598 15.5146 24.0577 14.7967L19.9616 16.1379C19.6172 15.7392 20.9113 14.2458 20.9113 14.2458L15.474 13.47L19.4033 12.0962L25.8955 13.1837L35.0556 12.9879L40.3769 13.2888L43.1427 13.3359L47.7825 12.4913L50.8383 12.5457L53.3576 11.6177C51.9257 11.877 50.4518 11.7749 49.0694 11.3205C47.7314 10.8546 46.4993 10.1276 45.4445 9.1818L48.8483 9.2253C48.8483 9.2253 44.7231 7.90584 44.56 7.68835L42.8781 5.39017L45.6294 6.14052L49.4862 5.65117L46.8002 4.25558C48.4204 4.33231 50.0435 4.18841 51.6249 3.82785C53.1111 3.43636 54.6191 2.93613 55.6775 2.54102C56.736 2.1459 58.5557 2.28003 59.4329 2.3489C60.4733 2.26553 60.5023 3.39649 60.6799 4.06709C60.7499 4.3911 60.701 4.72948 60.5421 5.02043L61.0786 6.42689C60.9741 6.53475 60.8968 6.66603 60.8533 6.80979C60.8098 6.95356 60.8013 7.10564 60.8285 7.25336C60.8606 7.35399 60.9138 7.44665 60.9844 7.52523L62.1407 8.99331C62.1281 9.07023 62.0984 9.14333 62.0537 9.20718C61.8471 9.49717 61.4049 9.39204 61.3287 9.56966C61.2925 9.64216 61.307 9.77628 61.5354 10.0336C61.5644 10.165 61.5644 10.3011 61.5354 10.4324C61.4919 10.6281 61.3976 10.7079 61.3396 10.929C61.307 11.0469 61.2936 11.1693 61.2997 11.2915C61.3349 11.4893 61.3349 11.6918 61.2997 11.8896C61.2632 12.0991 61.1895 12.3004 61.0822 12.4841L58.1823 12.8466L56.446 15.9458L57.1347 22.0429L50.4976 31.3117H57.8923L64.2504 32.1926L66.4253 34.1754L65.356 37.8365L56.6236 42.9113L48.6489 47.1923L44.9733 50.3351L43.5233 52.1475L42.6352 51.0528L42.744 48.4502C43.5133 47.8695 44.1465 47.1278 44.5992 46.2769C45.0519 45.426 45.3131 44.4864 45.3647 43.5239L46.9307 42.3459L49.1564 43.2992L54.9054 38.4491L45.1183 39.3553L41.7362 43.2484L32.848 49.9944L30.9631 50.636L19.001 59.0529C18.481 60.5269 17.7692 61.9261 16.884 63.2143C16.4297 63.7512 16.0749 64.365 15.8364 65.0267C15.6285 65.6609 15.546 66.3294 15.5936 66.9951Z" fill="url(#paint1_radial_793_7709)"/>
<path d="M15.86 67.3177L12.8151 66.5093L12.4961 64.4069L12.5251 64.3453C13.3444 62.3594 13.6366 60.1954 13.3733 58.0633L13.3516 57.893L14.7036 57.1898L16.1935 57.0266L26.267 46.877L30.2 45.6771L37.3809 36.0676L38.8744 31.6706L43.5396 27.8608L45.9936 18.0156L39.9147 17.5553H39.8966L36.2717 16.6164C35.0392 16.6164 33.7959 16.5548 32.5707 16.4606C29.6961 16.2306 26.8464 15.7564 24.0522 15.0432L19.8727 16.4171L19.764 16.2938C19.5356 16.0256 19.6371 15.5688 20.0902 14.8982C20.2062 14.7242 20.3295 14.5575 20.4346 14.4234L14.3629 13.557L19.3326 11.7446L25.9009 12.9444L35.061 12.7523L40.3859 13.0568L43.1264 13.1003L47.7662 12.2593L50.8002 12.3101L51.6086 12.0128C50.7191 11.9931 49.8373 11.8429 48.9914 11.567C47.6254 11.0844 46.3669 10.3394 45.2868 9.37391L44.83 8.93893L47.2478 8.97155C44.5437 8.07258 44.4241 7.90946 44.3769 7.84422L42.2745 4.95881L45.6601 5.88315L48.6869 5.49892L45.6746 3.93296L46.8274 4.00184C48.4207 4.07594 50.0168 3.9345 51.5723 3.58135C52.8628 3.24424 54.3707 2.76575 55.6068 2.30177C56.7342 1.88128 58.4632 2.01902 59.3912 2.09152H59.4456C60.533 2.01902 60.7215 3.00137 60.8557 3.65385C60.881 3.77709 60.9028 3.89309 60.9318 3.99459C61.0119 4.33817 60.9723 4.69883 60.8194 5.01681L61.374 6.46676L61.2689 6.57913C61.1951 6.65722 61.1396 6.75074 61.1063 6.85293C61.0731 6.95512 61.063 7.06342 61.0768 7.16999C61.0977 7.23568 61.1323 7.29621 61.1783 7.3476L62.4035 8.89905L62.3854 9.0078C62.3671 9.12278 62.3224 9.23196 62.2549 9.32679C62.104 9.50794 61.8905 9.6257 61.6568 9.65666L61.5734 9.67478C61.612 9.74038 61.6583 9.80121 61.7111 9.85602L61.751 9.90315V9.96477C61.789 10.1306 61.789 10.3028 61.751 10.4686C61.7265 10.575 61.6875 10.6774 61.635 10.7731C61.5995 10.8373 61.5715 10.9055 61.5516 10.9761C61.5293 11.0625 61.5195 11.1516 61.5226 11.2407C61.5975 11.7049 61.5077 12.1806 61.2689 12.5856L61.2073 12.6907L58.3074 13.0532L56.6725 15.9748L57.3613 22.1045L50.9742 31.0652H57.905H57.9231L64.3609 31.9642L66.6953 34.0992L65.5607 38.0032L56.7342 43.1397L48.7594 47.4062L45.1345 50.5163L43.5033 52.5608L42.4159 51.1108L42.5355 48.3015L42.6261 48.2327C43.503 47.5641 44.1953 46.6834 44.6379 45.6735C44.9357 44.9845 45.1088 44.2481 45.149 43.4986V43.3862L46.9216 42.0522L49.1364 43.0056L54.1714 38.7572L45.2505 39.5764L41.912 43.4297H41.8903L32.9441 50.1973L31.0555 50.8426L19.1949 59.1798C18.6682 60.6507 17.9529 62.047 17.0671 63.3339L16.9656 63.4717C16.5706 63.9529 16.2638 64.5003 16.0593 65.0884C15.8649 65.6891 15.7886 66.3218 15.8346 66.9516L15.86 67.3177ZM13.2537 66.1178L15.3344 66.6688C15.3281 66.0893 15.4163 65.5127 15.5954 64.9615C15.8174 64.3214 16.1499 63.7252 16.5777 63.1998L16.6792 63.0657C17.5477 61.7983 18.246 60.4224 18.7563 58.9732L18.7853 58.8971L18.8505 58.85L30.8344 50.4112L32.7157 49.7732L41.5785 43.0672L45.0113 39.1197L55.6866 38.1265L49.227 43.5638L46.9869 42.6286L45.6275 43.6508C45.5723 44.423 45.3872 45.1803 45.0802 45.891C44.622 46.9421 43.9109 47.8636 43.0104 48.5734L42.9089 50.9767L43.5178 51.7706L44.7865 50.1829L48.5021 47.0111H48.5238L56.4985 42.7337L65.1439 37.7024L66.1407 34.2805L64.1434 32.4681L57.8615 31.5727L50.0064 31.5546L56.8755 21.974L56.1904 15.877L58.0282 12.6146L60.9282 12.2521C60.9918 12.1228 61.0357 11.9847 61.0587 11.8425C61.0877 11.6721 61.0877 11.4981 61.0587 11.3277V11.3024C61.0542 11.1583 61.07 11.0143 61.1058 10.8746C61.1353 10.7717 61.1754 10.6721 61.2254 10.5774C61.2591 10.5182 61.2847 10.4548 61.3015 10.3889C61.314 10.3121 61.314 10.2337 61.3015 10.1569C61.2136 10.0727 61.1505 9.96597 61.1191 9.84832C61.0878 9.73068 61.0894 9.60668 61.1239 9.48991C61.1715 9.40971 61.2381 9.34235 61.3177 9.29371C61.3973 9.24507 61.4875 9.2166 61.5806 9.21079C61.7293 9.17817 61.8307 9.14917 61.8851 9.07305V9.05493L60.7977 7.69559C60.7038 7.59144 60.6344 7.46758 60.5947 7.33311C60.5554 7.17179 60.5537 7.00363 60.5895 6.84152C60.6253 6.67941 60.6977 6.52766 60.8013 6.39789L60.2757 5.02043L60.3228 4.92256C60.4558 4.68588 60.4995 4.40937 60.446 4.14321C60.4134 4.03084 60.388 3.90759 60.3627 3.78072C60.2068 3.01949 60.0654 2.56276 59.4564 2.61351H59.4347H59.3405C58.4524 2.54463 56.803 2.41051 55.7663 2.79837C54.5157 3.26598 52.9933 3.7481 51.6883 4.08884C50.4287 4.39163 49.1378 4.54493 47.8423 4.54557L50.3 5.82153L45.613 6.41601L43.4925 5.83603L44.7467 7.54335C45.0403 7.73184 47.3493 8.51482 48.9225 9.01867L50.503 9.48991L46.1531 9.43191C47.0583 10.1446 48.0748 10.7031 49.1618 11.0849C50.5059 11.5252 51.9387 11.6236 53.3304 11.3712L53.4609 11.8461L50.8981 12.7886L47.8206 12.7342L43.1807 13.5788H43.1553L40.3787 13.5317L35.264 14.688L25.8973 13.4229H25.8792L19.3544 12.2666L16.5777 13.3794L21.3916 14.0681L21.0979 14.4089C20.6485 14.9272 21.0979 14.9526 20.9892 15.2571L24.0486 14.5321L24.1175 14.5502C26.9064 15.2649 29.7515 15.7391 32.6214 15.9676C33.8467 16.0654 35.09 16.1162 36.3188 16.1234H36.3478L39.9981 17.0768L46.6244 17.5807L43.9927 28.1472L39.2949 31.9642L37.8195 36.314L37.7978 36.3467L30.4973 46.1012L26.528 47.3119L16.4182 57.4942L14.8486 57.6646L13.8808 58.1685C14.0202 59.4412 13.9702 60.7275 13.7322 61.9855C13.5742 62.8318 13.3313 63.66 13.0072 64.4576L13.2537 66.1178Z" fill="white"/>
<path d="M10.2364 67.3468L7.67727 66.6653L7.39453 64.7912C7.71916 63.9888 7.96205 63.1557 8.11951 62.3046C8.36198 61.015 8.40355 59.6956 8.24275 58.3933L9.40272 57.788L10.936 57.6212L21.0277 47.4715L24.9788 46.2681L32.2286 36.5606L33.7112 32.2108L38.3873 28.3902L40.9247 18.1861L34.5812 17.704L30.9563 16.7543C29.7782 16.7543 28.5385 16.6999 27.2408 16.5984C24.3612 16.3593 21.5076 15.873 18.7114 15.1448L14.6189 16.4897C14.2564 16.0873 15.565 14.5975 15.565 14.5975C13.7526 14.3365 10.3488 14.902 10.1277 13.8181L13.8722 12.6328L20.5239 13.5281L29.6876 13.3324L35.0053 13.6369L37.7747 13.6804L42.4145 12.8394L45.4703 12.8902L47.9896 11.9622C46.5649 12.2197 45.0984 12.1175 43.7231 11.6649C42.386 11.1972 41.1542 10.4705 40.0982 9.52627L43.502 9.56976C43.502 9.56976 39.3733 8.25393 39.2174 8.04006L37.5318 5.74189L40.2867 6.49224L44.1436 6.00288L41.4539 4.6073C43.0741 4.68402 44.6972 4.54013 46.2786 4.17956C47.7649 3.78808 49.5193 3.25521 50.6285 3.12109L53.2638 3.32771C54.3041 3.24434 55.1451 3.7482 55.3227 4.41518C55.3923 4.73961 55.3421 5.07824 55.1814 5.36853L55.7178 6.77498C55.6141 6.88333 55.5373 7.01466 55.4939 7.15827C55.4504 7.30189 55.4414 7.45373 55.4677 7.60145C55.4999 7.70208 55.553 7.79474 55.6236 7.87332L56.7799 9.34139C56.7696 9.41832 56.741 9.49166 56.6966 9.55526C56.4863 9.84525 56.0441 9.74013 55.9716 9.91775C55.939 9.99387 55.9535 10.1244 56.1782 10.3817C56.2072 10.5131 56.2072 10.6491 56.1782 10.7805C56.1347 10.9798 56.0441 11.056 55.9825 11.2771C55.9499 11.395 55.9364 11.5174 55.9426 11.6396C55.9762 11.8375 55.9762 12.0397 55.9426 12.2377C55.9043 12.4484 55.8295 12.6508 55.7215 12.8358L52.8216 13.1983L51.0889 16.2975L52.6186 22.8441L51.4767 24.149L49.5628 24.6819L44.9882 31.6816L52.5207 31.6997L58.8824 32.5769L61.0573 34.5597L59.9916 38.2208L51.2556 43.2957L43.2809 47.573L39.6016 50.7158L38.1517 52.5283L37.2926 51.4118L37.4049 48.8055C38.3146 48.1118 39.0321 47.1972 39.4893 46.1485C39.8004 45.4298 39.9808 44.6613 40.0221 43.8793L41.5881 42.7012L43.8137 43.6582L49.5628 38.8044L39.7756 39.7107L36.3936 43.6038L27.48 50.3497L25.5987 50.9877L13.6366 59.4047C13.1181 60.8793 12.4062 62.2786 11.5196 63.566C11.0674 64.1038 10.714 64.7174 10.4757 65.3785C10.2693 66.0129 10.1881 66.6814 10.2364 67.3468Z" fill="url(#paint2_linear_793_7709)"/>
<path d="M10.5045 67.6729L7.45962 66.8609L7.14062 64.7585L7.166 64.6968C7.49171 63.911 7.73468 63.0935 7.89097 62.2573C8.12962 60.9929 8.1712 59.6993 8.01422 58.4222L7.99247 58.2554L9.34455 57.5486L10.838 57.3891L20.9116 47.2394L24.8446 46.0432L32.0218 36.43L33.5153 32.033L38.1805 28.2233L40.6345 18.3781L34.5592 17.9177H34.5375L30.9126 16.9753C29.6838 16.9753 28.4368 16.9136 27.2116 16.8194C24.3374 16.5886 21.4878 16.1157 18.6931 15.4057L14.5136 16.7759L14.4049 16.6527C14.1765 16.3844 14.278 15.9277 14.7311 15.2607C14.8435 15.0903 14.9595 14.9308 15.0646 14.7967C14.5535 14.7605 13.9554 14.7641 13.3754 14.7677C11.6645 14.7677 10.0478 14.7931 9.86291 13.8687L9.81941 13.6512L13.843 12.3898H13.8974L20.5527 13.2815L29.7055 13.0858L35.0268 13.3903L37.7673 13.4338L42.4071 12.5928L45.4411 12.6435L46.2495 12.3463C45.361 12.3284 44.4801 12.1781 43.6359 11.9004C42.2695 11.4188 41.0108 10.6737 39.9313 9.70738L39.4746 9.27239L41.8888 9.30502C39.1846 8.40605 39.0686 8.24293 39.0178 8.17768L36.9154 5.31039L40.3011 6.23474L43.3278 5.8505L40.3192 4.28817L41.4683 4.35343C43.0628 4.42755 44.6601 4.28611 46.2169 3.93294L47.3043 3.64295C48.3921 3.31441 49.5 3.05651 50.6211 2.87085H50.6428L53.2854 3.07747C54.3982 2.99409 55.3624 3.53058 55.5799 4.35343C55.6612 4.6978 55.6228 5.05958 55.4712 5.37927L56.0258 6.82922L55.9207 6.94159C55.8469 7.01968 55.7913 7.11321 55.7581 7.21539C55.7249 7.31758 55.7148 7.42588 55.7286 7.53245C55.748 7.59877 55.7828 7.65961 55.8301 7.71006L57.0553 9.26151V9.37026C57.0382 9.48497 56.9948 9.59416 56.9284 9.68925C56.7762 9.87064 56.5614 9.98834 56.3267 10.0191L56.2469 10.0372C56.2858 10.1029 56.3307 10.1648 56.381 10.2221L56.4245 10.2692V10.3309C56.4625 10.4954 56.4625 10.6665 56.4245 10.8311C56.4025 10.9376 56.3646 11.0403 56.3122 11.1356C56.2769 11.2016 56.2478 11.2708 56.2252 11.3422C56.2026 11.4273 56.1928 11.5152 56.1962 11.6032C56.2343 11.8227 56.2343 12.0471 56.1962 12.2665C56.1568 12.507 56.0732 12.738 55.9497 12.948L55.8881 13.0531L52.9881 13.4156L51.3606 16.3155L52.9011 22.902L51.6252 24.3519L49.733 24.8775L45.4593 31.4204L52.5532 31.4385L59.0055 32.3266L61.3399 34.4653L60.2017 38.3657L51.3751 43.5022L43.4003 47.7687L39.7754 50.8788L38.1479 52.9232L37.0604 51.4733L37.1764 48.6676L37.2707 48.5951C38.1463 47.9262 38.8373 47.0455 39.2788 46.036C39.5761 45.3466 39.7503 44.6105 39.7936 43.861V43.7487L41.5661 42.4147L43.7809 43.368L48.7978 39.1197L39.8951 39.9389L36.5565 43.7777L27.5922 50.5634L25.7 51.2087L13.8394 59.5459C13.3114 61.0155 12.5975 62.4116 11.7152 63.7L11.6101 63.8341C11.2164 64.3163 10.9097 64.8634 10.7039 65.4508C10.5106 66.0518 10.4355 66.6845 10.4828 67.314L10.5045 67.6729ZM7.8946 66.4694L9.97891 67.024C9.96973 66.4434 10.0567 65.8653 10.2363 65.3131C10.4583 64.673 10.7908 64.0767 11.2186 63.5514L11.3201 63.4209C12.1877 62.1511 12.8871 60.7743 13.4008 59.3248L13.4262 59.2486L13.4914 59.2015L25.4753 50.7664L27.3566 50.1248L36.2194 43.4224L39.6522 39.4713L50.3202 38.4889L43.8571 43.9263L41.6241 42.9693L40.2612 43.9951C40.2072 44.766 40.0234 45.5221 39.7174 46.2317C39.2581 47.2832 38.5458 48.2047 37.644 48.9141L37.5425 51.3174L38.1551 52.1149L39.4238 50.5236L43.1357 47.3518H43.1611L51.1358 43.0744L59.7812 38.0431L60.778 34.6248L58.7807 32.8124L52.5133 31.9424L44.5385 31.9243L49.4104 24.4679L51.3424 23.9314L52.3538 22.7751L50.8313 16.2503L52.6728 12.9589L55.5727 12.5964C55.6376 12.4673 55.6828 12.3293 55.7068 12.1868C55.7358 12.0177 55.7358 11.8448 55.7068 11.6757V11.6648C55.6987 11.5206 55.7147 11.3761 55.7539 11.2371C55.7803 11.1331 55.8205 11.0331 55.8735 10.9398C55.9061 10.8818 55.9305 10.8196 55.946 10.755C55.9607 10.6771 55.9607 10.5972 55.946 10.5193C55.8527 10.4364 55.7845 10.3288 55.7492 10.209C55.714 10.0891 55.7131 9.96182 55.7467 9.8415C55.7942 9.76198 55.8602 9.6951 55.9391 9.64651C56.018 9.59793 56.1074 9.56907 56.1998 9.56238C56.3484 9.52976 56.4535 9.50438 56.5043 9.42826C56.5053 9.42105 56.5053 9.41373 56.5043 9.40651L55.4168 8.04718C55.3245 7.94189 55.2554 7.8184 55.2138 7.68469C55.1754 7.52274 55.174 7.3542 55.2098 7.19164C55.2455 7.02908 55.3175 6.87669 55.4204 6.74584L54.8948 5.36839L54.9456 5.27052C55.0768 5.03452 55.1192 4.75936 55.0652 4.4948C54.9093 3.90394 54.1336 3.51245 53.2528 3.58495H53.231H53.115L50.5993 3.38558C49.5118 3.57154 48.4368 3.82455 47.3804 4.14318L46.293 4.4368C45.0342 4.737 43.7447 4.88907 42.4506 4.88991L44.9083 6.16949L40.2213 6.76035L38.0971 6.18036L39.3513 7.89131C39.645 8.0798 41.954 8.85915 43.5308 9.36301L45.0968 9.86325L40.7469 9.80888C41.6527 10.5197 42.6691 11.0769 43.7556 11.4582C45.0999 11.8975 46.532 11.9971 47.9242 11.7482L48.0547 12.2194L45.4919 13.1619L42.4144 13.1111L37.7745 13.9521H37.7528L34.9725 13.905L29.662 13.6041L20.4911 13.7999H20.5237L13.9047 12.9118L10.5081 13.9992C10.9431 14.3291 12.3423 14.3219 13.408 14.3146C14.1436 14.2901 14.8799 14.3156 15.612 14.3907L16.0578 14.456L15.7606 14.7967C15.3817 15.2136 15.0698 15.6869 14.8362 16.1995L18.7149 14.9272L18.7837 14.9453C21.5725 15.6617 24.4176 16.1371 27.2877 16.3663C28.5093 16.4605 29.7526 16.5149 30.9815 16.5185H31.0141L34.6607 17.4719L41.2761 17.9721L38.6409 28.5386L33.9358 32.3266L32.4641 36.6765L32.4387 36.7091L25.1418 46.4637L21.1544 47.6744L11.0627 57.8567L9.48955 58.0271L8.5217 58.5345C8.66225 59.8058 8.61339 61.091 8.37671 62.3479C8.21705 63.1939 7.97421 64.0219 7.65173 64.8201L7.8946 66.4694Z" fill="white"/>
<path d="M10.6352 67.8288L7.35107 66.9588L7.01758 64.744L7.05382 64.6498C7.87048 62.6835 8.16034 60.5383 7.8948 58.4258L7.8658 58.1757L9.31575 57.4181L10.7657 57.2622L20.832 47.1126L24.7578 45.9164L31.8988 36.3539L33.414 31.9642L38.0756 28.1544L40.4825 18.4869L34.5087 18.0301L30.9128 17.1022C29.684 17.1022 28.4406 17.0405 27.2154 16.9463C24.3456 16.7149 21.5006 16.2395 18.7114 15.5253L14.4885 16.9101L14.329 16.7252C13.9665 16.3156 14.329 15.6377 14.648 15.1882C14.7096 15.0976 14.7748 14.9997 14.8473 14.9019C14.3906 14.8801 13.8867 14.8837 13.3974 14.9019C11.6321 14.9019 9.97185 14.9236 9.77249 13.905L9.70724 13.5824L13.8432 12.2738H13.923L20.5783 13.1655L29.713 12.9698L35.0452 13.2743L37.782 13.3178L42.3964 12.4768L45.4341 12.5276L45.6697 12.4406C44.9681 12.3794 44.276 12.2371 43.6071 12.0165C42.2242 11.5303 40.9506 10.7765 39.859 9.79803L39.1775 9.1528L41.1386 9.17818C39.1014 8.4822 38.9963 8.34083 38.931 8.25383L36.6292 5.11106L40.323 6.11515L42.9438 5.78528L39.772 4.13596L41.4866 4.23746C43.069 4.31029 44.6539 4.17009 46.1989 3.8206C46.5433 3.7336 46.9239 3.63211 47.2646 3.53424C48.3632 3.20272 49.482 2.9424 50.614 2.75488H50.6104L53.2783 2.9615C54.4274 2.87451 55.4533 3.44724 55.678 4.32446C55.7631 4.6781 55.73 5.04989 55.5838 5.38292L56.1456 6.86188L55.9897 7.02862C55.9289 7.09076 55.8825 7.16549 55.8536 7.24753C55.8248 7.32958 55.8144 7.41695 55.823 7.50348C55.8389 7.55184 55.8649 7.59631 55.8991 7.63398L57.1715 9.24343L57.1461 9.40292C57.1246 9.53344 57.0738 9.65738 56.9975 9.7654C56.8554 9.95355 56.6489 10.0826 56.4175 10.1279L56.4429 10.1569L56.5045 10.2258L56.5262 10.3164C56.566 10.4991 56.566 10.6883 56.5262 10.871C56.5 10.9876 56.4572 11.0999 56.3994 11.2045C56.3696 11.263 56.3442 11.3236 56.3232 11.3857C56.3057 11.4606 56.2972 11.5372 56.2979 11.6141C56.3359 11.8421 56.3359 12.0748 56.2979 12.3028C56.2536 12.5583 56.164 12.8038 56.0332 13.0278L55.9426 13.1837L53.0427 13.5462L51.4659 16.3591L53.0065 22.9491L51.6979 24.4534L49.8129 24.979L45.6806 31.2972L52.586 31.319L59.06 32.2143L61.4742 34.4255L60.3034 38.4455L60.2635 38.4709L51.4369 43.6073L43.4839 47.8702L39.859 50.9694L38.1481 53.119L36.9265 51.5241L37.0497 48.6241L37.1839 48.519C37.9112 47.9707 38.51 47.27 38.9382 46.466C39.3665 45.6621 39.614 44.7743 39.6633 43.8647V43.6943L41.5337 42.2842L43.7485 43.2339L48.4355 39.2756L39.9533 40.0585L36.6111 43.8937L27.6504 50.6722L25.7582 51.3174L13.9411 59.6365C13.4138 61.1028 12.7025 62.4963 11.8242 63.7834L11.7227 63.9212C11.3352 64.3925 11.0345 64.9288 10.8346 65.5052C10.6446 66.0894 10.5708 66.7051 10.6171 67.3177L10.6352 67.8288ZM7.56493 66.7631L10.3742 67.5098V67.3322C10.3288 66.6876 10.4076 66.0403 10.6062 65.4255C10.8134 64.8239 11.1265 64.2641 11.5306 63.7725L11.6321 63.6384C12.5042 62.3588 13.2084 60.9724 13.7272 59.5133V59.477L13.7599 59.4553L25.635 51.0927L27.5235 50.4511L36.4734 43.6943L39.83 39.8266L49.1605 38.9638L43.7775 43.5058L41.5591 42.5525L39.888 43.8103V43.8683C39.8502 44.6372 39.6759 45.3933 39.3733 46.1012C38.9245 47.1307 38.2209 48.0289 37.3288 48.7112L37.2817 48.7474L37.1657 51.4552L38.1481 52.7348L39.685 50.8136L43.3607 47.6636L51.3354 43.3971L60.1149 38.286L61.2023 34.5016L58.9477 32.4427L52.5497 31.5546L45.2347 31.5365L49.6534 24.7724L51.5565 24.2396L52.7672 22.8585L51.2303 16.2974L52.9122 13.2997L55.8121 12.9372L55.8447 12.8828C55.9609 12.686 56.0407 12.4699 56.0804 12.2448C56.1168 12.0374 56.1168 11.8252 56.0804 11.6177C56.075 11.5125 56.0873 11.4072 56.1166 11.306C56.1392 11.2271 56.1696 11.1506 56.2072 11.0776C56.3316 10.8574 56.3667 10.5979 56.3051 10.3526V10.32L56.2834 10.2946C56.2253 10.2337 56.1753 10.1654 56.1347 10.0916L56.0586 9.95752L56.2072 9.91765L56.287 9.89953C56.4957 9.87573 56.6875 9.77333 56.8235 9.61316C56.8796 9.53351 56.9156 9.44149 56.9286 9.34492V9.29055L55.736 7.78259C55.6757 7.71597 55.6311 7.6367 55.6055 7.5506C55.5825 7.42088 55.5905 7.28755 55.6289 7.16154C55.6674 7.03552 55.7351 6.9204 55.8266 6.82562L55.8774 6.77125L55.3336 5.34305L55.3554 5.29592C55.4947 5.00095 55.5304 4.66764 55.4569 4.34983C55.2539 3.58498 54.344 3.08475 53.282 3.1645L50.6249 2.95788C49.51 3.14275 48.4081 3.39945 47.3263 3.72635C46.9638 3.82785 46.6013 3.92934 46.2388 4.01634C44.6704 4.37373 43.0608 4.51641 41.454 4.44046L40.8667 4.40783L43.7195 5.89041L40.2868 6.32539L37.2165 5.50254L39.1159 8.09071C39.1812 8.18133 39.7249 8.4532 41.9288 9.17818L42.6538 9.42467L39.772 9.38842L40.004 9.60954C41.0711 10.566 42.3148 11.3048 43.6651 11.7845C44.4985 12.0603 45.3685 12.2094 46.2461 12.2267H46.8804L45.4631 12.7523L42.4073 12.7016L37.7892 13.5425L35.027 13.499L29.6985 13.1945L20.5565 13.3903L13.8541 12.4949L9.97548 13.7202L9.99723 13.8325C10.1604 14.6554 11.7299 14.6481 13.3865 14.6336C13.9701 14.6336 14.5682 14.6336 15.0866 14.6626H15.3113L15.1736 14.8402C15.0503 14.9997 14.9416 15.152 14.8473 15.297C14.4341 15.9205 14.3253 16.3264 14.5138 16.5439L14.5682 16.6092L18.7114 15.2897H18.7441C21.5318 16.0035 24.3757 16.4764 27.2444 16.7034C28.466 16.7977 29.7093 16.8521 30.9346 16.8593H30.9636L34.5884 17.8018L40.8087 18.273L38.2858 28.2922L33.617 32.1056L32.1235 36.5025L24.9245 46.1447L20.9806 47.3482L10.8998 57.4979L9.38825 57.661L8.13041 58.3171V58.4041C8.28917 59.6932 8.2476 60.9991 8.00717 62.2755C7.84911 63.1194 7.60622 63.9452 7.28219 64.7404V64.7694L7.56493 66.7631ZM10.1024 67.1763L7.7933 66.5637L7.52506 64.802V64.773C7.84876 63.9827 8.09166 63.1618 8.25004 62.3226C8.48507 61.0764 8.53394 59.8023 8.39503 58.5418V58.4621L9.48249 57.9038L11.0122 57.7407L21.1111 47.5657L25.0731 46.3586L32.3591 36.604L33.8381 32.2542L38.5178 28.4336L41.106 18.041L34.6356 17.5517L30.9636 16.5983C29.7347 16.5983 28.4878 16.5403 27.2589 16.4461C24.3816 16.2151 21.5293 15.7385 18.7332 15.0215H18.7006L14.6335 16.3554L14.706 16.1307C14.9419 15.6 15.2613 15.1104 15.652 14.6807L15.8043 14.5068L15.5759 14.4741C14.8535 14.3993 14.1269 14.3738 13.401 14.398C12.2882 14.398 10.8998 14.398 10.4322 14.0573L10.2473 13.9159L13.8722 12.7632H13.8976L20.5239 13.6513L29.6948 13.4592L35.0125 13.76L37.811 13.8072L42.4254 12.9662L45.5066 13.0169L47.9425 12.118L47.87 11.857C46.4924 12.0884 45.0792 11.9814 43.7521 11.5452C42.6529 11.157 41.6235 10.5939 40.7036 9.87778L40.4245 9.65666L44.343 9.70741L43.5419 9.45004C42.0919 8.98606 39.656 8.17046 39.3334 7.96747L39.3008 7.93484L37.8508 5.95203L40.2795 6.61176L44.5605 6.07165L42.0231 4.74857H42.5016C43.787 4.74774 45.068 4.59689 46.3186 4.29908L47.3879 4.00909C48.4584 3.68667 49.548 3.43122 50.6503 3.24424L53.2928 3.45086C54.2172 3.37474 55.0473 3.81335 55.2176 4.4477C55.2808 4.74157 55.2344 5.04839 55.0872 5.31043L55.0618 5.36117L55.591 6.74951L55.5548 6.80025C55.4633 6.91642 55.3989 7.05156 55.3662 7.1958C55.3336 7.34004 55.3336 7.48974 55.3663 7.63398C55.4007 7.75231 55.4614 7.86135 55.5439 7.95296L56.6712 9.38117L56.6096 9.48266C56.5153 9.58631 56.3864 9.65203 56.2471 9.66754C56.0985 9.70016 55.9426 9.73279 55.8846 9.87778C55.8266 10.0228 55.8846 10.2004 56.0659 10.4288L56.0876 10.4541V10.4868C56.117 10.6566 56.0849 10.8314 55.997 10.9797C55.9496 11.0668 55.9131 11.1593 55.8882 11.2552C55.8519 11.3811 55.8372 11.5123 55.8447 11.6431V11.6648C55.8755 11.846 55.8755 12.031 55.8447 12.2122C55.8202 12.3659 55.7726 12.515 55.7034 12.6544L55.6744 12.7124L52.7745 13.0749L50.9729 16.2612L52.499 22.786L51.4115 24.0148L49.4903 24.5513L44.778 31.7829L52.5244 31.8011L58.8389 32.6892L60.9196 34.5922L59.8865 38.1265L59.8466 38.1519L51.2013 43.1832L43.2048 47.4678L39.5002 50.636L38.1517 52.3252L37.4267 51.3718L37.5318 48.8743L37.5753 48.838C38.4585 48.1391 39.1567 47.2342 39.6089 46.2027C39.9107 45.5049 40.0921 44.7609 40.1454 44.0024V43.9263L41.5953 42.8388L43.8246 43.7958L49.9398 38.6376L39.7104 39.5764L36.2921 43.5094L27.4112 50.2336L25.5262 50.8716L13.5279 59.3248V59.3647C13.0095 60.8301 12.3001 62.2207 11.4182 63.5007L11.3167 63.6348C10.8959 64.1485 10.5695 64.7327 10.3525 65.3602C10.1761 65.8994 10.0904 66.4641 10.0987 67.0313L10.1024 67.1763ZM8.00717 66.3716L9.86311 66.8646C9.87088 66.3238 9.96009 65.7874 10.1277 65.2732C10.3498 64.614 10.6887 64.0001 11.1282 63.4608L11.2261 63.3303C12.089 62.0735 12.7825 60.7085 13.2886 59.2704L13.3285 59.1544L13.4264 59.0856L25.4247 50.6396L27.306 49.998L36.1435 43.3137L39.598 39.3263L50.6938 38.3005L43.8826 44.0495L41.6425 43.089L40.381 44.0387C40.3211 44.8047 40.1349 45.5555 39.83 46.2607C39.3696 47.3126 38.662 48.2378 37.7675 48.9576L37.6696 51.2594L38.1589 51.901L39.3334 50.433L43.1069 47.2141L51.0816 42.9367L59.6726 37.9597L60.6332 34.6575L58.7229 32.9067L52.4917 32.0439L44.3176 32.0258L49.3453 24.3519L51.2883 23.8082L52.2344 22.7207L50.7119 16.2213L52.6077 12.8357L55.5076 12.4732C55.5516 12.371 55.5832 12.2639 55.6019 12.1542C55.6273 11.9969 55.6273 11.8366 55.6019 11.6793V11.6648C55.5928 11.5049 55.61 11.3445 55.6526 11.19C55.681 11.0798 55.7236 10.9738 55.7795 10.8746C55.8065 10.8242 55.8271 10.7706 55.8411 10.7151C55.8503 10.6624 55.8503 10.6084 55.8411 10.5556C55.74 10.4563 55.6685 10.3308 55.6346 10.1932C55.6007 10.0556 55.6057 9.91123 55.649 9.77628C55.7033 9.67929 55.7807 9.59715 55.8742 9.5371C55.9678 9.47704 56.0747 9.44092 56.1855 9.43192C56.2469 9.41883 56.3074 9.40188 56.3667 9.38117L55.3626 8.10521C55.2598 7.98868 55.1832 7.85149 55.1379 7.70285C55.0958 7.53468 55.0908 7.35935 55.1234 7.18906C55.1559 7.01878 55.2252 6.85765 55.3264 6.71688L54.8044 5.34668L54.8769 5.20168C54.9976 4.99235 55.0376 4.74609 54.9893 4.50932C54.8479 3.97647 54.1302 3.62486 53.3146 3.6901H53.2783L50.6575 3.48711C49.5796 3.67022 48.5142 3.92083 47.4676 4.23746L46.3802 4.53108C45.2653 4.80373 44.1239 4.95324 42.9764 4.97694L45.358 6.21665L40.265 6.86188L38.4526 6.36527L39.4893 7.77897C39.8119 7.96021 41.86 8.66344 43.6216 9.22892L45.9524 9.97565L41.1531 9.91403C41.972 10.515 42.8761 10.9903 43.8355 11.3241C45.1604 11.7608 46.5735 11.8592 47.9461 11.6105L48.0549 11.5923L48.2397 12.2775L45.5356 13.2562L42.4363 13.2054L37.7711 14.0464L34.9944 14.0029L29.6803 13.6984L20.5094 13.8941H20.4804L13.8867 13.0097L10.802 13.9848C11.3711 14.1696 12.5093 14.1624 13.3756 14.1588C14.1161 14.1337 14.8573 14.1603 15.594 14.2385L16.261 14.3328L15.8224 14.8402C15.5157 15.1854 15.2483 15.5635 15.0249 15.9676L18.6752 14.7677L18.7803 14.7931C21.5619 15.5068 24.3998 15.9798 27.2625 16.2068C28.4841 16.3047 29.7238 16.3554 30.9491 16.3627H31.0361L34.6609 17.316L41.4032 17.8271L38.7244 28.5713L34.0411 32.3992L32.5368 36.7708L25.2145 46.558L21.2271 47.7687L11.1101 57.9618L9.51875 58.1322L8.64152 58.589C8.77319 59.8465 8.72068 61.1165 8.48565 62.3588C8.3244 63.202 8.0816 64.0275 7.76067 64.8237L8.00717 66.3716Z" fill="white"/>
<path d="M88.6721 36.4736V40.8887H87.6571V37.3074H85.6634V40.8887H84.6484V36.4736H88.6721Z" fill="#29295B"/>
<path d="M90.6368 40.664C90.279 40.4764 89.9793 40.1943 89.7705 39.8484C89.5664 39.4919 89.459 39.0883 89.459 38.6775C89.459 38.2668 89.5664 37.8632 89.7705 37.5067C89.9793 37.1608 90.279 36.8787 90.6368 36.6911C91.0202 36.4957 91.4444 36.3938 91.8747 36.3938C92.305 36.3938 92.7292 36.4957 93.1126 36.6911C93.4764 36.8818 93.781 37.1684 93.9936 37.5198C94.2061 37.8712 94.3185 38.2741 94.3185 38.6848C94.3185 39.0955 94.2061 39.4984 93.9936 39.8498C93.781 40.2012 93.4764 40.4878 93.1126 40.6785C92.7292 40.8739 92.305 40.9758 91.8747 40.9758C91.4444 40.9758 91.0202 40.8739 90.6368 40.6785V40.664ZM92.5834 39.91C92.791 39.7923 92.9618 39.6191 93.0764 39.4098C93.193 39.1859 93.2538 38.9372 93.2538 38.6848C93.2538 38.4324 93.193 38.1837 93.0764 37.9598C92.9618 37.7505 92.791 37.5772 92.5834 37.4596C92.3668 37.3406 92.1237 37.2782 91.8765 37.2782C91.6294 37.2782 91.3863 37.3406 91.1697 37.4596C90.9609 37.577 90.789 37.7502 90.6731 37.9598C90.5588 38.1844 90.4992 38.4328 90.4992 38.6848C90.4992 38.9368 90.5588 39.1852 90.6731 39.4098C90.789 39.6194 90.9609 39.7926 91.1697 39.91C91.3863 40.029 91.6294 40.0914 91.8765 40.0914C92.1237 40.0914 92.3668 40.029 92.5834 39.91Z" fill="#29295B"/>
<path d="M100.801 36.4736V40.8887H99.7899V37.3074H98.2784L98.2457 38.2281C98.2362 38.7388 98.1852 39.248 98.0935 39.7505C98.041 40.0787 97.9036 40.3874 97.6948 40.6459C97.5939 40.7516 97.4714 40.8341 97.3356 40.888C97.1998 40.9418 97.054 40.9655 96.9082 40.9576C96.7381 40.9541 96.569 40.931 96.4043 40.8887L96.4659 40.026C96.5262 40.0424 96.5883 40.0509 96.6508 40.0514C96.8925 40.0514 97.0628 39.9064 97.1619 39.6164C97.2794 39.1752 97.3403 38.7209 97.3432 38.2643L97.4084 36.4736H100.801Z" fill="#29295B"/>
<path d="M105.321 40.0695V40.8887H101.902V36.4736H105.241V37.2929H102.917V38.2535H104.983V39.0473H102.917V40.0695H105.321Z" fill="#29295B"/>
<path d="M109.522 37.3074H108.109V40.8887H107.101V37.3074H105.709V36.4736H109.537L109.522 37.3074Z" fill="#29295B"/>
<path d="M114.213 36.4736V40.8887H113.194V39.0763H111.186V40.8887H110.164V36.4736H111.186V38.2136H113.194V36.4736H114.213Z" fill="#29295B"/>
<path d="M115.318 36.4736H116.333V39.3482L118.439 36.4736H119.4V40.8887H118.396V38.0178L116.29 40.8887H115.326L115.318 36.4736Z" fill="#29295B"/>
<path d="M124.516 40.8887V38.2462L123.214 40.4211H122.747L121.449 38.2969V40.8887H120.488V36.4736H121.337L122.986 39.2177L124.613 36.4736H125.458V40.8887H124.516Z" fill="#29295B"/>
<path d="M132.033 38.9782C132.178 39.1696 132.254 39.405 132.247 39.6452C132.255 39.8226 132.218 39.999 132.14 40.1585C132.062 40.318 131.946 40.4556 131.801 40.5587C131.424 40.8013 130.98 40.9169 130.532 40.8885H128.357V36.4734H130.413C130.834 36.4482 131.252 36.5519 131.613 36.7707C131.751 36.8625 131.863 36.9886 131.938 37.1366C132.013 37.2846 132.048 37.4495 132.04 37.6153C132.044 37.8193 131.987 38.0198 131.877 38.1916C131.763 38.363 131.604 38.4997 131.417 38.5867C131.658 38.6505 131.873 38.7873 132.033 38.9782ZM129.369 38.304H130.322C130.501 38.3168 130.679 38.2682 130.826 38.1663C130.884 38.1181 130.93 38.0568 130.959 37.9875C130.989 37.9181 131.002 37.8427 130.996 37.7675C131.001 37.6921 130.987 37.6167 130.957 37.5474C130.927 37.4781 130.881 37.417 130.822 37.3688C130.676 37.2684 130.5 37.2199 130.322 37.231H129.369V38.304ZM131.21 39.5655C131.21 39.203 130.971 39.0145 130.485 39.0145H129.362V40.1309H130.485C130.969 40.1309 131.21 39.9461 131.21 39.5763V39.5655Z" fill="#29295B"/>
<path d="M133.055 36.4736H134.07V39.3482L136.176 36.4736H137.133V40.8887H136.125V38.0178L134.019 40.8887H133.055V36.4736Z" fill="#29295B"/>
<path d="M142.752 40.055V41.8022H141.806V40.8887H138.696V41.8022H137.75V40.055H137.924C138.192 40.055 138.377 39.8556 138.486 39.475C138.616 38.9446 138.684 38.4008 138.689 37.8547L138.74 36.4736H142.132V40.055H142.752ZM139.461 39.272C139.424 39.5545 139.319 39.8235 139.153 40.055H141.128V37.3074H139.613V37.949C139.595 38.3931 139.544 38.8353 139.461 39.272Z" fill="#29295B"/>
<path d="M146.468 39.939H144.42L144.028 40.8851H142.98L144.949 36.47H145.946L147.921 40.8851H146.834L146.468 39.939ZM146.149 39.1633L145.445 37.4741L144.746 39.1633H146.149Z" fill="#29295B"/>
<path d="M152.536 40.8887V38.2462L151.238 40.4211H150.785L149.484 38.2969V40.8887H148.52V36.4736H149.364L151.021 39.214L152.648 36.47H153.493V40.8851L152.536 40.8887Z" fill="#29295B"/>
<path d="M157.243 40.6639C156.888 40.4751 156.591 40.1932 156.384 39.8483C156.224 39.5865 156.119 39.2946 156.075 38.9907C156.032 38.6868 156.051 38.3772 156.131 38.0809C156.212 37.7846 156.352 37.5078 156.543 37.2676C156.734 37.0274 156.973 36.8287 157.243 36.6838C157.62 36.4845 158.042 36.3835 158.468 36.3902C158.826 36.3857 159.18 36.4548 159.509 36.5932C159.81 36.722 160.076 36.9208 160.285 37.1732L159.628 37.7785C159.495 37.6141 159.325 37.4821 159.133 37.3923C158.941 37.3026 158.731 37.2574 158.519 37.2602C158.266 37.2582 158.017 37.3205 157.794 37.4414C157.584 37.5577 157.41 37.7311 157.294 37.9417C157.177 38.1655 157.117 38.4142 157.117 38.6666C157.117 38.919 157.177 39.1677 157.294 39.3916C157.41 39.6022 157.584 39.7756 157.794 39.8918C158.017 40.0127 158.266 40.0751 158.519 40.0731C158.732 40.0761 158.943 40.0303 159.135 39.9392C159.327 39.848 159.496 39.714 159.628 39.5475L160.285 40.1528C160.076 40.4085 159.808 40.61 159.505 40.7401C159.176 40.8782 158.822 40.9473 158.465 40.9431C158.041 40.9536 157.621 40.8576 157.243 40.6639Z" fill="#29295B"/>
<path d="M164.979 36.4736V40.8887H163.964V37.3074H161.97V40.8887H160.955V36.4736H164.979Z" fill="#29295B"/>
<path d="M166.943 40.664C166.586 40.4764 166.286 40.1943 166.077 39.8484C165.873 39.4919 165.766 39.0883 165.766 38.6775C165.766 38.2668 165.873 37.8632 166.077 37.5067C166.286 37.1608 166.586 36.8787 166.943 36.6911C167.327 36.4957 167.751 36.3938 168.181 36.3938C168.612 36.3938 169.036 36.4957 169.419 36.6911C169.783 36.8818 170.088 37.1684 170.3 37.5198C170.513 37.8712 170.625 38.2741 170.625 38.6848C170.625 39.0955 170.513 39.4984 170.3 39.8498C170.088 40.2012 169.783 40.4878 169.419 40.6785C169.036 40.8739 168.612 40.9758 168.181 40.9758C167.751 40.9758 167.327 40.8739 166.943 40.6785V40.664ZM168.89 39.91C169.098 39.7923 169.268 39.6191 169.383 39.4098C169.5 39.1859 169.56 38.9372 169.56 38.6848C169.56 38.4324 169.5 38.1837 169.383 37.9598C169.268 37.7505 169.098 37.5772 168.89 37.4596C168.673 37.3406 168.43 37.2782 168.183 37.2782C167.936 37.2782 167.693 37.3406 167.476 37.4596C167.268 37.577 167.096 37.7502 166.98 37.9598C166.865 38.1844 166.806 38.4328 166.806 38.6848C166.806 38.9368 166.865 39.1852 166.98 39.4098C167.096 39.6194 167.268 39.7926 167.476 39.91C167.693 40.029 167.936 40.0914 168.183 40.0914C168.43 40.0914 168.673 40.029 168.89 39.91Z" fill="#29295B"/>
<path d="M174.318 36.6765C174.593 36.7919 174.826 36.9883 174.986 37.2395C175.147 37.4908 175.227 37.7849 175.217 38.0829C175.222 38.3826 175.14 38.6774 174.981 38.9311C174.82 39.1781 174.589 39.3713 174.318 39.4858C173.995 39.6198 173.648 39.6852 173.299 39.6779H172.407V40.8958H171.389V36.4735H173.299C173.649 36.4677 173.996 36.5369 174.318 36.6765ZM173.955 38.6484C174.031 38.5742 174.091 38.4856 174.132 38.3879C174.173 38.2902 174.194 38.1853 174.194 38.0793C174.194 37.9733 174.173 37.8684 174.132 37.7707C174.091 37.673 174.031 37.5844 173.955 37.5102C173.751 37.3667 173.504 37.2976 173.255 37.3145H172.407V38.8514H173.241C173.491 38.8641 173.739 38.7898 173.941 38.6412L173.955 38.6484Z" fill="#29295B"/>
<path d="M179.145 37.3074H177.732V40.8887H176.724V37.3074H175.307V36.4736H179.135L179.145 37.3074Z" fill="#29295B"/>
<path d="M182.555 39.939H180.507L180.116 40.8851H179.068L181.037 36.47H182.044L184.005 40.8887H182.918L182.555 39.939ZM182.233 39.1633L181.533 37.4741L180.834 39.1633H182.233Z" fill="#29295B"/>
<path d="M187.268 40.6639C186.913 40.475 186.616 40.1931 186.409 39.8483C186.248 39.5861 186.142 39.2937 186.097 38.989C186.053 38.6843 186.072 38.3738 186.153 38.0766C186.233 37.7794 186.374 37.5019 186.565 37.2611C186.757 37.0203 186.996 36.8213 187.268 36.6765C187.645 36.4772 188.067 36.3762 188.493 36.3829C188.85 36.3784 189.205 36.4475 189.534 36.5859C189.836 36.7145 190.103 36.9133 190.313 37.1659L189.657 37.7712C189.522 37.6071 189.352 37.4754 189.159 37.3857C188.967 37.2959 188.757 37.2506 188.544 37.2528C188.291 37.2489 188.041 37.3114 187.819 37.4341C187.607 37.5492 187.432 37.7228 187.315 37.9343C187.201 38.1589 187.141 38.4073 187.141 38.6593C187.141 38.9113 187.201 39.1597 187.315 39.3843C187.432 39.5958 187.607 39.7695 187.819 39.8845C188.041 40.0072 188.291 40.0697 188.544 40.0658C188.757 40.0682 188.968 40.0222 189.161 39.9311C189.354 39.8401 189.523 39.7064 189.657 39.5402L190.313 40.1455C190.104 40.4021 189.835 40.6037 189.53 40.7327C189.201 40.8709 188.847 40.9399 188.49 40.9357C188.066 40.9485 187.646 40.8551 187.268 40.6639Z" fill="#29295B"/>
<path d="M193.899 36.6765C194.175 36.7897 194.41 36.9856 194.571 37.2374C194.732 37.4891 194.811 37.7844 194.798 38.0829C194.805 38.3823 194.724 38.6771 194.566 38.9311C194.405 39.1797 194.172 39.3733 193.899 39.4858C193.576 39.6201 193.229 39.6856 192.88 39.6779H191.981V40.8958H190.959V36.4735H192.869C193.223 36.4658 193.574 36.535 193.899 36.6765ZM193.536 38.6484C193.612 38.5742 193.672 38.4856 193.713 38.3879C193.754 38.2902 193.775 38.1853 193.775 38.0793C193.775 37.9733 193.754 37.8684 193.713 37.7707C193.672 37.673 193.612 37.5844 193.536 37.5102C193.332 37.3667 193.085 37.2976 192.837 37.3145H191.981V38.8514H192.815C193.069 38.8666 193.32 38.7922 193.525 38.6412L193.536 38.6484Z" fill="#29295B"/>
<path d="M198.891 40.0695V40.8887H195.473V36.4736H198.811V37.2929H196.488V38.2535H198.539V39.0473H196.488V40.0695H198.891Z" fill="#29295B"/>
<path d="M204.27 40.055V41.8022H203.324V40.8887H200.21V41.8022H199.264V40.055H199.438C199.706 40.055 199.891 39.8556 200 39.475C200.129 38.9446 200.198 38.4008 200.203 37.8547L200.253 36.4736H203.646V40.055H204.27ZM200.978 39.272C200.942 39.5545 200.836 39.8235 200.67 40.055H202.646V37.3074H201.13V37.949C201.112 38.3931 201.061 38.8353 200.978 39.272Z" fill="#29295B"/>
<path d="M204.959 36.4736H205.974V39.3482L208.08 36.4736H209.041V40.8887H208.029V38.0178L205.923 40.8887H204.959V36.4736Z" fill="#29295B"/>
<path d="M85.5148 48.2399C85.1597 48.0511 84.8627 47.7691 84.6557 47.4243C84.4954 47.1624 84.3904 46.8705 84.3469 46.5666C84.3035 46.2627 84.3225 45.9531 84.403 45.6568C84.4834 45.3605 84.6235 45.0838 84.8147 44.8435C85.0059 44.6033 85.2441 44.4047 85.5148 44.2598C85.892 44.0604 86.3134 43.9594 86.74 43.9661C87.097 43.9616 87.4512 44.0307 87.7803 44.1691C88.0825 44.2978 88.3497 44.4966 88.5597 44.7491L87.9036 45.3545C87.7686 45.1904 87.5986 45.0586 87.406 44.9689C87.2134 44.8792 87.0032 44.8338 86.7907 44.8361C86.5374 44.8321 86.2874 44.8946 86.0657 45.0174C85.8534 45.1324 85.6785 45.306 85.5619 45.5176C85.4476 45.7422 85.388 45.9906 85.388 46.2426C85.388 46.4946 85.4476 46.743 85.5619 46.9675C85.6785 47.1791 85.8534 47.3527 86.0657 47.4678C86.2874 47.5905 86.5374 47.653 86.7907 47.649C87.0038 47.6507 87.2145 47.6043 87.4072 47.5133C87.5998 47.4223 87.7695 47.289 87.9036 47.1234L88.5597 47.7288C88.3504 47.9853 88.0816 48.1869 87.7767 48.316C87.4474 48.4541 87.0934 48.5232 86.7364 48.519C86.3122 48.5295 85.8922 48.4336 85.5148 48.2399Z" fill="#29295B"/>
<path d="M89.2266 44.0422H90.2415V46.9168L92.3476 44.0422H93.3082V48.4573H92.2968V45.5864L90.1908 48.4573H89.2266V44.0422Z" fill="#29295B"/>
<path d="M98.3074 44.0422V48.4573H97.2997V44.876H95.7881L95.7555 45.7967C95.7455 46.3074 95.6946 46.8165 95.6033 47.3191C95.5502 47.6471 95.4127 47.9556 95.2045 48.2145C95.1037 48.3202 94.9812 48.4027 94.8454 48.4566C94.7096 48.5104 94.5638 48.5341 94.4179 48.5262C94.2479 48.5227 94.0788 48.4996 93.9141 48.4573L93.9757 47.591C94.0356 47.6093 94.098 47.6179 94.1606 47.6164C94.2824 47.6143 94.3998 47.5702 94.4929 47.4917C94.586 47.4131 94.6491 47.3048 94.6717 47.185C94.7888 46.7438 94.8497 46.2895 94.8529 45.8329L94.9145 44.0422H98.3074Z" fill="#29295B"/>
<path d="M102.81 45.851C102.958 45.9843 103.074 46.1495 103.149 46.3341C103.223 46.5188 103.255 46.718 103.241 46.9168C103.255 47.1317 103.22 47.3469 103.137 47.5456C103.054 47.7444 102.926 47.9212 102.763 48.0622C102.378 48.3483 101.904 48.4884 101.425 48.4573H99.4316V44.0422H100.447V45.4922H101.57C102.013 45.4635 102.451 45.5904 102.81 45.851ZM101.987 47.504C102.065 47.4322 102.126 47.3437 102.165 47.2452C102.204 47.1466 102.22 47.0405 102.212 46.9349C102.212 46.4782 101.933 46.2498 101.367 46.2498H100.447V47.6997H101.36C101.58 47.7104 101.796 47.6408 101.969 47.504H101.987Z" fill="#29295B"/>
<path d="M108.008 44.0422V48.4573H106.99V46.6449H104.985V48.4573H103.963V44.0422H104.985V45.7822H106.993V44.0422H108.008Z" fill="#29295B"/>
<path d="M112.532 47.6381V48.4573H109.113V44.0422H112.448V44.8615H110.128V45.8221H112.176V46.6159H110.128V47.6381H112.532Z" fill="#29295B"/>
<path d="M113.357 44.0423H114.372V46.9169L116.478 44.0423H117.439V48.4574H116.428V45.5865L114.322 48.4574H113.357V44.0423ZM114.169 42.7917H114.869C114.869 43.0999 115.054 43.2521 115.395 43.2521C115.533 43.2628 115.67 43.2214 115.779 43.1361C115.825 43.0918 115.861 43.0382 115.885 42.9788C115.909 42.9194 115.919 42.8556 115.917 42.7917H116.616C116.624 42.9281 116.6 43.0644 116.547 43.1901C116.493 43.3158 116.412 43.4275 116.308 43.5167C116.04 43.6987 115.718 43.7855 115.395 43.7632C114.586 43.7596 114.18 43.437 114.169 42.7917Z" fill="#29295B"/>
<path d="M124.362 44.0422V48.4573H118.533V44.0422H119.548V47.6236H120.933V44.0422H121.948V47.6236H123.336V44.0422H124.362Z" fill="#29295B"/>
<path d="M125.461 44.0422H126.476V46.9168L128.582 44.0422H129.539V48.4573H128.546V45.5864L126.44 48.4573H125.475L125.461 44.0422Z" fill="#29295B"/>
<path d="M131.446 44.0422L132.363 45.3798L133.276 44.0422H134.476L133.004 46.1555L134.596 48.4573H133.389L132.363 47.0074L131.348 48.4573H130.166L131.743 46.199L130.268 44.0422H131.446Z" fill="#29295B"/>
<path d="M137.843 48.2399C137.488 48.0511 137.191 47.7691 136.984 47.4243C136.824 47.1624 136.718 46.8705 136.675 46.5666C136.632 46.2627 136.651 45.9531 136.731 45.6568C136.812 45.3605 136.952 45.0838 137.143 44.8435C137.334 44.6033 137.572 44.4047 137.843 44.2598C138.22 44.0604 138.642 43.9594 139.068 43.9661C139.425 43.9616 139.779 44.0307 140.108 44.1691C140.41 44.2979 140.675 44.4967 140.884 44.7491L140.232 45.3545C140.097 45.1904 139.927 45.0586 139.734 44.9689C139.542 44.8792 139.331 44.8338 139.119 44.8361C138.866 44.8341 138.616 44.8965 138.394 45.0174C138.183 45.1336 138.01 45.307 137.894 45.5176C137.779 45.7422 137.72 45.9906 137.72 46.2426C137.72 46.4946 137.779 46.743 137.894 46.9675C138.01 47.1781 138.183 47.3515 138.394 47.4678C138.616 47.5886 138.866 47.651 139.119 47.649C139.332 47.6507 139.543 47.6043 139.735 47.5133C139.928 47.4223 140.098 47.289 140.232 47.1234L140.884 47.7288C140.676 47.9853 140.409 48.1869 140.105 48.316C139.776 48.4541 139.422 48.5232 139.064 48.519C138.64 48.5295 138.22 48.4336 137.843 48.2399Z" fill="#29295B"/>
<path d="M145.582 44.0422V48.4573H144.567V44.876H142.574V48.4573H141.559V44.0422H145.582Z" fill="#29295B"/>
<path d="M147.544 48.2362C147.277 48.0886 147.042 47.8889 146.854 47.6491C146.665 47.4092 146.526 47.134 146.446 46.8397C146.366 46.5454 146.345 46.238 146.385 45.9355C146.426 45.6331 146.526 45.3419 146.681 45.079C146.886 44.7315 147.185 44.4488 147.544 44.2634C147.927 44.0679 148.351 43.9661 148.782 43.9661C149.212 43.9661 149.636 44.0679 150.02 44.2634C150.38 44.4534 150.681 44.7396 150.889 45.0902C151.097 45.4408 151.204 45.8422 151.198 46.2498C151.203 46.6618 151.094 47.0671 150.882 47.4206C150.673 47.7648 150.375 48.0465 150.02 48.2362C149.636 48.4316 149.212 48.5335 148.782 48.5335C148.351 48.5335 147.927 48.4316 147.544 48.2362ZM149.49 47.4822C149.698 47.3646 149.869 47.1914 149.983 46.982C150.1 46.7581 150.161 46.5095 150.161 46.257C150.161 46.0046 150.1 45.7559 149.983 45.5321C149.869 45.3227 149.698 45.1495 149.49 45.0318C149.274 44.9128 149.031 44.8505 148.784 44.8505C148.536 44.8505 148.293 44.9128 148.077 45.0318C147.868 45.1493 147.696 45.3225 147.58 45.5321C147.466 45.7566 147.406 46.0051 147.406 46.257C147.406 46.509 147.466 46.7574 147.58 46.982C147.696 47.1916 147.868 47.3648 148.077 47.4822C148.293 47.6012 148.536 47.6636 148.784 47.6636C149.031 47.6636 149.274 47.6012 149.49 47.4822Z" fill="#29295B"/>
<path d="M154.917 44.2381C155.188 44.3539 155.419 44.5468 155.581 44.7928C155.735 45.0496 155.816 45.3434 155.816 45.6428C155.816 45.9422 155.735 46.236 155.581 46.4928C155.421 46.7408 155.19 46.9343 154.917 47.0474C154.595 47.1815 154.248 47.2469 153.899 47.2396H153.011V48.4575H151.988V44.0424H153.899C154.248 44.0343 154.595 44.1011 154.917 44.2381ZM154.555 46.2101C154.63 46.1358 154.69 46.0473 154.731 45.9496C154.772 45.8519 154.794 45.7469 154.794 45.641C154.794 45.535 154.772 45.4301 154.731 45.3324C154.69 45.2347 154.63 45.1461 154.555 45.0719C154.351 44.9284 154.104 44.8592 153.855 44.8761H153.025V46.4058H153.855C154.099 46.4194 154.34 46.3504 154.54 46.2101H154.555Z" fill="#29295B"/>
<path d="M159.746 44.876H158.332V48.4573H157.324V44.876H155.918V44.0422H159.746V44.876Z" fill="#29295B"/>
<path d="M161.192 48.2399C160.837 48.0511 160.54 47.7691 160.333 47.4243C160.173 47.1624 160.068 46.8705 160.025 46.5666C159.981 46.2627 160 45.9531 160.081 45.6568C160.161 45.3605 160.301 45.0838 160.492 44.8435C160.684 44.6033 160.922 44.4047 161.192 44.2598C161.57 44.0604 161.991 43.9594 162.418 43.9661C162.775 43.9616 163.129 44.0307 163.458 44.1691C163.76 44.2978 164.027 44.4966 164.237 44.7491L163.581 45.3545C163.446 45.1904 163.276 45.0586 163.084 44.9689C162.891 44.8792 162.681 44.8338 162.468 44.8361C162.215 44.8321 161.965 44.8946 161.743 45.0174C161.531 45.1324 161.356 45.306 161.24 45.5176C161.125 45.7422 161.066 45.9906 161.066 46.2426C161.066 46.4946 161.125 46.743 161.24 46.9675C161.356 47.1791 161.531 47.3527 161.743 47.4678C161.965 47.5905 162.215 47.653 162.468 47.649C162.682 47.6507 162.892 47.6043 163.085 47.5133C163.278 47.4223 163.447 47.289 163.581 47.1234L164.237 47.7288C164.028 47.9853 163.759 48.1869 163.454 48.316C163.125 48.4541 162.771 48.5232 162.414 48.519C161.99 48.5295 161.57 48.4336 161.192 48.2399Z" fill="#29295B"/>
<path d="M168.919 48.4573V45.8148L167.617 47.9897H167.164L165.881 45.8656V48.4573H164.902V44.0422H165.747L167.4 46.7863L169.027 44.0422H169.868V48.4573H168.919Z" fill="#29295B"/>
<path d="M174.397 47.6381V48.4573H170.979V44.0422H174.313V44.8615H171.993V45.8221H174.042V46.6159H171.993V47.6381H174.397Z" fill="#29295B"/>
<path d="M179.272 44.0422V48.4573H178.249V46.6449H176.241V48.4573H175.223V44.0422H176.241V45.7822H178.249V44.0422H179.272Z" fill="#29295B"/>
<path d="M181.241 48.2363C180.975 48.0876 180.741 47.8874 180.554 47.6474C180.366 47.4074 180.228 47.1324 180.148 46.8385C180.067 46.5446 180.046 46.2377 180.086 45.9356C180.125 45.6335 180.225 45.3423 180.378 45.079C180.584 44.7324 180.883 44.45 181.241 44.2634C181.623 44.0618 182.049 43.9596 182.481 43.9662C182.911 43.9588 183.337 44.0611 183.717 44.2634C183.983 44.4115 184.218 44.6113 184.406 44.8511C184.594 45.0909 184.733 45.3659 184.814 45.66C184.894 45.954 184.915 46.2612 184.876 46.5636C184.836 46.8659 184.737 47.1573 184.583 47.4207C184.371 47.7643 184.072 48.0456 183.717 48.2363C183.336 48.4372 182.911 48.5394 182.481 48.5336C182.049 48.5385 181.623 48.4364 181.241 48.2363ZM183.187 47.4823C183.395 47.3639 183.567 47.1909 183.684 46.9821C183.798 46.7575 183.858 46.5091 183.858 46.2571C183.858 46.0051 183.798 45.7567 183.684 45.5321C183.567 45.3233 183.395 45.1504 183.187 45.0319C182.971 44.9129 182.728 44.8505 182.481 44.8505C182.233 44.8505 181.99 44.9129 181.774 45.0319C181.566 45.1496 181.395 45.3228 181.281 45.5321C181.164 45.756 181.103 46.0047 181.103 46.2571C181.103 46.5095 181.164 46.7582 181.281 46.9821C181.395 47.1914 181.566 47.3647 181.774 47.4823C181.99 47.6013 182.233 47.6637 182.481 47.6637C182.728 47.6637 182.971 47.6013 183.187 47.4823Z" fill="#29295B"/>
<path d="M189.361 46.5471C189.509 46.7372 189.586 46.9732 189.579 47.2141C189.586 47.3914 189.55 47.5678 189.472 47.7274C189.394 47.8869 189.277 48.0244 189.133 48.1275C188.755 48.3706 188.309 48.4862 187.86 48.4574H185.686V44.0423H187.741C188.162 44.0171 188.58 44.1208 188.941 44.3395C189.079 44.4314 189.191 44.5575 189.266 44.7055C189.341 44.8535 189.376 45.0184 189.368 45.1841C189.372 45.3881 189.315 45.5887 189.205 45.7605C189.09 45.9312 188.931 46.0677 188.745 46.1556C188.987 46.2178 189.202 46.3548 189.361 46.5471ZM186.701 45.8692H187.654C187.832 45.8822 188.01 45.835 188.158 45.7351C188.215 45.6864 188.26 45.625 188.29 45.5558C188.319 45.4866 188.333 45.4115 188.328 45.3364C188.333 45.2609 188.319 45.1854 188.289 45.1161C188.259 45.0468 188.213 44.9856 188.154 44.9376C188.008 44.8357 187.831 44.787 187.654 44.7999H186.701V45.8692ZM188.542 47.1307C188.542 46.7682 188.303 46.5833 187.817 46.5833H186.693V47.6998H187.817C188.303 47.6998 188.542 47.5113 188.542 47.1307Z" fill="#29295B"/>
<path d="M90.3501 13.4374C90.595 13.7276 90.7241 14.0981 90.7126 14.4777C90.7238 14.7573 90.663 15.0352 90.5361 15.2846C90.4092 15.5341 90.2203 15.7467 89.9876 15.9023C89.3465 16.2774 88.6086 16.454 87.8671 16.4098H84.2422V9.52248H87.6713C88.3685 9.48214 89.0628 9.64186 89.6723 9.98284C89.8999 10.1171 90.0872 10.3101 90.2148 10.5416C90.3423 10.773 90.4053 11.0345 90.3972 11.2987C90.4023 11.6199 90.3059 11.9344 90.1217 12.1976C89.925 12.4678 89.6597 12.6805 89.3533 12.8139C89.7405 12.9172 90.0878 13.1344 90.3501 13.4374ZM85.906 12.3898H87.4973C87.7933 12.4096 88.0878 12.3347 88.3383 12.1759C88.4278 12.0993 88.4997 12.0043 88.549 11.8973C88.5983 11.7903 88.6238 11.6738 88.6238 11.556C88.6238 11.4382 88.5983 11.3218 88.549 11.2148C88.4997 11.1078 88.4278 11.0128 88.3383 10.9362C88.0895 10.7764 87.7961 10.7002 87.501 10.7187H85.9096L85.906 12.3898ZM88.9799 14.3508C88.9799 13.7817 88.5812 13.499 87.7801 13.499H85.906V15.2353H87.7801C88.5812 15.2317 88.9799 14.9272 88.9799 14.3472V14.3508Z" fill="#29295B"/>
<path d="M93.493 16.0726C92.9083 15.7908 92.4129 15.353 92.0612 14.8075C91.7199 14.2573 91.5391 13.6226 91.5391 12.9751C91.5391 12.3276 91.7199 11.693 92.0612 11.1427C92.4126 10.5961 92.9081 10.1571 93.493 9.87404C94.1289 9.56264 94.8295 9.40613 95.5375 9.41731C96.1301 9.40837 96.7187 9.51551 97.2702 9.73267C97.7672 9.93021 98.2123 10.239 98.5715 10.6353L97.484 11.5777C97.2511 11.3186 96.9651 11.1126 96.6455 10.9737C96.3259 10.8349 95.9801 10.7664 95.6317 10.773C95.2074 10.7651 94.7878 10.8622 94.4101 11.0558C94.0627 11.2307 93.7722 11.5011 93.5728 11.8351C93.3754 12.182 93.2717 12.5742 93.2717 12.9733C93.2717 13.3724 93.3754 13.7646 93.5728 14.1115C93.772 14.4467 94.0624 14.7182 94.4101 14.8945C94.7887 15.0851 95.2079 15.1809 95.6317 15.1736C95.9811 15.1798 96.3277 15.1101 96.6475 14.9693C96.9673 14.8285 97.2527 14.6199 97.484 14.358L98.5715 15.3005C98.2142 15.7032 97.7672 16.0161 97.2665 16.214C96.7124 16.4305 96.1215 16.5376 95.5266 16.5293C94.8222 16.5397 94.1253 16.3832 93.493 16.0726Z" fill="#29295B"/>
<path d="M105.38 15.1338V16.4097H99.6777V9.52246H105.246V10.7984H101.36V12.2919H104.782V13.528H101.36V15.1193L105.38 15.1338Z" fill="#29295B"/>
<path d="M111.64 9.85242C112.084 10.0283 112.469 10.3276 112.749 10.7151C113.005 11.1092 113.141 11.5687 113.141 12.0382C113.141 12.5078 113.005 12.9673 112.749 13.3613C112.472 13.7519 112.086 14.053 111.64 14.2277C111.099 14.4386 110.521 14.5408 109.94 14.5285H108.454V16.4207H106.75V9.53343H109.94C110.522 9.52488 111.1 9.63335 111.64 9.85242ZM111.013 12.9227C111.138 12.8118 111.238 12.6756 111.307 12.5232C111.375 12.3707 111.411 12.2054 111.411 12.0382C111.411 11.871 111.375 11.7057 111.307 11.5533C111.238 11.4008 111.138 11.2646 111.013 11.1538C110.668 10.9256 110.258 10.8173 109.846 10.8456H108.454V13.2308H109.846C110.259 13.254 110.669 13.1421 111.013 12.9118V12.9227Z" fill="#29295B"/>
<path d="M115.808 16.069C115.217 15.7858 114.716 15.3457 114.358 14.7967C114.021 14.2524 113.842 13.6247 113.842 12.9843C113.842 12.3439 114.021 11.7162 114.358 11.1718C114.716 10.6228 115.217 10.1827 115.808 9.8995C116.453 9.59401 117.158 9.43555 117.872 9.43555C118.586 9.43555 119.291 9.59401 119.937 9.8995C120.526 10.1849 121.027 10.6245 121.387 11.1718C121.726 11.7153 121.907 12.3433 121.907 12.9843C121.907 13.6252 121.726 14.2533 121.387 14.7967C121.027 15.344 120.526 15.7837 119.937 16.069C119.291 16.3723 118.586 16.5296 117.872 16.5296C117.159 16.5296 116.454 16.3723 115.808 16.069ZM119.052 14.8946C119.396 14.715 119.683 14.444 119.882 14.1116C120.077 13.7639 120.18 13.372 120.18 12.9734C120.18 12.5748 120.077 12.1829 119.882 11.8352C119.683 11.5038 119.396 11.234 119.052 11.0558C118.687 10.87 118.284 10.7731 117.874 10.7731C117.465 10.7731 117.061 10.87 116.696 11.0558C116.353 11.2331 116.067 11.5032 115.87 11.8352C115.672 12.1821 115.568 12.5743 115.568 12.9734C115.568 13.3725 115.672 13.7647 115.87 14.1116C116.067 14.4446 116.353 14.7158 116.696 14.8946C117.062 15.0782 117.465 15.1739 117.874 15.1739C118.283 15.1739 118.687 15.0782 119.052 14.8946Z" fill="#29295B"/>
<path d="M124.659 16.0726C124.075 15.7898 123.58 15.3522 123.227 14.8076C122.886 14.2573 122.705 13.6227 122.705 12.9752C122.705 12.3277 122.886 11.6931 123.227 11.1428C123.58 10.5971 124.075 10.1583 124.659 9.8741C125.247 9.59911 125.884 9.44492 126.533 9.42063C127.182 9.39635 127.829 9.50248 128.436 9.73273C128.934 9.92934 129.379 10.2382 129.738 10.6353L128.65 11.5778C128.417 11.3186 128.131 11.1126 127.811 10.9738C127.492 10.8349 127.146 10.7665 126.798 10.7731C126.373 10.7656 125.954 10.8627 125.576 11.0558C125.229 11.2308 124.938 11.5011 124.739 11.8352C124.541 12.182 124.438 12.5743 124.438 12.9734C124.438 13.3725 124.541 13.7647 124.739 14.1116C124.938 14.4467 125.228 14.7183 125.576 14.8946C125.955 15.0849 126.374 15.1806 126.798 15.1737C127.147 15.1799 127.494 15.1102 127.813 14.9694C128.133 14.8285 128.419 14.62 128.65 14.3581L129.738 15.3005C129.38 15.7032 128.933 16.0162 128.433 16.214C127.88 16.4306 127.29 16.5377 126.696 16.5294C125.991 16.5398 125.293 16.3833 124.659 16.0726Z" fill="#29295B"/>
<path d="M132.134 16.0726C131.549 15.7908 131.053 15.353 130.702 14.8075C130.361 14.2573 130.18 13.6226 130.18 12.9751C130.18 12.3276 130.361 11.693 130.702 11.1427C131.053 10.5961 131.549 10.1571 132.134 9.87404C132.77 9.56264 133.47 9.40613 134.178 9.41731C134.771 9.40837 135.359 9.51551 135.911 9.73267C136.408 9.93021 136.853 10.239 137.212 10.6353L136.125 11.5777C135.892 11.3186 135.606 11.1126 135.286 10.9737C134.967 10.8349 134.621 10.7664 134.272 10.773C133.848 10.7656 133.429 10.8627 133.051 11.0558C132.703 11.2307 132.413 11.5011 132.213 11.8351C132.016 12.182 131.912 12.5742 131.912 12.9733C131.912 13.3724 132.016 13.7646 132.213 14.1115C132.413 14.4467 132.703 14.7182 133.051 14.8945C133.429 15.0848 133.849 15.1806 134.272 15.1736C134.622 15.1798 134.968 15.1101 135.288 14.9693C135.608 14.8285 135.893 14.6199 136.125 14.358L137.212 15.3005C136.855 15.7032 136.408 16.0161 135.907 16.214C135.353 16.4305 134.762 16.5376 134.167 16.5293C133.463 16.5397 132.766 16.3832 132.134 16.0726Z" fill="#29295B"/>
<path d="M138.332 9.53711H140.025V14.0138L143.541 9.53711H145.14V16.4244H143.443V11.944L139.927 16.4099H138.332V9.53711Z" fill="#29295B"/>
<path d="M146.949 9.53714H148.642V14.0139L152.158 9.53714H153.76V16.4244H152.075V11.9441L148.559 16.4099H146.949V9.53714ZM148.305 7.59058H149.476C149.476 8.06906 149.78 8.31555 150.349 8.31555C150.578 8.33178 150.805 8.26767 150.991 8.13431C151.067 8.06753 151.127 7.9848 151.167 7.89205C151.207 7.7993 151.226 7.69883 151.223 7.59783H152.39C152.4 7.81208 152.359 8.02562 152.269 8.22051C152.18 8.41541 152.045 8.58598 151.875 8.71791C151.421 9.0071 150.886 9.14187 150.349 9.10215C149.001 9.09732 148.319 8.59346 148.305 7.59058Z" fill="#29295B"/>
<path d="M157.027 16.0726C156.437 15.7915 155.935 15.3539 155.577 14.8075C155.236 14.2573 155.055 13.6226 155.055 12.9751C155.055 12.3276 155.236 11.693 155.577 11.1428C155.935 10.5953 156.437 10.1566 157.027 9.87404C157.664 9.56261 158.366 9.40611 159.075 9.41731C159.667 9.40903 160.256 9.51614 160.808 9.73267C161.304 9.93024 161.747 10.239 162.105 10.6353L161.018 11.5777C160.785 11.3184 160.499 11.1122 160.179 10.9734C159.86 10.8345 159.514 10.7662 159.165 10.773C158.741 10.7656 158.322 10.8627 157.944 11.0558C157.598 11.2327 157.308 11.5026 157.107 11.8351C156.912 12.1828 156.809 12.5747 156.809 12.9733C156.809 13.3719 156.912 13.7639 157.107 14.1115C157.308 14.445 157.598 14.7161 157.944 14.8945C158.323 15.0848 158.742 15.1806 159.165 15.1736C159.515 15.1801 159.862 15.1105 160.181 14.9696C160.501 14.8288 160.787 14.6201 161.018 14.358L162.105 15.3005C161.748 15.7032 161.301 16.0161 160.8 16.214C160.247 16.4305 159.658 16.5376 159.064 16.5293C158.358 16.5398 157.66 16.3833 157.027 16.0726Z" fill="#29295B"/>
<path d="M166.062 13.6403H164.884V16.4097H163.188V9.52246H164.884V12.3027H166.106L168.041 9.52246H169.854L167.443 12.8429L169.926 16.3952H167.99L166.062 13.6403Z" fill="#29295B"/>
<path d="M175.55 14.9273H172.128L171.476 16.399H169.729L173.013 9.51172H174.695L177.99 16.399H176.203L175.55 14.9273ZM175.01 13.7202L173.857 11.0994L172.69 13.7311L175.01 13.7202Z" fill="#29295B"/>
<path d="M184.464 9.53711V16.4244H182.778V14.6119H181.223L179.918 16.4244H178.105L179.642 14.3546C179.181 14.1911 178.781 13.8915 178.493 13.4955C178.221 13.0874 178.082 12.6049 178.095 12.1144C178.082 11.629 178.218 11.1513 178.482 10.7442C178.758 10.349 179.142 10.0419 179.588 9.85972C180.123 9.64301 180.697 9.53815 181.274 9.55161L184.464 9.53711ZM180.215 11.1466C179.973 11.3949 179.838 11.7279 179.838 12.0745C179.838 12.4212 179.973 12.7541 180.215 13.0025C180.525 13.2416 180.912 13.3577 181.303 13.3287H182.796V10.8348H181.346C180.944 10.8028 180.544 10.9132 180.215 11.1466Z" fill="#29295B"/>
<path d="M87.2214 30.6594C86.3353 30.2318 85.5832 29.5699 85.0465 28.7454C84.5322 27.9152 84.2598 26.958 84.2598 25.9815C84.2598 25.0049 84.5322 24.0477 85.0465 23.2175C85.5832 22.393 86.3353 21.7311 87.2214 21.3036C88.1094 20.8891 89.0714 20.6566 90.0507 20.6199C91.03 20.5832 92.0068 20.7429 92.9233 21.0897C93.6753 21.385 94.348 21.8517 94.888 22.4526L93.2351 23.8772C92.8835 23.485 92.4516 23.1732 91.9687 22.9631C91.4858 22.7529 90.9632 22.6493 90.4367 22.6593C89.7974 22.6478 89.1651 22.7935 88.5952 23.0834C88.0711 23.3493 87.6326 23.7576 87.3301 24.2615C87.0331 24.786 86.877 25.3786 86.877 25.9815C86.877 26.5843 87.0331 27.1769 87.3301 27.7015C87.6337 28.2045 88.0719 28.6125 88.5952 28.8796C89.1651 29.1694 89.7974 29.3151 90.4367 29.3037C90.9647 29.3145 91.4888 29.2098 91.9722 28.997C92.4556 28.7841 92.8866 28.4681 93.2351 28.0712L94.888 29.4958C94.3495 30.1051 93.6735 30.5773 92.9161 30.8732C92.0812 31.1989 91.1913 31.3601 90.2953 31.3481C89.2306 31.3647 88.1772 31.1287 87.2214 30.6594Z" fill="#29295B"/>
<path d="M106.68 20.7922V31.1703H104.121V22.7497H99.1002V31.1703H96.541V20.7922H106.68Z" fill="#29295B"/>
<path d="M116.964 28.9446H111.799L110.813 31.1703H108.174L113.133 20.7922H115.67L120.647 31.1703H117.943L116.964 28.9446ZM116.152 27.1322L114.387 23.1448L112.625 27.1322H116.152Z" fill="#29295B"/>
<path d="M129.492 21.2527C130.165 21.5162 130.748 21.9695 131.17 22.5577C131.552 23.1525 131.755 23.8445 131.755 24.5514C131.755 25.2582 131.552 25.9502 131.17 26.545C130.751 27.1353 130.167 27.5891 129.492 27.85C128.674 28.1684 127.802 28.3224 126.925 28.3031H124.685V31.1632H122.111V20.7924H126.925C127.803 20.7716 128.676 20.9282 129.492 21.2527ZM128.545 25.8853C128.735 25.7183 128.886 25.513 128.99 25.283C129.093 25.053 129.147 24.8036 129.147 24.5514C129.147 24.2991 129.093 24.0497 128.99 23.8197C128.886 23.5897 128.735 23.3844 128.545 23.2174C128.024 22.8723 127.404 22.708 126.78 22.7498H124.681V26.3529H126.78C127.404 26.3947 128.024 26.2304 128.545 25.8853Z" fill="#29295B"/>
<path d="M141.642 22.7497H138.083V31.1703H135.545V22.7497H132.004V20.7922H141.65L141.642 22.7497Z" fill="#29295B"/>
<path d="M150.222 28.9446H145.057L144.074 31.1703H141.436L146.394 20.7922H148.932L153.92 31.1703H151.219L150.222 28.9446ZM149.414 27.1322L147.649 23.1448L145.883 27.1322H149.414Z" fill="#29295B"/>
<path d="M159.679 26.9908H157.907V31.1703H155.348V20.7922H157.907V24.9862H159.748L162.674 20.7922H165.392L161.767 25.8018L165.515 31.1703H162.594L159.679 26.9908Z" fill="#29295B"/>
<path d="M166.688 20.7922H169.247V27.5526L174.554 20.7922H176.968V31.1703H174.43V24.4244L169.123 31.1703H166.691L166.688 20.7922Z" fill="#29295B"/>
<path d="M187.268 28.9446H182.085L181.106 31.1703H178.471L183.426 20.7922H185.963L190.937 31.1703H188.236L187.268 28.9446ZM186.456 27.1322L184.695 23.1448L182.929 27.1322H186.456Z" fill="#29295B"/>
<path d="M203.97 29.2129V33.3199H201.585V31.1704H193.737V33.3199H191.352V29.2129H191.797C192.464 29.1948 192.936 28.7381 193.211 27.85C193.537 26.6058 193.709 25.3263 193.722 24.0402L193.849 20.7778H202.397V29.1984L203.97 29.2129ZM195.672 27.3679C195.577 28.0399 195.308 28.6756 194.893 29.2129H199.87V22.7498H196.057L196.006 24.2613C195.976 25.304 195.864 26.3426 195.672 27.3679Z" fill="#29295B"/>
<path d="M213.314 28.9446H208.148L207.162 31.1703H204.523L209.482 20.7922H212.02L216.993 31.1703H214.289L213.314 28.9446ZM212.502 27.1322L210.736 23.1448L208.975 27.1322H212.502Z" fill="#29295B"/>
<path d="M93.1983 62.511V64.5518H85.0134V62.9279L89.1892 58.984C89.5449 58.6718 89.8484 58.3046 90.0882 57.8966C90.2372 57.6175 90.3168 57.3067 90.3202 56.9903C90.3314 56.8009 90.297 56.6116 90.2201 56.4382C90.1432 56.2648 90.0258 56.1123 89.878 55.9935C89.5005 55.7316 89.0461 55.604 88.5875 55.631C88.1452 55.6247 87.707 55.7163 87.3043 55.8992C86.9193 56.0823 86.5883 56.362 86.3437 56.7112L84.5312 55.5368C84.9722 54.8961 85.5768 54.3854 86.2821 54.0578C87.0773 53.6923 87.9444 53.5102 88.8195 53.5249C89.5437 53.509 90.2633 53.6435 90.9328 53.9201C91.4964 54.1523 91.9836 54.5378 92.3393 55.0329C92.6799 55.5321 92.856 56.1252 92.8431 56.7293C92.8505 57.3008 92.7265 57.8664 92.4806 58.3823C92.1095 59.0545 91.618 59.6529 91.0307 60.1476L88.5404 62.5002L93.1983 62.511Z" fill="#29295B"/>
<path d="M96.4468 64.0735C95.724 63.6041 95.1525 62.9356 94.8011 62.1487C94.0038 60.2209 94.0038 58.0555 94.8011 56.1277C95.1514 55.3401 95.7232 54.6713 96.4468 54.2029C97.1705 53.7665 97.9996 53.5359 98.8447 53.5359C99.6898 53.5359 100.519 53.7665 101.243 54.2029C101.967 54.6711 102.54 55.3398 102.892 56.1277C103.684 58.0565 103.684 60.2199 102.892 62.1487C102.539 62.9359 101.966 63.6043 101.243 64.0735C100.518 64.5076 99.6893 64.7369 98.8447 64.7369C98.0001 64.7369 97.1713 64.5076 96.4468 64.0735ZM100.402 61.7681C100.764 61.1989 100.967 60.3181 100.967 59.1364C100.967 57.9547 100.779 57.0738 100.402 56.5083C100.237 56.247 100.008 56.0318 99.7374 55.8826C99.4668 55.7334 99.1628 55.6551 98.8537 55.6551C98.5447 55.6551 98.2407 55.7334 97.97 55.8826C97.6994 56.0318 97.4709 56.247 97.3059 56.5083C96.9289 57.0738 96.7404 57.9498 96.7404 59.1364C96.7404 60.3253 96.9289 61.1989 97.3059 61.7681C97.4709 62.0294 97.6994 62.2446 97.97 62.3938C98.2407 62.543 98.5447 62.6213 98.8537 62.6213C99.1628 62.6213 99.4668 62.543 99.7374 62.3938C100.008 62.2446 100.237 62.0294 100.402 61.7681Z" fill="#29295B"/>
<path d="M112.708 62.5111V64.5519H104.523V62.9279L108.703 58.9841C109.057 58.6719 109.36 58.3047 109.598 57.8966C109.747 57.6176 109.827 57.3067 109.83 56.9904C109.841 56.8014 109.807 56.6125 109.731 56.4392C109.654 56.2659 109.538 56.1131 109.391 55.9935C109.013 55.7311 108.557 55.6035 108.097 55.6311C107.655 55.6247 107.217 55.7163 106.814 55.8993C106.43 56.0833 106.099 56.3629 105.853 56.7113L104.041 55.5368C104.479 54.8951 105.083 54.384 105.788 54.0579C106.584 53.6927 107.451 53.5106 108.326 53.525C109.05 53.5087 109.77 53.6433 110.439 53.9201C111.003 54.1524 111.49 54.5379 111.845 55.033C112.188 55.5314 112.364 56.125 112.349 56.7294C112.355 57.3007 112.231 57.8659 111.987 58.3823C111.613 59.0529 111.122 59.6509 110.537 60.1477L108.047 62.5002L112.708 62.5111Z" fill="#29295B"/>
<path d="M121.839 62.5111V64.5519H113.654V62.9279L117.83 58.9841C118.184 58.6708 118.488 58.3038 118.729 57.8966C118.876 57.6169 118.956 57.3065 118.961 56.9904C118.971 56.8011 118.936 56.6121 118.859 56.4388C118.783 56.2655 118.666 56.113 118.519 55.9935C118.141 55.7316 117.687 55.604 117.228 55.6311C116.785 55.6251 116.345 55.7167 115.941 55.8993C115.558 56.0834 115.228 56.363 114.984 56.7113L113.172 55.5368C113.612 54.8967 114.215 54.386 114.919 54.0579C115.72 53.6903 116.594 53.5081 117.475 53.525C118.198 53.5087 118.916 53.6433 119.584 53.9201C120.149 54.1518 120.638 54.5374 120.994 55.033C121.334 55.5326 121.509 56.1256 121.495 56.7294C121.5 57.3007 121.376 57.8659 121.132 58.3823C120.76 59.0538 120.268 59.6519 119.682 60.1477L117.192 62.5002L121.839 62.5111Z" fill="#29295B"/>
</g>
<defs>
<linearGradient id="paint0_linear_793_7709" x1="4.52352" y1="36.8724" x2="66.8063" y2="36.8724" gradientUnits="userSpaceOnUse">
<stop stop-color="#DDDC41"/>
<stop offset="1" stop-color="#3D9D36"/>
</linearGradient>
<radialGradient id="paint1_radial_793_7709" cx="0" cy="0" r="1" gradientUnits="userSpaceOnUse" gradientTransform="translate(39.5831 34.6249) scale(31.2791 31.2791)">
<stop stop-color="#D9151C"/>
<stop offset="0.74" stop-color="#DA191B"/>
</radialGradient>
<linearGradient id="paint2_linear_793_7709" x1="7.39453" y1="35.2303" x2="61.0609" y2="35.2303" gradientUnits="userSpaceOnUse">
<stop stop-color="#357EC0"/>
<stop offset="0.35" stop-color="#347BBD"/>
<stop offset="0.66" stop-color="#3070B4"/>
<stop offset="0.94" stop-color="#2A5FA6"/>
<stop offset="1" stop-color="#285AA2"/>
</linearGradient>
<clipPath id="clip0_793_7709">
<rect width="217" height="69.9602" fill="white"/>
</clipPath>
</defs>
</svg>
