<svg width="217" height="70" viewBox="0 0 217 70" fill="none" xmlns="http://www.w3.org/2000/svg">
<g clip-path="url(#clip0_795_22088)">
<path d="M55.4857 68.3075H15.8404C12.8254 68.2902 9.94051 67.0775 7.81879 64.9354C5.69708 62.7933 4.51195 59.8969 4.52352 56.8819V16.8559C4.51484 13.8428 5.70124 10.9492 7.82264 8.80944C9.94405 6.6697 12.8273 5.45842 15.8404 5.44116H55.4857C58.501 5.45842 61.3863 6.67108 63.5086 8.81307C65.6309 10.9551 66.8169 13.8515 66.8063 16.8668V56.8819C66.8169 59.8972 65.6309 62.7936 63.5086 64.9356C61.3863 67.0776 58.501 68.2902 55.4857 68.3075ZM16.337 8.29394C11.7552 8.29394 7.51768 12.2306 7.51768 16.8559V56.8819C7.50996 59.0951 8.38027 61.221 9.93775 62.7934C11.4952 64.3659 13.6127 65.2564 15.8259 65.2699H55.4857C57.6995 65.2574 59.818 64.3672 61.3763 62.7947C62.9345 61.2222 63.8053 59.0957 63.7976 56.8819V16.8559C63.8053 14.6421 62.9345 12.5156 61.3763 10.9431C59.818 9.37056 57.6995 8.4804 55.4857 8.46793L16.337 8.29394Z" fill="white"/>
<path d="M37.016 10.8011L11.6405 27.8784C5.58161 31.956 3.97543 40.1732 8.05297 46.2321L20.0868 64.1134C24.1644 70.1723 32.3816 71.7785 38.4405 67.7009L63.8159 50.6236C69.8748 46.546 71.481 38.3288 67.4035 32.2699L55.3696 14.3886C51.2921 8.32975 43.0748 6.72355 37.016 10.8011Z" fill="#D32E1E"/>
<path d="M57.6822 17.8564L49.3703 5.50639C45.8469 0.272062 38.5863 -1.06552 33.236 2.53398L5.54913 21.1659C0.198798 24.7654 -1.29466 31.9934 2.2251 37.2314L10.537 49.5814L57.6822 17.8564Z" fill="white"/>
<path d="M57.6222 17.8455C55.1646 14.3873 52.7504 11.038 50.4051 7.69581L49.5315 6.44162L49.0965 5.81452C48.9479 5.6079 48.792 5.4194 48.6398 5.21641C48.3328 4.82358 47.9997 4.4518 47.6429 4.10357C47.4653 3.92957 47.2804 3.77733 47.0811 3.61422L46.7984 3.37133C46.7041 3.28796 46.5954 3.22634 46.4975 3.15022L45.8849 2.72611L45.236 2.36363L44.9098 2.18238L44.5473 2.03375C44.3189 1.9395 44.0942 1.82714 43.8622 1.74376C43.3955 1.57461 42.9184 1.43538 42.434 1.32691L42.0715 1.24716L41.8902 1.20366L41.7054 1.18191L40.9804 1.08403C40.7375 1.04778 40.4874 1.05866 40.2554 1.04416C40.014 1.02864 39.7719 1.02864 39.5304 1.04416L38.7475 1.09129C38.501 1.11666 38.2581 1.16378 38.0225 1.20003L37.66 1.25804C37.5368 1.28342 37.4208 1.31604 37.2975 1.34866L36.5726 1.52991L35.873 1.78363L35.5105 1.91052L35.177 2.07364L34.5064 2.389L33.8684 2.77324L33.5494 2.96172L33.2268 3.1756L32.5852 3.62871C31.7261 4.20869 30.8597 4.78142 29.9934 5.35053C28.2643 6.49599 26.5207 7.62333 24.7808 8.75067L19.5573 12.1327C16.0702 14.3801 12.6036 16.6577 9.15756 18.9656L6.58027 20.7092L5.93504 21.1441L5.61605 21.3653L5.31156 21.5936L4.70257 22.0576L4.14072 22.5796L3.86161 22.837L3.60786 23.1269L3.10401 23.6997L2.67265 24.2905C2.60015 24.392 2.52403 24.4935 2.45515 24.6023L2.26304 24.9322C2.13979 25.1533 2.00567 25.3707 1.90055 25.5955L1.58518 26.2879C1.47801 26.523 1.38717 26.7652 1.31332 27.0128C1.2372 27.2521 1.13569 27.4877 1.08132 27.7378L0.903705 28.4628L0.856579 28.6477L0.831202 28.8325L0.776831 29.195C0.707332 29.6948 0.668591 30.1984 0.660833 30.703C0.660833 30.9531 0.682588 31.2068 0.689838 31.4569L0.711586 31.8194C0.711586 31.9427 0.747833 32.0695 0.765957 32.1819L0.878328 32.925L1.06682 33.65C1.09944 33.7696 1.1212 33.8929 1.1647 34.0125L1.29519 34.375C1.38581 34.607 1.45831 34.8462 1.55981 35.0746C1.76459 35.5307 1.99952 35.9727 2.26304 36.3977C2.39716 36.6079 2.51677 36.8218 2.66539 37.032L3.10763 37.67L3.9921 38.9532L7.51912 44.0752L11.028 49.2152L10.2269 49.0594C14.1164 46.4132 17.9805 43.7562 21.8845 41.1499C23.8275 39.8377 25.7885 38.5436 27.7496 37.2459C29.7106 35.9482 31.6681 34.6505 33.6473 33.36L39.5812 29.485L42.5536 27.5384L45.5514 25.6027L51.5506 21.7531L57.6222 17.8455ZM57.7419 17.8709L52.0291 21.8945L46.2546 25.9326L43.3547 27.9589L40.4331 29.9816L34.5825 34.0342C32.6323 35.3899 30.664 36.7348 28.6957 38.0796C26.7274 39.4244 24.7591 40.7729 22.7726 42.1068C18.8106 44.7856 14.8233 47.4173 10.8613 50.0598L10.3791 50.3788L10.0602 49.904L6.62014 44.7167L3.22363 39.515L2.36816 38.2137L1.94404 37.5612C1.80267 37.3401 1.67218 37.1009 1.53806 36.8689C1.26835 36.4029 1.03213 35.9184 0.831202 35.4189C0.726081 35.1688 0.657208 34.9078 0.57021 34.6577L0.443337 34.2735C0.403464 34.1466 0.381722 34.0125 0.349098 33.882L0.178728 33.099L0.080849 32.3015C0.080849 32.171 0.0482268 32.0369 0.0373522 31.9028V31.5041C0.0373522 31.2358 0.0192278 30.9712 0.0373522 30.703C0.0596531 30.1718 0.116564 29.6426 0.207722 29.1189L0.272967 28.7238L0.309218 28.528L0.359972 28.3359L0.566593 27.5674C0.631841 27.3101 0.747834 27.0672 0.834831 26.8171C0.920036 26.5689 1.02176 26.3267 1.13932 26.0921L1.50181 25.3671C1.6323 25.1351 1.7773 24.914 1.91142 24.6893L2.12166 24.3522C2.19416 24.2398 2.27753 24.1383 2.35728 24.0332L2.82852 23.3952L3.36137 22.8116L3.62961 22.518L3.92323 22.2534L4.51046 21.7241L5.14481 21.2529C5.35505 21.0934 5.56893 20.9411 5.78642 20.7998L6.43165 20.3684L9.01619 18.6357C12.455 16.3158 15.8708 13.962 19.2637 11.5744L24.3676 8.0112C26.0676 6.82224 27.7641 5.63326 29.4787 4.46243C30.3305 3.87519 31.1896 3.29158 32.0487 2.7116L32.6939 2.27663L33.0165 2.05913L33.379 1.8489L34.075 1.4284L34.8 1.06591L35.1625 0.891924L35.5467 0.757806L36.3152 0.485939L37.1018 0.290181C37.2359 0.261182 37.3664 0.221327 37.4969 0.195953L37.8993 0.137943C38.1675 0.101694 38.4357 0.0509462 38.704 0.0255721L39.4725 0.00382365C39.7416 -0.0142954 40.0117 -0.0142954 40.2808 0.00382365C40.5527 0.0219481 40.8245 0.00382896 41.0928 0.0545773L41.8939 0.166948L42.0969 0.195953L42.2926 0.243056L42.6877 0.340935C43.2125 0.467505 43.7284 0.628564 44.2319 0.823051C44.4857 0.920923 44.7249 1.04416 44.9569 1.15291L45.3194 1.32329C45.439 1.38853 45.555 1.45741 45.6819 1.52628L46.3779 1.93589L47.034 2.41075C47.1427 2.49412 47.2587 2.56299 47.3566 2.65361L47.6611 2.92548C47.8568 3.10672 48.067 3.28797 48.2519 3.47284C48.627 3.85892 48.9746 4.27073 49.2923 4.70529C49.4518 4.92278 49.6149 5.13666 49.7635 5.35778L50.1949 6.02475L51.0576 7.35147C53.3521 10.9111 55.5669 14.4453 57.7419 17.8709Z" fill="#1B458F"/>
<path d="M52.7071 9.35254H18.829C16.0928 9.35253 13.4684 10.438 11.5316 12.3707C9.59479 14.3034 8.50381 16.9255 8.49805 19.6617V53.471C8.49805 56.2109 9.58649 58.8386 11.5239 60.7761C13.4613 62.7135 16.089 63.8019 18.829 63.8019H52.7071C55.4464 63.801 58.0732 62.7121 60.0098 60.7748C61.9465 58.8375 63.0344 56.2103 63.0344 53.471V19.6617C63.0287 16.9262 61.9382 14.3046 60.0022 12.372C58.0661 10.4394 55.4427 9.35349 52.7071 9.35254ZM62.1644 19.6617V53.471C62.1548 55.9733 61.1544 58.3699 59.3819 60.1362C57.6095 61.9025 55.2094 62.8948 52.7071 62.8957H18.829C16.327 62.8947 13.9274 61.9024 12.1555 60.136C10.3836 58.3695 9.3839 55.9729 9.37527 53.471V19.6617C9.3839 17.1598 10.3836 14.7632 12.1555 12.9967C13.9274 11.2303 16.327 10.238 18.829 10.237H52.7071C55.2094 10.238 57.6095 11.2302 59.3819 12.9965C61.1544 14.7629 62.1548 17.1594 62.1644 19.6617Z" fill="white"/>
<path d="M51.3933 11.125H19.9402C17.3925 11.1298 14.9507 12.145 13.1505 13.9479C11.3504 15.7508 10.3388 18.1941 10.3379 20.7418V52.2348C10.3388 54.7822 11.3505 57.2252 13.1507 59.0275C14.951 60.8298 17.3928 61.8442 19.9402 61.848H51.3933C53.9404 61.8432 56.3817 60.8285 58.1817 59.0264C59.9818 57.2243 60.9937 54.7819 60.9956 52.2348V20.7418C60.9947 18.1941 59.9832 15.7508 58.183 13.9479C56.3828 12.145 53.941 11.1298 51.3933 11.125ZM60.1655 20.7418V52.2348C60.1636 54.5618 59.2391 56.793 57.5948 58.4394C55.9504 60.0859 53.7203 61.0131 51.3933 61.0179H19.9402C17.6133 61.0131 15.3831 60.0859 13.7388 58.4394C12.0944 56.793 11.1699 54.5618 11.168 52.2348V20.7418C11.1718 18.4161 12.0971 16.1867 13.7413 14.5419C15.3855 12.897 17.6145 11.9708 19.9402 11.966H51.3933C53.719 11.9708 55.948 12.897 57.5922 14.5419C59.2364 16.1867 60.1617 18.4161 60.1655 20.7418Z" fill="white"/>
<path d="M27.9216 56.2186C47.7135 40.6316 61.6004 41.5668 65.7364 29.8295C64.6489 27.7343 53.2197 11.2266 53.2197 11.2266L53.9918 11.2918C43.6464 25.8312 20.3819 25.8276 12.4941 31.7216C5.53797 36.9197 4.71875 41.2913 4.71875 41.2913L19.9433 63.9287C19.9433 63.9287 25.6959 57.9803 27.9216 56.2186Z" fill="#12448D"/>
<path d="M15.5955 66.9919L13.0364 66.3104L12.75 64.4363C13.0826 63.6352 13.3316 62.8019 13.4931 61.9497C13.7337 60.6599 13.7753 59.3408 13.6164 58.0384L14.7763 57.433L16.306 57.2699L26.3977 47.1021L30.3488 45.8987L37.5986 36.1912L39.0848 31.8414L43.7573 28.0207L46.2947 17.8167L39.9511 17.3346L36.3081 16.3849C35.13 16.3849 33.8903 16.3341 32.5962 16.229C29.7124 16.0024 26.8537 15.5258 24.0524 14.8044L19.9563 16.1492C19.6119 15.7469 20.906 14.2571 20.906 14.2571L15.4687 13.4777L19.398 12.1039L25.8902 13.1914L35.0503 12.9956L40.3716 13.3001L43.1374 13.3436L47.7772 12.5026L50.833 12.5534L53.3523 11.629C51.9201 11.8867 50.4463 11.7833 49.0641 11.3282C47.7271 10.8618 46.4953 10.1362 45.4392 9.1931L48.843 9.23299C48.843 9.23299 44.7178 7.91714 44.5547 7.69602L42.8728 5.39786L45.6349 6.13009L49.4918 5.64434L46.8058 4.24514C48.426 4.32187 50.0491 4.17798 51.6305 3.81741C53.1167 3.42955 54.6246 2.9293 55.6831 2.53056C56.7416 2.13182 58.5613 2.26958 59.4385 2.33845C60.4788 2.25508 60.5078 3.38967 60.6855 4.05664C60.7558 4.38065 60.7069 4.71914 60.5477 5.00999L61.0842 6.41645C60.9824 6.52784 60.9089 6.66203 60.8698 6.80774C60.8307 6.95345 60.8272 7.10642 60.8594 7.25379C60.8898 7.35519 60.9432 7.44822 61.0153 7.52566L62.1717 8.97561C62.1597 9.05271 62.1299 9.12596 62.0847 9.18949C61.878 9.47948 61.4358 9.37436 61.3597 9.55198C61.3234 9.6281 61.3379 9.75859 61.5663 10.0196C61.5952 10.1497 61.5952 10.2846 61.5663 10.4147C61.5228 10.614 61.4285 10.6902 61.3705 10.9113C61.3382 11.0293 61.3247 11.1516 61.3307 11.2738C61.3658 11.4716 61.3658 11.6741 61.3307 11.8719C61.2957 12.083 61.222 12.2858 61.1132 12.47L58.2133 12.8325L56.477 15.9318L57.1621 22.0469L50.5176 31.3158H57.9124L64.2705 32.1966L66.4454 34.1758L65.3579 37.8369L56.6256 42.9118L48.6508 47.1891L44.9752 50.3319L43.5253 52.1444L42.6698 51.0279L42.7822 48.4216C43.6908 47.7268 44.4081 46.8125 44.8665 45.7645C45.1758 45.0453 45.3562 44.2772 45.3993 43.4954L46.9653 42.3173L49.1909 43.2743L54.94 38.4242L45.1528 39.3268L41.7708 43.2235L32.8536 49.9658L30.9687 50.6074L19.0065 59.0244C18.4873 60.4987 17.7755 61.8979 16.8896 63.1857C16.436 63.7232 16.0813 64.3368 15.842 64.9982C15.6295 65.6401 15.5458 66.3176 15.5955 66.9919Z" fill="url(#paint0_radial_795_22088)"/>
<path d="M15.858 67.318L12.8131 66.5096L12.4941 64.4036L12.5231 64.342C13.3412 62.3583 13.6334 60.197 13.3714 58.0673L13.3496 57.9005L14.7017 57.1756L16.1915 57.0161L26.2651 46.8664L30.1981 45.6775L37.379 36.0643L38.8724 31.6709L43.5376 27.8575L45.9953 18.0232L39.9164 17.5629H39.8983L36.2734 16.6204C35.0409 16.6204 33.7976 16.5624 32.5724 16.4645C29.6979 16.2358 26.8481 15.7628 24.0539 15.0508L19.8962 16.4174L19.7874 16.2942C19.559 16.0259 19.6605 15.5692 20.1136 14.9022C20.2296 14.7246 20.3529 14.5397 20.458 14.4237L14.3827 13.5537L19.3524 11.7413L25.9207 12.9411L35.0699 12.7454L40.3949 13.0499L43.1353 13.0934L47.7751 12.2524L50.8092 12.3032L51.6175 12.0059C50.7277 11.9898 49.8453 11.8395 49.0003 11.5601C47.6242 11.0761 46.3567 10.326 45.2703 9.35249L44.8136 8.92113L47.2314 8.95014C44.5272 8.05116 44.4076 7.89167 44.3605 7.8228L42.2581 4.95914L45.6437 5.87987L48.6705 5.49924L45.6582 3.93331L46.8109 4.00218C48.4054 4.0742 50.0024 3.93277 51.5595 3.58168C52.8463 3.24095 54.3543 2.76247 55.5904 2.30211C56.7177 1.878 58.4468 2.01574 59.3747 2.08823H59.4291C60.5166 2.01574 60.7051 2.99808 60.8392 3.65056C60.8646 3.7738 60.8863 3.8898 60.9153 3.9913C60.9954 4.33609 60.9558 4.69788 60.803 5.01715L61.3576 6.4671L61.2525 6.57947C61.1792 6.65716 61.1239 6.75006 61.0907 6.85158C61.0575 6.9531 61.0471 7.06071 61.0603 7.1667C61.0813 7.2324 61.1159 7.29292 61.1618 7.34432L62.387 8.89938V9.00452C62.3687 9.1195 62.3241 9.22868 62.2565 9.32351C62.1057 9.50466 61.8922 9.6224 61.6584 9.65336L61.5751 9.67148C61.6143 9.73781 61.6605 9.79979 61.7128 9.85636L61.7527 9.90348V9.9651C61.7906 10.1297 61.7906 10.3007 61.7527 10.4653C61.7282 10.5717 61.6891 10.6741 61.6367 10.7698C61.6012 10.8353 61.5732 10.9046 61.5533 10.9765C61.5308 11.0615 61.521 11.1495 61.5243 11.2374C61.5624 11.4569 61.5624 11.6813 61.5243 11.9008C61.4854 12.1419 61.4004 12.3732 61.2742 12.5823L61.2126 12.6874L58.3127 13.0499L56.6778 15.9498L57.3666 22.0795L50.9433 31.0365L57.8741 31.0547L64.3119 31.9464L66.6427 34.0851L65.5697 38.0108L56.7322 43.14L48.7575 47.4065L45.1326 50.5131L43.5014 52.5575L42.4139 51.1075L42.5336 48.3019L42.6242 48.233C43.5002 47.562 44.1922 46.6804 44.636 45.6702C44.9338 44.9812 45.1069 44.2448 45.1471 43.4953V43.3793L46.9197 42.0453L49.1345 42.9987L54.1694 38.7503L45.2558 39.5731L41.9209 43.4119L41.8992 43.43L32.9457 50.2122L31.0536 50.8538L19.1929 59.191C18.6654 60.6615 17.9502 62.0578 17.0651 63.3451C17.0325 63.3886 16.9999 63.4357 16.9636 63.4792C16.5686 63.9605 16.2618 64.5079 16.0574 65.096C15.863 65.6967 15.7867 66.3294 15.8327 66.9592L15.858 67.318ZM13.2518 66.1145L15.3324 66.6691C15.3262 66.0885 15.4144 65.5106 15.5934 64.9582C15.8154 64.3192 16.1479 63.7241 16.5758 63.2001C16.6084 63.153 16.6446 63.1095 16.6773 63.066C17.5456 61.7967 18.245 60.4198 18.7579 58.9699L18.7833 58.8938L18.8486 58.8503L30.8324 50.4115L32.7137 49.7699L41.5766 43.0675L45.0094 39.1164L55.6738 38.1304L49.2142 43.5859L46.9777 42.6253L45.6328 43.6511C45.5777 44.4222 45.3926 45.1783 45.0855 45.8877C44.6261 46.9392 43.9153 47.8616 43.0157 48.5737L42.9142 50.9734L43.5231 51.7709L44.7919 50.1832L48.5074 47.0078H48.5291L56.5038 42.7341L65.1419 37.7027L66.1388 34.2844L64.1415 32.472L57.8741 31.602L50.0189 31.5404L56.8881 21.9635L56.203 15.8628L58.0408 12.6004L60.9407 12.2379C61.0036 12.1083 61.0476 11.9704 61.0712 11.8283C61.1002 11.6579 61.1002 11.4839 61.0712 11.3136V11.2809C61.0667 11.1368 61.0826 10.9929 61.1183 10.8532C61.1486 10.7505 61.1886 10.651 61.2379 10.556C61.2717 10.4981 61.2974 10.4359 61.3141 10.3711C61.3269 10.2931 61.3269 10.2135 61.3141 10.1355C61.2194 10.0534 61.1499 9.94611 61.114 9.82607C61.0781 9.70602 61.077 9.57823 61.1111 9.45763C61.1592 9.37784 61.2258 9.31081 61.3053 9.26222C61.3848 9.21364 61.4749 9.18492 61.5678 9.1785C61.7164 9.14588 61.8179 9.12051 61.8723 9.04439V9.02264L60.7848 7.66331C60.6912 7.55894 60.6219 7.43515 60.5818 7.30082C60.5437 7.13885 60.5424 6.97036 60.5782 6.80784C60.6139 6.64532 60.6858 6.49293 60.7885 6.36196L60.2628 4.98451L60.31 4.88663C60.443 4.6513 60.4868 4.37591 60.4332 4.11093C60.4006 3.99493 60.3752 3.87168 60.3498 3.74844C60.194 2.98721 60.0526 2.52684 59.4436 2.57758H59.4219H59.3276C58.4395 2.50871 56.7902 2.37822 55.7535 2.76246C54.5029 3.23007 52.9805 3.71218 51.6755 4.05654C50.4154 4.35644 49.1248 4.50851 47.8295 4.50965L50.3089 5.80374L45.6328 6.38011L43.5014 5.80374L44.7556 7.51107C45.0492 7.69956 47.3583 8.47891 48.9315 8.98277L50.501 9.483L46.1512 9.42862C47.0566 10.14 48.0731 10.6973 49.1598 11.0779C50.5037 11.5192 51.9364 11.6189 53.3284 11.3679L53.459 11.8392L50.8962 12.7816L47.8186 12.7309L43.1788 13.5719H43.1534L40.3767 13.5284L35.262 14.6811L25.8808 13.416L19.3561 12.2597L16.5794 13.3725L21.3932 14.0612L21.0996 14.402C20.6501 14.9203 21.0996 14.9457 20.9909 15.2502L24.0503 14.5252H24.1192C26.908 15.241 29.7531 15.7163 32.6231 15.9462C33.8483 16.0404 35.0917 16.0948 36.3205 16.0984H36.3495L39.9998 17.0518L46.6115 17.552L43.9799 28.1221L39.2965 31.9464L37.8212 36.2963L37.7995 36.3289L30.4989 46.1161L26.5333 47.3231L16.4235 57.5091L14.8503 57.6758L13.8825 58.1833C14.1167 60.3173 13.8165 62.4761 13.0089 64.4652L13.2518 66.1145Z" fill="white"/>
<path d="M10.2364 67.3434L7.67727 66.6655L7.39453 64.7878C8.22897 62.7653 8.52617 60.5613 8.25726 58.3899L9.41721 57.7846L10.9505 57.6215L21.0422 47.4718L24.9933 46.2647L32.2431 36.5609L33.7257 32.211L38.4018 28.394L40.9392 18.1863L34.5956 17.7042L30.9708 16.7545C29.7927 16.7545 28.553 16.7038 27.2553 16.5987C24.3715 16.3717 21.5128 15.8951 18.7114 15.1741L14.6189 16.5189C14.2564 16.1165 15.565 14.6267 15.565 14.6267C13.7526 14.3657 10.3488 14.9312 10.1277 13.8474L13.8722 12.662L20.5456 13.5574L29.7093 13.3652L35.027 13.6661L37.7964 13.7132L42.4363 12.8686L45.492 12.9194L48.0113 11.995C46.5782 12.2525 45.1035 12.1504 43.7195 11.6978C42.383 11.2286 41.1515 10.502 40.0946 9.55911L43.4984 9.60261C43.4984 9.60261 39.3732 8.28315 39.2137 8.06204L37.5282 5.76387L40.2831 6.51423L44.14 6.02848L41.4503 4.62928C43.0705 4.70601 44.6936 4.56211 46.275 4.20155C47.7612 3.81369 49.5157 3.28081 50.6249 3.14307L53.2602 3.35332C54.3005 3.26632 55.1415 3.7738 55.3191 4.44078C55.3901 4.76398 55.3398 5.10199 55.1777 5.3905L55.7142 6.79695C55.6104 6.90531 55.5337 7.03665 55.4902 7.18026C55.4468 7.32387 55.4378 7.47572 55.4641 7.62344C55.4951 7.72563 55.5484 7.81971 55.62 7.89893L56.7763 9.34889C56.7655 9.4268 56.737 9.5012 56.6929 9.56637C56.4827 9.85274 56.0405 9.75124 55.968 9.92886C55.9353 10.0014 55.968 10.1355 56.1746 10.3928C56.2036 10.5229 56.2036 10.6579 56.1746 10.788C56.1311 10.9873 56.0405 11.0634 55.9788 11.2846C55.9466 11.4026 55.9332 11.5249 55.939 11.6471C56.014 12.059 55.9367 12.4841 55.7215 12.8433L52.8216 13.2057L51.0852 16.3014L52.6331 22.8407L51.4912 24.1456L49.5773 24.6531L45.0063 31.6528H52.5352L58.8969 32.5336L61.0718 34.5128L60.0061 38.1739L51.2701 43.2488L43.2954 47.5261L39.6197 50.6689L38.1698 52.4814L37.2962 51.4048L37.4086 48.8021C38.3165 48.1066 39.0335 47.1925 39.4929 46.1451C39.8036 45.4262 39.9841 44.6579 40.0257 43.8759L41.5917 42.6942L43.8173 43.6511L49.5628 38.7902L39.7756 39.6928L36.3936 43.5895L27.48 50.3318L25.5914 50.9734L13.6293 59.3904C13.1116 60.8654 12.3997 62.2648 11.5124 63.5518C11.0598 64.0893 10.7064 64.703 10.4684 65.3642C10.2625 66.0024 10.1836 66.6748 10.2364 67.3434Z" fill="url(#paint1_linear_795_22088)"/>
<path d="M10.5045 67.6696L7.45962 66.8613L7.14062 64.7589L7.166 64.6936C7.49172 63.9078 7.73469 63.0902 7.89098 62.2541C8.1296 60.9909 8.17117 59.6984 8.01422 58.4226L7.99247 58.2522L9.34456 57.5272L10.838 57.3677L20.9116 47.2181L24.8446 46.04L32.0218 36.4304L33.5153 32.0334L38.1805 28.2201L40.6346 18.3785L34.5592 17.9145H34.5375L30.9126 16.972C29.6838 16.972 28.4368 16.914 27.2116 16.8162C24.3372 16.5871 21.4874 16.1142 18.6931 15.4025L14.5136 16.7727L14.4049 16.6494C14.1765 16.3848 14.278 15.9244 14.7311 15.2575C14.8435 15.0871 14.9595 14.9276 15.0646 14.7935C14.5535 14.7608 13.9554 14.7645 13.3754 14.7681C11.6645 14.7681 10.0478 14.7899 9.86292 13.8655L9.81942 13.6516L13.8285 12.3829H13.8829L20.5382 13.2746L29.691 13.0825L35.016 13.3834L37.7528 13.4305L42.3926 12.5859L45.4266 12.6367L46.235 12.3394C45.3463 12.3233 44.4652 12.173 43.6215 11.8936C42.2564 11.4174 40.9979 10.6785 39.9168 9.71864L39.471 9.27278L41.8851 9.30179C39.181 8.40644 39.065 8.24331 39.0142 8.17443L36.9118 5.31079L40.2974 6.2315L43.3242 5.86901L40.3156 4.30306L41.4646 4.37194C43.0592 4.44404 44.6562 4.30263 46.2132 3.95146L47.3007 3.65784C48.389 3.33103 49.4968 3.07315 50.6175 2.88574H50.6428L53.2818 3.09599C54.3946 3.01262 55.3588 3.54546 55.5763 4.36831C55.6578 4.71267 55.6195 5.07454 55.4676 5.39416L56.0222 6.84411L55.917 6.95648C55.8424 7.03327 55.7863 7.12609 55.753 7.22786C55.7197 7.32963 55.7101 7.43766 55.7249 7.54371C55.7436 7.61037 55.7785 7.67138 55.8264 7.72132L57.0516 9.27278V9.3779C57.0355 9.49285 56.992 9.60225 56.9248 9.69689C56.7747 9.88087 56.5589 9.99919 56.323 10.0268L56.2433 10.0449C56.2814 10.111 56.3263 10.173 56.3774 10.2298L56.4209 10.2769V10.3385C56.457 10.5033 56.457 10.6739 56.4209 10.8387C56.3957 10.946 56.3567 11.0496 56.3049 11.1468C56.2696 11.2116 56.2405 11.2796 56.2179 11.3498C56.1956 11.435 56.1858 11.5229 56.1889 11.6108C56.2684 12.0746 56.1797 12.5515 55.9388 12.9557L55.8772 13.0608L52.9773 13.4233L51.3497 16.3232L52.8867 22.8951L51.6107 24.3451L49.7185 24.8743L45.4448 31.3991H52.5387L58.9765 32.2872L61.3109 34.4259L60.1727 38.3262L51.3751 43.5026L43.4003 47.769L39.7755 50.8756L38.1479 52.9272L37.0604 51.4773L37.1764 48.668L37.2707 48.5991C38.0132 48.0403 38.6249 47.3262 39.0631 46.5067C39.5013 45.6872 39.7556 44.782 39.8081 43.8542V43.7382L41.5806 42.4078L43.7954 43.3575L48.8304 39.1092L39.9204 39.9321L36.5711 43.7817H36.5529L27.6067 50.5493L25.6964 51.2054L13.8358 59.5427C13.3078 61.0123 12.5939 62.4083 11.7116 63.6968L11.6065 63.8345C11.212 64.3162 10.9053 64.8634 10.7003 65.4512C10.5068 66.0521 10.4317 66.6849 10.4791 67.3144L10.5045 67.6696ZM7.89461 66.4662L9.97891 67.0208C9.97 66.4402 10.057 65.8621 10.2363 65.3098C10.4583 64.6708 10.7908 64.0758 11.2186 63.5518L11.3201 63.4177C12.1886 62.1497 12.888 60.774 13.4008 59.3252L13.4262 59.249L13.4914 59.2019L25.4753 50.7523L27.3566 50.1107L36.2086 43.4192L39.6413 39.4681L50.3094 38.4821L43.8571 43.9375L41.6241 42.9769L40.2612 44.0028C40.2071 44.7748 40.0233 45.5321 39.7174 46.243C39.2622 47.2969 38.5552 48.2229 37.6585 48.9399L37.557 51.3395L38.1696 52.137L39.4383 50.5493L43.1502 47.3739H43.1756L51.1503 43.0966L59.7703 38.0362L60.7671 34.618L58.7698 32.8055L52.5205 31.9247H44.5458L49.4176 24.4683L51.3497 23.9282L52.361 22.7755L50.8386 16.2507L52.68 12.9593L55.5799 12.5968C55.644 12.4674 55.6892 12.3294 55.7141 12.1872C55.7431 12.0168 55.7431 11.8428 55.7141 11.6725V11.6398C55.706 11.4956 55.7219 11.3511 55.7612 11.2121C55.7882 11.1083 55.8284 11.0084 55.8808 10.9148C55.9133 10.8568 55.9377 10.7947 55.9533 10.73C55.9679 10.6521 55.9679 10.5722 55.9533 10.4944C55.8596 10.4116 55.7911 10.3041 55.7559 10.1842C55.7206 10.0643 55.7199 9.93681 55.7539 9.81652C55.8017 9.73747 55.8678 9.67114 55.9467 9.62317C56.0256 9.5752 56.1149 9.54702 56.207 9.54102C56.3557 9.50477 56.4608 9.4794 56.5115 9.40327V9.38153L55.4241 8.0222C55.3311 7.91742 55.2618 7.79376 55.2211 7.65971C55.1832 7.49772 55.182 7.32929 55.2178 7.16682C55.2535 7.00434 55.3253 6.85197 55.4277 6.72087L54.9021 5.3434L54.9528 5.24554C55.0843 5.00965 55.1268 4.73437 55.0724 4.46981C54.9166 3.87896 54.1445 3.49109 53.26 3.55997H53.2383H53.1223L50.6066 3.36423C49.5191 3.54877 48.4441 3.80056 47.3877 4.11819C47.0252 4.21606 46.6627 4.32118 46.3002 4.4118C45.0418 4.7138 43.752 4.86589 42.4579 4.86491L44.9155 6.14451L40.2286 6.73537L38.1443 6.16626L39.3985 7.87358C39.6921 8.06208 42.0048 8.84143 43.578 9.34529L45.1439 9.84552L40.794 9.79114C41.6998 10.502 42.7163 11.0592 43.8027 11.4405C45.1479 11.8817 46.5817 11.9814 47.9749 11.7304L48.1018 12.2017L45.539 13.1442L42.4615 13.0934L37.8216 13.9344H37.7999L35.0196 13.8909L29.6838 13.5755L20.5128 13.7713H20.4947L13.8757 12.8868L10.4791 13.9742C10.9141 14.3077 12.3133 14.2969 13.379 14.2896C14.1146 14.2662 14.851 14.2929 15.583 14.3694L16.0288 14.431L15.7316 14.7717C15.3518 15.1886 15.041 15.6634 14.8109 16.1782L18.6859 14.9058L18.7547 14.924C21.5467 15.631 24.3943 16.0967 27.266 16.3159C28.4876 16.4138 29.7309 16.4645 30.9597 16.4682H30.9924L34.639 17.4215L41.2544 17.9218L38.6191 28.4919L33.9358 32.3162L32.4641 36.666L32.4387 36.695L25.1418 46.4822L21.1544 47.6929L11.0628 57.8571L9.48955 58.0238L8.5217 58.5313C8.66234 59.8038 8.61348 61.0901 8.37671 62.3483C8.21654 63.1929 7.97372 64.0198 7.65173 64.8169L7.89461 66.4662Z" fill="white"/>
<path d="M10.6352 67.8292L7.35107 66.9556L7.01758 64.7408L7.05383 64.6502C7.86763 62.687 8.15742 60.546 7.8948 58.4371L7.8658 58.1834L9.31575 57.4258L10.7657 57.2699L20.832 47.1202L24.7577 45.9277L31.8988 36.3616L33.3995 31.9501L38.0611 28.144L40.4825 18.4909L34.5087 18.0305L30.9128 17.0917C29.684 17.0917 28.4406 17.0337 27.2191 16.9358C24.3483 16.7083 21.5021 16.2366 18.7114 15.5258L14.4885 16.9141L14.329 16.7292C13.9665 16.316 14.329 15.6418 14.648 15.1923C14.7096 15.098 14.7748 15.0001 14.8473 14.9023C14.3942 14.8805 13.8867 14.8841 13.3974 14.9023C11.6321 14.9023 9.97186 14.924 9.77249 13.9054L9.70725 13.5828L13.8432 12.2742H13.923L20.5783 13.166L29.713 12.9739L35.0452 13.2747L37.782 13.3182L42.3711 12.47L45.4087 12.5207L45.6443 12.4337C44.9431 12.372 44.2512 12.231 43.5818 12.0132C42.1994 11.5242 40.9261 10.7693 39.8336 9.79119L39.1522 9.14958L41.1132 9.17133C39.0761 8.47535 38.9709 8.33399 38.9057 8.24699L36.6039 5.10422L40.2976 6.11193L42.9184 5.77844L39.7503 4.13275L41.4612 4.23424C43.0435 4.30298 44.6279 4.16283 46.1736 3.81739L47.2393 3.53101C48.3373 3.19677 49.4562 2.93523 50.5887 2.74805H50.6104L53.2783 2.9583C54.4274 2.8713 55.4533 3.44401 55.678 4.32123C55.7631 4.67487 55.73 5.04668 55.5838 5.37972L56.1456 6.85505L55.9897 7.02178C55.9291 7.08406 55.8828 7.1588 55.854 7.24081C55.8252 7.32282 55.8146 7.41012 55.823 7.49663C55.8389 7.545 55.8649 7.58948 55.8991 7.62715L57.1715 9.2402L57.1461 9.39607C57.1253 9.52677 57.0744 9.65085 56.9975 9.75856C56.8554 9.94671 56.6489 10.0758 56.4175 10.121L56.4429 10.1501L56.5045 10.2189L56.5262 10.3132C56.5996 10.6137 56.5568 10.9309 56.4066 11.2013C56.3762 11.2595 56.3508 11.3201 56.3305 11.3825C56.3129 11.4561 56.3044 11.5316 56.3051 11.6073C56.3829 12.0942 56.2881 12.593 56.0369 13.0173L55.9463 13.1732L53.0463 13.5357L51.4695 16.3486L53.0101 22.9387L51.6725 24.4647L49.7876 24.9903L45.6588 31.3121H52.5461L59.0455 32.2111L61.4597 34.4223L60.3033 38.4278L60.2635 38.4531L51.4333 43.6041L43.4839 47.8525L39.859 50.9554L38.1481 53.1013L36.9265 51.5064L37.0497 48.6064L37.1875 48.5013C37.9109 47.9538 38.5066 47.2557 38.9335 46.4551C39.3604 45.6546 39.6081 44.7709 39.6597 43.8651V43.6947L41.5301 42.2847L43.7449 43.238L48.4282 39.2832L39.946 40.0662L36.6039 43.9013L27.6432 50.6799L25.751 51.3251L13.9338 59.6623C13.4033 61.1263 12.6896 62.5172 11.8097 63.802L11.7082 63.9397C11.3215 64.4102 11.0208 64.9452 10.8201 65.5201C10.6301 66.1043 10.5563 66.72 10.6026 67.3326L10.6352 67.8292ZM7.57218 66.7635L10.3815 67.5102V67.3362C10.3328 66.6907 10.4104 66.0418 10.6098 65.4259C10.817 64.8254 11.1301 64.2668 11.5342 63.7766L11.6357 63.6388C12.5088 62.3605 13.2142 60.9754 13.7345 59.5173V59.4811L13.7671 59.4594L25.6458 51.1149L27.5344 50.4733L36.477 43.7092L39.8336 39.8233L49.175 38.9642L43.792 43.5026L41.5736 42.5493L39.9025 43.8071V43.8651C39.8597 44.6321 39.6818 45.3856 39.3769 46.0908C38.9282 47.1193 38.2245 48.0163 37.3325 48.6971L37.2853 48.7333L37.1694 51.4411L38.1517 52.7207L39.6886 50.7995L43.3606 47.6603L51.3354 43.3939L60.1149 38.2792L61.2023 34.4948L58.9513 32.4358L52.5534 31.5405H45.2383L49.6571 24.7728L51.5601 24.2436L52.7709 22.8589L51.2339 16.316L52.9159 13.3146L55.8158 12.9521L55.8484 12.9013C55.9645 12.7032 56.0443 12.4859 56.084 12.2597C56.12 12.0535 56.12 11.8425 56.084 11.6363C56.0786 11.5299 56.0909 11.4233 56.1202 11.3209C56.1422 11.2429 56.1726 11.1675 56.2109 11.0961C56.2586 11.0084 56.2939 10.9145 56.316 10.817C56.3503 10.6692 56.3503 10.5154 56.316 10.3676V10.3386L56.2942 10.3132C56.2368 10.2504 56.1869 10.181 56.1456 10.1066L56.0695 9.97244L56.2181 9.93257H56.2979C56.5063 9.91042 56.6983 9.80922 56.8344 9.64982C56.8905 9.57017 56.9265 9.47815 56.9395 9.38158V9.3272L55.7469 7.81563C55.6852 7.75004 55.6404 7.67041 55.6164 7.58363C55.5963 7.4573 55.6058 7.32804 55.6442 7.20601C55.6826 7.08398 55.7487 6.97251 55.8375 6.8804L55.8882 6.82241L55.3445 5.39421L55.3663 5.35071C55.5042 5.05536 55.5399 4.72251 55.4678 4.40462C55.2648 3.63615 54.3549 3.13953 53.2928 3.21928L50.6358 3.00903C49.5212 3.19565 48.4195 3.45232 47.3372 3.7775L46.2497 4.07112C44.681 4.42648 43.0716 4.56915 41.4648 4.49524L40.8776 4.45898L43.7304 5.94157L40.2976 6.37656L37.2201 5.53921L39.1196 8.12736C39.1848 8.21798 39.7285 8.48985 41.9324 9.21483L42.6574 9.45771L39.7757 9.42145L40.0076 9.64258C41.0747 10.5991 42.3184 11.3379 43.6688 11.8175C44.5027 12.0904 45.3724 12.2382 46.2497 12.2561H46.884L45.4595 12.7817L42.4037 12.7273L37.7856 13.5683L35.0234 13.5248L29.6949 13.2239L20.5529 13.4161L13.8505 12.5207L9.97186 13.7459L9.9936 13.8583C10.1567 14.6811 11.7263 14.6739 13.3829 14.663C13.9665 14.663 14.5646 14.663 15.0829 14.6884H15.3077L15.1844 14.866C15.0612 15.0219 14.9524 15.1778 14.8582 15.3191C14.445 15.9426 14.3362 16.3522 14.5247 16.5697L14.5791 16.6313L18.7151 15.272H18.7477C21.5325 15.981 24.3726 16.4515 27.2372 16.6785C28.4588 16.7763 29.7021 16.8271 30.9273 16.8343H30.9563L34.5812 17.7768L40.8015 18.2481L38.2894 28.2781L33.6206 32.0915L32.1199 36.4885L24.9172 46.1343L20.9843 47.345L10.9035 57.4946L9.39187 57.6541L8.13404 58.3139V58.4009C8.29273 59.69 8.25116 60.9959 8.01079 62.2723C7.85221 63.1149 7.60933 63.9395 7.28582 64.7336V64.7662L7.57218 66.7635ZM10.1096 67.1767L7.80055 66.5641L7.53232 64.8024V64.7734C7.85649 63.9833 8.0994 63.1623 8.25729 62.323C8.49224 61.0781 8.5411 59.8052 8.40229 58.5459V58.4625L9.48975 57.9043L11.0195 57.7412L21.1184 47.5661L25.0804 46.359L32.3555 36.6153L33.8345 32.2655L38.5142 28.4412L41.1024 18.0487L34.6319 17.5593L30.9599 16.6096C29.7311 16.6096 28.4841 16.5516 27.2553 16.4537C24.379 16.2261 21.5277 15.7507 18.7332 15.0328H18.697L14.6298 16.3667L14.7023 16.142C14.9387 15.6115 15.2581 15.1221 15.6484 14.692L15.8007 14.518L15.5723 14.4854C14.85 14.4093 14.1233 14.3826 13.3974 14.4057C12.2845 14.4057 10.8962 14.4057 10.4286 14.0649L10.2437 13.9272L13.8867 12.7745H13.9121L20.5348 13.6589L29.7057 13.4668L35.0234 13.7713L37.8218 13.8148L42.4363 12.9739L45.5175 13.0246L47.9534 12.1292L47.8809 11.8682C46.5032 12.0978 45.0905 11.9908 43.763 11.5565C42.6635 11.1673 41.634 10.603 40.7145 9.88544L40.4354 9.66794L44.3539 9.71506L43.5528 9.46134C42.1028 8.99373 39.6669 8.17812 39.3443 7.97512L39.3117 7.94612L37.8617 5.95969L40.2904 6.62305L44.5714 6.07932L42.034 4.75985H42.5124C43.798 4.76096 45.0793 4.61009 46.3294 4.31037L47.4169 4.02038C48.4874 3.69892 49.577 3.44467 50.6793 3.25915L53.3218 3.4694C54.2462 3.38965 55.0763 3.83188 55.2467 4.46624C55.3096 4.75893 55.2631 5.06453 55.1161 5.32533L55.0908 5.37609L55.62 6.76442L55.5838 6.81878C55.492 6.93483 55.4275 7.06998 55.3949 7.21426C55.3622 7.35854 55.3624 7.50828 55.3953 7.6525C55.4298 7.76975 55.4905 7.8776 55.5729 7.96787L56.7002 9.39607L56.6386 9.50121C56.5429 9.60247 56.4145 9.66666 56.2761 9.68245C56.1275 9.71507 55.9716 9.75133 55.9136 9.8927C55.8556 10.0341 55.9136 10.2153 56.0949 10.4437L56.1166 10.469V10.5017C56.1331 10.594 56.1331 10.6885 56.1166 10.7808C56.1 10.8559 56.0718 10.9281 56.0332 10.9947C55.9865 11.082 55.95 11.1744 55.9245 11.2702C55.8882 11.3973 55.8735 11.5296 55.881 11.6616V11.6834C55.9118 11.8645 55.9118 12.0496 55.881 12.2307C55.8565 12.3844 55.8088 12.5336 55.7396 12.673L55.7106 12.7346L52.8107 13.0971L51.02 16.2942L52.5461 22.819L51.4586 24.0442L49.5375 24.5807L44.8251 31.8305L52.5679 31.8486L58.8897 32.7222L60.9703 34.6216L59.9373 38.1595L59.8974 38.1849L51.252 43.2162L43.2048 47.461L39.5002 50.6255L38.1517 52.3183L37.4267 51.365L37.5319 48.8638L37.5753 48.8312C38.4589 48.1312 39.1572 47.2251 39.6089 46.1923C39.9103 45.4955 40.0916 44.7528 40.1454 43.9956V43.9412L41.5953 42.8538L43.8246 43.8107L49.9398 38.6525L39.6995 39.5986L36.2921 43.5026L27.4148 50.2195L25.5298 50.8611L13.5279 59.3107V59.3506C13.013 60.8125 12.3086 62.2006 11.4327 63.4793L11.3312 63.6098C10.9112 64.1254 10.5849 64.7106 10.367 65.3389C10.1901 65.8779 10.1043 66.4427 10.1132 67.01L10.1096 67.1767ZM8.01442 66.372L9.87036 66.865C9.87841 66.3243 9.96761 65.7879 10.135 65.2737C10.359 64.6208 10.6978 64.0131 11.1354 63.4793L11.2333 63.3452C12.0977 62.0893 12.7913 60.7241 13.2959 59.2853L13.3357 59.173L13.4336 59.1041L25.432 50.6545L27.3133 50.0165L36.1508 43.3322L39.6053 39.3449L50.7083 38.3299L43.8971 44.0753L41.6461 43.1147L40.3846 44.0645C40.3242 44.8315 40.1381 45.5835 39.8336 46.2901C39.3723 47.3405 38.6649 48.2643 37.7711 48.9834L37.6732 51.2888L38.1626 51.9268L39.337 50.4769L43.096 47.2399L51.0708 42.9625L59.669 37.9565L60.6296 34.6579L58.7193 32.9071L52.5207 32.0407H44.3466L49.3635 24.3596L51.3064 23.8195L52.2525 22.732L50.7083 16.2217L52.6041 12.8397L55.504 12.4772C55.5485 12.3752 55.5801 12.2681 55.5983 12.1583C55.6273 12.0025 55.6273 11.8427 55.5983 11.687V11.6471C55.5892 11.4883 55.6064 11.3291 55.649 11.1759C55.6815 11.0717 55.7265 10.9719 55.7831 10.8787C55.8107 10.8285 55.8314 10.7748 55.8447 10.7192C55.854 10.6664 55.854 10.6124 55.8447 10.5597C55.7437 10.4603 55.6722 10.3348 55.6382 10.1972C55.6043 10.0596 55.6093 9.91526 55.6526 9.78031C55.7057 9.68074 55.7824 9.59567 55.8759 9.53249C55.9694 9.46931 56.0769 9.42994 56.1891 9.41782C56.2509 9.40645 56.3116 9.38948 56.3704 9.36709L55.3663 8.09475C55.2638 7.97659 55.1873 7.8383 55.1415 7.68876C55.0999 7.52056 55.0952 7.34532 55.1277 7.17512C55.1603 7.00492 55.2293 6.84377 55.33 6.70278L54.808 5.33259L54.8805 5.18759C55.001 4.9795 55.041 4.73446 54.9929 4.49887C54.8515 3.96239 54.1338 3.61077 53.3182 3.67602H53.282L50.6612 3.4694C49.5836 3.65427 48.5183 3.90486 47.4713 4.21975L46.3838 4.51336C45.2687 4.78523 44.1275 4.93593 42.98 4.96285L45.3616 6.19894L40.2686 6.84416L38.4562 6.35118L39.4929 7.76127C39.8155 7.94251 41.8636 8.64574 43.6253 9.21122L45.9561 9.95794L41.1567 9.89631C41.9762 10.4973 42.8801 10.9737 43.8391 11.31C45.1646 11.7441 46.5773 11.8413 47.9498 11.5927H48.0585L48.2434 12.2779L45.5573 13.2675L42.4581 13.2131L37.7928 14.0541L35.0162 14.0106L29.684 13.6952L20.513 13.8909H20.484L13.8904 13.0065L10.8056 13.9852C11.3747 14.1701 12.5129 14.1592 13.3792 14.1555C14.1197 14.1304 14.861 14.1571 15.5977 14.2353L16.2646 14.3296L15.8261 14.837C15.5194 15.1822 15.2519 15.5603 15.0286 15.9644L18.6788 14.7645L18.7839 14.7899C21.5655 15.5048 24.4033 15.979 27.2662 16.2072C28.4878 16.3015 29.7275 16.3559 30.9527 16.3595H31.0143L34.6646 17.3128L41.396 17.8203L38.7172 28.5681L34.0338 32.396L32.5295 36.7458L25.2072 46.533L21.2199 47.7474L11.0992 57.9369L9.50787 58.1109L8.65965 58.6003C8.87991 60.7178 8.57874 62.857 7.78242 64.8314L8.01442 66.372Z" fill="white"/>
<path d="M88.672 36.4702V40.8853H87.6571V37.304H85.6634V40.8853H84.6484V36.4702H88.672Z" fill="white"/>
<path d="M90.6372 40.6642C90.2788 40.4787 89.9798 40.1961 89.7745 39.8486C89.5678 39.4936 89.459 39.0903 89.459 38.6796C89.459 38.2689 89.5678 37.8655 89.7745 37.5105C89.9803 37.1626 90.2791 36.8789 90.6372 36.6913C91.0206 36.4959 91.4448 36.394 91.8751 36.394C92.3054 36.394 92.7296 36.4959 93.113 36.6913C93.4694 36.8814 93.7675 37.1645 93.9757 37.5105C94.1345 37.7721 94.2384 38.0633 94.2809 38.3663C94.3234 38.6693 94.3037 38.9779 94.2229 39.273C94.1422 39.5682 94.0021 39.8438 93.8113 40.083C93.6205 40.3221 93.3828 40.5199 93.113 40.6642C92.7296 40.8596 92.3054 40.9615 91.8751 40.9615C91.4448 40.9615 91.0206 40.8596 90.6372 40.6642ZM92.5838 39.9102C92.7914 39.7926 92.9621 39.6193 93.0767 39.41C93.1985 39.188 93.261 38.9382 93.258 38.685C93.26 38.4319 93.1976 38.1824 93.0767 37.96C92.9621 37.7507 92.7914 37.5775 92.5838 37.4598C92.3664 37.3434 92.1235 37.2824 91.8769 37.2824C91.6303 37.2824 91.3875 37.3434 91.1701 37.4598C90.9613 37.5772 90.7894 37.7504 90.6734 37.96C90.5537 38.1827 90.4926 38.4322 90.4958 38.685C90.4918 38.9379 90.5529 39.1876 90.6734 39.41C90.7894 39.6196 90.9613 39.7928 91.1701 39.9102C91.3866 40.0292 91.6298 40.0916 91.8769 40.0916C92.124 40.0916 92.3672 40.0292 92.5838 39.9102Z" fill="white"/>
<path d="M100.799 36.4702V40.8853H99.788V37.304H98.2764L98.2438 38.2247C98.2342 38.7354 98.1833 39.2446 98.0915 39.7471C98.0399 40.0755 97.9023 40.3844 97.6928 40.6425C97.5926 40.7489 97.4702 40.8321 97.3342 40.8859C97.1983 40.9398 97.0522 40.9631 96.9062 40.9542C96.7362 40.9507 96.5671 40.9276 96.4023 40.8853L96.464 40.0226C96.5238 40.0409 96.5862 40.0495 96.6488 40.048C96.7705 40.0452 96.8875 40.001 96.9805 39.9225C97.0735 39.844 97.1368 39.7361 97.16 39.6166C97.2772 39.1742 97.3381 38.7186 97.3412 38.2609L97.4064 36.4702H100.799Z" fill="white"/>
<path d="M105.321 40.0661V40.8853H101.902V36.4702H105.241V37.2931H102.906V38.25H104.958V39.0439H102.906V40.0661H105.321Z" fill="white"/>
<path d="M109.523 37.304H108.109V40.8853H107.102V37.304H105.695V36.4702H109.523V37.304Z" fill="white"/>
<path d="M114.212 36.4702V40.8853H113.194V39.0729H111.186V40.8853H110.156V36.4702H111.178V38.2138H113.187V36.4702H114.212Z" fill="white"/>
<path d="M115.317 36.4702H116.318V39.3484L118.424 36.4702H119.384V40.8853H118.373V38.018L116.267 40.8853H115.303L115.317 36.4702Z" fill="white"/>
<path d="M124.515 40.8853V38.2428L123.217 40.4177H122.76L121.463 38.2899V40.8817H120.502V36.4702H121.35L123 39.2143L124.627 36.4702H125.472V40.8853H124.515Z" fill="white"/>
<path d="M132.033 38.9751C132.179 39.1675 132.255 39.4043 132.247 39.6457C132.253 39.8227 132.215 39.9985 132.137 40.1577C132.06 40.3169 131.944 40.4547 131.801 40.5592C131.423 40.7989 130.979 40.913 130.532 40.8854H128.357V36.4703H130.413C130.833 36.4469 131.251 36.5505 131.613 36.7675C131.75 36.8596 131.862 36.9858 131.937 37.1337C132.012 37.2817 132.048 37.4464 132.04 37.6121C132.045 37.8163 131.988 38.0172 131.877 38.1885C131.764 38.3612 131.605 38.4982 131.417 38.5836C131.658 38.6474 131.873 38.7841 132.033 38.9751ZM129.369 38.3009H130.322C130.5 38.3128 130.677 38.2656 130.826 38.1667C130.88 38.1152 130.924 38.0531 130.954 37.9843C130.983 37.9154 130.999 37.8412 130.999 37.7662C130.999 37.6912 130.983 37.617 130.954 37.5481C130.924 37.4792 130.88 37.4171 130.826 37.3656C130.679 37.2647 130.503 37.2162 130.326 37.2279H129.369V38.3009ZM131.21 39.5623C131.21 39.1998 130.971 39.015 130.485 39.015H129.369V40.1278H130.492C130.971 40.1278 131.21 39.9393 131.21 39.5623Z" fill="white"/>
<path d="M133.055 36.4702H134.081V39.3484L136.187 36.4702H137.144V40.8853H136.136V38.018L134.03 40.8853H133.066L133.055 36.4702Z" fill="white"/>
<path d="M142.756 40.0552V41.8024H141.81V40.8853H138.692V41.8024H137.746V40.0552H137.92C138.188 40.0552 138.373 39.8522 138.482 39.4753C138.612 38.9435 138.68 38.3986 138.685 37.8513L138.736 36.4702H142.129V40.0552H142.756ZM139.461 39.2686C139.423 39.552 139.318 39.822 139.153 40.0552H141.128V37.304H139.613V37.9455C139.595 38.3897 139.544 38.8319 139.461 39.2686Z" fill="white"/>
<path d="M146.466 39.9392H144.418L144.026 40.8853H142.979L144.954 36.4702H145.962L147.937 40.8853H146.85L146.466 39.9392ZM146.147 39.1635L145.443 37.4743L144.744 39.1526L146.147 39.1635Z" fill="white"/>
<path d="M152.535 40.8853V38.2428L151.237 40.4177H150.784L149.482 38.2899V40.8817H148.525V36.4702H149.37L151.023 39.2143L152.651 36.4702H153.495V40.8853H152.535Z" fill="white"/>
<path d="M157.245 40.6678C156.89 40.4805 156.593 40.1997 156.386 39.8559C156.182 39.4975 156.074 39.0921 156.074 38.6796C156.074 38.2671 156.182 37.8617 156.386 37.5033C156.593 37.1585 156.89 36.8765 157.245 36.6877C157.622 36.4884 158.044 36.3874 158.47 36.3941C158.827 36.3896 159.182 36.4587 159.511 36.5971C159.811 36.7271 160.077 36.9257 160.286 37.1771L159.63 37.7824C159.496 37.6187 159.327 37.4873 159.135 37.3982C158.943 37.3091 158.733 37.2645 158.521 37.2677C158.268 37.2644 158.019 37.3255 157.796 37.4453C157.586 37.5616 157.412 37.735 157.296 37.9455C157.176 38.1682 157.115 38.4177 157.118 38.6705C157.114 38.9234 157.175 39.1731 157.296 39.3955C157.412 39.6061 157.586 39.7795 157.796 39.8957C158.018 40.0185 158.268 40.0809 158.521 40.077C158.734 40.0799 158.944 40.0344 159.136 39.9439C159.328 39.8535 159.497 39.7205 159.63 39.555L160.286 40.1604C160.077 40.4147 159.81 40.6149 159.507 40.744C159.146 40.892 158.757 40.9606 158.366 40.9449C157.976 40.9293 157.594 40.8298 157.245 40.6533V40.6678Z" fill="white"/>
<path d="M164.979 36.4702V40.8853H163.964V37.304H161.97V40.8853H160.955V36.4702H164.979Z" fill="white"/>
<path d="M166.944 40.6642C166.585 40.4781 166.285 40.1957 166.077 39.8486C165.873 39.4928 165.766 39.0898 165.766 38.6796C165.766 38.2694 165.873 37.8663 166.077 37.5105C166.286 37.1635 166.585 36.8802 166.944 36.6913C167.327 36.4959 167.751 36.394 168.181 36.394C168.612 36.394 169.036 36.4959 169.419 36.6913C169.776 36.8814 170.074 37.1645 170.282 37.5105C170.441 37.7721 170.545 38.0633 170.587 38.3663C170.63 38.6693 170.61 38.9779 170.529 39.273C170.449 39.5682 170.308 39.8438 170.118 40.083C169.927 40.3221 169.689 40.5199 169.419 40.6642C169.036 40.8596 168.612 40.9615 168.181 40.9615C167.751 40.9615 167.327 40.8596 166.944 40.6642ZM168.89 39.9102C169.098 39.7926 169.268 39.6193 169.383 39.41C169.505 39.188 169.567 38.9382 169.564 38.685C169.566 38.4319 169.504 38.1824 169.383 37.96C169.268 37.7507 169.098 37.5775 168.89 37.4598C168.673 37.3434 168.43 37.2824 168.183 37.2824C167.937 37.2824 167.694 37.3434 167.476 37.4598C167.268 37.5772 167.096 37.7504 166.98 37.96C166.86 38.1827 166.799 38.4322 166.802 38.685C166.798 38.9379 166.859 39.1876 166.98 39.41C167.096 39.6196 167.268 39.7928 167.476 39.9102C167.693 40.0292 167.936 40.0916 168.183 40.0916C168.43 40.0916 168.674 40.0292 168.89 39.9102Z" fill="white"/>
<path d="M174.318 36.6661C174.588 36.783 174.818 36.9756 174.981 37.2207C175.141 37.4756 175.223 37.7717 175.217 38.0726C175.223 38.3724 175.141 38.6675 174.981 38.9208C174.82 39.1678 174.589 39.361 174.318 39.4754C173.996 39.6111 173.648 39.6766 173.299 39.6675H172.411V40.8855H171.389V36.4704H173.299C173.649 36.4623 173.996 36.5291 174.318 36.6661ZM173.955 38.6381C174.031 38.5642 174.091 38.4759 174.132 38.3785C174.173 38.2811 174.194 38.1765 174.194 38.0708C174.194 37.9651 174.173 37.8605 174.132 37.7631C174.091 37.6657 174.031 37.5774 173.955 37.5035C173.753 37.3565 173.505 37.2858 173.255 37.3041H172.425V38.8374H173.23C173.488 38.8619 173.746 38.791 173.955 38.6381Z" fill="white"/>
<path d="M179.146 37.304H177.733V40.8853H176.725V37.304H175.318V36.4702H179.146V37.304Z" fill="white"/>
<path d="M182.555 39.9392H180.507L180.116 40.8853H179.068L181.037 36.4702H182.044L184.02 40.8853H182.932L182.555 39.9392ZM182.233 39.1635L181.533 37.4743L180.841 39.1526L182.233 39.1635Z" fill="white"/>
<path d="M187.259 40.6678C186.904 40.4805 186.607 40.1997 186.4 39.8559C186.195 39.4975 186.088 39.0921 186.088 38.6796C186.088 38.2671 186.195 37.8617 186.4 37.5033C186.607 37.1585 186.904 36.8765 187.259 36.6877C187.636 36.4884 188.057 36.3874 188.484 36.3941C188.848 36.3928 189.209 36.4681 189.543 36.6152C189.844 36.7452 190.111 36.9438 190.322 37.1952L189.666 37.8006C189.531 37.6369 189.361 37.5057 189.168 37.4166C188.975 37.3275 188.765 37.2828 188.553 37.2858C188.3 37.2807 188.05 37.342 187.828 37.4635C187.616 37.5785 187.441 37.7521 187.324 37.9637C187.204 38.1863 187.143 38.4358 187.146 38.6886C187.142 38.9416 187.204 39.1912 187.324 39.4136C187.441 39.6252 187.616 39.7988 187.828 39.9139C188.05 40.0366 188.3 40.0991 188.553 40.0951C188.766 40.0975 188.976 40.0518 189.169 39.9614C189.362 39.871 189.532 39.7383 189.666 39.5731L190.322 40.1785C190.111 40.433 189.843 40.6332 189.539 40.7621C189.177 40.9101 188.788 40.9787 188.398 40.963C188.008 40.9474 187.625 40.848 187.277 40.6715L187.259 40.6678Z" fill="white"/>
<path d="M193.892 36.6659C194.164 36.7817 194.395 36.9745 194.559 37.2205C194.718 37.4757 194.798 37.7719 194.791 38.0724C194.799 38.3718 194.718 38.6669 194.559 38.9206C194.398 39.1692 194.166 39.3628 193.892 39.4752C193.57 39.6114 193.223 39.6769 192.873 39.6673H191.985V40.8853H190.963V36.4702H192.873C193.223 36.4618 193.57 36.5285 193.892 36.6659ZM193.529 38.6379C193.605 38.564 193.665 38.4757 193.706 38.3783C193.747 38.2809 193.768 38.1763 193.768 38.0706C193.768 37.9649 193.747 37.8603 193.706 37.7629C193.665 37.6655 193.605 37.5772 193.529 37.5033C193.327 37.3568 193.079 37.2863 192.83 37.3039H191.996V38.8372H192.83C193.079 38.8549 193.327 38.7843 193.529 38.6379Z" fill="white"/>
<path d="M198.889 40.0661V40.8853H195.471V36.4702H198.809V37.2931H196.486V38.25H198.537V39.0439H196.486V40.0661H198.889Z" fill="white"/>
<path d="M204.272 40.0552V41.8024H203.315V40.8853H200.198V41.8024H199.252V40.0552H199.426C199.694 40.0552 199.879 39.8522 199.988 39.4753C200.117 38.9435 200.186 38.3986 200.191 37.8513L200.242 36.4702H203.634V40.0552H204.272ZM200.977 39.2686C200.94 39.552 200.834 39.822 200.669 40.0552H202.645V37.304H201.141V37.9455C201.119 38.39 201.064 38.8322 200.977 39.2686Z" fill="white"/>
<path d="M204.957 36.4702H205.972V39.3484L208.078 36.4702H209.039V40.8853H208.027V38.018L205.921 40.8853H204.957V36.4702Z" fill="white"/>
<path d="M85.5069 48.2367C85.1527 48.0483 84.8559 47.7678 84.6478 47.4247C84.4434 47.0664 84.3359 46.661 84.3359 46.2484C84.3359 45.8359 84.4434 45.4305 84.6478 45.0722C84.8548 44.7273 85.1518 44.4454 85.5069 44.2566C85.8841 44.0573 86.3055 43.9563 86.7321 43.963C87.0892 43.9584 87.4433 44.0275 87.7725 44.166C88.0746 44.2946 88.3418 44.4934 88.5518 44.7459L87.8957 45.3513C87.7608 45.1872 87.5907 45.0554 87.3981 44.9657C87.2056 44.876 86.9953 44.8306 86.7829 44.8329C86.5295 44.829 86.2796 44.8914 86.0579 45.0142C85.8455 45.1292 85.6706 45.3029 85.554 45.5144C85.4343 45.7371 85.3731 45.9866 85.3764 46.2394C85.3723 46.4923 85.4335 46.742 85.554 46.9644C85.6706 47.1759 85.8455 47.3495 86.0579 47.4646C86.2796 47.5873 86.5295 47.6498 86.7829 47.6458C86.9957 47.6482 87.2063 47.6025 87.399 47.5121C87.5917 47.4217 87.7615 47.289 87.8957 47.1238L88.5518 47.7292C88.3414 47.9837 88.0728 48.1839 87.7688 48.3128C87.4074 48.4609 87.0183 48.5294 86.628 48.5138C86.2377 48.4981 85.8554 48.3987 85.5069 48.2222V48.2367Z" fill="white"/>
<path d="M89.2266 44.0391H90.2415V46.9172L92.3476 44.0391H93.3082V48.4542H92.2968V45.5869L90.1908 48.4542H89.2266V44.0391Z" fill="white"/>
<path d="M98.3074 44.0391V48.4542H97.2997V44.8728H95.7881L95.7555 45.7935C95.7459 46.3043 95.695 46.8134 95.6032 47.316C95.5508 47.6441 95.4133 47.9528 95.2045 48.2113C95.1043 48.3178 94.9819 48.4009 94.8459 48.4548C94.71 48.5087 94.5639 48.532 94.4179 48.523C94.2479 48.5196 94.0788 48.4965 93.9141 48.4542L93.9757 47.5915C94.036 47.6079 94.0981 47.6164 94.1606 47.6168C94.2822 47.6141 94.3992 47.5698 94.4922 47.4913C94.5852 47.4129 94.6485 47.3049 94.6717 47.1855C94.7889 46.743 94.8498 46.2875 94.8529 45.8298L94.9145 44.0391H98.3074Z" fill="white"/>
<path d="M102.791 45.8515C102.939 45.9847 103.054 46.15 103.129 46.3346C103.204 46.5193 103.236 46.7185 103.222 46.9172C103.235 47.1312 103.2 47.3455 103.117 47.5435C103.035 47.7414 102.908 47.9179 102.747 48.0591C102.36 48.3446 101.885 48.4845 101.406 48.4542H99.4121V44.0391H100.427V45.489H101.551C101.994 45.4598 102.433 45.5882 102.791 45.8515ZM101.968 47.49C102.045 47.4189 102.106 47.331 102.145 47.2331C102.184 47.1351 102.2 47.0296 102.192 46.9245C102.192 46.4641 101.913 46.2357 101.348 46.2357H100.427V47.6857H101.348C101.571 47.699 101.792 47.6293 101.968 47.49Z" fill="white"/>
<path d="M108.008 44.0391V48.4542H106.989V46.6417H104.981V48.4542H103.959V44.0391H104.981V45.779H106.989V44.0391H108.008Z" fill="white"/>
<path d="M112.532 47.635V48.4542H109.113V44.0391H112.448V44.8583H110.128V45.8189H112.176V46.6127H110.128V47.635H112.532Z" fill="white"/>
<path d="M113.357 44.039H114.372V46.9172L116.478 44.039H117.439V48.4541H116.428V45.5868L114.322 48.4541H113.357V44.039ZM114.169 42.792H114.869C114.869 43.0965 115.054 43.2524 115.395 43.2524C115.532 43.2614 115.669 43.2202 115.779 43.1364C115.827 43.0895 115.864 43.0328 115.887 42.9703C115.911 42.9077 115.921 42.8407 115.917 42.7739H116.616C116.625 42.9104 116.602 43.0471 116.548 43.1729C116.495 43.2988 116.412 43.4104 116.308 43.4989C116.04 43.6809 115.718 43.7677 115.395 43.7454C114.586 43.7563 114.18 43.4337 114.169 42.7776V42.792Z" fill="white"/>
<path d="M124.362 44.0391V48.4542H118.533V44.0391H119.548V47.6241H120.944V44.0391H121.959V47.6241H123.347V44.0391H124.362Z" fill="white"/>
<path d="M125.46 44.0391H126.468V46.9172L128.574 44.0391H129.531V48.4542H128.523V45.5869L126.417 48.4542H125.453L125.46 44.0391Z" fill="white"/>
<path d="M131.43 44.0391L132.347 45.3766L133.261 44.0391H134.461L132.993 46.1524L134.584 48.4542H133.377L132.351 47.0042L131.336 48.4542H130.154L131.731 46.1959L130.256 44.0391H131.43Z" fill="white"/>
<path d="M137.843 48.2367C137.489 48.0483 137.192 47.7678 136.984 47.4247C136.779 47.0664 136.672 46.661 136.672 46.2484C136.672 45.8359 136.779 45.4305 136.984 45.0722C137.191 44.7273 137.488 44.4454 137.843 44.2566C138.22 44.0573 138.641 43.9563 139.068 43.963C139.425 43.9584 139.779 44.0275 140.108 44.166C140.409 44.2947 140.675 44.4936 140.884 44.7459L140.243 45.3513C140.108 45.1872 139.938 45.0554 139.745 44.9657C139.552 44.876 139.342 44.8306 139.13 44.8329C138.876 44.829 138.626 44.8914 138.405 45.0142C138.192 45.1292 138.017 45.3029 137.901 45.5144C137.781 45.7371 137.72 45.9866 137.723 46.2394C137.719 46.4923 137.78 46.742 137.901 46.9643C138.017 47.1759 138.192 47.3495 138.405 47.4646C138.626 47.5873 138.876 47.6498 139.13 47.6458C139.342 47.6486 139.553 47.6035 139.745 47.5137C139.938 47.424 140.108 47.292 140.243 47.1275L140.895 47.7328C140.686 47.9872 140.419 48.1874 140.116 48.3164C139.754 48.4645 139.365 48.533 138.975 48.5174C138.585 48.5017 138.202 48.4023 137.854 48.2258L137.843 48.2367Z" fill="white"/>
<path d="M145.578 44.0391V48.4542H144.563V44.8728H142.57V48.4542H141.555V44.0391H145.578Z" fill="white"/>
<path d="M147.543 48.2331C147.185 48.0476 146.886 47.7649 146.68 47.4175C146.521 47.1558 146.416 46.8643 146.374 46.5609C146.331 46.2575 146.35 45.9485 146.431 45.6529C146.512 45.3573 146.652 45.0813 146.843 44.8418C147.035 44.6024 147.273 44.4044 147.543 44.2602C147.926 44.0648 148.351 43.9629 148.781 43.9629C149.211 43.9629 149.635 44.0648 150.019 44.2602C150.374 44.45 150.672 44.7316 150.881 45.0758C151.088 45.4314 151.197 45.8354 151.197 46.2466C151.197 46.6579 151.088 47.0618 150.881 47.4175C150.674 47.7632 150.376 48.0454 150.019 48.2331C149.635 48.4285 149.211 48.5303 148.781 48.5303C148.351 48.5303 147.926 48.4285 147.543 48.2331ZM149.49 47.4791C149.697 47.3614 149.868 47.1882 149.983 46.9789C150.104 46.7568 150.167 46.5071 150.164 46.2539C150.166 46.0008 150.103 45.7513 149.983 45.5289C149.868 45.3196 149.697 45.1463 149.49 45.0287C149.273 44.9097 149.03 44.8473 148.783 44.8473C148.536 44.8473 148.292 44.9097 148.076 45.0287C147.867 45.1461 147.695 45.3193 147.579 45.5289C147.459 45.7516 147.398 46.0011 147.402 46.2539C147.398 46.5068 147.459 46.7565 147.579 46.9789C147.695 47.1885 147.867 47.3616 148.076 47.4791C148.292 47.5981 148.536 47.6605 148.783 47.6605C149.03 47.6605 149.273 47.5981 149.49 47.4791Z" fill="white"/>
<path d="M154.915 44.2274C155.186 44.3432 155.417 44.5361 155.579 44.782C155.733 45.0388 155.814 45.3326 155.814 45.6321C155.814 45.9315 155.733 46.2253 155.579 46.4821C155.419 46.7301 155.188 46.9236 154.915 47.0367C154.593 47.1724 154.246 47.2379 153.897 47.2288H153.009V48.4468H151.986V44.0389H153.897C154.246 44.0286 154.593 44.0928 154.915 44.2274ZM154.553 46.1994C154.628 46.1254 154.688 46.0372 154.729 45.9398C154.77 45.8424 154.791 45.7377 154.791 45.6321C154.791 45.5264 154.77 45.4218 154.729 45.3244C154.688 45.2269 154.628 45.1387 154.553 45.0648C154.35 44.9177 154.103 44.8471 153.853 44.8654H153.023V46.4024H153.853C154.097 46.4159 154.338 46.347 154.538 46.2066L154.553 46.1994Z" fill="white"/>
<path d="M159.744 44.8728H158.33V48.4542H157.322V44.8728H155.916V44.0391H159.744V44.8728Z" fill="white"/>
<path d="M161.19 48.2367C160.836 48.0483 160.539 47.7678 160.331 47.4248C160.127 47.0664 160.02 46.661 160.02 46.2485C160.02 45.836 160.127 45.4306 160.331 45.0722C160.538 44.7274 160.835 44.4455 161.19 44.2566C161.569 44.0567 161.991 43.9557 162.419 43.963C162.775 43.9588 163.128 44.0279 163.456 44.166C163.758 44.2946 164.025 44.4935 164.235 44.746L163.579 45.3513C163.444 45.1872 163.274 45.0555 163.082 44.9658C162.889 44.8761 162.679 44.8307 162.466 44.833C162.213 44.829 161.963 44.8915 161.741 45.0142C161.529 45.1293 161.354 45.3029 161.238 45.5145C161.118 45.7371 161.057 45.9866 161.06 46.2394C161.056 46.4923 161.117 46.742 161.238 46.9644C161.349 47.1848 161.523 47.3676 161.738 47.49C161.96 47.6127 162.209 47.6752 162.463 47.6713C162.676 47.6736 162.886 47.6279 163.079 47.5375C163.272 47.4472 163.441 47.3144 163.576 47.1493L164.232 47.7546C164.021 48.0091 163.753 48.2093 163.449 48.3383C163.087 48.4863 162.698 48.5548 162.308 48.5392C161.918 48.5236 161.535 48.4241 161.187 48.2476L161.19 48.2367Z" fill="white"/>
<path d="M168.92 48.4542V45.8116L167.618 47.9866H167.165L165.868 45.8624V48.4542H164.893V44.0391H165.737L167.39 46.7831L169.018 44.0391H169.862V48.4542H168.92Z" fill="white"/>
<path d="M174.397 47.635V48.4542H170.979V44.0391H174.317V44.8583H171.997V45.8189H174.045V46.6127H171.997V47.635H174.397Z" fill="white"/>
<path d="M179.272 44.0391V48.4542H178.249V46.6417H176.241V48.4542H175.223V44.0391H176.241V45.779H178.249V44.0391H179.272Z" fill="white"/>
<path d="M181.24 48.233C180.883 48.0464 180.584 47.764 180.378 47.4174C180.218 47.1557 180.114 46.8642 180.071 46.5608C180.028 46.2574 180.048 45.9484 180.128 45.6528C180.209 45.3572 180.349 45.0812 180.541 44.8418C180.732 44.6023 180.97 44.4044 181.24 44.2601C181.623 44.0601 182.049 43.958 182.48 43.9629C182.91 43.957 183.335 44.0592 183.716 44.2601C184.072 44.4508 184.371 44.7322 184.582 45.0757C184.742 45.3375 184.847 45.6292 184.89 45.9329C184.932 46.2366 184.913 46.5458 184.832 46.8416C184.75 47.1373 184.61 47.4134 184.418 47.6527C184.226 47.892 183.987 48.0894 183.716 48.233C183.336 48.4354 182.911 48.5376 182.48 48.5302C182.048 48.5368 181.622 48.4346 181.24 48.233ZM183.187 47.479C183.396 47.3616 183.568 47.1884 183.683 46.9788C183.804 46.7564 183.865 46.5067 183.861 46.2538C183.864 46.001 183.803 45.7515 183.683 45.5288C183.568 45.3192 183.396 45.146 183.187 45.0286C182.97 44.9096 182.727 44.8472 182.48 44.8472C182.233 44.8472 181.99 44.9096 181.773 45.0286C181.565 45.1463 181.395 45.3195 181.28 45.5288C181.159 45.7512 181.097 46.0007 181.099 46.2538C181.096 46.507 181.158 46.7567 181.28 46.9788C181.395 47.1881 181.565 47.3613 181.773 47.479C181.99 47.598 182.233 47.6604 182.48 47.6604C182.727 47.6604 182.97 47.598 183.187 47.479Z" fill="white"/>
<path d="M189.359 46.5439C189.507 46.7341 189.584 46.97 189.577 47.2109C189.583 47.3886 189.546 47.5651 189.468 47.725C189.39 47.8848 189.274 48.0232 189.131 48.128C188.752 48.3682 188.306 48.4824 187.859 48.4542H185.684V44.0391H187.728C188.149 44.0157 188.567 44.1193 188.928 44.3364C189.066 44.4285 189.178 44.5546 189.253 44.7026C189.327 44.8505 189.363 45.0153 189.356 45.181C189.36 45.3851 189.303 45.5858 189.192 45.7573C189.077 45.928 188.918 46.0645 188.732 46.1524C188.978 46.2125 189.197 46.3497 189.359 46.5439ZM186.699 45.8697H187.652C187.831 45.882 188.008 45.8334 188.156 45.732C188.21 45.6808 188.254 45.619 188.283 45.5504C188.313 45.4818 188.328 45.4079 188.328 45.3332C188.328 45.2585 188.313 45.1846 188.283 45.116C188.254 45.0474 188.21 44.9857 188.156 44.9345C188.009 44.8341 187.833 44.7856 187.656 44.7967H186.702L186.699 45.8697ZM188.54 47.1312C188.54 46.7687 188.301 46.5802 187.815 46.5802H186.691V47.6966H187.815C188.298 47.6966 188.54 47.5069 188.54 47.1275V47.1312Z" fill="white"/>
<path d="M90.3501 13.4341C90.5944 13.7247 90.7234 14.095 90.7126 14.4745C90.7238 14.7541 90.663 15.032 90.5361 15.2814C90.4091 15.5308 90.2203 15.7435 89.9876 15.899C89.3476 16.2771 88.6091 16.4551 87.8671 16.4102H84.2422V9.52287H87.6713C88.3689 9.48364 89.0631 9.64461 89.6723 9.98685C89.9004 10.1206 90.0882 10.3134 90.2158 10.545C90.3434 10.7766 90.4061 11.0384 90.3972 11.3027C90.4018 11.6238 90.3054 11.9383 90.1217 12.2017C89.9248 12.4707 89.6594 12.6822 89.3533 12.8143C89.74 12.9166 90.0873 13.1325 90.3501 13.4341ZM85.906 12.3829H87.4973C87.7929 12.4039 88.0874 12.3302 88.3383 12.1727C88.4285 12.0961 88.5009 12.0008 88.5506 11.8935C88.6002 11.7861 88.6259 11.6693 88.6259 11.551C88.6259 11.4327 88.6002 11.3158 88.5506 11.2085C88.5009 11.1012 88.4285 11.0059 88.3383 10.9293C88.0895 10.7695 87.7961 10.6933 87.501 10.7118H85.906V12.3829ZM88.9799 14.3476C88.9799 13.7785 88.5812 13.4921 87.7801 13.4921H85.906V15.2284H87.7801C88.5812 15.2284 88.9799 14.9348 88.9799 14.3476Z" fill="white"/>
<path d="M93.4813 16.0695C92.8966 15.7877 92.4011 15.3499 92.0495 14.8044C91.7082 14.2541 91.5273 13.6195 91.5273 12.972C91.5273 12.3245 91.7082 11.6899 92.0495 11.1396C92.4011 10.5941 92.8966 10.1563 93.4813 9.87453C94.1172 9.56314 94.8178 9.40662 95.5258 9.4178C96.118 9.40946 96.7063 9.51532 97.2584 9.72955C97.7564 9.9271 98.2018 10.2373 98.5598 10.6358L97.4723 11.5782C97.2394 11.3191 96.9534 11.1131 96.6338 10.9742C96.3142 10.8354 95.9684 10.7669 95.62 10.7735C95.1961 10.7648 94.7765 10.8606 94.3984 11.0526C94.0509 11.2276 93.7605 11.4979 93.5611 11.832C93.3637 12.1795 93.26 12.5724 93.26 12.972C93.26 13.3717 93.3637 13.7645 93.5611 14.112C93.7605 14.4461 94.0509 14.7164 94.3984 14.8914C94.7765 15.0834 95.1961 15.1792 95.62 15.1705C95.9684 15.1759 96.3138 15.1062 96.6329 14.9661C96.9519 14.826 97.237 14.6187 97.4687 14.3585L98.5562 15.301C98.1989 15.7037 97.7519 16.0166 97.2512 16.2145C96.6963 16.428 96.1058 16.5339 95.5112 16.5262C94.8081 16.536 94.1125 16.3795 93.4813 16.0695Z" fill="white"/>
<path d="M105.38 15.1343V16.4102H99.6777V9.52295H105.246V10.7989H101.371V12.2924H104.792V13.5321H101.371V15.1234L105.38 15.1343Z" fill="white"/>
<path d="M111.64 9.83818C112.085 10.0152 112.47 10.3158 112.749 10.7045C113.005 11.0985 113.141 11.558 113.141 12.0276C113.141 12.4972 113.005 12.9567 112.749 13.3507C112.471 13.7402 112.086 14.0401 111.64 14.2134C111.099 14.4243 110.521 14.5266 109.94 14.5143H108.454V16.4101H106.75V9.52282H109.94C110.522 9.51312 111.1 9.62036 111.64 9.83818ZM111.013 12.9084C111.138 12.7976 111.238 12.6614 111.307 12.5089C111.375 12.3565 111.411 12.1912 111.411 12.024C111.411 11.8568 111.375 11.6915 111.307 11.539C111.238 11.3866 111.138 11.2504 111.013 11.1395C110.668 10.9114 110.258 10.8031 109.846 10.8314H108.454V13.2166H109.846C110.258 13.2449 110.668 13.1366 111.013 12.9084Z" fill="white"/>
<path d="M115.808 16.0658C115.217 15.7826 114.716 15.3425 114.358 14.7935C114.021 14.2492 113.842 13.6215 113.842 12.9811C113.842 12.3407 114.021 11.7129 114.358 11.1686C114.716 10.6196 115.217 10.1795 115.808 9.89629C116.454 9.59301 117.159 9.43579 117.872 9.43579C118.586 9.43579 119.291 9.59301 119.937 9.89629C120.526 10.1817 121.027 10.6213 121.387 11.1686C121.729 11.7113 121.91 12.3397 121.91 12.9811C121.91 13.6225 121.729 14.2508 121.387 14.7935C121.027 15.3408 120.526 15.7805 119.937 16.0658C119.291 16.3691 118.586 16.5263 117.872 16.5263C117.159 16.5263 116.454 16.3691 115.808 16.0658ZM119.07 14.8914C119.412 14.7121 119.698 14.4425 119.897 14.112C120.092 13.7637 120.194 13.3712 120.194 12.972C120.194 12.5728 120.092 12.1803 119.897 11.832C119.698 11.5015 119.412 11.232 119.07 11.0526C118.704 10.869 118.3 10.7733 117.89 10.7733C117.481 10.7733 117.077 10.869 116.711 11.0526C116.368 11.2299 116.081 11.5 115.884 11.832C115.687 12.1795 115.583 12.5724 115.583 12.972C115.583 13.3717 115.687 13.7645 115.884 14.112C116.081 14.4441 116.368 14.7141 116.711 14.8914C117.077 15.0751 117.481 15.1707 117.89 15.1707C118.3 15.1707 118.704 15.0751 119.07 14.8914Z" fill="white"/>
<path d="M124.656 16.0695C124.065 15.7894 123.563 15.3516 123.206 14.8044C122.864 14.2541 122.684 13.6195 122.684 12.972C122.684 12.3245 122.864 11.6899 123.206 11.1396C123.563 10.5924 124.065 10.1546 124.656 9.87454C125.293 9.5631 125.995 9.4066 126.704 9.4178C127.295 9.40975 127.882 9.5156 128.433 9.72955C128.931 9.92616 129.377 10.2365 129.734 10.6358L128.647 11.5782C128.414 11.3191 128.128 11.1131 127.808 10.9742C127.489 10.8354 127.143 10.7669 126.794 10.7735C126.37 10.7648 125.951 10.8606 125.573 11.0526C125.225 11.2276 124.935 11.4979 124.735 11.832C124.538 12.1795 124.434 12.5724 124.434 12.972C124.434 13.3717 124.538 13.7645 124.735 14.112C124.935 14.4461 125.225 14.7164 125.573 14.8914C125.951 15.0834 126.37 15.1792 126.794 15.1705C127.143 15.1759 127.488 15.1062 127.807 14.9661C128.126 14.826 128.411 14.6187 128.643 14.3585L129.731 15.301C129.373 15.7037 128.926 16.0166 128.426 16.2145C127.872 16.428 127.283 16.5338 126.689 16.5262C125.985 16.5361 125.288 16.3796 124.656 16.0695Z" fill="white"/>
<path d="M132.134 16.0695C131.543 15.7905 131.041 15.3525 130.684 14.8044C130.343 14.2541 130.162 13.6195 130.162 12.972C130.162 12.3245 130.343 11.6899 130.684 11.1396C131.041 10.5916 131.543 10.1535 132.134 9.87453C132.77 9.56314 133.471 9.40662 134.179 9.4178C134.771 9.40946 135.359 9.51532 135.911 9.72955C136.409 9.9271 136.855 10.2373 137.213 10.6358L136.125 11.5782C135.892 11.3191 135.606 11.1131 135.287 10.9742C134.967 10.8354 134.621 10.7669 134.273 10.7735C133.849 10.7648 133.429 10.8606 133.051 11.0526C132.704 11.2276 132.413 11.4979 132.214 11.832C132.017 12.1795 131.913 12.5724 131.913 12.972C131.913 13.3717 132.017 13.7645 132.214 14.112C132.413 14.4461 132.704 14.7164 133.051 14.8914C133.429 15.0834 133.849 15.1792 134.273 15.1705C134.622 15.1764 134.968 15.107 135.288 14.9668C135.607 14.8267 135.893 14.6192 136.125 14.3585L137.213 15.301C136.855 15.7037 136.408 16.0166 135.908 16.2145C135.353 16.428 134.762 16.5339 134.168 16.5262C133.463 16.5366 132.767 16.3801 132.134 16.0695Z" fill="white"/>
<path d="M138.318 9.53369H140.011V14.0141L143.527 9.53369H145.126V16.421H143.444V11.9406L139.928 16.4101H138.318V9.53369Z" fill="white"/>
<path d="M146.949 9.53375H148.642V14.0141L152.158 9.53375H153.76V16.421H152.075V11.9407L148.559 16.4102H146.949V9.53375ZM148.305 7.59082H149.476C149.476 8.0693 149.78 8.3158 150.349 8.3158C150.578 8.33052 150.804 8.26655 150.991 8.13455C151.066 8.0673 151.126 7.98448 151.166 7.89185C151.206 7.79921 151.225 7.69897 151.223 7.59808H152.39C152.4 7.81225 152.358 8.02558 152.268 8.22037C152.179 8.41517 152.044 8.58581 151.875 8.71815C151.42 9.00346 150.886 9.13675 150.349 9.09878C149.001 9.09395 148.319 8.59129 148.305 7.59082Z" fill="white"/>
<path d="M157.024 16.0694C156.441 15.7856 155.946 15.3482 155.592 14.8043C155.251 14.2541 155.07 13.6194 155.07 12.9719C155.07 12.3244 155.251 11.6898 155.592 11.1395C155.946 10.5956 156.441 10.1582 157.024 9.87444C157.668 9.56396 158.376 9.41113 159.09 9.42859C159.683 9.42088 160.271 9.5267 160.823 9.74032C161.32 9.93789 161.764 10.2481 162.121 10.6465L161.033 11.589C160.801 11.3297 160.515 11.1235 160.195 10.9847C159.875 10.8458 159.53 10.7774 159.181 10.7843C158.757 10.7756 158.338 10.8714 157.96 11.0634C157.613 11.2403 157.323 11.5102 157.122 11.8428C156.927 12.1911 156.825 12.5836 156.825 12.9828C156.825 13.382 156.927 13.7745 157.122 14.1228C157.323 14.4554 157.613 14.7252 157.96 14.9022C158.338 15.0941 158.757 15.19 159.181 15.1813C159.53 15.1877 159.876 15.1185 160.196 14.9783C160.516 14.8381 160.802 14.6304 161.033 14.3693L162.121 15.3118C161.764 15.7145 161.317 16.0274 160.816 16.2252C160.262 16.4388 159.673 16.5446 159.08 16.537C158.367 16.5469 157.662 16.3866 157.024 16.0694Z" fill="white"/>
<path d="M166.065 13.6408H164.894V16.4102H163.201V9.52295H164.894V12.3286H166.116L168.051 9.54833H169.864L167.431 12.8542L169.914 16.4102H167.979L166.065 13.6408Z" fill="white"/>
<path d="M175.549 14.9349H172.142L171.489 16.4102H169.742L173.026 9.52295H174.679L177.974 16.4102H176.202L175.549 14.9349ZM175.009 13.7278L173.842 11.0961L172.675 13.7278H175.009Z" fill="white"/>
<path d="M184.467 9.53369V16.421H182.781V14.6085H181.226L179.921 16.421H178.109L179.646 14.3475C179.179 14.1939 178.775 13.8919 178.495 13.4875C178.216 13.0831 178.076 12.5985 178.098 12.1074C178.086 11.6219 178.221 11.1442 178.486 10.7372C178.763 10.3447 179.147 10.0393 179.591 9.85631C180.126 9.63836 180.7 9.53227 181.277 9.54458L184.467 9.53369ZM180.218 11.1468C180.087 11.262 179.984 11.406 179.917 11.5676C179.851 11.7292 179.822 11.904 179.834 12.0784C179.823 12.2496 179.85 12.4212 179.912 12.581C179.975 12.7408 180.072 12.8848 180.197 13.0027C180.508 13.239 180.894 13.3537 181.284 13.3253H182.778V10.8314H181.328C180.931 10.8048 180.538 10.9162 180.215 11.1468H180.218Z" fill="white"/>
<path d="M87.2076 30.6561C86.3218 30.2299 85.5696 29.5692 85.0326 28.7458C84.5185 27.9149 84.2461 26.9571 84.2461 25.98C84.2461 25.0029 84.5185 24.0452 85.0326 23.2143C85.5694 22.3897 86.3215 21.7278 87.2076 21.3003C88.1688 20.8319 89.2268 20.5959 90.296 20.6116C91.1897 20.5988 92.0774 20.76 92.9095 21.0864C93.6608 21.3831 94.3332 21.8496 94.8742 22.4494L93.2213 23.874C92.8697 23.4818 92.4378 23.17 91.9549 22.9598C91.472 22.7496 90.9494 22.646 90.4228 22.656C89.7836 22.6446 89.1513 22.7902 88.5814 23.0801C88.0581 23.3472 87.6199 23.7552 87.3163 24.2582C87.0193 24.7828 86.8632 25.3754 86.8632 25.9782C86.8632 26.5811 87.0193 27.1736 87.3163 27.6982C87.6188 28.2021 88.0573 28.6104 88.5814 28.8763C89.1513 29.1662 89.7836 29.3118 90.4228 29.3004C90.9509 29.3113 91.475 29.2066 91.9584 28.9937C92.4418 28.7808 92.8728 28.4649 93.2213 28.068L94.8742 29.4925C94.3348 30.1018 93.6592 30.575 92.9023 30.8736C92.0672 31.198 91.1773 31.358 90.2815 31.3449C89.2168 31.3615 88.1634 31.1255 87.2076 30.6561Z" fill="white"/>
<path d="M106.68 20.7891V31.178H104.121V22.7465H99.1002V31.178H96.541V20.7891H106.68Z" fill="white"/>
<path d="M116.964 28.9449H111.799L110.813 31.1778H108.174L113.133 20.7998H115.67L120.669 31.1778H117.965L116.964 28.9449ZM116.152 27.1325L114.387 23.1451L112.625 27.1325H116.152Z" fill="white"/>
<path d="M129.492 21.2493C130.167 21.5117 130.75 21.9653 131.17 22.5543C131.552 23.1491 131.755 23.8411 131.755 24.548C131.755 25.2548 131.552 25.9468 131.17 26.5417C130.752 27.1326 130.168 27.5866 129.492 27.8466C128.675 28.165 127.803 28.319 126.926 28.2997H124.686V31.1779H122.119V20.789H126.933C127.808 20.7711 128.678 20.9276 129.492 21.2493ZM128.55 25.8819C128.739 25.7149 128.89 25.5096 128.994 25.2796C129.098 25.0496 129.151 24.8003 129.151 24.548C129.151 24.2957 129.098 24.0463 128.994 23.8163C128.89 23.5863 128.739 23.381 128.55 23.214C128.028 22.8689 127.408 22.7046 126.784 22.7464H124.686V26.3495H126.784C127.408 26.3913 128.028 26.227 128.55 25.8819Z" fill="white"/>
<path d="M141.643 22.7465H138.069V31.178H135.532V22.7465H131.99V20.7891H141.636L141.643 22.7465Z" fill="white"/>
<path d="M150.222 28.9451H145.057L144.074 31.178H141.436L146.405 20.7891H148.943L153.909 31.178H151.208L150.222 28.9451ZM149.414 27.1326L147.649 23.1452L145.883 27.1326H149.414Z" fill="white"/>
<path d="M159.681 26.9876H157.901V31.178H155.342V20.7891H157.901V24.9867H159.742L162.668 20.7891H165.386L161.761 25.8023L165.495 31.178H162.573L159.681 26.9876Z" fill="white"/>
<path d="M166.705 20.7891H169.242V27.5531L174.549 20.7927H176.967V31.178H174.43V24.4212L169.119 31.178H166.705V20.7891Z" fill="white"/>
<path d="M187.252 28.9449H182.086L181.1 31.1778H178.465L183.42 20.7998H185.957L190.938 31.1778H188.238L187.252 28.9449ZM186.44 27.1325L184.678 23.1451L182.913 27.1325H186.44Z" fill="white"/>
<path d="M203.968 29.2096V33.3166H201.583V31.1779H193.735V33.3275H191.354V29.2205H191.799C192.466 29.2012 192.938 28.7469 193.213 27.8576C193.539 26.6135 193.711 25.3339 193.724 24.0478L193.851 20.7854H202.399V29.206L203.968 29.2096ZM195.671 27.3645C195.575 28.036 195.308 28.6715 194.895 29.2096H199.868V22.7465H196.066L196.015 24.258C195.982 25.3009 195.867 26.3396 195.671 27.3645Z" fill="white"/>
<path d="M213.314 28.9451H208.148L207.162 31.1671H204.523L209.479 20.7891H212.016L217 31.178H214.296L213.314 28.9451ZM212.502 27.1326L210.736 23.1452L208.975 27.1326H212.502Z" fill="white"/>
<path d="M93.1983 62.5078V64.5522H85.0134V62.9247L89.1892 58.9808C89.5449 58.6685 89.8484 58.3014 90.0882 57.8933C90.2372 57.6143 90.3168 57.3034 90.3202 56.9871C90.3314 56.7977 90.297 56.6084 90.2201 56.435C90.1432 56.2616 90.0258 56.1091 89.878 55.9903C89.5005 55.7284 89.0461 55.6007 88.5875 55.6278C88.1448 55.6209 87.7062 55.7138 87.3043 55.8996C86.9185 56.0815 86.5873 56.3615 86.3437 56.7116L84.5312 55.5335C84.9709 54.8927 85.5759 54.3828 86.2821 54.0582C87.0773 53.6927 87.9444 53.5106 88.8195 53.5254C89.5433 53.51 90.2625 53.6433 90.9328 53.9168C91.4968 54.1501 91.9841 54.5369 92.3392 55.0333C92.6791 55.5315 92.8553 56.1232 92.8431 56.7261C92.8504 57.2987 92.7264 57.8654 92.4806 58.3827C92.1083 59.0531 91.6169 59.6501 91.0307 60.1444L88.5404 62.4969L93.1983 62.5078Z" fill="white"/>
<path d="M96.4468 64.0701C95.7232 63.6017 95.1514 62.9329 94.8011 62.1453C94.0038 60.2175 94.0038 58.0522 94.8011 56.1244C95.1525 55.3374 95.724 54.6689 96.4468 54.1995C96.9845 53.8511 97.5915 53.6234 98.2258 53.5323C98.86 53.4412 99.5065 53.4888 100.121 53.6718C100.735 53.8548 101.302 54.1688 101.783 54.5922C102.264 55.0157 102.647 55.5384 102.906 56.1244C103.699 58.0531 103.699 60.2166 102.906 62.1453C102.556 62.9339 101.983 63.6029 101.257 64.0701C100.533 64.5065 99.7043 64.7371 98.8592 64.7371C98.0141 64.7371 97.185 64.5065 96.4613 64.0701H96.4468ZM100.402 61.7647C100.779 61.1992 100.967 60.3232 100.967 59.1366C100.967 57.9477 100.779 57.0741 100.402 56.505C100.237 56.2437 100.008 56.0284 99.7374 55.8792C99.4668 55.73 99.1628 55.6518 98.8537 55.6518C98.5447 55.6518 98.2407 55.73 97.97 55.8792C97.6994 56.0284 97.4709 56.2437 97.3059 56.505C96.9434 57.0741 96.7404 57.9549 96.7404 59.1366C96.7404 60.3183 96.9289 61.1992 97.3059 61.7647C97.4709 62.026 97.6994 62.2413 97.97 62.3905C98.2407 62.5397 98.5447 62.6179 98.8537 62.6179C99.1628 62.6179 99.4668 62.5397 99.7374 62.3905C100.008 62.2413 100.237 62.026 100.402 61.7647Z" fill="white"/>
<path d="M112.694 62.5079V64.5523H104.523V62.9247L108.707 58.9808C109.061 58.6687 109.364 58.3015 109.602 57.8934C109.751 57.6143 109.83 57.3035 109.834 56.9872C109.845 56.7981 109.811 56.6092 109.735 56.4359C109.658 56.2626 109.542 56.1099 109.395 55.9903C109.017 55.7279 108.561 55.6002 108.101 55.6278C107.658 55.6209 107.22 55.7138 106.818 55.8997C106.433 56.0836 106.103 56.3632 105.857 56.7117L104.045 55.5336C104.482 54.892 105.086 54.3819 105.792 54.0582C106.587 53.6931 107.455 53.511 108.33 53.5254C109.053 53.5098 109.773 53.643 110.443 53.9169C111.007 54.1501 111.494 54.5369 111.849 55.0333C112.191 55.5304 112.368 56.1229 112.353 56.7262C112.359 57.2986 112.235 57.8649 111.991 58.3827C111.616 59.0515 111.125 59.648 110.541 60.1444L108.05 62.497L112.694 62.5079Z" fill="white"/>
<path d="M121.841 62.5079V64.5523H113.656V62.9247L117.832 58.9808C118.186 58.6676 118.49 58.3006 118.731 57.8934C118.878 57.6137 118.958 57.3033 118.963 56.9872C118.973 56.7979 118.938 56.6089 118.861 56.4356C118.785 56.2623 118.668 56.1097 118.521 55.9903C118.143 55.7284 117.689 55.6008 117.23 55.6278C116.786 55.6213 116.347 55.7142 115.943 55.8997C115.559 56.0827 115.229 56.3625 114.986 56.7117L113.174 55.5336C113.613 54.8936 114.217 54.3839 114.921 54.0583C115.716 53.6933 116.583 53.5113 117.458 53.5254C118.181 53.5098 118.899 53.643 119.568 53.9169C120.133 54.1496 120.622 54.5364 120.978 55.0333C121.317 55.5319 121.492 56.1236 121.478 56.7262C121.484 57.2986 121.36 57.865 121.116 58.3827C120.742 59.0523 120.251 59.649 119.666 60.1444L117.176 62.497L121.841 62.5079Z" fill="white"/>
</g>
<defs>
<radialGradient id="paint0_radial_795_22088" cx="0" cy="0" r="1" gradientUnits="userSpaceOnUse" gradientTransform="translate(39.585 34.6217) scale(31.2791 31.2791)">
<stop stop-color="#D9151C"/>
<stop offset="0.74" stop-color="#DA191B"/>
</radialGradient>
<linearGradient id="paint1_linear_795_22088" x1="7.39453" y1="35.2269" x2="61.0609" y2="35.2269" gradientUnits="userSpaceOnUse">
<stop stop-color="#357EC0"/>
<stop offset="0.35" stop-color="#347BBD"/>
<stop offset="0.66" stop-color="#3070B4"/>
<stop offset="0.94" stop-color="#2A5FA6"/>
<stop offset="1" stop-color="#285AA2"/>
</linearGradient>
<clipPath id="clip0_795_22088">
<rect width="217" height="69.9602" fill="white" transform="translate(0 0.000244141)"/>
</clipPath>
</defs>
</svg>
